<svg width="21" height="21" viewBox="0 0 21 21" fill="none" xmlns="http://www.w3.org/2000/svg">
<path d="M20.3959 16.4451C19.5925 15.6417 17.6632 14.4338 16.7122 13.9802C15.6082 13.45 15.2037 13.4609 14.4221 14.0239C13.7718 14.4939 13.3509 14.9312 12.6021 14.7672C11.8534 14.6087 10.3777 13.4883 8.94573 12.0618C7.51377 10.6298 6.39882 9.15413 6.24032 8.40536C6.08182 7.65112 6.51906 7.23575 6.98362 6.58535C7.54657 5.80379 7.56296 5.39934 7.02735 4.29531C6.57371 3.33885 5.3713 1.415 4.56241 0.611576C3.75899 -0.19185 3.57863 -0.016955 3.13592 0.141544C3.13592 0.141544 2.48006 0.403888 1.82967 0.835661C1.02624 1.37128 0.578073 1.81945 0.261075 2.4917C-0.050458 3.16396 -0.41118 4.41556 1.42522 7.68392C2.90637 10.3237 4.36019 12.3241 6.51906 14.4775C6.51906 14.4775 6.51906 14.4775 6.52452 14.483C6.52452 14.483 6.52452 14.483 6.52999 14.4884C8.68885 16.6473 10.6838 18.1011 13.3236 19.5823C16.5919 21.4187 17.8435 21.058 18.5158 20.7464C19.1881 20.4349 19.6362 19.9867 20.1718 19.1778C20.6036 18.5274 20.866 17.8716 20.866 17.8716C21.0245 17.4289 21.2048 17.2485 20.3959 16.4451Z" fill="#A5ADB8"/>
</svg>
