<svg width="458" height="458" viewBox="0 0 458 458" fill="none" xmlns="http://www.w3.org/2000/svg">
<path d="M450.099 84.3697C449.032 78.8748 441.229 65.8621 436.349 63.1203C431.469 60.3771 416.098 57.8865 413.258 55.3116C406.475 49.1604 402.652 36.7141 411.8 36.3461C420.369 35.9994 427.463 28.339 427.787 25.215C428.111 22.0909 430.84 14.3392 413.258 0.0483398C418.188 11.4648 419.285 18.9839 416.156 26.2349C413.027 33.4873 391.459 35.6856 395.379 42.5428C397.168 45.674 395.723 60.6111 398.314 63.1203C405.818 70.3884 421.395 74.6637 421.347 77.7008C421.3 80.7364 417.433 94.4053 412.009 94.6035C406.586 94.8033 402.636 91.0615 402.088 87.9745C401.54 84.889 402.741 80.0502 408.05 78.9204C403.603 72.5539 390.252 76.7664 389.13 80.2186C388.007 83.6707 388.91 97.8645 394.837 102.882C400.764 107.899 407.345 106.301 415.074 107.06C422.688 107.807 426.467 113.004 433.235 109.436C440.002 105.867 451.56 91.8789 450.099 84.3697Z" fill="#61376B"/>
<g style="mix-blend-mode:multiply" opacity="0.48">
<path d="M450.099 84.3693C449.032 78.8744 441.229 65.8617 436.349 63.1199C436.042 62.9473 435.693 62.7747 435.309 62.605C435.536 63.8803 436.189 65.1057 437.012 66.1299C438.192 67.5963 439.673 68.7961 440.867 70.2497C443.869 73.903 444.818 78.9771 444.018 83.6389C443.217 88.298 440.809 92.5675 437.765 96.188C435.034 99.4376 431.269 102.413 427.034 102.107C431.62 95.8157 433.113 87.375 430.964 79.8929C429.514 83.8843 428.049 87.9071 425.834 91.529C423.618 95.1524 420.573 98.3934 416.697 100.128C409.934 103.154 401.423 100.844 396.473 95.3321C392.326 90.7145 390.646 84.2481 391.279 78.0513C390.161 78.7389 389.365 79.4921 389.13 80.2182C388.007 83.6703 388.91 97.8642 394.837 102.881C400.764 107.898 407.345 106.301 415.074 107.059C422.688 107.807 426.467 113.004 433.235 109.436C440.002 105.867 451.56 91.8785 450.099 84.3693Z" fill="#84529C"/>
<path d="M398.314 63.1203C401.687 66.3857 406.684 69.0433 411.166 71.2601C409.372 69.8007 407.61 68.2972 405.923 66.7137C403.703 64.6325 401.493 62.3016 400.734 59.353C399.797 55.7196 401.238 51.8124 400.423 48.1491C400.071 46.5685 399.313 45.1077 398.873 43.55C398.432 41.9922 398.353 40.202 399.271 38.8682C400.496 37.085 402.935 36.7755 404.987 36.0879C407.796 35.1464 410.253 33.1949 411.808 30.6743C411.883 30.5544 411.938 30.4175 412.007 30.2905C404.924 34.6357 392.299 37.1549 395.379 42.5429C397.168 45.6741 395.723 60.6111 398.314 63.1203Z" fill="#84529C"/>
</g>
<path d="M17.4024 194.099C18.3567 189.245 25.3267 177.748 29.6861 175.326C34.0456 172.904 44.0654 169.741 46.6032 167.466C52.6616 162.032 56.1038 152.958 47.9313 152.632C40.2766 152.328 37.6247 144.6 37.3337 141.84C37.0441 139.08 34.8701 128.606 50.3136 119.608C45.9099 129.692 44.9285 136.335 47.7244 142.742C50.5204 149.148 69.7869 151.09 66.2848 157.147C64.6857 159.914 65.9767 173.109 63.6629 175.326C59.1594 179.64 51.402 182.76 46.8072 185.158C44.5618 186.329 44.7516 191.382 44.7644 192.262C44.8072 194.945 46.5832 202.965 51.4277 203.14C56.2735 203.317 59.8013 200.012 60.2906 197.285C60.7799 194.558 59.7071 190.283 54.9654 189.286C58.9383 183.661 70.8654 187.382 71.8682 190.432C72.8711 193.481 72.0636 206.021 66.7684 210.454C61.4746 214.886 55.5945 213.474 48.6902 214.145C41.8885 214.805 38.5134 219.397 32.4664 216.244C26.4208 213.09 16.0971 200.734 17.4024 194.099Z" fill="#61376B"/>
<g style="mix-blend-mode:multiply" opacity="0.48">
<path d="M17.4024 194.099C18.3567 189.245 25.3267 177.748 29.6861 175.326C29.96 175.174 30.271 175.022 30.6148 174.873C30.4122 175.998 29.8288 177.081 29.0927 177.987C28.0399 179.282 26.7161 180.342 25.6491 181.626C22.9672 184.852 22.1185 189.336 22.8346 193.454C23.5492 197.571 25.7005 201.343 28.4194 204.54C30.8602 207.411 34.2239 210.04 38.007 209.769C33.9101 204.212 32.5763 196.755 34.4964 190.145C35.7916 193.671 37.0998 197.225 39.0783 200.426C41.0569 203.625 43.7787 206.488 47.2408 208.021C53.2821 210.695 60.8855 208.654 65.3077 203.785C69.0123 199.705 70.513 193.994 69.9467 188.519C70.9467 189.125 71.6571 189.791 71.8682 190.432C72.8711 193.481 72.0636 206.021 66.7684 210.454C61.4746 214.886 55.5945 213.474 48.6902 214.145C41.8885 214.805 38.5134 219.397 32.4664 216.244C26.4208 213.09 16.0971 200.734 17.4024 194.099Z" fill="#84529C"/>
<path d="M63.6628 175.326C60.65 178.212 56.185 180.56 52.1822 182.519C53.7856 181.229 55.3576 179.901 56.8655 178.503C58.8497 176.663 60.8226 174.603 61.5002 172C62.3376 168.788 61.0508 165.336 61.7784 162.101C62.0936 160.704 62.7698 159.415 63.1635 158.038C63.5573 156.662 63.6286 155.08 62.8083 153.901C61.7142 152.326 59.5345 152.054 57.7014 151.446C55.1922 150.613 52.9968 148.89 51.6087 146.663C51.5417 146.558 51.4918 146.436 51.4304 146.324C57.7585 150.162 69.0351 152.388 66.2848 157.147C64.6856 159.914 65.9766 173.109 63.6628 175.326Z" fill="#84529C"/>
</g>
<path d="M13.9005 403.082C13.9005 403.082 14.471 399.982 13.4653 398.26" stroke="#268E26" stroke-width="0.629364" stroke-linecap="round" stroke-linejoin="round"/>
<path d="M13.0044 403.424C13.0044 403.424 12.518 399.698 10.4438 399.304" stroke="white" stroke-width="0.629364" stroke-linecap="round" stroke-linejoin="round"/>
<path d="M11.909 403.526C11.909 403.526 10.8791 400.382 8.79492 400.643" stroke="#0032D0" stroke-width="0.629364" stroke-linecap="round" stroke-linejoin="round"/>
<path d="M15.3712 403.684C15.3712 403.684 15.0346 399.728 17.0802 398.57" stroke="#D30000" stroke-width="0.629364" stroke-linecap="round" stroke-linejoin="round"/>
<path d="M16.3026 401.713L10.7534 403.043C10.9688 403.943 16.2341 425.178 35.0156 435.557C47.3393 442.366 62.4333 442.826 79.8795 436.921C131.962 419.295 196.004 433.726 196.644 433.874L197.928 428.314C195.248 427.695 131.696 413.362 78.0507 431.516C62.2079 436.877 48.6745 436.566 37.8216 430.589C21.2497 421.461 16.3496 401.909 16.3026 401.713Z" fill="#2B232D"/>
<path d="M10.7534 403.043C10.7534 403.043 10.7577 402.391 10.0444 401.856C11.5009 402.153 11.5309 402.449 11.5309 402.449L12.1015 400.671L12.6963 402.076C12.6963 402.076 13.9032 400.06 15.0672 399.716C14.9189 400.251 15.0672 401.499 15.0672 401.499L17.08 399.925C17.08 399.925 16.2598 400.352 16.3026 401.713C16.3454 403.074 15.722 403.758 15.3496 403.877C14.9774 403.996 12.7191 404.293 12.5708 404.263C12.4225 404.234 10.7534 403.043 10.7534 403.043Z" fill="#2B232D"/>
<g style="mix-blend-mode:multiply" opacity="0.5">
<path d="M81.3589 435.435C63.9126 441.341 48.8201 440.885 36.495 434.066C21.4452 425.749 15.0687 410.443 13.0288 404.237C12.8148 403.581 12.6436 403.039 12.5295 402.611C12.3583 402.026 12.2727 401.655 12.2442 401.556C12.2442 401.556 12.2442 401.256 12.0302 400.914L11.5309 402.454C11.5309 402.454 11.5167 402.369 11.3027 402.255C11.1172 402.14 10.7464 401.998 10.0474 401.855C10.7321 402.383 10.7464 402.996 10.7464 403.039C10.9746 403.938 16.2384 425.179 35.0114 435.564C47.3365 442.368 62.429 442.825 79.8753 436.919C131.957 419.301 196.008 433.723 196.65 433.88L197.049 432.154C188.405 430.343 129.718 419.059 81.3589 435.435Z" fill="#140716"/>
</g>
<path d="M1.09888 389.583C1.09888 389.583 4.66519 390.415 7.27997 394.576" stroke="white" stroke-width="0.629364" stroke-linecap="round" stroke-linejoin="round"/>
<path d="M8.52808 386.135C8.52808 386.135 8.52808 391.663 10.0445 394.041" stroke="white" stroke-width="0.629364" stroke-linecap="round" stroke-linejoin="round"/>
<path d="M16.4196 386.404C16.4196 386.404 12.9332 389.97 13.0045 393.847" stroke="white" stroke-width="0.629364" stroke-linecap="round" stroke-linejoin="round"/>
<path d="M374.244 436.676L374.174 430.97C412.026 430.516 439.136 419.884 448.559 401.802C454.126 391.114 452.817 378.381 444.968 366.862C426.525 339.801 382.217 363.644 381.772 363.888L379.03 358.885C381.034 357.788 428.362 332.356 449.683 363.65C458.754 376.959 460.189 391.826 453.62 404.436C447.493 416.195 429.034 436.02 374.244 436.676Z" fill="#2B232D"/>
<g style="mix-blend-mode:multiply" opacity="0.5">
<path d="M450.506 409.419C442.032 421.06 421.861 436.11 374.244 436.68L374.173 430.974C374.743 430.974 375.314 430.96 375.87 430.946L375.913 434.54C420.649 433.998 441.162 420.689 450.506 409.419Z" fill="#140716"/>
<path d="M381.776 363.885L379.023 358.878C379.251 358.764 380.021 358.35 381.248 357.751L383.431 361.745C383.887 361.502 428.195 337.665 446.626 364.726C454.486 376.238 455.784 388.977 450.22 399.662C449.051 401.901 447.61 404.041 445.912 406.053C446.911 404.683 447.781 403.271 448.551 401.801C454.129 391.117 452.817 378.378 444.971 366.866C426.526 339.805 382.218 363.642 381.776 363.885Z" fill="#140716"/>
</g>
<path d="M315.781 297.479C312.529 311.987 293.413 316.68 237.808 315.839C182.217 316.68 163.087 311.987 159.849 297.479C156.625 278.806 164.499 258.108 176.881 235.312C180.647 228.379 183.572 221.232 185.84 214.428C187.623 209.05 189.021 203.886 190.062 199.235C190.733 196.382 191.246 193.715 191.689 191.304C191.974 189.621 192.231 188.08 192.445 186.682V186.668C192.502 186.354 192.544 186.054 192.573 185.741C192.687 185.042 192.773 184.371 192.858 183.758C192.93 183.13 193.001 182.559 193.058 182.046C193.358 179.521 193.443 178.08 193.443 178.08L199.863 177.866L202.73 177.752L209.249 177.524L231.888 176.711C231.888 176.44 231.874 176.283 231.874 176.283L237.808 176.511L243.742 176.283C243.742 176.283 243.728 176.44 243.728 176.711L276.652 177.895L280.66 178.037H280.675L282.173 178.08C282.173 178.08 282.187 178.394 282.244 178.936V178.965C282.272 179.236 282.301 179.592 282.329 180.006C282.401 180.79 282.501 181.818 282.643 183.073C282.7 183.572 282.757 184.114 282.829 184.699C283.028 186.439 283.285 188.479 283.613 190.776V190.79C283.727 191.546 283.842 192.345 283.97 193.158C284.227 194.856 284.526 196.668 284.869 198.593C285.667 203.173 286.695 208.337 287.993 213.871C288.05 214.043 288.093 214.242 288.135 214.428C288.378 215.455 288.635 216.496 288.906 217.552C290.332 223.201 292.058 229.206 294.112 235.312C301.388 256.924 318.877 279.562 315.781 297.479Z" fill="#61376B"/>
<path d="M156.627 105.275C154.168 99.1385 153.445 92.1171 152.351 81.3512C150.732 65.4356 149.943 52.2375 149.215 44.0963C148.281 33.64 154.011 35.6984 158.11 37.3717C165.441 40.366 175.816 47.3973 181.087 51.1961C189.305 57.1176 202.195 73.9219 201.854 81.7093C193.696 91.9759 178.972 102.484 156.627 105.275Z" fill="#61376B"/>
<g style="mix-blend-mode:multiply" opacity="0.5">
<path d="M201.854 81.7122C201.454 82.2043 201.048 82.7079 200.623 83.2029C197.895 74.6666 187.524 61.7595 180.529 56.7196C175.262 52.918 164.884 45.8924 157.555 42.8981C154.548 41.6756 150.685 40.2362 149.185 43.6599C148.442 33.7028 154.064 35.7199 158.11 37.3746C165.439 40.3689 175.818 47.3945 181.085 51.1962C189.303 57.1205 202.192 73.9263 201.854 81.7122Z" fill="#61376B"/>
</g>
<path d="M163.68 104.093C161.887 99.361 162.519 93.2056 161.505 84.9946C160.004 72.8535 159.127 62.8009 158.425 56.5926C157.525 48.6213 161.375 50.3402 164.134 51.7226C169.07 54.1947 176.13 59.8194 179.723 62.8479C185.326 67.5711 196.616 81.5167 196.599 87.4254C191.473 95.0087 178.403 102.572 163.68 104.093Z" fill="#A62E3A"/>
<g style="mix-blend-mode:multiply" opacity="0.35">
<path d="M196.497 86.4211C192.716 80.591 187.186 74.2858 183.771 71.4113C180.179 68.38 173.118 62.7609 168.18 60.2888C165.426 58.905 161.575 57.1847 162.473 65.1518C163.171 71.3643 164.048 81.4198 165.552 93.5594C166.027 97.3782 166.142 100.748 166.312 103.743C165.444 103.886 164.562 103.997 163.679 104.09C161.89 99.3625 162.523 93.2071 161.506 84.9903C160.004 72.8507 159.128 62.8037 158.421 56.5927C157.522 48.6242 161.374 50.3374 164.135 51.7197C169.073 54.1918 176.127 59.8209 179.727 62.8508C185.027 67.3229 195.433 80.0674 196.497 86.4211Z" fill="#A62E3A"/>
</g>
<path d="M280.288 71.6797C283.456 84.4869 322.72 107.286 328.213 102.577C332.189 99.1686 332.685 78.7138 332.828 73.5071C333.269 57.5458 331.237 46.4047 332.654 40.4091C334.071 34.4148 329.434 28.6545 319.292 34.9198C309.149 41.1851 291.382 54.6129 280.288 71.6797Z" fill="#3D243E"/>
<path d="M280.288 71.6797C283.456 84.4869 322.72 107.286 328.213 102.577C332.189 99.1686 332.685 78.7138 332.828 73.5071C333.269 57.5458 331.237 46.4047 332.654 40.4091C334.071 34.4148 329.434 28.6545 319.292 34.9198C309.149 41.1851 291.382 54.6129 280.288 71.6797Z" fill="#3D243E"/>
<path d="M280.288 71.6797C283.456 84.4869 322.72 107.286 328.213 102.577C332.189 99.1686 332.685 78.7138 332.828 73.5071C333.269 57.5458 331.237 46.4047 332.654 40.4091C334.071 34.4148 329.434 28.6545 319.292 34.9198C309.149 41.1851 291.382 54.6129 280.288 71.6797Z" fill="#61376B"/>
<g style="mix-blend-mode:multiply" opacity="0.5">
<path d="M328.21 102.573C327.627 103.075 326.672 103.259 325.42 103.178C327.928 96.465 328.293 81.2241 328.426 76.829C328.864 60.8691 326.834 49.7309 328.244 43.7381C329.665 37.7381 325.025 31.9822 314.882 38.2403C312.607 39.6497 309.945 41.4143 307.059 43.5055C311.634 39.9207 315.888 37.0192 319.29 34.9179C329.436 28.6512 334.075 34.4158 332.654 40.4072C331.233 46.4071 333.272 57.5467 332.825 73.5052C332.682 78.7134 332.19 99.1639 328.21 102.573Z" fill="#61376B"/>
</g>
<path d="M284.479 78.6482C286.366 86.2801 312.222 102.967 315.494 100.161C317.864 98.1302 322.566 81.3672 323.725 69.6383C324.66 60.1706 322.777 53.4888 323.621 49.9168C324.464 46.3433 321.703 42.9111 315.658 46.6443C309.614 50.379 291.089 68.4786 284.479 78.6482Z" fill="#A62E3A"/>
<g style="mix-blend-mode:multiply" opacity="0.35">
<path d="M323.727 69.6404C322.566 81.3707 317.867 98.128 315.494 100.158C315.312 100.323 315.048 100.419 314.721 100.457C316.781 94.0125 318.902 84.6788 319.627 77.3236C320.563 67.8544 318.684 61.1755 319.521 57.6006C320.367 54.0286 317.604 50.595 311.561 54.3311C306.63 57.3738 293.356 70.0128 285.055 80.0868C284.79 79.579 284.593 79.0954 284.48 78.6475C291.087 68.4749 309.611 50.3739 315.663 46.6478C321.704 42.9104 324.467 46.344 323.621 49.9174C322.775 53.4894 324.663 60.1698 323.727 69.6404Z" fill="#A62E3A"/>
</g>
<path d="M340.731 139.279C341.087 149.493 338.291 158.508 333.384 166.269C330.289 171.19 326.337 175.612 321.829 179.521C320.945 180.277 320.061 181.019 319.133 181.732C318.22 182.46 317.293 183.159 316.337 183.829C315.624 184.328 314.897 184.842 314.155 185.327C313.413 185.812 312.671 186.297 311.915 186.753C309.576 188.208 307.165 189.549 304.683 190.776C304.554 190.833 304.412 190.904 304.269 190.962C303.998 191.09 303.713 191.204 303.399 191.332H303.385C303.185 191.404 302.985 191.489 302.771 191.561C302.586 191.632 302.4 191.689 302.201 191.76C301.616 191.96 300.974 192.16 300.275 192.36C299.818 192.488 299.333 192.616 298.82 192.745C298.449 192.845 298.049 192.944 297.65 193.044C297.408 193.101 297.136 193.158 296.88 193.23C296.88 193.23 296.865 193.215 296.851 193.23C296.152 193.387 295.41 193.558 294.64 193.715C293.741 193.9 292.786 194.086 291.787 194.271C290.517 194.528 289.191 194.756 287.807 194.984H287.793C287.379 195.056 286.951 195.113 286.523 195.184C285.781 195.298 285.025 195.412 284.255 195.526C284.198 195.541 284.141 195.541 284.084 195.555C284.041 195.555 283.984 195.569 283.927 195.583H283.884C283.242 195.683 282.572 195.769 281.901 195.869C281.102 195.983 280.289 196.083 279.476 196.197L279.177 196.24C279.148 196.24 279.105 196.254 279.077 196.254C277.878 196.397 276.666 196.554 275.425 196.696C274.712 196.782 273.998 196.867 273.271 196.953C272.586 197.024 271.887 197.096 271.188 197.167L269.562 197.338C268.506 197.438 267.436 197.552 266.367 197.652C265.439 197.738 264.526 197.809 263.585 197.894C263.128 197.937 262.658 197.98 262.187 198.009C260.789 198.123 259.377 198.237 257.95 198.337C256.994 198.408 256.039 198.479 255.083 198.536C253.785 198.622 252.487 198.708 251.174 198.779C250.589 198.807 249.99 198.836 249.405 198.879C248.892 198.893 248.378 198.921 247.85 198.95C246.994 198.993 246.139 199.021 245.268 199.064C244.569 199.093 243.885 199.121 243.171 199.15C242.315 199.178 241.46 199.207 240.604 199.221C240.004 199.25 239.405 199.264 238.792 199.278L236.567 199.321C223.799 199.549 211.631 199.078 202.373 197.566C201.902 197.495 201.446 197.409 200.975 197.338C200.533 197.281 200.091 197.224 199.648 197.153C198.507 196.996 197.366 196.853 196.225 196.71C196.182 196.71 196.139 196.71 196.111 196.696C195.939 196.668 195.768 196.653 195.597 196.625L193.372 196.368H193.357C192.573 196.268 191.788 196.183 191.004 196.083C190.248 195.997 189.492 195.897 188.721 195.797C188.037 195.698 187.366 195.612 186.696 195.512L186.439 195.469C185.683 195.355 184.927 195.241 184.171 195.098C183.415 194.984 182.659 194.842 181.903 194.685C181.175 194.528 180.462 194.371 179.734 194.2C179.691 194.185 179.634 194.185 179.592 194.171C178.964 194.014 178.336 193.857 177.709 193.672C177.623 193.658 177.523 193.629 177.438 193.601C172.716 192.245 168.379 190.234 164.428 187.666C163.772 187.238 163.115 186.796 162.488 186.34C161.86 185.883 161.261 185.412 160.662 184.942C160.647 184.927 160.619 184.913 160.605 184.899C159.891 184.357 159.192 183.772 158.522 183.159C158.394 183.044 158.265 182.93 158.137 182.802C155.469 180.42 153.044 177.724 150.833 174.771C149.492 172.973 148.436 171.005 147.638 168.922C144.157 159.978 145.127 148.894 146.126 139.907C146.596 135.556 147.252 131.262 147.894 126.94C149.164 118.566 151.746 110.392 155.854 103.117C157.652 99.8785 159.777 96.8258 162.188 94.0155H162.202C163.158 92.8886 164.157 91.8187 165.227 90.7916C167.809 88.2524 170.676 85.9842 173.857 84.0157C178.365 81.2197 183.386 78.6805 188.821 76.4694C189.52 76.1841 190.219 75.8988 190.932 75.6278H190.947C192.544 75.0001 194.185 74.4009 195.854 73.8303C196.895 73.4737 197.965 73.1171 199.049 72.789C199.049 72.789 199.063 72.7747 199.063 72.789C207.195 70.2212 215.939 68.3097 224.998 67.0972H225.012C232.843 66.0558 240.889 65.5423 248.977 65.6278C252.829 65.6707 256.695 65.742 260.546 65.9132C267.993 66.2413 275.396 66.9117 282.558 68.3525H282.572C285.353 68.9231 288.121 69.6079 290.817 70.4495H290.831C291.573 70.6635 292.315 70.906 293.042 71.1485C300.375 73.6449 307.279 77.254 313.513 82.5178C315.096 83.873 316.637 85.328 318.149 86.8972C318.591 87.3537 319.019 87.8245 319.447 88.2952C319.476 88.3095 319.49 88.3523 319.519 88.3665C319.675 88.5377 319.818 88.7089 319.961 88.8944C320.146 89.0941 320.332 89.308 320.503 89.522C320.959 90.0355 321.387 90.5634 321.829 91.1197V91.134H321.844C321.858 91.1482 321.872 91.1625 321.872 91.1768C322.343 91.7616 322.8 92.3465 323.256 92.9742C323.498 93.3023 323.727 93.6161 323.969 93.9585L324.012 94.0013C324.083 94.1011 324.169 94.2152 324.24 94.3151C324.526 94.7145 324.782 95.1282 325.068 95.5419C325.339 95.9271 325.61 96.3408 325.866 96.7544C326.023 96.9827 326.18 97.2252 326.323 97.4677C326.451 97.6674 326.58 97.8671 326.722 98.0811C326.865 98.3236 327.008 98.5661 327.15 98.8229C327.493 99.3935 327.835 99.9498 328.163 100.535V100.549C328.406 100.977 328.634 101.391 328.862 101.804C330.175 104.172 331.359 106.483 332.443 108.737C333.284 110.506 334.055 112.246 334.754 113.944C335.11 114.8 335.438 115.642 335.766 116.483C336.095 117.311 336.394 118.152 336.68 118.965C336.965 119.793 337.236 120.62 337.493 121.419C337.806 122.417 338.092 123.416 338.363 124.4C338.634 125.385 338.891 126.355 339.105 127.325C339.547 129.236 339.889 131.119 340.16 132.945C340.217 133.345 340.274 133.73 340.317 134.143V134.158C340.374 134.543 340.417 134.957 340.446 135.356C340.46 135.456 340.474 135.57 340.488 135.684L340.531 136.026C340.531 136.198 340.545 136.355 340.56 136.511C340.574 136.683 340.588 136.854 340.602 137.011C340.659 137.781 340.702 138.537 340.731 139.279Z" fill="#61376B"/>
<path d="M224.112 134.756L223.719 130.489C223.584 128.221 222.093 127.985 221.279 130.322L221.033 131.38C220.464 134.497 219.347 135.36 216.086 134.751L156.107 125.895C153.585 125.37 153.585 130.002 155.484 130.251L219.548 139.115C222.119 139.472 224.129 138.106 224.112 134.756Z" fill="#1D111E"/>
<path d="M221.59 139.383C218.906 184.195 151.541 177.423 156.632 130.395L221.59 139.383Z" fill="#FABD3C"/>
<g style="mix-blend-mode:multiply" opacity="0.9">
<path d="M221.354 141.994C216.34 183.252 153.64 176.713 156.452 132.522C159.003 169.566 211.831 175.259 221.354 141.994Z" fill="#FABD3C"/>
</g>
<path d="M212.464 137.801C210.533 170.076 162.013 165.199 165.68 131.328L212.464 137.801Z" fill="#1D111E"/>
<path d="M173.937 139.811C165.315 142.894 161.739 149.115 165.482 149.988C169.225 150.863 175.192 144.382 176.519 143.114C179.221 140.53 178.495 138.182 173.937 139.811Z" fill="white"/>
<path d="M176.138 148.99C170.244 151.098 167.799 155.351 170.358 155.948C172.917 156.546 176.997 152.115 177.904 151.248C179.75 149.482 179.254 147.876 176.138 148.99Z" fill="white"/>
<path d="M319.651 129.797L255.608 138.658C251.594 139.171 250.05 137.867 250.258 133.547C250.301 132.67 250.581 130.049 250.581 130.049C250.731 127.436 252.675 128.533 252.989 129.885C253.575 134.576 256.442 134.674 259.381 134.24L319.305 125.393C322.507 124.982 322.705 129.469 319.651 129.797Z" fill="#1D111E"/>
<path d="M252.811 139.045C255.492 183.858 322.858 177.086 317.767 130.058L252.811 139.045Z" fill="#FABD3C"/>
<g style="mix-blend-mode:multiply" opacity="0.9">
<path d="M253.575 144.901C264.789 175.912 315.979 169.451 317.982 132.73C320.176 175.233 261.377 182.38 253.575 144.901Z" fill="#FABD3C"/>
</g>
<path d="M261.934 137.464C263.867 169.739 312.386 164.862 308.718 130.991L261.934 137.464Z" fill="#1D111E"/>
<path d="M300.463 139.474C309.084 142.556 312.66 148.777 308.917 149.651C305.174 150.524 299.206 144.043 297.88 142.775C295.178 140.192 295.904 137.844 300.463 139.474Z" fill="white"/>
<path d="M298.262 148.653C304.156 150.76 306.602 155.014 304.042 155.61C301.483 156.208 297.403 151.777 296.496 150.91C294.649 149.144 295.145 147.539 298.262 148.653Z" fill="white"/>
<path d="M243.478 151.02C242.698 149.119 230.758 149.117 229.533 151.521C228.577 153.391 233.495 159.958 236.498 159.946C238.806 159.938 244.501 153.513 243.478 151.02Z" fill="#A62E3A"/>
<g style="mix-blend-mode:multiply" opacity="0.28">
<path d="M236.504 159.945C234.126 159.954 230.548 155.845 229.634 153.198C231.14 155.253 233.326 157.176 234.953 157.168C236.808 157.159 240.831 153.024 241.832 150.108C242.711 150.333 243.32 150.639 243.477 151.022C244.504 153.512 238.811 159.937 236.504 159.945Z" fill="#A62E3A"/>
</g>
<g style="mix-blend-mode:multiply" opacity="0.5">
<path d="M372.114 165.356C370.374 165.071 368.334 163.844 368.676 162.118C368.876 161.134 369.86 160.449 370.859 160.306C371.857 160.178 372.856 160.463 373.812 160.791C376.151 161.59 378.79 163.302 378.534 165.77C378.405 167.111 377.378 168.224 376.18 168.837C374.981 169.45 373.612 169.65 372.285 169.835C368.905 170.321 365.024 170.649 362.542 168.309C361.815 167.624 361.23 166.711 360.288 166.34C358.363 165.584 356.494 167.496 355.253 169.151C354.012 170.82 352.015 172.66 350.146 171.733C348.876 171.105 348.491 169.507 347.621 168.395C346.337 166.711 343.741 166.184 341.901 167.239C341.173 167.653 340.574 168.252 339.832 168.651C339.105 169.037 338.106 169.136 337.493 168.566C337.193 168.295 337.036 167.881 336.794 167.539C336.08 166.526 334.725 166.155 333.484 166.255C333.456 166.255 333.413 166.255 333.384 166.269C332.2 166.383 331.073 166.868 329.932 167.282C327.479 168.152 324.939 168.666 322.357 169.022C320.303 169.293 318.22 169.465 316.138 169.621C314.511 169.764 312.885 169.878 311.288 170.049C299.319 171.262 291.587 175.898 279.804 173.544M369.29 187.653C370.745 187.667 372.285 187.596 373.498 186.782C374.71 185.984 375.395 184.186 374.525 183.016C374.054 182.36 373.241 182.046 372.471 181.832C368.42 180.663 363.926 181.076 360.146 182.931C358.691 183.644 357.264 184.586 355.638 184.614C353.427 184.643 351.501 182.931 349.29 182.831C347.264 182.731 345.453 183.986 343.541 184.657C340.232 185.827 336.351 185.213 333.57 183.059C332.657 182.346 331.672 181.433 330.531 181.647C330.118 181.718 329.761 181.947 329.404 182.175C327.493 183.487 325.781 185.384 323.484 185.67C321.815 185.884 320.189 185.213 318.634 184.614C317.921 184.343 317.165 184.072 316.337 183.83L316.323 183.815C314.854 183.373 313.228 182.959 311.473 182.589C310.032 182.275 308.506 181.989 306.922 181.733C297.55 180.163 286.423 179.507 279.804 179.835M277.764 186.497C277.821 186.511 277.864 186.511 277.921 186.526C278.963 186.74 280.175 186.954 281.502 187.168H281.53C282.358 187.296 283.242 187.439 284.155 187.581C285.739 187.824 287.422 188.081 289.148 188.352C290.361 188.551 291.616 188.765 292.857 188.979H292.885C296.651 189.636 300.36 190.392 303.385 191.333H303.399C304.74 191.747 305.952 192.189 306.965 192.674C309.904 194.086 312.9 195.869 316.166 195.67C317.907 195.57 319.618 194.885 321.344 195.128C323.655 195.441 325.538 197.339 327.864 197.581C329.704 197.752 331.516 196.854 333.356 196.996C334.64 197.096 335.824 197.695 337.079 197.938C339.39 198.38 342.343 197.838 343.584 199.821C344.069 200.577 344.14 201.533 344.597 202.303C344.982 202.973 345.638 203.444 346.309 203.801C349.689 205.612 353.798 205.127 357.592 204.6C358.634 204.457 359.86 204.172 360.274 203.187C360.645 202.289 360.003 201.19 359.104 200.791C358.206 200.406 357.15 200.577 356.237 200.948" stroke="#1D111E" stroke-width="0.678142" stroke-linecap="round" stroke-linejoin="round"/>
</g>
<g style="mix-blend-mode:screen" opacity="0.65">
<path d="M237.637 150.613C235.598 150.006 232.446 150.436 230.688 151.671C230.329 151.924 230.451 152.647 230.938 152.66C232.002 152.688 233.002 152.277 234.043 152.076C235.177 151.858 236.319 151.824 237.468 151.742C238.025 151.702 238.207 150.782 237.637 150.613Z" fill="#A62E3A"/>
</g>
<g style="mix-blend-mode:color-dodge">
<ellipse cx="186.281" cy="175.239" rx="24.032" ry="16.4909" fill="url(#paint0_radial_10_4119)"/>
</g>
<g style="mix-blend-mode:color-dodge">
<ellipse cx="292.471" cy="172.494" rx="24.032" ry="16.491" fill="url(#paint1_radial_10_4119)"/>
</g>
<g style="mix-blend-mode:screen" opacity="0.43">
<path d="M218.162 131.611C212.551 131.667 206.852 129.828 201.379 128.662C196.105 127.54 190.797 126.159 185.443 125.491C184.697 125.397 184.603 126.555 185.272 126.759C190.895 128.488 196.821 129.458 202.571 130.688C205.326 131.279 208.082 131.868 210.837 132.458C213.245 132.973 215.925 133.826 218.364 133.1C219.172 132.859 219.035 131.602 218.162 131.611Z" fill="#3D243E"/>
</g>
<g style="mix-blend-mode:screen" opacity="0.43">
<path d="M318.506 122.785C308.198 123.089 297.823 125.229 287.632 126.687C282.408 127.433 277.184 128.18 271.96 128.928C269.154 129.329 255.295 132.572 255.418 127.514C255.44 126.651 254.007 126.413 253.875 127.304C253.137 132.294 259.655 132.066 262.877 131.819C268.902 131.359 274.911 130.23 280.889 129.376C293.385 127.588 305.907 125.356 318.506 124.471C319.577 124.397 319.601 122.752 318.506 122.785Z" fill="#3D243E"/>
</g>
<path d="M221.276 71.5338C225.791 65.066 237.137 55.758 240.239 58.1831C241.074 58.9648 237.11 62.5753 236.567 65.1916C240.786 62.1702 250.469 55.2516 250.381 58.1317C250.469 59.5839 248.405 62.3471 247.418 64.4555C249.682 62.3399 260.258 56.1517 260.685 59.1959C261.079 62.2401 260.853 65.3642 260.024 68.3199C252.301 69.2814 244.577 70.2443 236.853 71.2058L221.276 71.5338Z" fill="#61376B"/>
<g style="mix-blend-mode:multiply" opacity="0.5">
<path d="M340.731 139.279C341.088 149.493 338.292 158.509 333.384 166.269C330.289 171.191 326.337 175.613 321.83 179.521C320.945 180.277 320.061 181.019 319.133 181.732C318.221 182.446 317.279 183.145 316.323 183.815C315.61 184.329 314.882 184.828 314.155 185.327C313.413 185.812 312.671 186.297 311.915 186.754C309.576 188.195 307.165 189.536 304.683 190.762C304.554 190.834 304.412 190.891 304.269 190.962C303.998 191.09 303.713 191.205 303.399 191.333H303.385C303.185 191.404 302.985 191.49 302.771 191.561C302.586 191.633 302.4 191.69 302.201 191.761C301.616 191.961 300.974 192.16 300.275 192.36C299.818 192.488 299.333 192.617 298.82 192.745C298.449 192.845 298.05 192.945 297.65 193.045C297.408 193.102 297.137 193.159 296.88 193.23C296.88 193.23 296.866 193.216 296.851 193.23C296.152 193.387 295.41 193.558 294.64 193.715C293.741 193.901 292.786 194.086 291.787 194.272C290.132 194.585 288.378 194.885 286.523 195.185C285.782 195.299 285.025 195.413 284.255 195.527C284.198 195.541 284.141 195.541 284.084 195.555C284.027 195.57 283.97 195.57 283.913 195.57C283.913 195.57 283.899 195.584 283.884 195.584C283.242 195.684 282.572 195.769 281.901 195.869C281.103 195.983 280.289 196.083 279.476 196.197L279.177 196.24H279.077V196.254C277.879 196.397 276.666 196.554 275.425 196.697C274.712 196.782 273.999 196.868 273.271 196.953C272.586 197.025 271.887 197.096 271.188 197.167L269.562 197.339C268.506 197.438 267.437 197.553 266.367 197.652C265.439 197.738 264.526 197.809 263.585 197.895C263.128 197.938 262.658 197.98 262.187 198.009C260.789 198.123 259.377 198.237 257.95 198.337C256.994 198.408 256.039 198.48 255.083 198.537C253.785 198.622 252.487 198.708 251.174 198.779C250.589 198.808 249.99 198.836 249.405 198.879C248.892 198.893 248.378 198.922 247.85 198.951C246.995 198.993 246.139 199.022 245.268 199.065C244.569 199.093 243.885 199.122 243.171 199.15C242.316 199.179 241.46 199.207 240.604 199.222C240.005 199.25 239.405 199.264 238.792 199.279L236.567 199.321C223.799 199.55 211.631 199.079 202.373 197.567C201.46 197.424 200.561 197.282 199.648 197.153C198.507 196.996 197.366 196.854 196.225 196.711C196.182 196.711 196.139 196.711 196.111 196.697C195.198 196.597 194.285 196.483 193.372 196.369H193.358C192.573 196.269 191.788 196.183 191.004 196.083C190.248 195.998 189.492 195.898 188.721 195.798C188.037 195.698 187.366 195.612 186.696 195.513L186.439 195.47C185.683 195.356 184.927 195.242 184.171 195.099C183.415 194.985 182.659 194.842 181.903 194.685C181.175 194.528 180.462 194.371 179.734 194.2C179.692 194.186 179.634 194.186 179.592 194.172C178.964 194.015 178.336 193.858 177.709 193.672C177.623 193.658 177.523 193.63 177.438 193.601C172.716 192.246 168.379 190.235 164.428 187.667C163.772 187.239 163.115 186.797 162.488 186.34C161.846 185.884 161.218 185.413 160.605 184.914C160.619 184.928 160.648 184.928 160.662 184.942C163.03 186.24 167.11 187.553 172.473 188.751H172.502C175.997 189.55 180.048 190.292 184.527 190.962C186.011 191.19 187.523 191.404 189.092 191.618H189.107C191.446 191.932 193.871 192.217 196.382 192.488C196.567 192.503 196.738 192.517 196.91 192.531V192.545C198.892 192.745 200.932 192.945 203.001 193.116C226.282 195.113 254.741 195.127 278.364 190.762L279.476 190.548C281.602 190.149 283.67 189.707 285.696 189.222C286.438 189.051 287.165 188.879 287.893 188.68C288.306 188.58 288.734 188.466 289.148 188.352C295.753 186.611 301.773 184.429 306.923 181.732C310.389 179.935 313.47 177.909 316.066 175.627H316.081C318.463 173.53 320.546 171.319 322.357 169.022C339.033 147.867 332.6 119.108 326.908 103.117V103.103C326.637 102.361 326.366 101.648 326.109 100.963C323.984 95.3284 322.129 91.6765 321.872 91.1772C322.343 91.7621 322.8 92.347 323.256 92.9747C323.499 93.3028 323.727 93.6166 323.969 93.959L324.012 94.0018C324.083 94.1016 324.169 94.2157 324.24 94.3156C324.526 94.715 324.782 95.1287 325.068 95.5424C325.339 95.9276 325.61 96.3412 325.867 96.7549C326.024 96.9832 326.18 97.2257 326.323 97.4682C326.452 97.6679 326.58 97.8676 326.723 98.0816C326.865 98.3241 327.008 98.5666 327.15 98.8234C327.493 99.394 327.835 99.9503 328.163 100.535V100.549C328.406 100.977 328.634 101.391 328.862 101.805C330.175 104.173 331.359 106.484 332.443 108.738C333.285 110.507 334.055 112.247 334.754 113.944C335.11 114.8 335.439 115.642 335.767 116.484C336.095 117.311 336.394 118.153 336.68 118.966C336.965 119.793 337.236 120.621 337.478 121.419C337.807 122.418 338.092 123.417 338.363 124.401C338.634 125.385 338.891 126.355 339.105 127.325C339.547 129.237 339.889 131.12 340.16 132.946C340.217 133.345 340.274 133.73 340.317 134.144V134.158C340.374 134.543 340.417 134.957 340.446 135.356C340.46 135.456 340.474 135.57 340.488 135.685C340.503 135.799 340.517 135.913 340.517 136.027C340.531 136.198 340.546 136.355 340.56 136.512C340.574 136.683 340.588 136.854 340.603 137.011C340.66 137.782 340.702 138.538 340.731 139.279Z" fill="#61376B"/>
</g>
<g style="mix-blend-mode:multiply" opacity="0.5">
<path d="M206.881 173.544C195.084 175.898 187.352 171.262 175.398 170.049C171.617 169.664 167.794 169.507 164.043 168.98C161.56 168.623 159.121 168.124 156.753 167.282C155.583 166.854 154.428 166.355 153.187 166.255C151.96 166.155 150.591 166.526 149.892 167.539C149.649 167.881 149.492 168.295 149.193 168.566C148.779 168.951 148.208 169.022 147.638 168.922C147.352 168.88 147.081 168.78 146.839 168.651C146.111 168.252 145.498 167.653 144.785 167.239C142.93 166.184 140.348 166.711 139.05 168.395C138.194 169.507 137.795 171.105 136.525 171.733C134.671 172.66 132.674 170.82 131.432 169.151C130.191 167.496 128.323 165.584 126.383 166.34C125.455 166.711 124.87 167.624 124.129 168.309C121.661 170.649 117.766 170.321 114.4 169.835C113.059 169.65 111.704 169.45 110.505 168.837C109.307 168.224 108.28 167.111 108.137 165.77C107.895 163.302 110.52 161.59 112.873 160.791C113.815 160.463 114.828 160.178 115.826 160.306C116.811 160.449 117.795 161.134 117.995 162.118C118.351 163.844 116.311 165.071 114.571 165.356M206.881 179.835C197.038 179.35 177.238 181.048 168.051 184.614C167.68 184.757 167.338 184.899 166.967 185.042H166.953C165.726 185.47 164.471 185.841 163.201 185.67C161.261 185.427 159.735 184.029 158.137 182.802C157.852 182.589 157.566 182.375 157.267 182.175C156.924 181.947 156.553 181.718 156.14 181.647C155.013 181.433 154.014 182.346 153.101 183.059C150.334 185.213 146.454 185.827 143.144 184.657C141.233 183.986 139.421 182.731 137.395 182.831C135.184 182.931 133.258 184.643 131.033 184.614C129.421 184.586 127.98 183.644 126.539 182.931C122.745 181.076 118.266 180.663 114.214 181.832C113.43 182.046 112.631 182.36 112.16 183.016C111.29 184.186 111.961 185.984 113.173 186.782C114.4 187.596 115.94 187.667 117.396 187.653M130.448 200.948C129.535 200.577 128.48 200.406 127.581 200.791C126.668 201.19 126.04 202.289 126.411 203.187C126.811 204.172 128.037 204.457 129.093 204.6C132.888 205.127 136.996 205.612 140.362 203.801C141.047 203.444 141.703 202.973 142.089 202.303C142.545 201.533 142.616 200.577 143.087 199.821C144.342 197.838 147.295 198.38 149.592 197.938C150.862 197.695 152.046 197.096 153.33 196.996C155.17 196.854 156.981 197.752 158.822 197.581C161.147 197.339 163.03 195.441 165.341 195.128C167.067 194.885 168.779 195.57 170.519 195.67C173.03 195.827 175.398 194.8 177.709 193.673C178.379 193.33 179.05 193.002 179.72 192.674C180.562 192.275 181.532 191.889 182.602 191.547H182.616C183.229 191.347 183.857 191.148 184.527 190.962C188.336 189.907 193.015 189.079 197.452 188.366C198.436 188.209 199.406 188.066 200.347 187.909C200.947 187.824 201.517 187.738 202.088 187.638H202.102C204.713 187.253 207.066 186.868 208.921 186.497" stroke="#1D111E" stroke-width="0.678142" stroke-linecap="round" stroke-linejoin="round"/>
</g>
<g style="mix-blend-mode:multiply" opacity="0.5">
<path d="M283.913 195.569C282.558 193.843 281.074 192.174 279.476 190.548C279.063 190.12 278.635 189.706 278.207 189.292C276.509 187.652 274.697 186.069 272.8 184.628C266.081 179.364 258.235 175.313 249.933 173.572C249.719 174.485 249.405 175.198 248.963 175.341C248.022 175.626 246.624 174.214 245.525 172.873C240.361 172.317 235.083 172.702 229.833 174.286C229.149 175.355 228.378 176.226 227.665 176.154C227.337 176.126 227.038 175.798 226.752 175.341C225.34 175.883 223.942 176.554 222.544 177.267C219.548 178.793 216.61 180.662 213.728 182.916C213.158 183.358 212.601 183.815 212.045 184.285C207.454 188.17 203.326 192.559 199.353 197.063C195.436 201.502 191.429 205.927 187.914 210.692C187.878 210.74 187.796 210.817 187.783 210.876C188.382 208.308 191.603 199.076 192.002 196.907C191.96 196.907 193.4 196.382 193.372 196.368C192.459 196.268 194.285 196.482 193.372 196.368C194.342 195.056 195.34 193.772 196.382 192.488C196.596 192.231 196.81 191.96 197.024 191.703C197.751 190.833 198.479 189.977 199.249 189.121C199.62 188.708 199.977 188.308 200.347 187.909C201.403 186.782 202.473 185.669 203.586 184.599C205.497 182.716 207.494 180.933 209.606 179.25C209.862 179.036 210.119 178.822 210.376 178.622C214.841 175.127 219.491 172.403 224.227 170.477C222.387 168.865 222.494 167.589 222.494 167.589L252.586 166.14C252.644 166.967 252.43 167.752 252.059 168.494C257.936 169.863 263.585 172.246 268.792 175.341C274.541 178.708 279.747 182.944 284.155 187.581C284.326 187.738 284.483 187.909 284.64 188.08C284.997 188.451 285.354 188.836 285.696 189.221C287.008 190.69 288.249 192.188 289.391 193.715C291.83 192.873 294.412 192.73 296.851 193.23C296.152 193.387 295.41 193.558 294.64 193.715C293.741 193.9 292.786 194.086 291.787 194.271C290.518 194.528 289.191 194.756 287.793 194.984C287.379 195.056 286.951 195.113 286.523 195.184C285.781 195.298 285.025 195.412 284.255 195.526C284.198 195.541 284.141 195.541 284.084 195.555C284.041 195.555 283.984 195.569 283.913 195.569Z" fill="#61376B"/>
</g>
<path d="M405.028 457.159H72.8682C62.0895 457.159 53.3535 448.423 53.3535 437.644H424.543C424.543 448.423 415.806 457.159 405.028 457.159Z" fill="#5E2600"/>
<path d="M413.754 245.443V417.162C413.754 432.574 401.261 445.067 385.849 445.067H92.0348C76.6313 445.067 64.1436 432.58 64.1436 417.176V245.443C64.1436 230.04 76.6313 217.552 92.0348 217.552H385.863C401.266 217.552 413.754 230.04 413.754 245.443Z" fill="#5E2600"/>
<path d="M75.5381 238.504C75.5381 231.03 81.5969 224.971 89.0709 224.971H388.825C396.299 224.971 402.357 231.03 402.357 238.504V424.112C402.357 431.586 396.299 437.644 388.825 437.644H89.0708C81.5969 437.644 75.5381 431.586 75.5381 424.112V238.504Z" fill="#FFC33B"/>
<g style="mix-blend-mode:multiply">
<path d="M402.356 238.458V418.346C402.356 424.68 399.304 430.286 394.61 433.822C397.007 430.6 398.419 426.604 398.419 422.283V242.395C398.419 234.944 392.379 228.904 384.927 228.904H90.905C86.5827 228.904 82.5884 230.331 79.3645 232.726C82.9023 228.019 88.5085 224.967 94.8422 224.967H388.864C396.316 224.967 402.356 231.007 402.356 238.458Z" fill="#FFD47D"/>
</g>
<g style="mix-blend-mode:multiply" opacity="0.78">
<path d="M417.392 437.651C387.82 438.478 358.248 439.035 328.677 439.32C313.898 439.52 299.105 439.548 284.326 439.677L239.976 439.776L195.611 439.662C180.833 439.548 166.04 439.505 151.261 439.306C121.689 439.02 92.1176 438.478 62.5459 437.651H417.392Z" fill="#E17022"/>
</g>
<g style="mix-blend-mode:multiply" opacity="0.2">
<path d="M350.378 246.066H122.872C116.582 246.066 111.498 251.164 111.498 257.454V409.823C111.498 416.112 116.582 421.196 122.872 421.196H350.378C356.652 421.196 361.751 416.112 361.751 409.823V257.454C361.751 251.164 356.652 246.066 350.378 246.066Z" fill="#E4640A"/>
<circle cx="127.012" cy="259.951" r="2.93991" fill="black"/>
<circle cx="140.895" cy="259.951" r="2.93991" fill="black"/>
<circle cx="154.778" cy="259.951" r="2.93991" fill="black"/>
</g>
<path d="M366.397 252.807V405.178C366.397 411.466 361.298 416.55 355.025 416.55H127.518C121.229 416.55 116.145 411.466 116.145 405.178V252.807C116.145 246.519 121.229 241.419 127.518 241.419H355.025C361.298 241.419 366.397 246.519 366.397 252.807Z" fill="white"/>
<path d="M366.397 252.807V269.191H116.145V252.807C116.145 246.519 121.229 241.419 127.518 241.419H355.025C361.298 241.419 366.397 246.519 366.397 252.807Z" fill="#E4640A"/>
<circle cx="131.658" cy="255.305" r="2.93991" fill="white"/>
<circle cx="145.541" cy="255.305" r="2.93991" fill="white"/>
<circle cx="159.424" cy="255.305" r="2.93991" fill="white"/>
<path d="M172.887 334.339V329.413L194.62 295.026H198.194V302.657H195.779L179.358 328.64V329.026H208.625V334.339H172.887ZM196.165 344.481V332.842V330.548V295.026H201.864V344.481H196.165ZM233.805 345.157C230.167 345.157 227.068 344.167 224.509 342.187C221.949 340.191 219.993 337.301 218.641 333.518C217.288 329.719 216.612 325.131 216.612 319.754C216.612 314.409 217.288 309.845 218.641 306.062C220.009 302.263 221.973 299.365 224.533 297.369C227.108 295.356 230.199 294.35 233.805 294.35C237.411 294.35 240.494 295.356 243.054 297.369C245.63 299.365 247.594 302.263 248.946 306.062C250.314 309.845 250.999 314.409 250.999 319.754C250.999 325.131 250.322 329.719 248.97 333.518C247.618 337.301 245.662 340.191 243.102 342.187C240.543 344.167 237.444 345.157 233.805 345.157ZM233.805 339.845C237.411 339.845 240.213 338.106 242.209 334.629C244.205 331.151 245.203 326.193 245.203 319.754C245.203 315.471 244.744 311.825 243.827 308.815C242.925 305.804 241.621 303.51 239.915 301.933C238.224 300.355 236.188 299.566 233.805 299.566C230.232 299.566 227.438 301.329 225.426 304.855C223.414 308.364 222.408 313.33 222.408 319.754C222.408 324.036 222.858 327.674 223.76 330.668C224.661 333.663 225.957 335.941 227.648 337.502C229.354 339.064 231.407 339.845 233.805 339.845ZM259.016 334.339V329.413L280.749 295.026H284.322V302.657H281.908L265.487 328.64V329.026H294.754V334.339H259.016ZM282.294 344.481V332.842V330.548V295.026H287.993V344.481H282.294Z" fill="#E4640A"/>
<path d="M172.802 389.945V357.945H192.114V361.382H176.677V372.195H191.114V375.632H176.677V386.507H192.364V389.945H172.802ZM199.098 389.945V357.945H209.911C212.411 357.945 214.463 358.372 216.067 359.226C217.671 360.07 218.859 361.231 219.63 362.71C220.4 364.19 220.786 365.872 220.786 367.757C220.786 369.643 220.4 371.315 219.63 372.773C218.859 374.231 217.677 375.377 216.083 376.21C214.489 377.033 212.453 377.445 209.973 377.445H201.223V373.945H209.848C211.557 373.945 212.932 373.695 213.973 373.195C215.025 372.695 215.786 371.986 216.255 371.07C216.734 370.143 216.973 369.039 216.973 367.757C216.973 366.476 216.734 365.356 216.255 364.398C215.775 363.44 215.01 362.7 213.958 362.179C212.906 361.648 211.515 361.382 209.786 361.382H202.973V389.945H199.098ZM214.161 375.57L222.036 389.945H217.536L209.786 375.57H214.161ZM227.243 389.945V357.945H238.055C240.555 357.945 242.608 358.372 244.212 359.226C245.816 360.07 247.003 361.231 247.774 362.71C248.545 364.19 248.93 365.872 248.93 367.757C248.93 369.643 248.545 371.315 247.774 372.773C247.003 374.231 245.821 375.377 244.227 376.21C242.634 377.033 240.597 377.445 238.118 377.445H229.368V373.945H237.993C239.701 373.945 241.076 373.695 242.118 373.195C243.17 372.695 243.93 371.986 244.399 371.07C244.878 370.143 245.118 369.039 245.118 367.757C245.118 366.476 244.878 365.356 244.399 364.398C243.92 363.44 243.154 362.7 242.102 362.179C241.05 361.648 239.66 361.382 237.93 361.382H231.118V389.945H227.243ZM242.305 375.57L250.18 389.945H245.68L237.93 375.57H242.305ZM282.387 373.945C282.387 377.32 281.778 380.236 280.559 382.695C279.341 385.153 277.669 387.049 275.544 388.382C273.419 389.716 270.992 390.382 268.262 390.382C265.533 390.382 263.106 389.716 260.981 388.382C258.856 387.049 257.184 385.153 255.966 382.695C254.747 380.236 254.137 377.32 254.137 373.945C254.137 370.57 254.747 367.653 255.966 365.195C257.184 362.736 258.856 360.841 260.981 359.507C263.106 358.174 265.533 357.507 268.262 357.507C270.992 357.507 273.419 358.174 275.544 359.507C277.669 360.841 279.341 362.736 280.559 365.195C281.778 367.653 282.387 370.57 282.387 373.945ZM278.637 373.945C278.637 371.174 278.174 368.835 277.247 366.929C276.33 365.023 275.085 363.58 273.512 362.601C271.95 361.622 270.2 361.132 268.262 361.132C266.325 361.132 264.57 361.622 262.997 362.601C261.434 363.58 260.19 365.023 259.262 366.929C258.346 368.835 257.887 371.174 257.887 373.945C257.887 376.716 258.346 379.054 259.262 380.96C260.19 382.867 261.434 384.309 262.997 385.289C264.57 386.268 266.325 386.757 268.262 386.757C270.2 386.757 271.95 386.268 273.512 385.289C275.085 384.309 276.33 382.867 277.247 380.96C278.174 379.054 278.637 376.716 278.637 373.945ZM288.903 389.945V357.945H299.716C302.216 357.945 304.268 358.372 305.872 359.226C307.476 360.07 308.663 361.231 309.434 362.71C310.205 364.19 310.591 365.872 310.591 367.757C310.591 369.643 310.205 371.315 309.434 372.773C308.663 374.231 307.481 375.377 305.887 376.21C304.294 377.033 302.257 377.445 299.778 377.445H291.028V373.945H299.653C301.361 373.945 302.736 373.695 303.778 373.195C304.83 372.695 305.591 371.986 306.059 371.07C306.538 370.143 306.778 369.039 306.778 367.757C306.778 366.476 306.538 365.356 306.059 364.398C305.58 363.44 304.815 362.7 303.762 362.179C302.71 361.648 301.32 361.382 299.591 361.382H292.778V389.945H288.903ZM303.966 375.57L311.841 389.945H307.341L299.591 375.57H303.966Z" fill="#E4640A"/>
<g style="mix-blend-mode:multiply" opacity="0.5">
<path d="M180.447 217.552H186.596C185.141 220.263 183.814 222.93 182.573 225.512C182.145 226.411 181.717 227.31 181.303 228.194C179.691 231.646 178.108 235.07 176.567 238.493C172.602 247.281 168.921 256.068 165.897 265.012C165.012 267.651 164.157 270.305 163.386 272.987C163.315 273.386 163.286 273.757 163.272 274.099C163.258 274.199 163.258 274.285 163.258 274.37V275.012C163.258 275.098 163.272 275.183 163.272 275.269C163.286 275.44 163.315 275.597 163.329 275.74C163.343 275.797 163.358 275.868 163.372 275.925C163.4 276.068 163.429 276.196 163.472 276.31C163.472 276.353 163.486 276.382 163.5 276.425C163.657 276.838 163.828 277.052 163.914 277.138H163.9C163.871 277.109 163.828 277.081 163.786 277.052C163.4 276.781 162.53 276.154 162.259 275.883C162.231 275.854 162.202 275.854 162.159 275.84L163.215 278.707C162.159 278.336 161.831 277.223 161.731 276.268C161.66 276.496 161.589 276.781 161.517 277.181C161.289 276.325 161.047 275.868 160.847 275.64L161.147 279.149C160.077 278.336 160.205 276.596 160.433 275.44C160.262 275.469 160.148 275.611 160.148 275.611C160.148 275.611 159.292 276.239 158.978 276.211L157.98 278.707C157.923 277.723 158.365 276.624 158.821 275.754C158.736 275.241 158.479 274.47 158.08 274.299C157.423 275.369 156.311 276.738 154.898 276.795L157.195 274.542C156.04 275.055 155.597 274.727 155.597 274.727C156.824 274.256 157.98 272.002 157.98 272.002H157.994C162.473 256.197 169.235 241.161 176.368 225.897C177.623 223.216 178.964 220.42 180.447 217.552Z" fill="#61376B"/>
</g>
<g style="mix-blend-mode:multiply" opacity="0.5">
<path d="M313.384 224.371L313.014 224.613C312.215 225.113 311.145 224.87 310.646 224.057L307.907 219.678L301.245 223.843L303.969 228.223C304.483 229.036 304.24 230.091 303.427 230.591L303.057 230.833C302.243 231.332 301.188 231.09 300.688 230.277L297.95 225.897L293.756 228.514C292.345 229.392 290.487 228.964 289.606 227.555L283.57 217.909L283.342 217.552H311.316L311.202 217.624L313.941 222.003C314.44 222.816 314.198 223.872 313.384 224.371Z" fill="#61376B"/>
</g>
<path d="M159.78 270.087C159.78 270.087 157.863 272.59 157.975 274.581" stroke="#268E26" stroke-width="0.629364" stroke-linecap="round" stroke-linejoin="round"/>
<path d="M160.733 270.19C160.733 270.19 159.473 273.731 161.143 275.024" stroke="white" stroke-width="0.629364" stroke-linecap="round" stroke-linejoin="round"/>
<path d="M161.754 270.598C161.754 270.598 161.244 273.866 163.218 274.581" stroke="#0032D0" stroke-width="0.629364" stroke-linecap="round" stroke-linejoin="round"/>
<path d="M158.743 268.883C158.743 268.883 157.245 272.559 154.896 272.662" stroke="#D30000" stroke-width="0.629364" stroke-linecap="round" stroke-linejoin="round"/>
<path d="M289.44 189.645C275.783 171.472 249.732 156.357 224.801 166.109C219.875 168.036 215.022 170.855 210.377 174.488C193.744 187.498 183.466 206.585 176.37 221.761C169.232 237.026 162.478 252.058 157.993 267.866L157.975 267.875C157.975 267.875 156.819 270.122 155.592 270.598C155.592 270.598 156.137 271.006 157.635 270.19C158.452 269.714 158.861 271.484 158.861 271.96C158.861 272.437 160.149 271.484 160.149 271.484C160.149 271.484 160.836 270.53 161.516 273.049C161.72 271.892 161.924 271.415 162.265 271.755C162.606 272.096 163.967 273.049 163.967 273.049C163.967 273.049 162.877 272.333 163.381 268.849C167.759 253.608 174.343 238.958 181.305 224.068C188.143 209.442 198.011 191.076 213.734 178.779C217.962 175.472 222.353 172.916 226.785 171.183C249.068 162.462 272.626 176.338 285.085 192.917C286.555 194.871 287.988 196.966 289.348 199.144L293.97 196.261C292.526 193.95 291.002 191.723 289.44 189.645Z" fill="#2B232D"/>
<g style="mix-blend-mode:multiply" opacity="0.5">
<path d="M293.968 196.265L289.348 199.151C287.984 196.971 286.559 194.877 285.087 192.914C272.625 176.333 249.067 162.459 226.789 171.187C222.349 172.91 217.968 175.472 213.73 178.776C198.012 191.069 188.148 209.444 181.301 224.073C174.346 238.952 167.763 253.605 163.381 268.843C162.95 271.824 163.68 272.782 163.907 273.008C163.729 272.877 163.19 272.493 162.77 272.171C162.746 271.776 162.723 271.369 162.734 270.974C162.77 268.735 163.321 266.581 163.931 264.438C164.495 262.546 165.093 260.679 165.716 258.812C166.973 255.064 168.349 251.354 169.797 247.679C171.269 243.967 172.814 240.293 174.418 236.642C176.034 232.943 177.71 229.269 179.398 225.617C180.032 224.253 180.667 222.888 181.301 221.523C188.148 206.895 198.012 188.532 213.73 176.238C217.968 172.923 222.349 170.372 226.789 168.636C249.067 159.921 272.625 173.796 285.087 190.376C286.559 192.326 287.984 194.422 289.348 196.6L292.807 194.446C293.202 195.044 293.586 195.654 293.968 196.265Z" fill="#140716"/>
</g>
<path d="M250.397 164.923C250.397 164.923 250.34 170.791 248.962 171.211C247.244 171.735 243.925 166.53 243.925 166.53L250.397 164.923Z" fill="white"/>
<path d="M225.02 166.14C225.02 166.14 226.229 171.882 227.662 172.023C229.45 172.2 231.681 166.444 231.681 166.444L225.02 166.14Z" fill="white"/>
<path d="M221.497 162.775C221.497 162.775 226.477 173.715 237.054 165.224C242.693 171.663 252.979 167.432 252.583 162.01" fill="#61376B"/>
<path d="M296.431 227.792C296.258 227.516 296.342 227.153 296.618 226.981L298.912 225.548C299.188 225.376 299.551 225.46 299.723 225.736L304.837 233.925C305.191 234.491 305.018 235.236 304.452 235.589L303.209 236.366C302.644 236.719 301.898 236.547 301.545 235.981L296.431 227.792Z" fill="white"/>
<g style="mix-blend-mode:multiply" opacity="0.5">
<path d="M288.906 217.552H283.285L280.161 212.545C276.11 206.04 277.836 197.567 283.97 193.159C284.227 194.856 284.526 196.668 284.869 198.594C285.667 203.173 286.694 208.337 287.993 213.872C288.05 214.043 288.092 214.243 288.135 214.428C288.378 215.455 288.635 216.497 288.906 217.552Z" fill="#61376B"/>
</g>
<path d="M306.718 222.097C306.365 221.531 306.537 220.785 307.103 220.432L308.346 219.655C308.912 219.302 309.658 219.474 310.011 220.04L314.797 227.704C315.151 228.27 314.978 229.015 314.412 229.369L313.169 230.145C312.603 230.498 311.858 230.326 311.504 229.76L306.718 222.097Z" fill="white"/>
<path d="M313.6 211.988L293.321 224.654C292.147 225.388 290.602 225.031 289.868 223.857L281.787 210.919C277.556 204.145 279.619 195.224 286.392 190.994C293.165 186.763 302.087 188.825 306.316 195.598L314.397 208.536C315.131 209.71 314.774 211.255 313.6 211.988Z" fill="#6BB1A2"/>
<g style="mix-blend-mode:multiply" opacity="0.3">
<path d="M288.331 190.001C282.987 194.548 281.666 202.458 285.503 208.602L294.905 223.656L293.229 224.701C292.104 225.405 290.621 225.062 289.918 223.937L281.828 210.984C277.6 204.214 279.656 195.174 286.438 190.964C287.057 190.581 287.679 190.248 288.331 190.001Z" fill="#583929"/>
</g>
<defs>
<radialGradient id="paint0_radial_10_4119" cx="0" cy="0" r="1" gradientUnits="userSpaceOnUse" gradientTransform="translate(162.248 158.748) scale(24.032 16.4909)">
<stop offset="0.165645" stop-color="#662346"/>
<stop offset="1" stop-color="#662346" stop-opacity="0"/>
</radialGradient>
<radialGradient id="paint1_radial_10_4119" cx="0" cy="0" r="1" gradientUnits="userSpaceOnUse" gradientTransform="translate(268.439 156.003) scale(24.032 16.491)">
<stop offset="0.165645" stop-color="#662346"/>
<stop offset="1" stop-color="#662346" stop-opacity="0"/>
</radialGradient>
</defs>
</svg>
