<svg width="24" height="23" viewBox="0 0 24 23" fill="none" xmlns="http://www.w3.org/2000/svg">
<path d="M23.5 11.5C23.5 17.8527 18.3508 23 12 23C5.64917 23 0.5 17.8527 0.5 11.5C0.5 5.15103 5.64917 0 12 0C18.3508 0 23.5 5.15103 23.5 11.5ZM12.3086 3.80242C9.78152 3.80242 8.16976 4.86696 6.90411 6.75894C6.74014 7.00406 6.795 7.33464 7.03001 7.51284L8.63903 8.73286C8.88039 8.91588 9.22428 8.87234 9.4118 8.63446C10.2402 7.58379 10.8082 6.97452 12.069 6.97452C13.0163 6.97452 14.1881 7.5842 14.1881 8.50281C14.1881 9.19726 13.6148 9.5539 12.6794 10.0783C11.5886 10.6898 10.1452 11.4509 10.1452 13.3548V13.5403C10.1452 13.8476 10.3943 14.0968 10.7016 14.0968H13.2984C13.6057 14.0968 13.8548 13.8476 13.8548 13.5403V13.4785C13.8548 12.1587 17.7123 12.1037 17.7123 8.53226C17.7123 5.84265 14.9223 3.80242 12.3086 3.80242ZM12 15.3024C10.8238 15.3024 9.86694 16.2593 9.86694 17.4355C9.86694 18.6116 10.8238 19.5685 12 19.5685C13.1762 19.5685 14.1331 18.6116 14.1331 17.4355C14.1331 16.2593 13.1762 15.3024 12 15.3024Z" fill="#A5ADB8"/>
</svg>
