<svg width="38" height="38" viewBox="0 0 38 38" fill="none" xmlns="http://www.w3.org/2000/svg">
<path d="M25.9375 14.9915L12.0625 6.99023" stroke="#77838F" stroke-width="3" stroke-linecap="round" stroke-linejoin="round"/>
<path d="M32.875 25.1669V12.8336C32.875 11.7313 32.2892 10.7138 31.3333 10.1665L20.5417 3.99982C19.5858 3.45253 18.4142 3.45253 17.4583 3.99982L6.66667 10.1665C5.71083 10.7138 5.125 11.7313 5.125 12.8336V25.1669C5.125 26.2692 5.71083 27.2867 6.66667 27.834L17.4583 34.0007C18.4142 34.5479 19.5858 34.5479 20.5417 34.0007L31.3333 27.834C32.2892 27.2867 32.875 26.2692 32.875 25.1669Z" stroke="#77838F" stroke-width="3" stroke-linecap="round" stroke-linejoin="round"/>
<path d="M5.54126 11.23L19 19.0154L32.4588 11.23" stroke="#77838F" stroke-width="3" stroke-linecap="round" stroke-linejoin="round"/>
<path d="M19 34.54V19" stroke="#77838F" stroke-width="3" stroke-linecap="round" stroke-linejoin="round"/>
</svg>
