<svg width="40" height="40" viewBox="0 0 40 40" fill="none" xmlns="http://www.w3.org/2000/svg">
<path d="M30.4408 23.967C32.9727 20.3796 34.0366 16.1076 33.451 11.9263C32.4036 4.50395 25.5173 -0.683453 18.095 0.363925C10.6726 1.4113 5.4852 8.28936 6.52433 15.7117C7.10987 19.8765 9.32008 23.6866 12.7426 26.4412C14.8209 28.1153 17.196 29.2287 19.3898 29.6328L18.7465 33.1295C18.7135 33.3275 18.7712 33.5254 18.9114 33.6738C19.0434 33.814 19.2413 33.8883 19.4392 33.8553L21.7814 33.5336C23.0102 36.3047 24.9978 38.2097 27.843 39.3313L28.9893 39.7849L29.9048 37.484L28.7502 37.0304C26.7132 36.2222 25.3112 35.0099 24.3462 33.1708L26.0286 32.9316C26.2266 32.9069 26.3998 32.7832 26.4905 32.61C26.5894 32.4285 26.5894 32.2224 26.4987 32.0409L24.9153 28.8576C26.9276 27.8679 28.8986 26.1443 30.4408 23.967ZM18.0042 25.1711C14.8126 23.9093 12.1076 21.0971 10.9365 17.8312L10.5159 16.6684L12.8416 15.8354L13.2622 16.9983C14.3838 20.1239 16.9156 22.0867 18.9114 22.8784L20.066 23.332L19.1506 25.6329L18.0042 25.1711Z" fill="#77838F"/>
</svg>
