<svg width="32" height="37" viewBox="0 0 32 37" fill="none" xmlns="http://www.w3.org/2000/svg">
<path d="M31.7499 27.5C29.7797 27.5 29.5519 25.25 26.5116 25.25C23.4579 25.25 23.2192 27.5 21.2557 27.5C19.3084 27.5 19.0441 25.25 15.9999 25.25C12.9875 25.25 12.6799 27.5 10.7616 27.5C8.78244 27.5 8.56771 25.25 5.50574 25.25C2.44384 25.25 2.22545 27.5 0.249878 27.5V21.875C0.249878 20.0117 1.7616 18.5 3.62488 18.5H4.74988V8.375H9.24988V18.5H13.7499V8.375H18.2499V18.5H22.7499V8.375H27.2499V18.5H28.3749C30.2382 18.5 31.7499 20.0117 31.7499 21.875V27.5ZM31.7499 36.5H0.249878V29.75C3.29835 29.75 3.53818 27.5 5.50574 27.5C7.47104 27.5 7.70321 29.75 10.7616 29.75C13.774 29.75 14.0815 27.5 15.9999 27.5C17.979 27.5 18.1937 29.75 21.2557 29.75C24.3043 29.75 24.544 27.5 26.5116 27.5C28.4443 27.5 28.709 29.75 31.7499 29.75V36.5ZM6.99988 7.25C5.75183 7.25 4.74988 6.24805 4.74988 5C4.74988 2.82031 6.99988 3.38281 6.99988 0.5C7.84363 0.5 9.24988 2.57422 9.24988 4.4375C9.24988 6.30078 8.24792 7.25 6.99988 7.25ZM15.9999 7.25C14.7518 7.25 13.7499 6.24805 13.7499 5C13.7499 2.82031 15.9999 3.38281 15.9999 0.5C16.8436 0.5 18.2499 2.57422 18.2499 4.4375C18.2499 6.30078 17.2479 7.25 15.9999 7.25ZM24.9999 7.25C23.7518 7.25 22.7499 6.24805 22.7499 5C22.7499 2.82031 24.9999 3.38281 24.9999 0.5C25.8436 0.5 27.2499 2.57422 27.2499 4.4375C27.2499 6.30078 26.2479 7.25 24.9999 7.25Z" fill="#77838F"/>
</svg>
