<svg width="150" height="33" viewBox="0 0 150 33" fill="none" xmlns="http://www.w3.org/2000/svg">
<path d="M25.7508 22.1395L38.0696 15.7909C38.252 15.6962 39.0073 16.6321 38.8236 16.7256L26.5061 23.0752C26.3224 23.1699 25.5683 22.2332 25.7508 22.1395Z" fill="#39223F"/>
<path d="M38.2281 15.9714L25.9009 22.3249L26.1673 22.6559L38.4955 16.3016L38.2281 15.9714Z" fill="#5F4F61"/>
<path d="M39.9366 15.7773L39.8123 15.6232L39.6099 15.3716C39.5874 15.343 39.5565 15.3222 39.5259 15.3023C39.3968 15.2183 39.2122 15.2011 39.064 15.2778L38.0789 15.7858L38.2284 15.9713L38.4957 16.3014L38.8346 16.7207L39.8196 16.2125C40.003 16.1188 40.0551 15.9231 39.9366 15.7773ZM26.1675 22.6558L25.9011 22.3247L25.7508 22.1392L24.7161 22.6728C24.5679 22.7486 24.51 22.8895 24.5536 23.0182C24.5645 23.0494 24.5751 23.0806 24.5975 23.108L24.8012 23.3597L24.9255 23.514C25.044 23.6605 25.2877 23.7022 25.4701 23.6075L26.5061 23.0748L26.1675 22.6558Z" fill="#DAC9DB"/>
<path d="M38.4956 16.3017L39.8122 15.6236L39.6097 15.3719C39.5873 15.3433 39.5564 15.3225 39.5258 15.3026L38.2282 15.9716L38.4956 16.3017ZM25.901 22.325L24.5535 23.0194C24.5644 23.0497 24.575 23.081 24.5974 23.1093L24.8011 23.36L26.1674 22.6561L25.901 22.325Z" fill="white"/>
<path d="M36.728 19.215L37.3711 19.1421L37.7855 18.5044C37.8398 18.4201 37.9583 18.3758 38.0743 18.3956C38.1904 18.4155 38.2756 18.495 38.2813 18.5896L38.3301 19.3078L38.8769 19.5859C38.9693 19.6331 39.0154 19.7212 38.993 19.8072C38.9693 19.8932 38.8818 19.9586 38.773 19.971L38.1334 20.0439L37.7 20.7477C37.647 20.8337 37.526 20.8812 37.4091 20.8604C37.2906 20.8405 37.2054 20.7582 37.2017 20.6615L37.1687 19.8772L36.6253 19.6009C36.5316 19.5536 36.4856 19.4648 36.5092 19.3785C36.5316 19.2935 36.6192 19.2281 36.728 19.215ZM31.0002 15.1219L32.0871 14.9981L32.6766 14.2582C32.7739 14.1351 32.9573 14.0746 33.1349 14.1049C33.3137 14.1361 33.4486 14.2517 33.4747 14.3963L33.6298 15.2639L34.5555 15.7352C34.7094 15.8137 34.7852 15.9602 34.7473 16.1021C34.7082 16.245 34.5639 16.3528 34.3827 16.3737L33.297 16.4977L32.7075 17.2376C32.6093 17.3604 32.4257 17.421 32.2481 17.3907C32.0692 17.3597 31.9344 17.2441 31.9083 17.0993L31.7531 16.2308L30.8275 15.7597C30.6735 15.6821 30.5977 15.5354 30.6356 15.3934C30.6747 15.2508 30.8202 15.1427 31.0002 15.1219ZM34.403 20.7032L34.9795 20.638L35.2907 20.2464C35.3429 20.181 35.4399 20.1488 35.5347 20.165C35.6284 20.181 35.7006 20.2425 35.7136 20.319L35.7963 20.779L36.2864 21.0287C36.3682 21.0704 36.4086 21.1479 36.3882 21.2227C36.3682 21.2983 36.2913 21.3552 36.1955 21.3666L35.6199 21.4317L35.3074 21.8234C35.2553 21.8888 35.1583 21.921 35.0647 21.9048C34.9701 21.8888 34.8989 21.8273 34.8846 21.7505L34.8019 21.2908L34.3118 21.0411C34.23 21.0004 34.1896 20.9226 34.2111 20.847C34.2312 20.7712 34.3081 20.7146 34.403 20.7032Z" fill="#FF8856"/>
<path d="M26.4341 18.4058C26.7535 19.4303 27.156 20.4219 28.0819 21.228C28.6596 21.7599 29.8793 21.6245 30.4521 21.0766C30.5518 21.7398 29.9041 22.3189 28.7142 22.4221C27.5149 22.5253 25.3138 21.9462 23.2728 19.8428L26.4341 18.4058Z" fill="#DAC9DB"/>
<path d="M28.082 21.2283C27.1609 20.4223 26.7535 19.4306 26.4341 18.4061L27.0863 18.1089C28.0677 19.2955 29.9348 20.0173 30.3173 20.7117C30.3873 20.8347 30.4273 20.9578 30.4476 21.0769C29.8793 21.6248 28.6597 21.7602 28.082 21.2283Z" fill="white"/>
<path d="M26.9415 18.188C27.1061 18.3983 27.2955 18.5969 27.5052 18.7747C27.7089 18.9573 27.9277 19.1286 28.1517 19.2952C28.6003 19.6205 29.0834 19.9138 29.5156 20.2279C29.6208 20.3067 29.725 20.3861 29.8196 20.4692C29.9145 20.5525 29.9985 20.6368 30.0591 20.7201C30.073 20.74 30.0839 20.7635 30.0978 20.7833C30.1133 20.8071 30.1227 20.8308 30.1336 20.8543C30.1536 20.9025 30.1736 20.95 30.1879 21.0011C30.2127 21.1004 30.2233 21.1997 30.2082 21.2954C30.1833 21.4891 30.073 21.6718 29.899 21.8147C29.725 21.9576 29.4908 22.0654 29.2374 22.1327C28.9828 22.1998 28.7045 22.2356 28.4357 22.2356C28.1623 22.2395 27.8829 22.1998 27.6046 22.1487L27.3997 22.1041L27.1961 22.053L27.0967 22.0256L26.9972 21.9934L26.7972 21.9302C26.7332 21.9103 26.6681 21.8827 26.6029 21.8583C26.539 21.8345 26.4738 21.8108 26.4089 21.7834L26.2204 21.7001L26.1259 21.6604L26.0762 21.6405L26.031 21.617C25.5327 21.3784 25.0651 21.0965 24.6316 20.7797C24.1985 20.4655 23.8006 20.1163 23.4217 19.7549V19.7513C23.3577 19.6915 23.2477 19.684 23.1732 19.7314C23.0986 19.7796 23.0889 19.8666 23.1435 19.9262C23.5069 20.3151 23.9048 20.684 24.3428 21.0256L24.6813 21.2755L25.0353 21.509C25.1551 21.5848 25.2842 21.6567 25.4036 21.7277C25.4627 21.7636 25.5327 21.7948 25.593 21.8307L25.7873 21.9302C26.3092 22.1923 26.8824 22.3984 27.4946 22.5253C27.8035 22.5849 28.1172 22.6283 28.4405 22.6283C28.7697 22.6283 29.088 22.5885 29.4065 22.5054C29.7202 22.4221 30.0233 22.2867 30.2624 22.0843C30.5064 21.8866 30.6758 21.617 30.7053 21.3312C30.7255 21.1883 30.7053 21.0493 30.671 20.9139C30.651 20.8468 30.6261 20.7833 30.5964 20.7153C30.581 20.684 30.5667 20.6518 30.5467 20.6206C30.5264 20.5886 30.5064 20.5525 30.4816 20.5251C30.3928 20.4021 30.2873 20.3028 30.1785 20.2081C30.0684 20.1163 29.9536 20.0293 29.8351 19.9499C29.6008 19.7871 29.3662 19.6406 29.1331 19.4892C28.8985 19.3424 28.67 19.192 28.4451 19.0367C27.9977 18.7313 27.5798 18.4019 27.2506 18.0255C27.1961 17.9621 27.0812 17.9458 27.0021 17.9894C26.9121 18.0367 26.8918 18.1248 26.9415 18.188Z" fill="#775E82"/>
<path d="M29.2627 10.2553C29.6709 10.4265 29.213 10.8504 28.9441 10.9184C28.4064 11.0614 27.8878 11.2391 27.3801 11.4179C27.5493 11.6289 27.7636 11.803 28.0976 11.8665C29.3372 11.9818 30.4523 11.4576 31.2588 10.6639C31.5725 10.3309 31.7664 9.92224 31.8365 9.49741C31.9559 9.62406 32.0305 9.73573 32.0402 9.82269C32.1099 10.4898 31.3391 12.2155 27.1468 13.2592H27.1171C26.42 13.3783 26.5785 12.7236 26.42 12.1247C26.2305 11.4065 25.8326 10.3071 25.3246 9.56909L25.8517 9.35812C25.7877 9.3545 25.7177 9.34699 25.648 9.34311C26.8673 9.32326 28.0927 9.72725 29.2627 10.2553Z" fill="#752B0B"/>
<path d="M8.34187 13.414C8.30643 13.7633 8.12308 14.2552 8.17277 14.5882C8.1928 14.7312 7.94883 15.1843 7.97851 15.3187C7.7051 15.295 7.34141 14.9024 7.06683 14.8353C6.86312 14.7832 6.64431 14.7312 6.42034 14.6725C5.25552 14.3668 3.93045 13.9023 3.67737 12.8387C5.04128 13.065 6.94257 13.3225 8.34187 13.414Z" fill="#752B0B"/>
<path d="M1.37207 12.6045C2.12405 14.3944 4.69182 15.6406 8.03765 15.5251C7.98793 15.3587 7.93822 15.1685 7.89337 14.9622C7.61966 14.9384 7.34142 14.8987 7.06682 14.8306C6.86314 14.7795 6.64431 14.7275 6.42033 14.6679C4.44328 14.6802 2.47686 13.9895 1.37207 12.6045Z" fill="#752B0B"/>
<path d="M11.4133 20.478C10.7065 21.3626 9.87061 22.1204 8.86433 22.7751C6.72363 24.2434 4.03492 24.5217 1.59595 25.4736C1.48593 25.5179 1.38167 25.5652 1.27771 25.6126C1.37713 25.5492 1.48108 25.4821 1.59141 25.4101C2.84043 24.5927 3.93065 23.6844 4.84718 22.6482C5.13604 22.8073 5.51368 22.9217 5.9765 22.9614C7.15218 23.061 9.39719 22.5017 11.4133 20.478Z" fill="#DAC9DB"/>
<path d="M8.95432 14.6604C8.69033 14.6878 8.42632 14.704 8.15747 14.7161C8.46179 12.1843 9.24311 6.22764 17.3235 5.88589C20.4599 5.75533 23.4468 6.91819 25.1398 9.14072C25.5435 9.66873 25.8515 10.2316 26.0952 10.8306C23.6208 10.1323 20.7736 10.3186 18.3737 11.1484C15.6353 12.1012 13.2461 13.5298 10.4579 14.3625C9.9654 14.5139 9.46196 14.6047 8.95432 14.6604Z" fill="#DAC9DB"/>
<path d="M8.11199 15.0927C8.12748 14.9784 8.14294 14.8505 8.15715 14.7161C8.42604 14.7076 8.69001 14.6878 8.954 14.6604C8.65547 16.0417 8.15715 17.4458 7.2561 18.6445C7.65982 17.5688 7.94292 16.391 8.11199 15.0927Z" fill="#DAC9DB"/>
<path d="M1.27753 25.6126C1.38151 25.5615 1.48576 25.5179 1.59579 25.4736C4.03473 24.5217 6.72345 24.2434 8.86417 22.7751C9.87042 22.1204 10.7063 21.3625 11.4131 20.478C11.4783 20.3983 11.5386 20.3188 11.6026 20.2358C11.5435 20.3188 11.4783 20.3983 11.4131 20.478C9.39698 22.5017 7.15202 23.0609 5.97176 22.9577C5.50897 22.918 5.13012 22.8073 4.84217 22.6445C5.85208 21.4977 6.65373 20.1997 7.22657 18.7001C7.23143 18.6803 7.24082 18.6604 7.24689 18.6406C8.14796 17.4416 8.64503 16.0414 8.94448 14.6562C9.45247 14.6044 9.95436 14.5097 10.4481 14.3583C13.2353 13.5248 15.6255 12.096 18.3642 11.1441C20.764 10.3146 23.6113 10.1281 26.0857 10.8264C26.937 12.9096 26.9619 15.4339 27.0719 18.4219C27.2211 22.5091 27.3856 23.6606 28.1173 26.0411C28.4559 27.1368 28.745 27.4859 28.4655 28.065C27.6687 29.7321 25.6771 30.2078 23.5213 30.0216C22.9636 29.9743 22.4119 30.1521 21.7394 30.6489C19.6984 32.1569 17.9059 32.5136 15.4657 31.8391C13.8827 31.4029 13.8733 30.6886 12.7782 30.9657C10.3287 31.5894 8.3871 31.8352 6.80287 30.8078C5.45897 29.9346 6.15635 29.2835 5.35954 29.3393C2.39746 29.5417 0.704409 28.2362 0.33129 27.1964C0.0815249 26.4584 0.530429 26.1046 1.27753 25.6126Z" fill="white"/>
<path d="M13.176 31.1408C13.3406 31.1285 13.4697 31.1483 13.6343 31.2278C13.7988 31.3036 13.9728 31.4182 14.1622 31.5221C14.5399 31.7359 14.9733 31.9062 15.4113 32.0217C15.8447 32.1325 16.2875 32.2279 16.7409 32.2838C17.1943 32.3349 17.662 32.3548 18.1251 32.3196L18.2991 32.3037C18.3594 32.2998 18.4139 32.2952 18.473 32.2838L18.8165 32.2317L19.1502 32.1569C19.2059 32.1448 19.2605 32.1286 19.3147 32.1126L19.4793 32.0651C19.9127 31.9309 20.3201 31.7597 20.7035 31.5572C20.7532 31.5334 20.7983 31.5061 20.8481 31.4823L21.1275 31.3235C21.1724 31.2951 21.2163 31.2675 21.2612 31.2401L21.53 31.0737L21.7892 30.8986L22.038 30.7283C22.1183 30.6724 22.2026 30.6252 22.2877 30.577C22.456 30.4822 22.6311 30.4028 22.8051 30.3471C22.9591 30.2996 23.0336 30.1606 22.9745 30.0376C22.9139 29.9145 22.74 29.8549 22.586 29.9024C22.5814 29.9061 22.5705 29.9061 22.566 29.9109C22.3374 29.9978 22.1326 30.1049 21.9492 30.2241C21.8543 30.2836 21.7643 30.3432 21.6792 30.4067L21.4351 30.5893L21.1972 30.7632L20.9475 30.9308C20.9084 30.9582 20.8681 30.9856 20.8232 31.0141L20.6941 31.0887L20.565 31.1646C20.5201 31.1919 20.4798 31.2164 20.435 31.2401L20.1661 31.383C20.0761 31.4267 19.9825 31.4664 19.8879 31.5097C19.8427 31.5296 19.7979 31.5533 19.7481 31.5695L19.6036 31.6252L19.4593 31.6802L19.4251 31.6923L19.3893 31.7037L19.3147 31.7284L19.1656 31.7718C19.1159 31.788 19.0662 31.803 19.0165 31.8117L18.7122 31.8825L18.403 31.9309C18.3533 31.9423 18.2991 31.9423 18.2493 31.9459L18.0906 31.9621C17.6714 31.9895 17.244 31.9743 16.8203 31.9224C16.4023 31.8626 15.9844 31.7718 15.5758 31.6565C15.377 31.5969 15.1827 31.5334 15.003 31.454C14.8193 31.3746 14.6453 31.2837 14.4808 31.1844C14.3113 31.0812 14.1471 30.9657 13.9373 30.8514L13.8982 30.8315L13.8534 30.8117C13.8237 30.7993 13.7931 30.7831 13.7634 30.7719C13.6994 30.7482 13.6343 30.7235 13.5645 30.7085C13.53 30.7 13.4945 30.6886 13.4603 30.6848L13.3502 30.6724C13.3157 30.6687 13.2802 30.6687 13.2412 30.6687H13.1311C12.9665 30.6687 12.8329 30.7719 12.828 30.9025C12.828 31.034 12.9571 31.1408 13.1217 31.1447C13.1311 31.1447 13.1417 31.1447 13.1511 31.1447L13.176 31.1408Z" fill="#222E6A"/>
<path d="M5.5133 29.5769C5.52877 29.5769 5.52877 29.5769 5.52392 29.573C5.51816 29.5694 5.51816 29.5655 5.52877 29.5769C5.53814 29.5893 5.55361 29.6127 5.56301 29.6404C5.57848 29.6687 5.58787 29.7046 5.6033 29.7397C5.65787 29.8826 5.72756 30.0453 5.827 30.1919C5.92188 30.3394 6.04611 30.4738 6.18101 30.5969C6.31499 30.7199 6.45927 30.8267 6.61441 30.926C6.91749 31.1249 7.25605 31.2913 7.61947 31.4182C7.80435 31.4778 7.98771 31.5335 8.17716 31.5732C8.36658 31.6129 8.56087 31.6403 8.75484 31.6604C9.1434 31.7001 9.53163 31.7001 9.91537 31.6764C10.1094 31.664 10.2976 31.649 10.487 31.6253C10.6764 31.6006 10.8659 31.5771 11.0495 31.5495C11.4235 31.4899 11.7918 31.4182 12.1552 31.3433C12.3401 31.3073 12.5186 31.2675 12.6974 31.2278C12.7874 31.208 12.8823 31.1845 12.9569 31.1721C13.036 31.1607 13.1109 31.1522 13.1757 31.1484C13.3403 31.1447 13.4742 31.0377 13.4694 30.9062C13.4648 30.7756 13.3297 30.6688 13.1663 30.6724C13.1557 30.6724 13.1509 30.6724 13.1415 30.6724H13.1357C13.022 30.6802 12.9117 30.7037 12.8078 30.7284C12.6974 30.7557 12.6228 30.7795 12.534 30.803C12.3589 30.8514 12.1849 30.8987 12.0109 30.9422C11.6627 31.0292 11.3087 31.1086 10.9501 31.1721C10.2433 31.2998 9.51619 31.3707 8.81424 31.3036C8.64026 31.2838 8.46599 31.26 8.29688 31.2242C8.12744 31.1881 7.96287 31.1409 7.80435 31.0851C7.48581 30.9696 7.19089 30.8192 6.92815 30.6366C6.79778 30.5457 6.67354 30.4464 6.56472 30.3433C6.45927 30.2401 6.36467 30.1284 6.30073 30.0092C6.23072 29.891 6.18587 29.7719 6.14554 29.629C6.13615 29.5929 6.1207 29.5531 6.10645 29.5135C6.09098 29.4701 6.07099 29.4265 6.03672 29.3705C6.00125 29.3194 5.94671 29.2514 5.86247 29.2041C5.78212 29.1569 5.69332 29.1332 5.61271 29.1172H5.6033C5.44361 29.0886 5.28476 29.1719 5.24931 29.3034C5.21506 29.4301 5.3193 29.557 5.48357 29.5854C5.4933 29.573 5.50389 29.573 5.5133 29.5769Z" fill="#222E6A"/>
<path d="M17.3079 5.64848C16.8748 5.67222 16.4471 5.70806 16.0186 5.76305C15.5912 5.81875 15.1675 5.89456 14.7495 5.99386C13.9185 6.19151 13.111 6.48192 12.39 6.87091C11.6677 7.25967 11.02 7.73947 10.492 8.29099C10.2292 8.56542 9.98523 8.85487 9.77098 9.15204C9.55669 9.44997 9.36724 9.75952 9.19784 10.0773C8.86413 10.7075 8.61075 11.3668 8.42133 12.0329C8.23188 12.6999 8.10765 13.3709 8.01274 14.0454C7.96789 14.3823 7.9288 14.72 7.88847 15.053L7.81393 15.5488L7.77362 15.7995C7.76422 15.8828 7.74876 15.9662 7.72999 16.0456L7.62935 16.5375L7.57963 16.7836L7.51569 17.0295L7.38534 17.5177L7.37111 17.5774L7.3108 17.7561L7.2314 17.9973L7.15199 18.2396C7.13682 18.2793 7.12713 18.319 7.11197 18.3589L7.06682 18.4781L6.88345 18.9541C6.86799 18.9938 6.85253 19.0335 6.83828 19.0732L6.78404 19.1885L6.67371 19.4222L6.56491 19.657C6.5446 19.6967 6.52945 19.7354 6.50912 19.7715L6.45002 19.8868L6.20605 20.3429C6.16572 20.4185 6.12088 20.4943 6.07118 20.5691L5.93145 20.7915L5.79294 21.0136C5.77292 21.0497 5.74321 21.0894 5.71837 21.1245L5.64381 21.2323L5.3395 21.6685L5.00549 22.0895L4.92155 22.1963L4.88122 22.2474L4.83638 22.2995L4.47873 22.7045L4.38872 22.8076L4.29415 22.9069L3.90558 23.2957C3.87619 23.3269 3.84074 23.3591 3.80618 23.3904L3.70223 23.4861L3.49733 23.6723C3.42732 23.7358 3.36335 23.799 3.29364 23.8588L2.85569 24.2163C2.78113 24.2759 2.71112 24.3355 2.63656 24.3905L2.1783 24.732C2.13798 24.7593 2.10371 24.788 2.06342 24.8153L1.944 24.8948L1.46573 25.2203C1.38631 25.276 1.30235 25.3271 1.22174 25.3792C1.05837 25.486 0.893796 25.593 0.729231 25.7122C0.564636 25.8314 0.406117 25.9619 0.26639 26.1208C0.201223 26.2005 0.137267 26.2914 0.0921256 26.3868L0.0627291 26.4587C0.0521256 26.4825 0.0472542 26.506 0.0378613 26.5336L0.0175732 26.6091C0.013008 26.6329 0.013008 26.6602 0.00695514 26.6849C-0.0178835 26.8872 0.0272651 27.0812 0.0875677 27.2602C0.221241 27.6167 0.455838 27.9347 0.744676 28.2118C1.03352 28.4901 1.37692 28.7285 1.74972 28.9186C1.93914 29.0179 2.13342 29.1012 2.33711 29.177C2.54169 29.2516 2.75022 29.3151 2.95963 29.3672C3.38245 29.474 3.82043 29.5375 4.26446 29.5658C4.48359 29.5772 4.70726 29.5856 4.9264 29.581L5.09098 29.5772L5.25556 29.5696L5.40923 29.5619C5.44952 29.5619 5.47925 29.5619 5.49922 29.5658C5.65806 29.5932 5.81779 29.5101 5.85203 29.3832C5.88781 29.2565 5.78232 29.1286 5.6235 29.1012C5.61896 29.1012 5.61289 29.1012 5.60835 29.1012H5.59864C5.51348 29.0889 5.43891 29.0889 5.36921 29.0937L5.2104 29.1012L5.06127 29.1087L4.91093 29.1136C4.70726 29.1211 4.50844 29.1175 4.30931 29.1051C3.90558 29.0814 3.51279 29.0293 3.12908 28.9385C2.93965 28.8951 2.75022 28.8392 2.5714 28.7721C2.39258 28.7086 2.21285 28.633 2.04825 28.5497C1.71548 28.3831 1.40632 28.177 1.15293 27.9384C0.898631 27.7 0.699521 27.4266 0.589497 27.1371C0.539798 26.9942 0.510073 26.8475 0.525541 26.7159C0.539798 26.5818 0.59555 26.4587 0.69497 26.3395C0.79439 26.2204 0.928027 26.1087 1.07262 25.998C1.22174 25.891 1.38147 25.7842 1.5415 25.6761C1.62061 25.6214 1.70485 25.5693 1.78519 25.5136L2.27315 25.1806L2.39258 25.0972C2.43167 25.0699 2.47198 25.0377 2.51231 25.01L2.97511 24.6564C3.05451 24.6014 3.12424 24.538 3.19879 24.4738L3.42276 24.2873L3.64644 24.1047C3.71616 24.0412 3.78617 23.978 3.86073 23.9145L4.07015 23.7205L4.17443 23.6251C4.2099 23.5929 4.24446 23.5616 4.2787 23.5258L4.67756 23.1244L4.77696 23.0261L4.87185 22.9219L5.0552 22.712L5.24011 22.502L5.28495 22.4499L5.33012 22.3951L5.41406 22.2871L5.75263 21.8548L6.06176 21.4064L6.1409 21.2958C6.16572 21.2597 6.19544 21.2199 6.21575 21.1802L6.49486 20.7205C6.54003 20.6447 6.58976 20.5691 6.62885 20.4894L6.87738 20.0174L6.94253 19.8982C6.96256 19.8585 6.97799 19.8197 6.9971 19.78L7.1071 19.5414L7.21593 19.3031L7.27171 19.1839C7.28591 19.1452 7.3014 19.1054 7.32142 19.0609L7.51085 18.5736L7.55478 18.4505C7.56995 18.4108 7.57963 18.3665 7.5948 18.3267L7.6742 18.0807L7.75483 17.8346L7.79392 17.7118L7.81393 17.6483L7.82938 17.5849L7.9585 17.0854L8.02336 16.8347L8.07305 16.5848L8.17734 16.0815C8.19764 15.9974 8.20703 15.9141 8.22249 15.8308L8.26248 15.5772L8.33735 15.0729C8.381 14.7362 8.41646 14.4022 8.46617 14.0692C8.56104 13.4067 8.68531 12.7474 8.87474 12.1012C8.96928 11.7793 9.07357 11.4576 9.20268 11.1408C9.33301 10.8267 9.47729 10.5174 9.63608 10.2117C9.80069 9.90993 9.98523 9.6166 10.1938 9.33079C10.4032 9.04888 10.6317 8.77542 10.8863 8.52084C11.394 8.00906 11.9956 7.56072 12.6788 7.20396C13.3608 6.84622 14.1172 6.5851 14.9035 6.40635C15.6906 6.22761 16.5123 6.13679 17.3327 6.1082C17.4973 6.10068 17.6264 5.98902 17.617 5.85847C17.6073 5.72793 17.4679 5.62474 17.3033 5.63249C17.3079 5.64848 17.3079 5.64848 17.3079 5.64848Z" fill="#222E6A"/>
<path d="M22.8049 30.351C22.9694 30.2914 23.1386 30.2566 23.308 30.2517C23.3519 30.2517 23.392 30.2517 23.4371 30.2517C23.4571 30.2517 23.482 30.2566 23.5023 30.2566L23.5814 30.2602C23.6905 30.268 23.8005 30.2754 23.9048 30.2801C24.3382 30.2999 24.7762 30.2914 25.2141 30.2442C25.6521 30.2006 26.0855 30.1137 26.4986 29.9782C26.912 29.8431 27.3051 29.6527 27.6389 29.4105C27.8083 29.2914 27.9622 29.1608 28.1017 29.0179C28.2414 28.8752 28.3611 28.7246 28.4654 28.5696L28.5399 28.4504L28.6096 28.331C28.6345 28.2913 28.6548 28.2479 28.6748 28.2082L28.7045 28.1447L28.7339 28.0776C28.7742 27.9904 28.7991 27.8911 28.8194 27.7955C28.8336 27.6962 28.8394 27.5968 28.8288 27.506C28.8088 27.3159 28.7542 27.1408 28.6997 26.9744C28.6451 26.8077 28.5848 26.6488 28.5257 26.4899C28.4654 26.331 28.4157 26.1729 28.3659 26.0101L28.2165 25.5257C28.0226 24.8788 27.8486 24.2277 27.7337 23.573C27.614 22.9183 27.5346 22.2559 27.4803 21.5888C27.4246 20.9227 27.3903 20.2559 27.3548 19.5889C27.3251 18.9228 27.3003 18.2519 27.2754 17.5812C27.2303 16.2432 27.1915 14.8987 27.0115 13.5571C26.9226 12.8864 26.7923 12.2155 26.5935 11.5533C26.3947 10.8901 26.1198 10.2401 25.7421 9.62023L25.6724 9.50591L25.5233 9.27509C25.4984 9.23997 25.4687 9.20023 25.4439 9.16439L25.3633 9.05274C25.3384 9.01762 25.3041 8.98177 25.2793 8.94567L25.1053 8.72818L25.0153 8.62039L24.9159 8.51721L24.7216 8.31085C24.6861 8.27499 24.6565 8.23987 24.6222 8.20767L24.5167 8.10837L24.3036 7.91434L24.2482 7.86613C24.2291 7.85113 24.2091 7.8349 24.1936 7.81891L24.0788 7.72808L23.8502 7.54546C23.7708 7.48588 23.6857 7.42993 23.6063 7.37422C23.5271 7.31923 23.4417 7.25965 23.3625 7.20393L23.1031 7.04868L22.9743 6.96924L22.9091 6.9295C22.8888 6.91813 22.864 6.90577 22.8391 6.89463L22.5657 6.75173L22.4309 6.67979C22.3869 6.65605 22.3372 6.6362 22.2924 6.61635C21.5452 6.26731 20.733 6.00524 19.8925 5.84248C19.0505 5.67971 18.1791 5.61625 17.3138 5.6446C17.1492 5.64847 17.0189 5.75917 17.0295 5.89067C17.0344 6.02123 17.1741 6.1244 17.3387 6.11689H17.3432C18.9666 6.03721 20.6193 6.33053 22.0281 6.97409C22.0732 6.99393 22.1181 7.00896 22.162 7.03368L22.2924 7.10075L22.5503 7.23132C22.5703 7.24365 22.5954 7.25118 22.6154 7.26352L22.6758 7.29937L22.8 7.37035L23.044 7.51712C23.1234 7.5692 23.198 7.62393 23.2774 7.676C23.3519 7.72808 23.4322 7.7792 23.5069 7.8349L23.726 8.00517L23.8348 8.09238C23.8551 8.10837 23.8706 8.1207 23.8905 8.1367L23.9403 8.18416L24.1439 8.3668L24.2433 8.45763C24.2788 8.4896 24.3085 8.52083 24.3382 8.55305L24.5228 8.74707L24.6174 8.8425L24.7016 8.94567L24.8707 9.14816C24.9004 9.18427 24.9301 9.21551 24.955 9.25135L25.0353 9.35816C25.0602 9.39425 25.0898 9.4301 25.1147 9.46619L25.2638 9.68007L25.3339 9.79149C25.7021 10.3745 25.9661 10.9979 26.1601 11.6403C26.3544 12.279 26.4835 12.9385 26.5735 13.5969C26.7532 14.9186 26.7972 16.2556 26.8469 17.5933C26.8669 18.2633 26.8918 18.9303 26.9226 19.601C26.9524 20.2719 26.9866 20.9428 27.0409 21.6126C27.0966 22.2835 27.1712 22.958 27.2955 23.6251C27.4152 24.2958 27.5843 24.9582 27.7737 25.6129L27.9183 26.1048C27.968 26.2715 28.0226 26.434 28.0768 26.5968C28.1314 26.7595 28.1917 26.9223 28.2462 27.0776C28.2959 27.2364 28.3411 27.3869 28.3563 27.5334C28.3659 27.6053 28.3563 27.6763 28.3457 27.7446C28.3314 27.8117 28.3163 27.8788 28.2817 27.9507L28.2568 28.0018L28.2262 28.0578C28.2059 28.0936 28.1917 28.1334 28.1668 28.1646L28.1017 28.2714L28.0319 28.3746C27.9374 28.5136 27.8331 28.6405 27.7089 28.7636C27.5891 28.8864 27.4543 28.998 27.3051 29.1012C27.0115 29.3037 26.6729 29.4665 26.3092 29.581C25.9458 29.6963 25.5575 29.7683 25.1596 29.8034C24.7607 29.8431 24.3582 29.8431 23.9545 29.8232C23.8551 29.8155 23.7508 29.8118 23.6514 29.7995L23.5768 29.792C23.5459 29.7881 23.5165 29.7881 23.482 29.7835C23.4217 29.7797 23.3577 29.7797 23.2974 29.7797C23.0489 29.7881 22.8 29.8354 22.5812 29.9112C22.426 29.9623 22.356 30.1013 22.4211 30.2243C22.4708 30.3474 22.6452 30.4031 22.8049 30.351Z" fill="#222E6A"/>
<path d="M27.6343 27.8786C27.7786 26.9107 27.1512 28.7283 24.672 28.3432C23.2832 28.1247 24.0397 27.6846 23.1683 28.419C21.6647 29.6962 19.6237 29.6962 18.364 29.1919C17.0189 28.6563 17.4321 28.4539 16.3276 28.962C13.0266 30.47 10.1143 29.311 8.94918 28.4975C7.78412 27.6846 8.07782 27.5693 6.95789 27.8786C5.84254 28.1881 4.20977 28.4776 2.64131 27.5693C1.57563 26.9505 1.03342 26.5731 1.28196 27.22C1.69505 28.2959 3.67118 28.8826 5.72766 28.6961C6.01197 28.6726 6.27594 28.6961 6.509 29.3546C6.97213 30.6803 9.3623 31.3945 12.3899 30.4664C13.8438 30.0217 13.6792 30.1447 14.7043 30.788C16.2327 31.7399 19.0257 31.9783 21.7938 29.9943C22.6852 29.3546 22.954 29.5334 24.6271 29.5334C25.7967 29.5334 27.4198 29.0141 27.6483 28.0101" fill="#FF8856"/>
<path d="M1.44667 27.1642C1.41606 27.1131 1.39121 27.0574 1.38152 27.0138C1.37696 27.0014 1.37696 26.9939 1.37696 26.9855C1.37696 26.9816 1.37696 26.9741 1.37696 26.9777C1.37696 26.9777 1.37696 26.9855 1.37211 26.9939C1.37211 26.9939 1.36635 27.0014 1.3615 27.0053C1.35666 27.0099 1.35212 27.0177 1.34725 27.0213C1.33664 27.0336 1.31635 27.0375 1.30695 27.0412C1.3024 27.0412 1.29633 27.045 1.29149 27.045C1.28694 27.045 1.28694 27.045 1.28694 27.045C1.29633 27.045 1.30695 27.0497 1.32242 27.0535C1.34725 27.061 1.37696 27.0734 1.40637 27.0848C1.46576 27.1085 1.53091 27.1404 1.59579 27.1727C1.84918 27.2996 2.09923 27.4461 2.34776 27.5929L2.53718 27.7043L2.74087 27.8153C2.77513 27.8351 2.80603 27.8511 2.84029 27.871L2.94455 27.9182C3.01424 27.9504 3.08427 27.9817 3.15882 28.0139C3.4522 28.1282 3.76138 28.22 4.08445 28.2796C4.72728 28.3905 5.39409 28.3791 6.02634 28.2759C6.3458 28.2239 6.65373 28.1568 6.95319 28.0773C7.10231 28.0374 7.24688 27.9976 7.39116 27.9618C7.52966 27.926 7.67426 27.9022 7.74877 27.9146C7.78426 27.9182 7.8188 27.9305 7.86369 27.9543C7.90853 27.9778 7.96307 28.0175 8.01281 28.0575C8.11826 28.1369 8.23191 28.2278 8.34194 28.3157C8.45681 28.4026 8.57046 28.4898 8.69019 28.5729C8.80505 28.6562 8.9339 28.7434 9.06419 28.8229C9.58158 29.137 10.1535 29.3829 10.756 29.5616C11.3586 29.7396 11.9957 29.8513 12.6434 29.8861C13.2908 29.9223 13.9433 29.8711 14.5695 29.7481C14.8832 29.6846 15.1924 29.6052 15.4906 29.5098L15.7155 29.434C15.75 29.4226 15.79 29.4102 15.8246 29.3942L15.9346 29.3506C16.0043 29.3233 16.0792 29.2959 16.1489 29.2676L16.3571 29.1767C16.4271 29.1445 16.4968 29.1133 16.562 29.0849C16.6259 29.0537 16.696 29.0254 16.7611 28.9941C16.8248 28.9658 16.89 28.9381 16.9551 28.9147C17.0142 28.8909 17.0749 28.8749 17.1091 28.8711C17.1291 28.8672 17.1388 28.8711 17.1494 28.8711C17.1588 28.8711 17.1788 28.8785 17.2037 28.8824C17.2488 28.8984 17.3079 28.9258 17.3731 28.9619C17.5022 29.0254 17.6371 29.097 17.7768 29.1644C17.9153 29.2279 18.055 29.2911 18.1996 29.347L18.2539 29.3669L18.3096 29.3867L18.4233 29.4265C18.4636 29.4378 18.4978 29.4538 18.5382 29.4662L18.653 29.4974C18.9667 29.5854 19.2898 29.6488 19.6132 29.6723C19.6935 29.68 19.7778 29.6846 19.8569 29.6885C19.9424 29.6924 20.0215 29.696 20.1069 29.6924L20.3555 29.6885C20.4349 29.6846 20.52 29.6762 20.5995 29.6686C20.6395 29.6648 20.6786 29.6602 20.7237 29.6563L20.9629 29.6166C21.0032 29.6091 21.0423 29.6052 21.0823 29.5967L21.3214 29.5456L21.3808 29.5333L21.4411 29.5173L21.5548 29.486L21.6697 29.4538C21.6897 29.4502 21.71 29.4424 21.73 29.4388L21.7846 29.4189L22.0082 29.3347C22.0282 29.3271 22.0485 29.3233 22.0628 29.3148L22.1183 29.2911L22.3268 29.1966L22.381 29.1719C22.3965 29.1644 22.4168 29.153 22.431 29.1445C22.5659 29.0687 22.7056 29.0016 22.8251 28.9147L23.0133 28.7916C23.0739 28.748 23.1281 28.6998 23.1887 28.6562L23.2727 28.5891C23.3024 28.5654 23.333 28.5419 23.3579 28.5218L23.5167 28.3828L23.6716 28.2437C23.6964 28.2239 23.7213 28.2001 23.7355 28.188C23.7355 28.188 23.731 28.188 23.7261 28.1917C23.7213 28.1917 23.7213 28.1917 23.7155 28.1965C23.7061 28.2001 23.6964 28.2001 23.6813 28.2001C23.6658 28.2001 23.6564 28.2001 23.641 28.2001C23.6313 28.2001 23.6207 28.1965 23.6161 28.1965C23.5958 28.188 23.6019 28.188 23.6113 28.1965L23.6564 28.2239C23.6907 28.2437 23.7261 28.2675 23.7652 28.2873C23.8459 28.3271 23.925 28.3593 24.0044 28.3867C24.1641 28.4423 24.3287 28.4775 24.4875 28.5058C24.8057 28.5618 25.1349 28.5891 25.4689 28.5768C25.8017 28.5654 26.1308 28.5097 26.4445 28.4104C26.7534 28.3108 27.041 28.1682 27.2911 27.9976C27.355 27.9543 27.4153 27.9146 27.4699 27.871L27.5551 27.8075C27.5799 27.7877 27.6093 27.7678 27.6296 27.7554C27.639 27.7479 27.6484 27.7443 27.6439 27.7479H27.639H27.6296C27.6236 27.7479 27.619 27.7479 27.6142 27.7518C27.6093 27.7518 27.5987 27.7518 27.5893 27.7518C27.5799 27.7518 27.5693 27.7518 27.5596 27.7479C27.549 27.7443 27.5347 27.7395 27.5241 27.7356C27.5147 27.7281 27.5053 27.7281 27.4993 27.7196C27.4947 27.7157 27.4851 27.7043 27.4805 27.7043C27.4744 27.6997 27.4744 27.6959 27.4699 27.6922L27.465 27.6845C27.465 27.6799 27.4602 27.676 27.4602 27.676V27.6799C27.4602 27.6845 27.4602 27.6959 27.4602 27.7082C27.4602 27.7593 27.4496 27.8189 27.445 27.8785C27.4353 27.9579 27.5053 28.0253 27.6048 28.0337C27.6993 28.0413 27.7881 27.9856 27.7988 27.9107C27.8084 27.8472 27.8178 27.783 27.8239 27.7121C27.8239 27.6922 27.8239 27.6724 27.8239 27.6486C27.8239 27.6401 27.8239 27.6363 27.8178 27.6287L27.813 27.605C27.813 27.5966 27.8036 27.5852 27.8036 27.573C27.8036 27.5692 27.7988 27.5617 27.793 27.553C27.7881 27.5455 27.7836 27.537 27.7787 27.5331C27.7739 27.5295 27.7588 27.5171 27.749 27.5096C27.7384 27.5021 27.729 27.4934 27.709 27.4859C27.6936 27.4783 27.6745 27.4735 27.6593 27.4699C27.6439 27.466 27.6296 27.466 27.6142 27.466C27.5987 27.466 27.5845 27.466 27.5739 27.466C27.5644 27.466 27.5551 27.4699 27.5445 27.4699C27.5347 27.4735 27.5302 27.4735 27.5196 27.4735L27.4993 27.4783C27.4544 27.4934 27.4353 27.5057 27.4153 27.5171C27.375 27.5418 27.3453 27.5617 27.3111 27.5852L27.2211 27.6486C27.1607 27.6883 27.1062 27.7281 27.0471 27.7642C26.8174 27.9107 26.5688 28.0337 26.2954 28.1171C26.0266 28.2001 25.7377 28.2437 25.4489 28.2476C25.1597 28.2561 24.8664 28.2239 24.5775 28.1728C24.4329 28.1445 24.2981 28.1132 24.169 28.0686C24.1038 28.0451 24.0492 28.0214 23.995 27.994C23.9701 27.9778 23.9453 27.9657 23.9156 27.9458L23.8659 27.9146L23.8504 27.9068L23.8304 27.8947L23.8207 27.8908L23.8055 27.8824L23.7901 27.8748C23.7853 27.871 23.7807 27.871 23.771 27.8671C23.751 27.8625 23.7355 27.8586 23.7155 27.855C23.6964 27.8511 23.6716 27.8511 23.6467 27.8511C23.6267 27.8511 23.6064 27.855 23.5864 27.8586C23.577 27.8625 23.5664 27.8625 23.5616 27.8671L23.5212 27.8824L23.507 27.8908L23.4821 27.9068C23.467 27.9146 23.4573 27.9221 23.4418 27.9305C23.4018 27.9579 23.3721 27.9856 23.3473 28.01L23.1887 28.1483L23.0336 28.2835L22.9945 28.3157L22.9542 28.3469L22.8747 28.4104L22.715 28.5332L22.541 28.6448C22.431 28.7243 22.3019 28.7831 22.1822 28.8512C22.168 28.8587 22.1528 28.8672 22.1373 28.8749L22.0876 28.8948L21.9928 28.9381L21.8994 28.9818L21.8485 29.0016C21.8343 29.0101 21.8139 29.014 21.7988 29.0215L21.5997 29.0934L21.55 29.1133C21.5357 29.1171 21.5157 29.1208 21.5003 29.1283L21.396 29.1569L21.2908 29.1843L21.2411 29.2002L21.1865 29.2116L20.9723 29.2562C20.938 29.2637 20.9026 29.2676 20.8635 29.2712L20.7531 29.2874L20.6443 29.3034C20.6089 29.3073 20.5698 29.3109 20.5343 29.3109C20.4598 29.3148 20.3897 29.3233 20.3152 29.3271L20.096 29.3308C20.0215 29.3347 19.9518 29.3271 19.8772 29.3271C19.8027 29.3233 19.7326 29.3233 19.6581 29.3109C19.3644 29.2874 19.0804 29.2315 18.807 29.153L18.7027 29.1246C18.6673 29.1171 18.6376 29.1009 18.6033 29.0886L18.5039 29.0537L18.4539 29.0338L18.403 29.014C18.2693 28.958 18.1402 28.9023 18.0102 28.8389C17.8811 28.7793 17.7568 28.7122 17.6216 28.6448C17.5519 28.609 17.4831 28.5729 17.3885 28.537C17.3388 28.5218 17.2831 28.5058 17.2191 28.4973C17.154 28.4898 17.0891 28.4898 17.0297 28.4973C16.9103 28.5133 16.8203 28.5419 16.7408 28.5693C16.6614 28.5966 16.5869 28.6289 16.5172 28.6601C16.4471 28.6923 16.3774 28.7243 16.3074 28.7519C16.2377 28.7831 16.1737 28.8151 16.104 28.8427L15.9037 28.9306C15.8398 28.958 15.77 28.9818 15.7003 29.0101L15.6006 29.0488C15.5664 29.0612 15.5309 29.0736 15.4967 29.0849L15.2869 29.1569C15.0087 29.2438 14.7247 29.3194 14.431 29.3744C13.8485 29.486 13.2505 29.5371 12.6528 29.5059C12.056 29.4776 11.4689 29.3744 10.9052 29.208C10.3429 29.0413 9.80525 28.8151 9.33304 28.5295C9.09845 28.3867 8.8748 28.22 8.65109 28.0536C8.54077 27.9703 8.43076 27.8824 8.31254 27.7915C8.25192 27.7479 8.18675 27.6997 8.1028 27.6561C8.06249 27.6326 8.01281 27.6128 7.96307 27.5929C7.90853 27.5767 7.85427 27.5617 7.79397 27.5568C7.67426 27.5455 7.57482 27.5568 7.48602 27.5692C7.396 27.5852 7.3166 27.6014 7.23626 27.6213C7.08229 27.66 6.93318 27.7043 6.7886 27.7443C6.49977 27.8228 6.21092 27.8908 5.91722 27.9381C5.33015 28.0374 4.72728 28.0487 4.15447 27.9579C3.86564 27.9061 3.58739 27.8313 3.3234 27.7319C3.25823 27.7043 3.19428 27.676 3.12913 27.6486L3.02972 27.605C3 27.589 2.96941 27.573 2.93483 27.5568L2.75024 27.4621L2.56204 27.3543C2.30744 27.2114 2.05404 27.0649 1.77462 26.9305C1.70492 26.8982 1.63489 26.8624 1.55577 26.8351C1.51547 26.8188 1.47638 26.8074 1.42667 26.7914C1.4018 26.7839 1.37696 26.7791 1.34725 26.7755L1.32725 26.7716L1.3024 26.7677H1.27754C1.26662 26.7677 1.2527 26.7677 1.24178 26.7677C1.23239 26.7677 1.21692 26.7677 1.20754 26.7716C1.19205 26.7755 1.17783 26.7791 1.16269 26.7839C1.13783 26.7876 1.09752 26.8074 1.07267 26.8273C1.0181 26.8709 1.00265 26.922 0.998098 26.9542C0.988407 27.0213 1.00265 27.061 1.01325 27.1007C1.03841 27.1766 1.07267 27.2362 1.10207 27.2996C1.14236 27.3706 1.24665 27.4025 1.33664 27.3706C1.44092 27.3231 1.48577 27.24 1.44667 27.1642Z" fill="#222E6A"/>
<path d="M23.1888 13.4542C24.0944 13.4542 24.8309 14.0653 24.8309 14.8157C24.8309 15.5649 24.0944 16.1762 23.1888 16.1762C22.2816 16.1762 21.5454 15.5649 21.5454 14.8157C21.5454 14.0653 22.2816 13.4542 23.1888 13.4542Z" fill="#222E6A"/>
<path d="M13.4899 13.8984C14.3955 13.8984 15.133 14.5098 15.133 15.2592C15.133 16.0093 14.3955 16.6206 13.4899 16.6206C12.584 16.6206 11.8466 16.0093 11.8466 15.2592C11.8466 14.5098 12.584 13.8984 13.4899 13.8984Z" fill="#222E6A"/>
<path d="M12.4194 14.8429C12.4194 15.1287 12.8871 15.367 13.4899 15.367C14.0925 15.367 14.5353 15.1362 14.5399 14.8504C14.5399 14.5411 14.0722 14.1918 13.4851 14.1882C12.9026 14.1882 12.4243 14.5336 12.4194 14.8429Z" fill="white"/>
<path d="M22.123 14.3942C22.123 14.68 22.5907 14.9183 23.1933 14.9183C23.7958 14.9183 24.2386 14.6875 24.2435 14.402C24.2435 14.0924 23.7758 13.7434 23.1887 13.7395C22.6062 13.7395 22.1279 14.0888 22.123 14.3942Z" fill="white"/>
<path d="M17.6075 17.1883C17.5129 16.9771 17.4384 16.7359 17.3932 16.4578C18.1155 16.9621 19.8476 16.8863 20.3605 16.4019C20.2407 16.8032 20.2456 17.4182 19.9673 17.8343C19.4891 17.2714 18.4637 17.1001 17.6075 17.1883Z" fill="#A65A7F"/>
<path d="M19.9671 17.8343C19.8971 17.9375 19.8132 18.0332 19.6983 18.1051C19.1703 18.4542 18.1095 18.3265 17.6073 17.1884C18.4635 17.1002 19.4889 17.2715 19.9671 17.8343Z" fill="#FFB0D7"/>
<path d="M20.2062 16.3748C20.1362 16.5812 20.1007 16.7837 20.0571 16.9774C20.0168 17.1724 19.9716 17.3626 19.8971 17.5377C19.8628 17.6246 19.8131 17.7041 19.7622 17.7799C19.7325 17.8148 19.7077 17.8508 19.6734 17.8792C19.6579 17.8944 19.6437 17.9105 19.6237 17.9228L19.5679 17.9625C19.4249 18.0609 19.2305 18.109 19.0305 18.0969C18.8317 18.0892 18.6326 18.0221 18.4634 17.9143C18.378 17.8632 18.2989 17.7997 18.2243 17.7317C18.1497 17.6644 18.0846 17.5888 18.0252 17.5094C17.7861 17.1923 17.6463 16.8195 17.5518 16.4344C17.5375 16.3673 17.4523 16.3191 17.3635 16.3351C17.2829 16.3475 17.2283 16.4061 17.2332 16.4705C17.2535 16.6766 17.2983 16.883 17.3681 17.0855C17.4381 17.2879 17.5326 17.4895 17.6618 17.6767C17.6915 17.7239 17.7318 17.7714 17.766 17.8148C17.8064 17.8594 17.8455 17.9066 17.8903 17.9463C17.9803 18.0335 18.0749 18.1129 18.1898 18.1839C18.4137 18.3268 18.6977 18.4307 19.0008 18.4459C19.1499 18.4544 19.31 18.4421 19.4543 18.4024C19.5988 18.3626 19.7431 18.3031 19.8567 18.2197L19.9422 18.165C19.9716 18.1451 19.992 18.1168 20.0168 18.0931C20.0665 18.0458 20.1007 17.9938 20.141 17.9463C20.2062 17.8433 20.2604 17.7401 20.3008 17.637C20.3802 17.426 20.4099 17.2196 20.4393 17.0171C20.4641 16.8149 20.4844 16.617 20.5199 16.4308V16.4259C20.5341 16.355 20.4748 16.2915 20.385 16.2794C20.3008 16.2716 20.2262 16.3114 20.2062 16.3748Z" fill="#46334D"/>
<path d="M17.2891 16.5531C17.3931 16.6403 17.5176 16.7074 17.6464 16.767C17.7768 16.823 17.9105 16.8663 18.0502 16.8985C18.3284 16.962 18.6127 16.9857 18.8967 16.9819C19.1798 16.977 19.4638 16.946 19.7375 16.8741C19.8772 16.839 20.0121 16.7908 20.1363 16.7312C20.2655 16.6677 20.3852 16.5929 20.4797 16.4851C20.5294 16.4303 20.514 16.347 20.4455 16.3073C20.3852 16.2712 20.3009 16.2751 20.2454 16.3148L20.2358 16.3187C20.076 16.4303 19.8523 16.505 19.619 16.5486C19.4996 16.573 19.3798 16.5883 19.2556 16.6006C19.1301 16.613 19.0116 16.6205 18.8861 16.6205C18.7618 16.6241 18.6376 16.6205 18.5179 16.6081C18.3936 16.6006 18.2742 16.5844 18.1544 16.5645C17.9153 16.5248 17.6916 16.4577 17.4973 16.3545L17.4928 16.3507C17.4179 16.3109 17.3185 16.3272 17.2688 16.3819C17.2285 16.4415 17.2334 16.5098 17.2891 16.5531Z" fill="#46334D"/>
<path d="M8.86427 11.8426C11.7518 11.2003 14.2323 9.89449 16.8358 8.72802C19.5494 7.50558 22.5754 7.14784 25.5827 7.14421C25.907 7.14784 26.2398 7.15656 26.5689 7.17642C25.7969 7.02115 25.0404 6.92185 24.2933 6.87437C24.2885 6.87437 24.2839 6.87437 24.2733 6.87437C23.3771 6.81868 22.5009 6.83467 21.6449 6.91046C17.6075 7.25489 14.0225 8.85106 11.1647 10.1045C10.8662 10.235 10.5573 10.3545 10.2482 10.4574C9.96538 10.5531 9.68109 10.64 9.39224 10.7195C9.0334 10.8151 8.67603 10.8985 8.31718 10.9656C7.24698 11.1719 6.19101 11.2673 5.23082 11.2986C3.95088 11.3432 2.85582 11.2712 2.15356 11.2003C1.44099 11.1283 1.1673 11.3071 1.15308 11.66C3.78144 11.8787 6.24529 12.4813 8.86427 11.8426Z" fill="#F3CA9C"/>
<path d="M31.1696 8.96155C31.3884 9.17154 31.6015 9.39753 31.8158 9.63222C31.8267 9.58888 31.8361 9.54528 31.8406 9.50071C31.687 9.3343 31.4523 9.1517 31.1696 8.96155Z" fill="#B777BA"/>
<path d="M29.0338 7.87436C28.2016 7.56893 27.3799 7.34269 26.5737 7.17992C26.2454 7.16008 25.9166 7.15159 25.5886 7.14771C22.5753 7.15644 19.5493 7.50934 16.8403 8.73154C14.2322 9.89827 11.7517 11.2038 8.86993 11.8464C6.25123 12.4812 3.79108 11.8786 1.16724 11.6676C1.16724 11.7073 1.16724 11.7517 1.17209 11.7953C1.20268 12.0762 1.27149 12.3506 1.38152 12.6088C2.48747 13.9931 4.45392 14.6839 6.42521 14.6761C5.26014 14.3707 3.93535 13.9061 3.68195 12.8426C5.0507 13.0688 6.39549 13.4217 7.79396 13.5135C7.79396 13.4897 7.79853 13.4651 7.79853 13.4416C8.27221 13.4302 8.75051 13.3905 9.22758 13.3224C9.45248 13.2911 9.67648 13.2551 9.90468 13.2117C10.015 13.1918 10.1238 13.1717 10.2338 13.1482C11.3243 12.922 12.4443 12.5844 13.6045 12.1917C13.6684 12.1719 13.7336 12.1482 13.8036 12.1244C15.4718 11.553 17.2334 10.8746 19.155 10.255C20.958 9.67205 22.5456 9.40996 23.905 9.33438C24.1784 9.31817 24.4484 9.31452 24.7063 9.31066C25.0404 9.31066 25.3589 9.32301 25.6632 9.34285C26.8825 9.31817 28.1067 9.72701 29.2775 10.255C29.6849 10.4263 29.2278 10.8501 28.9581 10.9182C28.4204 11.0611 27.903 11.2389 27.395 11.4177C27.5645 11.6286 27.7787 11.8028 28.1128 11.8662C29.3521 11.9815 30.4675 11.4574 31.2737 10.6636C31.558 10.3665 31.7413 10.0051 31.8268 9.62867C31.6125 9.39397 31.4028 9.17162 31.1791 8.95776C30.5872 8.56901 29.7903 8.15169 29.0338 7.87436Z" fill="#F25510"/>
<path d="M12.8578 8.01366C12.5287 7.76661 12.4896 7.38633 12.5641 7.01721L12.0513 7.21969C11.9119 7.27468 11.8513 7.42219 11.9165 7.54523L11.9568 7.62008L12.3793 8.43753C12.4444 8.56518 12.609 8.62017 12.7475 8.56518L13.5549 8.24716C13.2804 8.24353 13.0164 8.19145 12.8578 8.01366Z" fill="#38263B"/>
<path d="M13.7986 6.52942L12.5589 7.01748C12.4844 7.39024 12.5235 7.77171 12.8526 8.01391C13.016 8.19172 13.28 8.24378 13.5488 8.24743L14.6345 7.82283C14.6842 7.27955 14.4154 6.71955 13.7986 6.52942Z" fill="#5F5061"/>
<path d="M15.3215 7.28333L14.8787 6.43004L14.8583 6.38644C14.7944 6.26338 14.6298 6.20381 14.4901 6.25951L13.8036 6.52934C14.4204 6.71948 14.6844 7.27946 14.6395 7.82274L15.1826 7.60887C15.3215 7.55292 15.3818 7.40639 15.3215 7.28333Z" fill="#38263B"/>
<path d="M10.7762 6.87066C10.6365 6.92542 10.5774 7.0722 10.6425 7.19621L10.9754 7.83855L10.9408 7.8509C10.9159 7.86229 10.8911 7.8744 10.8662 7.88578C11.0451 8.19145 11.2251 8.4971 11.4039 8.80255C11.6822 7.97394 11.9519 7.14414 12.2008 6.31042L10.7762 6.87066Z" fill="#E6D093"/>
<path d="M12.1306 7.96525L11.9517 7.6201L11.9117 7.54524C11.8466 7.41762 11.9069 7.2747 12.0454 7.21971L12.474 7.05331C12.6088 6.71543 12.7428 6.3778 12.8825 6.04089L12.1896 6.31433C11.9411 7.14778 11.6723 7.98148 11.394 8.80644C11.4828 8.96168 11.5729 9.11672 11.6677 9.27099C11.8168 8.83115 11.9708 8.39783 12.1306 7.96525Z" fill="white"/>
<path d="M12.8671 9.37049C12.9865 9.04133 13.1063 8.71194 13.2257 8.37818L12.7474 8.56539C12.6089 8.62038 12.4398 8.56539 12.3792 8.43774L12.1355 7.96545C11.9767 8.39802 11.8218 8.83499 11.6724 9.2712C11.7672 9.43396 11.8666 9.59674 11.9615 9.76314C12.2504 9.63256 12.5592 9.50106 12.8671 9.37049Z" fill="#E6D093"/>
<path d="M14.1719 5.53271L12.8872 6.03699C12.7475 6.37391 12.6138 6.70792 12.4789 7.04845L13.8689 6.50542C13.9728 6.18378 14.0722 5.85824 14.1719 5.53271Z" fill="#E6D093"/>
<path d="M13.2258 8.37792C13.1063 8.70807 12.9866 9.0411 12.8672 9.37027C13.3549 9.16414 13.8629 8.9539 14.3814 8.75142C14.4654 8.446 14.5509 8.13644 14.63 7.82617L13.2258 8.37792Z" fill="white"/>
<path d="M15.7949 5.82626C15.7856 5.83108 15.7795 5.83108 15.7701 5.83497L15.4858 5.29071C15.441 5.1999 15.3415 5.14806 15.2373 5.14417C15.2218 5.22363 15.2078 5.30307 15.1924 5.38252C15.1178 5.77514 15.0336 6.16801 14.9436 6.55675L15.3167 7.28337C15.3818 7.41005 15.3215 7.55297 15.1827 7.60891L14.6299 7.82642C14.5507 8.13668 14.4653 8.44624 14.3813 8.75167C15.2124 8.42636 16.0792 8.11682 16.98 7.84264C16.5621 7.1802 16.149 6.51314 15.7949 5.82626Z" fill="#E6D093"/>
<path d="M15.2372 5.14417C15.1969 5.14417 15.1578 5.14806 15.1178 5.16404L14.1719 5.5368C14.0722 5.86233 13.9728 6.18399 13.8688 6.50563L14.4902 6.26343C14.6298 6.20772 14.7944 6.26343 14.8584 6.39011L14.8787 6.4337L14.9435 6.56062C15.0336 6.17163 15.1178 5.779 15.1924 5.38638C15.2078 5.30307 15.2218 5.22363 15.2372 5.14417Z" fill="white"/>
<path d="M21.2021 5.00858C19.2309 4.96136 17.4135 5.31909 15.795 5.82242C16.149 6.51295 16.5621 7.17636 16.9801 7.83857C18.4482 7.39387 20.0122 7.04849 21.6495 6.91041C22.1481 6.86586 22.6561 6.84599 23.1686 6.84237C22.6206 6.09683 21.9835 5.43729 21.2021 5.00858Z" fill="#5F5061"/>
<path d="M23.1685 6.84256C23.5367 6.84256 23.905 6.85104 24.279 6.87454L24.2838 6.7716C24.1738 6.64855 23.5416 5.95776 22.3268 5.04487L22.2971 5.07708C21.9289 5.041 21.5606 5.0175 21.202 5.00879C21.9834 5.4375 22.6205 6.09703 23.1685 6.84256Z" fill="#AB9BAD"/>
<path d="M9.76034 8.37793C9.62639 8.43364 9.49633 8.48087 9.37665 8.52061H9.37209C9.20267 10.0809 8.3219 10.958 8.3219 10.958V10.9655C8.68045 10.8984 9.03929 10.8151 9.39693 10.7194C9.63125 10.6562 9.86579 10.5889 10.094 10.5133C10.0989 9.78275 9.9698 9.07237 9.76034 8.37793Z" fill="#38263B"/>
<path d="M10.8555 7.88586C10.453 8.07698 10.0847 8.24361 9.75562 8.37417C9.96532 9.07246 10.0941 9.78286 10.0941 10.5095C10.1487 10.4935 10.1984 10.4736 10.2542 10.4574C10.5618 10.3506 10.8709 10.2351 11.1692 10.1045C11.4238 9.99286 11.6878 9.87854 11.9566 9.75938C11.5884 9.13666 11.225 8.5132 10.8555 7.88586Z" fill="#5F5061"/>
<path d="M9.25857 6.40222C9.34255 7.70797 8.97913 9.02126 7.93378 9.92953C7.48007 10.3381 6.89785 10.569 6.33044 10.5927C6.04646 10.8463 5.68759 11.0846 5.24023 11.3034C6.1956 11.2711 7.25637 11.1755 8.32659 10.9693V10.9616C8.32659 10.9616 9.20888 10.0845 9.37678 8.52542H9.38285C9.41713 8.51307 9.44682 8.50074 9.48228 8.48935C9.47167 7.78646 9.42197 7.09663 9.25857 6.40222Z" fill="#8E5E1F"/>
<path d="M15.6353 1.19954C16.8701 1.26291 17.6217 2.54868 18.832 2.91008C19.2699 3.03312 19.7033 3.16754 20.121 3.33031C18.1252 2.11255 17.2892 0.532525 15.3664 0.226926C14.0522 0.0168734 11.6227 0.73876 8.66062 3.20726C6.71418 4.82692 7.81408 7.18752 7.25183 9.12448C7.84379 8.10451 7.93379 6.66337 8.25688 5.65214C9.01946 2.88657 12.5641 1.11249 15.6353 1.19954Z" fill="#F3CA9C"/>
<path d="M9.47155 8.48566C9.56157 8.45343 9.65617 8.41371 9.75557 8.37786C9.66103 8.06081 9.54611 7.74763 9.42188 7.43347C9.46187 7.78251 9.47155 8.13178 9.47155 8.48566Z" fill="#EEBEF0"/>
<path d="M18.9264 3.29901C19.8321 3.81468 20.6041 4.39356 21.3215 5.01338C21.64 5.02477 21.9634 5.04463 22.2926 5.07684L22.322 5.04463C21.6852 4.5648 21.2815 4.00093 20.3201 3.44941C20.2513 3.4097 20.1816 3.36998 20.1164 3.33026C19.7033 3.16748 19.2698 3.02919 18.8271 2.91002C18.3891 2.7785 18.0102 2.5288 17.6514 2.25916C18.0102 2.6557 18.414 3.01708 18.9264 3.29901Z" fill="#EEBEF0"/>
<path d="M18.9264 3.29901C18.4139 3.01708 18.0053 2.6557 17.6513 2.25915C17.0142 1.78323 16.4223 1.24302 15.6352 1.20326C12.5592 1.11622 9.01331 2.89016 8.25196 5.65961C7.92885 6.66816 7.83883 8.11198 7.24689 9.13193C7.09172 9.65969 6.81833 10.1555 6.32581 10.5966C6.89291 10.5728 7.47541 10.343 7.92885 9.93413C8.80509 9.16778 9.20271 8.12433 9.25849 7.03705C9.13303 6.74302 8.99906 6.45332 8.86419 6.16388C9.0039 6.45332 9.13303 6.74302 9.25849 7.03705C9.2679 6.82608 9.2679 6.61609 9.25242 6.40609C9.21335 6.23945 9.16847 6.06821 9.11392 5.89794C9.16847 6.06821 9.21335 6.23484 9.25242 6.40609C9.21819 5.87056 9.10817 5.3302 8.93874 4.82228C9.10817 5.3302 9.21819 5.86572 9.25242 6.40609C9.33306 6.75148 9.38731 7.09203 9.42187 7.43742C9.54615 7.75157 9.65615 8.06475 9.75558 8.38252C10.1096 8.23962 10.4978 8.06087 10.93 7.85838L10.9655 7.84602L10.6318 7.20369C10.5679 7.07678 10.6269 6.9341 10.7667 6.87816L15.113 5.1713C15.2527 5.11656 15.4161 5.1713 15.4812 5.29919L15.7652 5.84223C17.4228 5.32268 19.2899 4.95744 21.3214 5.02477C20.6089 4.39356 19.8321 3.81468 18.9264 3.29901Z" fill="#F25510"/>
<path d="M3.92589 12.8947C4.44812 13.1085 5.00096 13.2834 5.57381 13.4018C6.14574 13.521 6.73886 13.5929 7.3308 13.6079C7.92397 13.6242 8.51587 13.5891 9.09845 13.5171C9.243 13.5011 9.38728 13.4774 9.53183 13.4539L9.96525 13.3866C10.248 13.3345 10.5324 13.2749 10.8163 13.2117C11.9411 12.9533 13.0222 12.6003 14.0876 12.2351C15.152 11.8699 16.2035 11.4811 17.2536 11.1122C17.7816 10.9257 18.3096 10.7431 18.8364 10.5643L19.2355 10.4338C19.3692 10.3941 19.4995 10.3504 19.6332 10.3107C19.7681 10.271 19.902 10.2313 20.0369 10.1916C20.1709 10.1519 20.3057 10.1167 20.4394 10.0809C20.5746 10.0448 20.714 10.0128 20.848 9.97771C20.9829 9.9455 21.1214 9.91425 21.2566 9.88587C21.5299 9.82632 21.8094 9.77519 22.0827 9.72701C22.6404 9.63617 23.2027 9.56524 23.7652 9.52912C24.3287 9.48939 24.9006 9.48092 25.4628 9.51315C26.0266 9.54052 26.5888 9.60881 27.1419 9.71176C27.6887 9.81494 28.2309 9.95397 28.7389 10.1441C28.8692 10.1916 28.9935 10.2436 29.1129 10.2948L29.2029 10.3345L29.2775 10.3703C29.2823 10.3742 29.2872 10.3827 29.2917 10.3863C29.2966 10.3902 29.3023 10.3977 29.3023 10.4064C29.3023 10.4139 29.3072 10.4175 29.312 10.4263C29.3166 10.4536 29.3166 10.481 29.3023 10.5132C29.2966 10.5207 29.2917 10.5292 29.2872 10.537L29.2823 10.5491L29.2717 10.5605L29.2526 10.5842C29.242 10.5927 29.2327 10.6002 29.2278 10.6086C29.152 10.676 29.0481 10.7395 28.9389 10.7952L28.9332 10.799C28.8489 10.8388 28.8241 10.9257 28.8786 10.9928C28.9283 11.0611 29.0383 11.081 29.1177 11.0412C29.2526 10.9778 29.3866 10.9058 29.506 10.8027C29.5215 10.7913 29.5357 10.7753 29.5512 10.7629L29.5915 10.7157L29.6103 10.692L29.6257 10.6636C29.6351 10.6438 29.6506 10.6285 29.6551 10.6086C29.6954 10.5331 29.7051 10.4413 29.6848 10.3543C29.6803 10.3345 29.6706 10.3107 29.6661 10.2909C29.6551 10.271 29.6457 10.2512 29.6303 10.2313C29.6163 10.2114 29.6009 10.1916 29.5854 10.1753C29.576 10.1678 29.5654 10.1555 29.5557 10.148L29.5406 10.132C29.5357 10.1281 29.5263 10.1206 29.5157 10.1167L29.5015 10.1082C29.4966 10.1044 29.4909 10.1044 29.4909 10.1044L29.4812 10.0969L29.4563 10.0845L29.4066 10.061L29.312 10.0128C29.1829 9.95397 29.0526 9.89825 28.9189 9.84619C28.3861 9.63617 27.8239 9.48092 27.2507 9.36661C26.6776 9.25108 26.0905 9.18009 25.5031 9.14425C24.916 9.10816 24.3229 9.11203 23.7403 9.14791C22.5659 9.21523 21.4102 9.41748 20.2951 9.7033C20.1567 9.73936 20.0169 9.77519 19.8772 9.81494C19.7375 9.85004 19.6035 9.89436 19.4638 9.93408C19.3243 9.97383 19.1904 10.0174 19.0555 10.061L18.653 10.1916C18.1153 10.3664 17.5825 10.5529 17.0545 10.7356C15.9985 11.1083 14.9483 11.4971 13.8936 11.8662C12.8373 12.2315 11.772 12.5766 10.6815 12.8426C9.59095 13.1046 8.46619 13.2788 7.34142 13.2589C6.77798 13.2514 6.21575 13.1955 5.67322 13.0886C5.39986 13.0375 5.13008 12.9695 4.86699 12.8898C4.60303 12.8152 4.34386 12.7234 4.08444 12.6277C3.99563 12.5928 3.89044 12.6241 3.84651 12.696C3.80618 12.7755 3.84075 12.8588 3.92589 12.8947Z" fill="#222E6A"/>
<path d="M22.2026 5.15141C22.3563 5.30278 22.5208 5.44569 22.6854 5.59248L23.178 6.02094L23.6659 6.44966L24.1536 6.87426V6.87813C24.2188 6.93771 24.3336 6.94158 24.4082 6.88563C24.4734 6.84228 24.4828 6.76743 24.4424 6.71173C24.3182 6.52909 24.1739 6.36998 24.0245 6.20744C23.9499 6.12775 23.8708 6.05315 23.7902 5.97371C23.7108 5.8979 23.6268 5.82233 23.5417 5.74749C23.4574 5.67555 23.3722 5.59999 23.2834 5.53265C23.1934 5.46169 23.1082 5.39361 23.0134 5.32653C22.8349 5.19112 22.6406 5.06058 22.4418 4.94141C22.3623 4.89418 22.2523 4.90556 22.1929 4.96975C22.1481 5.02838 22.1481 5.10029 22.2026 5.15141Z" fill="#31133D"/>
<path d="M5.31484 11.43C5.57885 11.3069 5.83223 11.1679 6.06649 11.009C6.3011 10.8501 6.51992 10.6685 6.70359 10.4696C6.88817 10.271 7.04697 10.0525 7.17703 9.82628C7.30159 9.60006 7.39616 9.3627 7.46617 9.12437C7.60468 8.64358 7.64015 8.15625 7.64953 7.67957C7.66015 7.19975 7.6447 6.7277 7.65437 6.25926C7.66499 5.79106 7.70531 5.33014 7.82957 4.88568C7.88869 4.66406 7.97383 4.44946 8.08296 4.2431C8.19295 4.03697 8.33148 3.84199 8.4912 3.6642C8.57546 3.57605 8.66064 3.48909 8.75521 3.40577L8.82522 3.34232L8.89978 3.2791L9.05374 3.15218C9.15802 3.06813 9.26318 2.98481 9.36747 2.90538C9.47172 2.82689 9.5769 2.74356 9.68601 2.66412C10.1146 2.3461 10.5574 2.04054 11.025 1.7586C11.2593 1.61572 11.4939 1.48136 11.7376 1.35459C11.9816 1.22688 12.2256 1.10388 12.4789 0.99318C12.9866 0.770848 13.5149 0.584434 14.0629 0.472796C14.1969 0.449135 14.3366 0.421698 14.476 0.409413C14.5448 0.401825 14.6145 0.398055 14.6797 0.389523C14.7497 0.385752 14.8194 0.381964 14.8834 0.381964C15.0185 0.381964 15.1522 0.389523 15.2825 0.405613C15.3465 0.413195 15.4162 0.429274 15.4814 0.441571C15.5465 0.457656 15.6162 0.469014 15.6802 0.488881C16.2036 0.627956 16.6665 0.893833 17.0892 1.2032C17.513 1.51639 17.9012 1.87023 18.3098 2.21558C18.7171 2.56481 19.1409 2.90538 19.6037 3.21951L19.7779 3.33384L19.9565 3.4455L20.3153 3.6555C20.5451 3.7909 20.7642 3.9413 20.9676 4.10406C21.3761 4.42572 21.735 4.81085 22.1872 5.14387C22.2569 5.19596 22.3718 5.19596 22.437 5.13637C22.5009 5.08041 22.5009 4.99346 22.4312 4.93751C22.2275 4.77862 22.0381 4.60447 21.8487 4.42185C21.6604 4.2431 21.4601 4.05683 21.2519 3.88172C21.0425 3.70757 20.8139 3.54116 20.5699 3.39343L20.2159 3.17979L20.0465 3.07274L19.8819 2.96108C19.4391 2.65928 19.0366 2.32623 18.6377 1.97714C18.2398 1.6318 17.8515 1.2704 17.4075 0.933561C17.1838 0.767049 16.9447 0.608101 16.6864 0.469014C16.4273 0.329921 16.1384 0.215457 15.8399 0.132178C15.7654 0.10854 15.685 0.0962318 15.6105 0.0763705C15.531 0.0602916 15.4565 0.0442068 15.3771 0.0328542C15.2125 0.00918163 15.048 -0.00311507 14.8894 0.00067884C14.8088 0.00067884 14.7294 0.00446109 14.6503 0.00918163C14.5697 0.0167694 14.4903 0.02054 14.4157 0.029072C14.2572 0.0442068 14.1069 0.0725708 13.9529 0.10002C13.3503 0.22301 12.7833 0.421698 12.2504 0.651623C11.9816 0.767049 11.7225 0.893833 11.4691 1.02913C11.2145 1.15969 10.9705 1.30257 10.7265 1.44542C10.2437 1.73493 9.79114 2.05284 9.35199 2.37832C9.2432 2.46163 9.13317 2.54472 9.0289 2.62804C8.92465 2.71136 8.81461 2.79468 8.71033 2.88164L8.55638 3.00928L8.47605 3.07274L8.39665 3.14007C8.29239 3.2309 8.19295 3.33021 8.0981 3.43314C7.91354 3.63951 7.75956 3.85799 7.64015 4.08808C7.52044 4.31891 7.42587 4.55627 7.3607 4.79849C7.22671 5.28291 7.19733 5.76732 7.19126 6.24714C7.18671 6.7277 7.20671 7.19975 7.20671 7.66819C7.20187 8.1364 7.17248 8.59998 7.05275 9.04468C6.99245 9.26702 6.91305 9.48574 6.80302 9.69186C6.69421 9.89823 6.55447 10.0968 6.38989 10.2785C6.05712 10.6437 5.62369 10.9417 5.13025 11.1839C5.04599 11.2238 5.02114 11.3108 5.07088 11.3779C5.12543 11.4459 5.23089 11.4697 5.31484 11.43Z" fill="#222E6A"/>
<path d="M14.7639 6.4696L14.9933 6.91793L15.1082 7.14416L15.1628 7.25097L15.1925 7.30693L15.197 7.3229L15.2031 7.33042C15.2079 7.3343 15.2079 7.34277 15.2079 7.35029C15.2219 7.39775 15.2031 7.45346 15.1676 7.48567C15.1579 7.49317 15.1473 7.50068 15.1379 7.50553C15.1331 7.50941 15.1273 7.50941 15.1225 7.51304L15.0882 7.52539L14.9485 7.5765L14.4014 7.78263L13.3051 8.19996L12.7581 8.40995L12.6884 8.43755L12.6729 8.44603L12.6683 8.44967C12.6635 8.44967 12.6587 8.44967 12.6587 8.45355C12.6435 8.45741 12.628 8.45741 12.6089 8.44967C12.5938 8.44603 12.5735 8.43369 12.5641 8.42229C12.5593 8.41382 12.5486 8.40632 12.5438 8.39784L12.5392 8.39007L12.5344 8.37411L12.5189 8.34672L12.2847 7.89817L12.1649 7.67581L12.1058 7.56511L12.0761 7.50941L12.0703 7.49706L12.0655 7.48955C12.061 7.48567 12.061 7.4818 12.061 7.47332C12.0455 7.4336 12.061 7.38637 12.0858 7.35803C12.0904 7.35029 12.1013 7.34664 12.1058 7.34277C12.1107 7.3389 12.1152 7.3389 12.1213 7.3343L12.1555 7.3229L12.2907 7.26721L12.8329 7.04486L13.9125 6.60476L14.456 6.38628L14.526 6.35891L14.5399 6.35019L14.5508 6.34656C14.5554 6.34269 14.5602 6.34269 14.5696 6.34269C14.5957 6.33906 14.6205 6.33906 14.6454 6.34656C14.6703 6.35407 14.6951 6.36642 14.7142 6.38628C14.7248 6.39379 14.7342 6.40614 14.7391 6.41752L14.7448 6.42601L14.7497 6.44199L14.7639 6.4696ZM14.9933 6.39379L14.9782 6.36642L14.9733 6.35019L14.964 6.33034C14.9485 6.30683 14.9285 6.28311 14.9082 6.25936C14.8645 6.21601 14.8039 6.17992 14.7342 6.16006C14.6645 6.14021 14.5851 6.13656 14.5105 6.1477C14.4902 6.15158 14.476 6.15642 14.456 6.16392L14.4311 6.17144L14.4157 6.17992L14.3459 6.20753L13.7989 6.41752L12.7038 6.83461L12.1555 7.04097L12.0158 7.09208L11.9815 7.10444C11.9661 7.11195 11.9461 7.12042 11.9319 7.12793C11.8964 7.14416 11.8667 7.16765 11.8418 7.19139C11.7376 7.28707 11.7021 7.41761 11.7376 7.5329C11.7424 7.54914 11.7473 7.56051 11.7518 7.5765L11.7624 7.59636L11.7673 7.61234L11.797 7.6683L11.8512 7.779L11.9661 8.00497L12.1958 8.45355L12.2101 8.48092L12.2149 8.49715L12.2255 8.51701C12.2398 8.54536 12.2646 8.57271 12.2907 8.59645C12.3404 8.64368 12.4089 8.68825 12.4847 8.7081C12.5641 8.73161 12.6529 8.73548 12.7332 8.7195C12.7535 8.71562 12.7723 8.71174 12.7926 8.70327L12.822 8.69576L12.8375 8.68825L12.9075 8.6599L13.4497 8.44216L14.5306 8.00135L15.0728 7.779L15.2079 7.72303L15.2422 7.71191C15.2576 7.70319 15.2776 7.69567 15.2919 7.68815C15.3216 7.67194 15.3522 7.64844 15.3771 7.62858C15.4719 7.53678 15.5014 7.41761 15.4659 7.30693C15.461 7.29457 15.4565 7.27931 15.4516 7.26721L15.441 7.24734L15.4362 7.23112L15.4068 7.17637L15.3465 7.0647L15.228 6.84237L14.9933 6.39379Z" fill="#31133D"/>
<path d="M15.8352 5.96525C16.3572 5.82598 16.8806 5.69544 17.4134 5.58862C17.9402 5.47695 18.4788 5.38613 19.0165 5.32267C19.2853 5.28682 19.5538 5.26308 19.8275 5.23936C20.0961 5.21585 20.371 5.20351 20.6443 5.19599C21.1866 5.17978 21.7349 5.18752 22.2816 5.21949C22.381 5.22336 22.4665 5.16766 22.4711 5.08797C22.4759 5.01723 22.412 4.95379 22.3268 4.93755C21.7691 4.85811 21.202 4.82227 20.6395 4.82227C20.3555 4.82227 20.0712 4.83075 19.7885 4.85059C19.6487 4.85811 19.5041 4.87433 19.3644 4.88185C19.2247 4.8942 19.0862 4.91018 18.9419 4.92544C18.6624 4.96128 18.3842 5.00487 18.1096 5.05309C17.8359 5.10419 17.5625 5.15992 17.2937 5.22724C16.7503 5.35876 16.2235 5.51282 15.7155 5.69932C15.6255 5.73153 15.5855 5.8146 15.6255 5.88556C15.6552 5.9575 15.7501 5.98875 15.8352 5.96525Z" fill="#31133D"/>
<path d="M9.44677 8.6521C9.60166 8.62376 9.74622 8.58502 9.88475 8.5368C10.0244 8.48934 10.1593 8.4375 10.2933 8.37792C10.4233 8.32293 10.5525 8.25948 10.6767 8.19142C10.801 8.12432 10.9207 8.05239 11.0356 7.9739C11.1101 7.92183 11.115 7.831 11.0498 7.77143C11.0001 7.72783 10.9207 7.71183 10.8555 7.73171C10.7113 7.77143 10.5773 7.81866 10.4482 7.87074C10.3133 7.92183 10.1842 7.9739 10.0599 8.03349C9.92958 8.08825 9.80534 8.14782 9.68106 8.2074C9.55681 8.26699 9.43707 8.32681 9.31769 8.3939H9.31279C9.23369 8.44211 9.2134 8.52931 9.26795 8.5964C9.30221 8.63998 9.37677 8.66348 9.44677 8.6521Z" fill="#31133D"/>
<path d="M11.8667 9.72694C11.8915 9.72694 11.9164 9.72306 11.9412 9.71557C12.0407 9.68335 12.0903 9.58889 12.0513 9.5092L10.8213 7.13166C10.7965 7.08057 10.8213 7.02485 10.8616 7.00862L15.2079 5.30274C15.2219 5.29909 15.2373 5.29426 15.2528 5.30274C15.2776 5.31024 15.2964 5.32647 15.3073 5.3502L16.567 7.78636C16.6061 7.86579 16.7255 7.90553 16.8249 7.87428C16.9255 7.8423 16.9755 7.74761 16.9352 7.66816L15.6753 5.23079C15.621 5.12785 15.5216 5.04454 15.3913 5.00845C15.2715 4.97357 15.1427 4.9772 15.0336 5.02467L10.6922 6.73153C10.4579 6.82236 10.3536 7.05682 10.4579 7.2593L11.6821 9.63225C11.7127 9.69184 11.7872 9.72694 11.8667 9.72694Z" fill="#31133D"/>
<path d="M8.0237 15.3865C7.90884 15.3904 7.77399 15.3904 7.64969 15.3904C7.52059 15.3904 7.39632 15.3865 7.26597 15.3816C7.0126 15.3741 6.75953 15.3543 6.50493 15.3308C6.00178 15.2787 5.50442 15.1915 5.02129 15.061C4.54302 14.9333 4.08021 14.763 3.65285 14.553C3.22401 14.3421 2.83118 14.0885 2.49717 13.7903C2.16317 13.497 1.88979 13.1603 1.69553 12.7987C1.60096 12.6163 1.52153 12.4298 1.47183 12.2348C1.44122 12.1404 1.42213 12.0411 1.40667 11.9454C1.39727 11.8982 1.39151 11.8461 1.38667 11.7989C1.3818 11.7514 1.37725 11.7071 1.3818 11.6674C1.38667 11.584 1.41152 11.5167 1.45183 11.4733C1.47183 11.4535 1.49669 11.4336 1.53123 11.4213C1.56669 11.406 1.6058 11.3939 1.65065 11.3861C1.74552 11.3702 1.86008 11.3663 1.97375 11.3702C2.03436 11.374 2.08862 11.3777 2.15379 11.3861L2.34806 11.406C2.86998 11.4535 3.39827 11.4809 3.92139 11.4968C4.9716 11.5206 6.03241 11.4809 7.072 11.3578C8.11857 11.2348 9.14847 11.0286 10.1396 10.7116C10.3836 10.6321 10.6272 10.5442 10.8664 10.4534C10.9861 10.4062 11.1055 10.3577 11.2192 10.3066L11.5638 10.1552C12.0208 9.9576 12.4743 9.75897 12.9325 9.56497C13.8488 9.175 14.7747 8.80611 15.7158 8.47308C16.656 8.14004 17.6219 7.84576 18.6082 7.61203C19.5944 7.37756 20.5998 7.20341 21.6155 7.11161C22.6314 7.02079 23.6613 7.01328 24.6772 7.10411C25.6929 7.19106 26.6934 7.37368 27.6642 7.63963C28.1473 7.77116 28.6256 7.92907 29.0839 8.10031C29.5361 8.27447 29.9801 8.48543 30.3932 8.71916C30.6017 8.83445 30.8063 8.9575 31.0006 9.08805C31.1949 9.21956 31.3782 9.35401 31.5428 9.4969C31.6222 9.56859 31.6968 9.64343 31.7523 9.71926C31.7819 9.7551 31.8023 9.79093 31.8117 9.82218C31.8162 9.83091 31.8162 9.83454 31.8162 9.84206V9.84981C31.8162 9.85441 31.8162 9.86191 31.8162 9.8658C31.8162 9.88566 31.8211 9.90939 31.8211 9.93385C31.8211 10.1119 31.7665 10.303 31.6874 10.4808C31.5228 10.8421 31.2339 11.1752 30.8906 11.4658C30.7211 11.6124 30.5317 11.7429 30.3374 11.8696C30.1434 11.9975 29.9349 12.1118 29.7207 12.2235C28.8647 12.6597 27.9033 12.9729 26.9231 13.2151C26.8282 13.2388 26.7786 13.3183 26.8083 13.3938C26.838 13.4696 26.9374 13.5094 27.0274 13.4895C28.0324 13.2473 29.0235 12.938 29.9292 12.4855C30.1541 12.3702 30.3777 12.2511 30.5875 12.1205C30.7957 11.989 31.0006 11.8461 31.1888 11.6918C31.5628 11.3815 31.8862 11.0211 32.085 10.6038C32.1845 10.3974 32.2496 10.1751 32.2545 9.93773C32.2545 9.90939 32.2545 9.87813 32.2496 9.84593C32.2496 9.83843 32.2496 9.83454 32.2496 9.82218C32.2496 9.81081 32.2448 9.80233 32.2448 9.79093C32.2402 9.77107 32.2342 9.75122 32.2296 9.73524C32.2048 9.6633 32.1657 9.60856 32.1302 9.55261C32.0508 9.44942 31.9656 9.36248 31.8707 9.27915C31.6874 9.11178 31.4882 8.96889 31.2837 8.83082C31.08 8.69156 30.8657 8.56488 30.6514 8.44183C30.218 8.19502 29.7658 7.97727 29.2827 7.78616C28.7995 7.60451 28.3167 7.44173 27.8181 7.30273C26.8225 7.02079 25.7829 6.82581 24.7315 6.73498C23.6816 6.63955 22.6159 6.64802 21.5657 6.73885C20.5143 6.83066 19.4796 7.00842 18.4685 7.247C17.4574 7.48534 16.4771 7.78616 15.5158 8.12406C14.5556 8.46073 13.6239 8.83833 12.704 9.23095C12.2457 9.42594 11.7875 9.62841 11.3295 9.82608L10.9906 9.97745C10.8806 10.0247 10.767 10.0722 10.6521 10.1165C10.4236 10.2073 10.1941 10.2867 9.95467 10.3662C9.00875 10.6719 8.0131 10.8744 7.00319 10.9926C5.99211 11.1156 4.96099 11.1602 3.93079 11.1403C3.41828 11.128 2.90574 11.1042 2.39291 11.0609L2.20349 11.0446C2.13831 11.0371 2.06376 11.0323 1.99406 11.0286C1.84947 11.0211 1.70035 11.0248 1.54183 11.0521C1.46122 11.0684 1.37725 11.0921 1.29663 11.128C1.21723 11.1638 1.14267 11.2149 1.08358 11.2784C1.02781 11.3428 0.988704 11.4099 0.963851 11.477C0.938998 11.5443 0.928387 11.6085 0.928387 11.672C0.923851 11.7315 0.928387 11.795 0.938998 11.8497C0.943847 11.9057 0.953255 11.9578 0.963851 12.0125C0.984161 12.1205 1.00297 12.2273 1.03871 12.3341C1.0978 12.549 1.18783 12.7554 1.29181 12.953C1.50606 13.3541 1.81524 13.7194 2.17863 14.0364C2.5469 14.3542 2.97544 14.624 3.43253 14.8464C3.89077 15.0687 4.3845 15.2436 4.89218 15.3741C5.40016 15.5047 5.92239 15.5929 6.45037 15.644C6.71436 15.6675 6.97835 15.6837 7.24113 15.6912C7.37631 15.6958 7.50513 15.6958 7.6403 15.6958C7.77399 15.6958 7.89944 15.6912 8.04278 15.6873C8.14342 15.6837 8.21796 15.6164 8.21193 15.5408C8.20736 15.465 8.12796 15.4017 8.02855 15.4054L8.0237 15.3865Z" fill="#222E6A"/>
<path d="M8.46177 11.045C8.50659 11.0017 8.54087 10.9656 8.58118 10.9258C8.61572 10.8861 8.65119 10.8464 8.68542 10.8067C8.71968 10.767 8.75059 10.7234 8.78485 10.6836L8.87488 10.557C8.99458 10.3864 9.09401 10.2116 9.18281 10.0328C9.22278 9.94199 9.27251 9.85477 9.30828 9.76299L9.36253 9.62396C9.38284 9.57674 9.39225 9.53314 9.41222 9.48591C9.42768 9.43769 9.44193 9.3941 9.4574 9.34688L9.49649 9.20397C9.52712 9.1083 9.54134 9.01286 9.56167 8.92203C9.58168 8.82635 9.59105 8.73166 9.60651 8.63622C9.62198 8.54057 9.63137 8.4461 9.63623 8.35042C9.64682 8.16029 9.64682 7.9653 9.63137 7.77518C9.60166 7.39393 9.53195 7.01367 9.4077 6.64842C9.38284 6.5726 9.28343 6.52926 9.18855 6.54912C9.09855 6.56897 9.04429 6.63606 9.05823 6.70315C9.11886 7.06476 9.15795 7.42614 9.16854 7.78656C9.17311 8.14793 9.14369 8.50931 9.07366 8.86246C9.00851 9.21536 8.89971 9.56534 8.75514 9.90591C8.68056 10.0725 8.59543 10.2438 8.50087 10.4017L8.35142 10.64C8.32657 10.6797 8.29718 10.7195 8.27231 10.7556C8.24747 10.7914 8.21169 10.8304 8.18687 10.8624L8.18229 10.8701C8.12775 10.9382 8.15259 11.0252 8.23685 11.0649C8.30657 11.1123 8.40111 11.101 8.46177 11.045Z" fill="#222E6A"/>
<path d="M7.24699 18.6841C6.26559 19.8707 4.74769 20.5527 4.36401 21.2471C3.92118 22.0496 4.56767 22.8387 5.97188 22.9579C7.17242 23.0611 9.37226 22.482 11.4132 20.3786" fill="white"/>
<path d="M7.09799 18.6045C6.76886 18.9772 6.3806 19.3151 5.95777 19.6319C5.74833 19.791 5.5292 19.946 5.3149 20.105C5.09579 20.2631 4.87695 20.422 4.66266 20.5971C4.55841 20.6841 4.45415 20.7797 4.35958 20.8827C4.30957 20.9338 4.26472 20.9897 4.2244 21.0454L4.195 21.089L4.16531 21.1363C4.14529 21.1685 4.12983 21.1958 4.1156 21.2281C3.99011 21.4742 3.94618 21.76 4.02558 22.0332C4.06588 22.1686 4.13438 22.2991 4.22925 22.4146C4.3238 22.529 4.43871 22.6322 4.5678 22.7201C4.82727 22.8942 5.13032 23.0059 5.43919 23.0769C5.59437 23.1127 5.75288 23.1364 5.90686 23.1488C6.06659 23.1638 6.23117 23.1687 6.38511 23.1602C6.54483 23.1563 6.69883 23.1403 6.8528 23.1204C7.00798 23.1006 7.15709 23.073 7.30624 23.041C7.90422 22.9104 8.45703 22.6956 8.96958 22.4382C9.48238 22.18 9.95007 21.8743 10.3835 21.5412C10.5978 21.3748 10.8011 21.1997 10.9954 21.0171C11.1897 20.8384 11.3743 20.6482 11.5531 20.4581C11.6134 20.3946 11.5934 20.3067 11.5189 20.2592C11.4443 20.2159 11.334 20.2234 11.2749 20.2829C11.0903 20.4617 10.9009 20.6368 10.7066 20.8071C10.5077 20.9735 10.3041 21.1363 10.0943 21.2915C9.67183 21.6008 9.21842 21.8828 8.73044 22.1165C8.24275 22.3512 7.72418 22.5452 7.18681 22.6559C7.05283 22.6842 6.91796 22.708 6.77824 22.7278C6.64459 22.7477 6.50486 22.7598 6.3709 22.7637C6.23599 22.7676 6.10115 22.7637 5.97201 22.7513C5.83804 22.7399 5.70319 22.7201 5.57892 22.6881C5.32431 22.6322 5.08034 22.5413 4.89212 22.4146C4.79753 22.3512 4.71237 22.2754 4.64846 22.1959C4.58326 22.1165 4.53809 22.0257 4.50871 21.9339C4.45415 21.7512 4.47324 21.5488 4.5678 21.3586C4.65299 21.176 4.8224 21.0057 5.01182 20.8384C5.20005 20.6717 5.41434 20.5138 5.62376 20.3549C5.83804 20.1958 6.05144 20.0332 6.26084 19.8627C6.67884 19.5251 7.0777 19.1598 7.40108 18.7512C7.45079 18.6839 7.42595 18.5969 7.34653 18.5572C7.2565 18.525 7.15225 18.5448 7.09799 18.6045Z" fill="#222E6A"/>
<path d="M10.7511 17.4656C10.7511 17.5405 10.789 17.6124 10.866 17.6814C10.9418 17.7505 11.0509 17.812 11.1918 17.8641C11.3324 17.9169 11.4949 17.9575 11.6795 17.9869C11.864 18.0154 12.0559 18.0295 12.2547 18.0295C12.4539 18.0295 12.6454 18.0154 12.8303 17.9869C13.0149 17.9575 13.177 17.9169 13.318 17.8641C13.4589 17.812 13.5677 17.7505 13.6435 17.6814C13.7205 17.6124 13.7583 17.5405 13.7583 17.4656C13.7583 17.3908 13.7205 17.3191 13.6435 17.2498C13.5677 17.1808 13.4589 17.1202 13.318 17.0674C13.177 17.0144 13.0149 16.9737 12.8303 16.9454C12.6454 16.9168 12.4539 16.9027 12.2547 16.9027C12.0559 16.9027 11.864 16.9168 11.6795 16.9454C11.4949 16.9737 11.3324 17.0144 11.1918 17.0674C11.0509 17.1202 10.9418 17.1808 10.866 17.2498C10.789 17.3191 10.7511 17.3908 10.7511 17.4656Z" fill="#FF8856"/>
<path d="M23.3579 16.8629C23.3579 16.9358 23.39 17.0058 23.454 17.0739C23.5188 17.141 23.6101 17.2006 23.7298 17.2526C23.848 17.3047 23.9853 17.3444 24.1417 17.3718C24.2969 17.4004 24.459 17.4144 24.6272 17.4144C24.7952 17.4144 24.9573 17.4004 25.1125 17.3718C25.2689 17.3444 25.4062 17.3047 25.5247 17.2526C25.6441 17.2006 25.7353 17.141 25.8005 17.0739C25.8644 17.0058 25.8963 16.9358 25.8963 16.8629C25.8963 16.789 25.8644 16.719 25.8005 16.6519C25.7353 16.5836 25.6441 16.5241 25.5247 16.4729C25.4062 16.4211 25.2689 16.3811 25.1125 16.3528C24.9573 16.3255 24.7952 16.3112 24.6272 16.3112C24.459 16.3112 24.2969 16.3255 24.1417 16.3528C23.9853 16.3811 23.848 16.4211 23.7298 16.4729C23.6101 16.5241 23.5188 16.5836 23.454 16.6519C23.39 16.719 23.3579 16.789 23.3579 16.8629Z" fill="#FF8856"/>
<path d="M57.7157 16.9288C57.6524 16.9077 57.5819 16.8865 57.5162 16.8865C57.3377 16.8865 57.1804 16.9946 57.0936 17.173C56.7414 18.4197 55.7154 19.8636 54.5368 19.8636C54.1376 19.8636 53.7619 19.7063 53.4967 19.4199C54.2949 18.2201 55.2059 15.7291 55.2059 14.1959C55.2059 12.8178 54.7387 11.6626 53.3393 11.6626C52.5153 11.6626 51.8039 12.1063 51.1864 12.752L51.3601 12.2848C51.4728 11.9984 51.2498 11.6626 50.914 11.6626C50.7192 11.6626 50.5407 11.7753 50.475 11.9772L50.3388 12.3294C50.0735 13.0173 48.7822 16.5978 47.5191 20.0655L45.028 27.0198C44.92 27.3063 45.136 27.6373 45.4741 27.6373C45.6737 27.6373 45.8521 27.5293 45.9179 27.3274C46.1409 26.6606 47.0518 24.1273 48.0497 21.3498C48.2938 21.9532 48.8033 22.2396 49.6509 22.2819C50.9422 22.3265 52.0692 21.4414 52.9802 20.2158C53.3182 20.5515 53.87 20.7957 54.5156 20.7957C56.0511 20.7957 57.495 19.1757 57.9599 17.5322C57.9834 17.4594 58.0045 17.4172 58.0045 17.3514C58.0045 17.173 57.8965 16.9946 57.7157 16.9288ZM52.8064 16.8865C52.6068 16.8865 52.4049 17.0204 52.3627 17.2387C52.1842 17.8609 52.1185 18.7296 52.4049 19.3964C51.6512 20.5515 50.691 21.3709 49.672 21.3498C49.0475 21.3287 48.8268 20.9765 48.8268 20.1947C48.8268 19.4621 48.9841 19.1757 49.3199 18.2412C50.2026 15.9967 51.5597 12.5947 53.3816 12.5947C54.0508 12.5947 54.2503 13.2192 54.2503 14.1513C54.2503 15.2642 53.8066 16.7058 53.1609 18.0628C53.1821 17.8844 53.2032 17.6825 53.2736 17.4876C53.3393 17.173 53.1163 16.8865 52.8064 16.8865ZM66.8912 16.9288C66.8254 16.9077 66.7551 16.8865 66.6893 16.8865C66.5108 16.8865 66.358 16.9946 66.2665 17.173L66.2453 17.2387C65.5127 18.8869 64.4447 21.284 63.0665 21.284C62.5992 21.284 62.4044 21.0188 62.4044 20.352C62.4044 19.3752 63.1369 17.4383 63.9352 15.1985L65.0457 12.2214C65.1607 11.9537 64.9823 11.5969 64.6231 11.5969C64.4235 11.5969 64.2498 11.7096 64.1793 11.8833C64.069 12.1768 63.9352 12.5078 63.8037 12.8882C63.4022 12.0852 62.7143 11.7096 61.7798 11.7096C59.1127 11.7096 56.8705 16.9077 56.8705 19.8213C56.8705 21.1502 57.4457 22.2185 58.6948 22.2185C59.648 22.2185 60.5825 21.594 61.4723 20.352C61.4723 21.4414 62.0029 22.2185 63.0665 22.2185C65.0692 22.2185 66.2665 19.4832 67.1139 17.6167L67.1351 17.5534C67.1563 17.4876 67.1775 17.4172 67.1775 17.3514C67.1775 17.173 67.0693 17.0204 66.8912 16.9288ZM58.6666 21.284C58.0045 21.284 57.805 20.6384 57.805 19.6641C57.8472 17.4594 59.7348 12.6863 61.7798 12.644C62.5781 12.644 63.158 13.2404 63.2027 14.2664L62.6697 15.6868C61.7798 17.9548 60.4674 21.284 58.6666 21.284ZM75.2894 16.9288C75.219 16.9077 75.1555 16.8865 75.0897 16.8865C74.9111 16.8865 74.7538 16.9946 74.6673 17.173C73.397 20.042 72.5562 21.284 71.4644 21.284C70.9762 21.284 70.7977 20.9061 70.7977 20.352C70.8189 19.9716 70.8685 19.5983 70.9997 19.1311C71.1336 18.5723 72.197 15.4004 72.4909 14.6608C72.5774 14.3955 72.4648 14.109 72.2209 14.0222C71.9765 13.9283 71.6876 13.8414 71.3779 13.7499C70.7319 13.5268 69.9787 13.2826 69.3561 12.975C69.6217 12.1063 69.7132 11.9068 69.7132 11.5523C69.7132 10.6624 69.22 10.0896 68.4216 10.0896C67.713 10.0896 67.0671 10.6202 67.0671 11.5311C67.0671 12.3505 67.5323 12.9305 68.199 13.3977L67.9335 14.0645L66.1538 17.9266C66.1326 17.9971 66.1114 18.0628 66.1114 18.1285C66.1114 18.307 66.2196 18.4643 66.3769 18.5512C66.4427 18.5723 66.513 18.5934 66.6 18.5934C66.7574 18.5934 66.9097 18.5066 67.0012 18.3281C68.7809 14.4401 68.9315 14.1302 69.0253 13.8649C69.5135 14.109 69.7578 14.1959 71.4437 14.7547C71.244 15.2431 70.2672 18.199 70.0887 18.908C69.9363 19.4621 69.866 19.9082 69.866 20.352C69.866 21.4414 70.4033 22.2185 71.4437 22.2185H71.4644C72.9791 22.2185 74.0849 20.8614 75.5337 17.5534C75.5544 17.4876 75.5779 17.4172 75.5779 17.3514C75.5779 17.173 75.4629 17.0204 75.2894 16.9288ZM68.7809 11.5311C68.7809 11.7542 68.6448 12.1556 68.5298 12.4656C68.199 12.1979 67.9993 11.7964 67.9993 11.4396C67.9993 11.1954 68.1354 11.0217 68.4216 11.0217C68.6002 11.0217 68.7809 11.1508 68.7809 11.5311ZM80.1515 16.9288C80.0857 16.9077 80.0203 16.8865 79.9545 16.8865C79.776 16.8865 79.5975 16.9946 79.5105 17.1518C78.4638 19.441 77.3954 21.284 75.801 21.284C75.3552 21.284 75.0852 20.953 75.0852 20.352C75.0852 19.7063 75.3764 18.6873 76.2869 16.1094C77.0195 14.0433 77.3954 13.0173 77.5316 12.5947H79.3532C79.6187 12.5947 79.8206 12.3998 79.8206 12.1275C79.8206 11.8833 79.6187 11.6626 79.3532 11.6626H77.8624C78.0198 11.2447 78.9732 8.53058 78.9074 8.66207C79.0178 8.3733 78.7992 8.04458 78.4638 8.04458C78.2618 8.04458 78.0833 8.15259 78.0198 8.35216C77.9963 8.43902 76.9068 11.5758 76.8622 11.6626H75.1555C74.8877 11.6626 74.6885 11.8833 74.6885 12.1275C74.6885 12.3998 74.8877 12.5947 75.1555 12.5947H76.5547L75.421 15.7737C74.7092 17.5956 74.1507 19.5279 74.1507 20.352C74.1507 21.4202 74.7304 22.2185 75.801 22.2185C77.839 22.2185 79.0881 20.3308 80.3724 17.5534C80.3936 17.4876 80.4215 17.4172 80.4215 17.3514C80.4215 17.173 80.3089 17.0204 80.1515 16.9288ZM89.508 16.9499C89.4422 16.9288 89.3714 16.9077 89.3061 16.9077C89.1275 16.9077 88.9747 17.0204 88.8832 17.1941C87.7702 19.8213 86.2186 21.8593 83.664 22.7279L83.9949 21.7513L85.7746 16.6846C86.4859 14.7547 87.0823 13.2192 87.4394 12.3083C87.5498 11.9772 87.2397 11.6626 86.9746 11.6626C86.7938 11.6626 86.6153 11.7964 86.5495 11.9772C85.0633 15.9098 85.1949 15.5084 84.906 16.3747C84.0161 18.9315 82.5957 21.284 81.4196 21.284C80.1493 21.284 79.9545 20.4881 79.9545 19.8425C79.9545 19.0395 80.3278 18.3492 81.3046 15.6657L82.5299 12.2848C82.6403 11.9984 82.4595 11.6626 82.0863 11.6626C81.9078 11.6626 81.727 11.7753 81.6634 11.9537L80.4215 15.3276C79.5529 17.5956 79.0435 18.8165 78.9944 19.8425C78.9944 20.953 79.5317 22.2185 81.4196 22.2185C82.0417 22.2185 82.5957 21.9532 83.1051 21.4648L82.5533 23.0637C81.9501 23.2163 81.3538 23.329 80.7948 23.4159C78.1325 23.9042 77.0406 24.9303 77.0406 26.3295C77.0406 27.6373 77.9093 28.506 79.2432 28.4825C80.8372 28.4614 82.2152 26.8836 83.2836 23.8408C86.5283 22.8853 88.3738 20.8192 89.7519 17.5744C89.7731 17.5087 89.7943 17.4383 89.7943 17.3749C89.7943 17.1941 89.6861 17.0439 89.508 16.9499ZM79.2432 27.5505C78.4845 27.5716 77.9751 27.0832 77.9751 26.3084C78.0599 25.2824 78.9285 24.7072 80.9733 24.3503C81.375 24.2846 81.7717 24.1977 82.1945 24.1061C81.462 26.3507 80.4427 27.5293 79.2432 27.5505ZM108.589 17.3514C108.589 17.0861 108.344 16.8865 108.1 16.8865C107.922 16.8865 107.769 16.9946 107.678 17.173C106.966 18.8165 106.257 19.8636 105.102 19.8636C104.701 19.8636 104.276 19.6852 104.055 19.3964C104.835 18.0417 106.701 14.3297 107.678 12.3294C107.699 12.2637 107.722 12.1979 107.722 12.1063C107.722 11.8622 107.52 11.6391 107.276 11.6391C107.103 11.6391 106.924 11.7542 106.833 11.9068C106.149 13.3531 104.412 16.7504 103.745 18.0182C103.766 17.8609 103.79 17.6614 103.86 17.4876C103.947 17.173 103.703 16.8865 103.393 16.8865C103.17 16.8865 103.013 17.0204 102.947 17.2387C102.768 17.8609 102.726 18.6873 102.97 19.3541C101.965 20.7746 101.571 21.284 100.86 21.284C100.437 21.284 100.193 21.0633 100.193 20.352C100.193 19.2391 101.39 15.9967 102.79 12.2848C102.9 11.9984 102.681 11.6626 102.325 11.6626C102.144 11.6626 101.965 11.7753 101.9 11.9537C101.658 12.644 100.413 16.154 100.012 17.1518C98.8145 20.15 97.88 21.284 96.8121 21.284C96.3469 21.284 96.1449 21.0188 96.1449 20.352C96.1449 19.4832 96.5678 18.2859 98.7491 12.2848C98.8568 11.9984 98.6783 11.6626 98.3051 11.6626C98.1243 11.6626 97.9458 11.7753 97.88 11.9537C95.9714 17.0204 95.2132 19.2391 95.2132 20.352C95.2132 21.4414 95.7482 22.2185 96.8121 22.2185C97.8169 22.2185 98.6125 21.5517 99.2585 20.6384C99.3897 21.594 99.8337 22.2185 100.86 22.2185C101.9 22.2185 102.702 21.3709 103.545 20.1947C103.902 20.5515 104.433 20.7957 105.102 20.7957C106.68 20.7957 107.922 19.2391 108.546 17.5322C108.568 17.4594 108.589 17.4172 108.589 17.3514ZM111.146 10.5756C111.564 10.5756 111.899 10.2398 111.899 9.8172C111.899 9.39928 111.564 9.06354 111.146 9.06354C110.723 9.06354 110.364 9.39928 110.364 9.8172C110.364 10.2398 110.723 10.5756 111.146 10.5756ZM112.611 16.9288C112.545 16.9077 112.5 16.8865 112.43 16.8865C112.251 16.8865 112.077 16.9946 111.986 17.173C111.166 18.9949 110.14 21.284 108.762 21.284C108.298 21.284 108.096 20.9976 108.096 20.352C108.096 19.3964 108.497 18.3727 110.657 12.3083C110.786 11.9326 110.5 11.7096 110.211 11.7096C110.033 11.7096 109.854 11.8199 109.788 12.0195C108.812 14.5528 107.234 18.6169 107.163 20.352C107.119 21.3709 107.701 22.2185 108.762 22.2185C110.629 22.2185 111.784 19.9505 112.855 17.5534C112.876 17.4876 112.897 17.4172 112.897 17.3514C112.897 17.173 112.789 16.9946 112.611 16.9288ZM121.72 16.9077C121.65 16.8865 121.584 16.8631 121.518 16.8631C121.34 16.8631 121.182 16.9734 121.095 17.1518C120.098 19.5067 118.828 20.8614 117.543 21.6855C117.766 20.5961 117.788 19.5067 117.299 18.7085C118.52 17.6614 119.029 15.9967 119.029 14.5739C119.029 12.867 118.184 11.7096 116.588 11.7096C114.451 11.7096 113.144 14.905 111.873 17.9266C111.852 17.9971 111.831 18.0628 111.831 18.1285C111.831 18.3939 112.075 18.5934 112.32 18.5934C112.498 18.5934 112.629 18.4854 112.721 18.307L112.808 18.1051C113.855 15.7526 115.052 12.644 116.588 12.644C117.63 12.644 118.097 13.4188 118.097 14.5739C118.097 15.8159 117.717 17.2176 116.675 17.976C115.477 17.0204 113.74 17.1072 113.74 18.5066C113.74 19.7063 115.139 19.8213 116.496 19.1968C116.919 19.9505 116.74 21.0633 116.41 22.2608C115.32 22.7279 114.277 22.8853 113.346 23.0426C110.92 23.4605 109.899 24.3503 109.899 25.8623C109.899 27.2616 110.833 27.9942 112.233 27.9942C114.343 27.9942 115.965 26.2168 117.142 22.9721C118.872 22.1739 120.631 20.6384 121.965 17.5087C121.985 17.4383 122.006 17.396 122.006 17.3303C122.006 17.1518 121.894 16.9734 121.72 16.9077ZM115.872 18.5066C115.383 18.7085 114.696 18.7742 114.696 18.5066C114.696 18.1051 115.21 18.084 115.872 18.5066ZM115.942 23.4394C114.852 25.7919 113.653 27.0832 112.211 27.0832C111.387 27.0832 110.833 26.461 110.833 25.8412C110.833 24.8598 111.608 24.2635 113.496 23.9747C114.249 23.8408 115.076 23.7047 115.942 23.4394ZM130.872 16.9288C130.806 16.9077 130.736 16.8865 130.67 16.8865C130.492 16.8865 130.339 16.9946 130.248 17.173L130.227 17.2387C129.494 18.8869 128.426 21.284 127.048 21.284C126.58 21.284 126.385 21.0188 126.385 20.352C126.385 19.3752 127.118 17.4383 127.914 15.1985L129.027 12.2214C129.141 11.9537 128.961 11.5969 128.604 11.5969C128.402 11.5969 128.231 11.7096 128.158 11.8833C128.05 12.1768 127.914 12.5078 127.785 12.8882C127.383 12.0852 126.695 11.7096 125.761 11.7096C123.092 11.7096 120.852 16.9077 120.852 19.8213C120.852 21.1502 121.427 22.2185 122.676 22.2185C123.629 22.2185 124.563 21.594 125.453 20.352C125.453 21.4414 125.984 22.2185 127.048 22.2185C129.048 22.2185 130.248 19.4832 131.093 17.6167L131.116 17.5534C131.137 17.4876 131.158 17.4172 131.158 17.3514C131.158 17.173 131.051 17.0204 130.872 16.9288ZM122.647 21.284C121.985 21.284 121.786 20.6384 121.786 19.6641C121.828 17.4594 123.716 12.6863 125.761 12.644C126.559 12.644 127.139 13.2404 127.184 14.2664L126.65 15.6868C125.761 17.9548 124.448 21.284 122.647 21.284ZM139.27 16.9288C139.2 16.9077 139.134 16.8865 139.07 16.8865C138.89 16.8865 138.732 16.9946 138.646 17.173C137.378 20.042 136.537 21.284 135.446 21.284C134.957 21.284 134.779 20.9061 134.779 20.352C134.8 19.9716 134.849 19.5983 134.981 19.1311C135.114 18.5723 136.178 15.4004 136.472 14.6608C136.559 14.3955 136.443 14.109 136.199 14.0222C135.955 13.9283 135.669 13.8414 135.359 13.7499C134.713 13.5268 133.959 13.2826 133.335 12.975C133.602 12.1063 133.694 11.9068 133.694 11.5523C133.694 10.6624 133.201 10.0896 132.403 10.0896C131.692 10.0896 131.046 10.6202 131.046 11.5311C131.046 12.3505 131.513 12.9305 132.18 13.3977L131.914 14.0645L130.135 17.9266C130.114 17.9971 130.093 18.0628 130.093 18.1285C130.093 18.307 130.2 18.4643 130.358 18.5512C130.423 18.5723 130.494 18.5934 130.581 18.5934C130.738 18.5934 130.888 18.5066 130.982 18.3281C132.762 14.4401 132.912 14.1302 133.006 13.8649C133.492 14.109 133.736 14.1959 135.425 14.7547C135.225 15.2431 134.248 18.199 134.067 18.908C133.917 19.4621 133.847 19.9082 133.847 20.352C133.847 21.4414 134.382 22.2185 135.425 22.2185H135.446C136.96 22.2185 138.066 20.8614 139.514 17.5534C139.536 17.4876 139.559 17.4172 139.559 17.3514C139.559 17.173 139.444 17.0204 139.27 16.9288ZM132.762 11.5311C132.762 11.7542 132.626 12.1556 132.511 12.4656C132.18 12.1979 131.98 11.7964 131.98 11.4396C131.98 11.1954 132.116 11.0217 132.403 11.0217C132.581 11.0217 132.762 11.1508 132.762 11.5311ZM149.047 16.9288C148.976 16.9077 148.911 16.8865 148.866 16.8865C148.688 16.8865 148.509 16.9946 148.422 17.1518C147.375 19.441 146.311 21.284 144.712 21.284C144.201 21.284 144.001 20.8826 144.001 20.352C144.001 19.7721 144.403 18.4643 144.734 17.4383C144.933 16.8208 147.577 9.2631 147.798 8.61748C147.891 8.3733 147.734 8 147.354 8C147.18 8 147.002 8.10796 146.931 8.28642L145.752 11.6837L145.335 12.8389C144.978 12.1556 144.332 11.7096 143.334 11.7096C140.644 11.7096 138.425 16.9077 138.425 19.8213C138.425 21.1502 139 22.2185 140.247 22.2185C141.376 22.2185 142.287 21.3709 143.069 20.2651C143.069 21.5071 143.665 22.2185 144.712 22.2185C146.758 22.2185 148 20.3308 149.291 17.5534C149.312 17.4876 149.333 17.4172 149.333 17.3514C149.333 17.173 149.22 17.0204 149.047 16.9288ZM140.221 21.284C139.559 21.284 139.357 20.6384 139.357 19.6641C139.402 17.4594 141.289 12.7098 143.334 12.644C144.201 12.644 144.712 13.2404 144.755 14.2664C144.755 14.3086 144.755 14.3532 144.734 14.4166C144.576 14.7758 144.424 15.2196 144.224 15.6868C143.334 17.9548 142.022 21.284 140.221 21.284Z" fill="#F25510" stroke="#F25510" stroke-width="0.8088"/>
</svg>
