<svg width="247" height="191" viewBox="0 0 247 191" fill="none" xmlns="http://www.w3.org/2000/svg">
<path d="M148.153 85.2694L185.92 60.9135C186.48 60.5501 188.795 64.1407 188.232 64.4994L150.469 88.8589C149.905 89.2223 147.594 85.629 148.153 85.2694Z" fill="#39223F"/>
<path d="M186.407 61.6064L148.614 85.9809L149.431 87.2511L187.227 62.873L186.407 61.6064Z" fill="#5F4F61"/>
<path d="M191.644 60.8622L191.263 60.2712L190.643 59.3057C190.574 59.1961 190.479 59.1161 190.385 59.04C189.989 58.7175 189.423 58.6516 188.969 58.9461L185.949 60.8947L186.407 61.6065L187.227 62.873L188.266 64.4815L191.286 62.532C191.848 62.1724 192.008 61.4215 191.644 60.8622ZM149.431 87.2512L148.614 85.981L148.153 85.2692L144.98 87.3162C144.526 87.6071 144.349 88.1479 144.482 88.6413C144.516 88.7611 144.548 88.881 144.617 88.986L145.242 89.9515L145.623 90.5434C145.986 91.1056 146.733 91.2654 147.292 90.9021L150.469 88.8588L149.431 87.2512Z" fill="#DAC9DB"/>
<path d="M187.227 62.8731L191.263 60.2713L190.643 59.3058C190.574 59.1962 190.479 59.1163 190.385 59.04L186.407 61.6066L187.227 62.8731ZM148.614 85.981L144.482 88.6451C144.516 88.7612 144.548 88.8811 144.617 88.9898L145.242 89.9516L149.431 87.2513L148.614 85.981Z" fill="white"/>
<path d="M181.807 74.0503L183.779 73.7706L185.049 71.324C185.216 71.0006 185.579 70.8305 185.935 70.9068C186.291 70.9829 186.552 71.2877 186.57 71.6511L186.719 74.4062L188.396 75.473C188.679 75.6542 188.82 75.9924 188.752 76.3223C188.679 76.6521 188.411 76.903 188.077 76.9504L186.116 77.2302L184.787 79.9304C184.625 80.2603 184.254 80.4424 183.895 80.3625C183.532 80.2863 183.271 79.9704 183.26 79.5996L183.159 76.5908L181.493 75.5306C181.205 75.3494 181.064 75.0084 181.137 74.6775C181.205 74.3514 181.474 74.1005 181.807 74.0503ZM164.247 58.3474L167.579 57.8726L169.387 55.0338C169.685 54.5617 170.247 54.3294 170.792 54.4456C171.34 54.5655 171.753 55.0087 171.833 55.5634L172.309 58.8919L175.147 60.7002C175.619 61.0012 175.851 61.5634 175.735 62.1079C175.615 62.6562 175.173 63.0697 174.617 63.1496L171.289 63.6254L169.481 66.4641C169.18 66.9352 168.617 67.1676 168.073 67.0514C167.524 66.9325 167.111 66.4892 167.031 65.9335L166.555 62.6014L163.717 60.794C163.245 60.4967 163.013 59.9336 163.129 59.389C163.249 58.8417 163.695 58.4273 164.247 58.3474ZM174.679 79.7595L176.447 79.5095L177.401 78.007C177.561 77.7561 177.858 77.6325 178.149 77.6947C178.436 77.7561 178.657 77.9921 178.697 78.2857L178.951 80.0503L180.454 81.0084C180.704 81.1682 180.828 81.4655 180.766 81.7527C180.704 82.0426 180.469 82.2609 180.175 82.3046L178.41 82.5546L177.452 84.0571C177.292 84.308 176.995 84.4316 176.708 84.3693C176.418 84.308 176.2 84.072 176.156 83.7774L175.902 82.0138L174.4 81.0557C174.149 80.8996 174.025 80.6013 174.091 80.3114C174.153 80.0206 174.389 79.8031 174.679 79.7595Z" fill="#FF8856"/>
<path d="M150.248 70.9463C151.227 74.877 152.461 78.6812 155.3 81.7736C157.071 83.8142 160.81 83.2948 162.566 81.1929C162.872 83.7371 160.886 85.9588 157.238 86.3547C153.561 86.7505 146.813 84.5288 140.556 76.4594L150.248 70.9463Z" fill="#DAC9DB"/>
<path d="M155.299 81.7731C152.475 78.6807 151.227 74.8764 150.247 70.9458L152.247 69.8057C155.256 74.3579 160.98 77.127 162.152 79.7911C162.367 80.2632 162.49 80.7352 162.552 81.1923C160.81 83.2943 157.07 83.8137 155.299 81.7731Z" fill="white"/>
<path d="M151.804 70.1107C152.308 70.9173 152.889 71.6792 153.532 72.3613C154.156 73.062 154.827 73.7189 155.514 74.3582C156.889 75.6062 158.37 76.7314 159.696 77.9367C160.018 78.2386 160.338 78.5434 160.628 78.8622C160.918 79.1818 161.176 79.5052 161.362 79.8249C161.404 79.9011 161.438 79.9912 161.481 80.0674C161.528 80.1584 161.557 80.2495 161.59 80.3396C161.652 80.5246 161.713 80.7067 161.757 80.9027C161.833 81.2837 161.865 81.6647 161.819 82.0318C161.743 82.7751 161.404 83.4758 160.871 84.024C160.338 84.5722 159.619 84.9858 158.843 85.2441C158.062 85.5015 157.209 85.639 156.385 85.639C155.547 85.6538 154.69 85.5015 153.837 85.3054L153.209 85.1344L152.584 84.9384L152.279 84.8333L151.975 84.7098L151.361 84.4672C151.165 84.3911 150.966 84.2851 150.766 84.1912C150.57 84.1002 150.37 84.0091 150.171 83.9041L149.593 83.5845L149.303 83.4321L149.151 83.3559L149.012 83.2657C147.485 82.3505 146.051 81.2688 144.722 80.0534C143.394 78.8482 142.174 77.5083 141.013 76.1219V76.1079C140.817 75.8784 140.479 75.8497 140.251 76.0318C140.022 76.2167 139.992 76.5503 140.16 76.7789C141.274 78.2712 142.494 79.6864 143.836 80.9966L144.874 81.9556L145.96 82.8514C146.327 83.1422 146.723 83.4181 147.089 83.6904C147.27 83.8279 147.485 83.9478 147.67 84.0853L148.265 84.4672C149.865 85.4727 151.623 86.2634 153.5 86.7503C154.446 86.9789 155.408 87.1453 156.4 87.1453C157.409 87.1453 158.384 86.9929 159.361 86.6742C160.323 86.3545 161.252 85.8351 161.985 85.0582C162.733 84.3 163.253 83.2657 163.343 82.1693C163.405 81.621 163.343 81.0877 163.238 80.5682C163.176 80.3108 163.1 80.0674 163.009 79.8063C162.962 79.6864 162.918 79.5628 162.857 79.4429C162.795 79.3203 162.733 79.1818 162.657 79.0768C162.385 78.6048 162.061 78.2238 161.728 77.8604C161.39 77.5083 161.038 77.1747 160.675 76.8699C159.957 76.2455 159.237 75.6833 158.523 75.1025C157.804 74.5394 157.103 73.9623 156.414 73.3667C155.042 72.195 153.761 70.9313 152.751 69.4872C152.584 69.2438 152.232 69.1815 151.99 69.3488C151.714 69.53 151.651 69.8682 151.804 70.1107Z" fill="#775E82"/>
<path d="M158.919 39.676C160.171 40.333 158.767 41.9591 157.943 42.2202C156.294 42.7685 154.704 43.4505 153.148 44.1363C153.666 44.9456 154.323 45.6137 155.347 45.8572C159.148 46.2995 162.566 44.2887 165.039 41.2436C166.001 39.9659 166.595 38.3983 166.81 36.7685C167.176 37.2544 167.405 37.6828 167.434 38.0164C167.648 40.5755 165.285 47.1962 152.432 51.2002H152.341C150.204 51.6574 150.69 49.1457 150.204 46.8478C149.623 44.0926 148.403 39.8749 146.846 37.0435L148.462 36.2342C148.266 36.2202 148.051 36.1914 147.837 36.1765C151.575 36.1003 155.332 37.6503 158.919 39.676Z" fill="#752B0B"/>
<path d="M94.7802 51.7948C94.6715 53.1347 94.1093 55.022 94.2617 56.2996C94.323 56.8479 93.5751 58.5864 93.6661 59.1022C92.8279 59.0111 91.7128 57.5049 90.871 57.2475C90.2465 57.0476 89.5757 56.8479 88.8889 56.623C85.3179 55.4503 81.2554 53.6681 80.4795 49.5879C84.661 50.4558 90.49 51.4435 94.7802 51.7948Z" fill="#752B0B"/>
<path d="M73.4116 48.6885C75.7171 55.5554 83.5894 60.3363 93.8472 59.8931C93.6948 59.2547 93.5424 58.5253 93.4048 57.7335C92.5657 57.6425 91.7127 57.4901 90.8708 57.229C90.2464 57.0329 89.5755 56.8331 88.8888 56.6045C82.8275 56.6519 76.7987 54.0018 73.4116 48.6885Z" fill="#752B0B"/>
<path d="M104.196 78.8955C102.029 82.289 99.4665 85.1965 96.3815 87.7082C89.8184 93.3412 81.5753 94.4089 74.0978 98.0607C73.7605 98.2307 73.4408 98.412 73.1221 98.5941C73.4269 98.3506 73.7456 98.0932 74.0838 97.8172C77.9132 94.6811 81.2556 91.1965 84.0656 87.2214C84.9511 87.8318 86.1089 88.2704 87.5279 88.4228C91.1323 88.8047 98.0151 86.6591 104.196 78.8955Z" fill="#DAC9DB"/>
<path d="M96.6573 56.576C95.848 56.681 95.0386 56.7432 94.2144 56.7897C95.1473 47.0765 97.5428 24.2242 122.316 22.913C131.932 22.4122 141.089 26.8734 146.28 35.3999C147.517 37.4256 148.461 39.5852 149.209 41.8831C141.622 39.2042 132.893 39.9188 125.536 43.1022C117.14 46.7578 109.815 52.2384 101.267 55.4331C99.7572 56.0138 98.2137 56.3623 96.6573 56.576Z" fill="#DAC9DB"/>
<path d="M94.0758 58.2348C94.1232 57.7962 94.1706 57.3056 94.2142 56.7899C95.0385 56.7574 95.8478 56.6812 96.6572 56.5762C95.7419 61.8755 94.2142 67.2623 91.4517 71.861C92.6894 67.7342 93.5573 63.2154 94.0758 58.2348Z" fill="#DAC9DB"/>
<path d="M73.1217 98.5948C73.4405 98.3988 73.7601 98.2315 74.0974 98.0615C81.5749 94.4096 89.818 93.3419 96.3811 87.709C99.4662 85.1973 102.029 82.2898 104.196 78.8962C104.396 78.5905 104.581 78.2858 104.777 77.967C104.595 78.2858 104.396 78.5905 104.196 78.8962C98.0147 86.6599 91.132 88.8055 87.5135 88.4096C86.0946 88.2572 84.9332 87.8326 84.0504 87.2082C87.1465 82.8083 89.6043 77.8285 91.3605 72.0757C91.3754 71.9995 91.4042 71.9233 91.4228 71.8472C94.1854 67.2475 95.7093 61.8757 96.6273 56.5614C98.1848 56.3626 99.7235 55.9993 101.237 55.4185C109.782 52.221 117.11 46.7395 125.507 43.0877C132.864 39.9051 141.593 39.1896 149.18 41.8686C151.79 49.8608 151.866 59.5452 152.203 71.0081C152.66 86.6887 153.165 91.1062 155.408 100.239C156.446 104.442 157.333 105.781 156.476 108.003C154.033 114.399 147.927 116.224 141.317 115.51C139.608 115.328 137.916 116.01 135.855 117.916C129.597 123.702 124.102 125.07 116.621 122.482C111.767 120.809 111.738 118.069 108.381 119.132C100.871 121.524 94.9185 122.468 90.0615 118.526C85.9413 115.176 88.0794 112.678 85.6365 112.892C76.5552 113.669 71.3646 108.66 70.2207 104.671C69.455 101.84 70.8312 100.482 73.1217 98.5948Z" fill="white"/>
<path d="M109.6 119.803C110.105 119.756 110.501 119.832 111.005 120.137C111.51 120.427 112.043 120.867 112.624 121.266C113.782 122.086 115.111 122.739 116.453 123.183C117.782 123.607 119.14 123.973 120.53 124.188C121.92 124.384 123.354 124.46 124.774 124.325L125.307 124.264C125.492 124.249 125.659 124.232 125.84 124.188L126.893 123.988L127.916 123.701C128.087 123.655 128.255 123.592 128.421 123.531L128.926 123.349C130.254 122.834 131.503 122.177 132.679 121.4C132.831 121.309 132.969 121.204 133.122 121.113L133.979 120.504C134.116 120.395 134.251 120.289 134.388 120.184L135.213 119.546L136.007 118.874L136.77 118.221C137.016 118.006 137.275 117.825 137.536 117.64C138.051 117.276 138.589 116.972 139.122 116.758C139.594 116.576 139.823 116.042 139.641 115.57C139.455 115.098 138.922 114.87 138.45 115.052C138.436 115.066 138.403 115.066 138.389 115.084C137.688 115.418 137.06 115.829 136.498 116.286C136.207 116.514 135.931 116.743 135.67 116.986L134.922 117.687L134.192 118.354L133.427 118.997C133.307 119.102 133.183 119.207 133.046 119.317L132.65 119.603L132.254 119.894C132.116 119.999 131.993 120.093 131.855 120.184L131.031 120.732C130.755 120.899 130.468 121.052 130.178 121.218C130.04 121.294 129.902 121.385 129.75 121.448L129.306 121.661L128.864 121.872L128.759 121.919L128.65 121.962L128.421 122.057L127.964 122.224C127.811 122.286 127.659 122.343 127.507 122.377L126.574 122.648L125.626 122.834C125.473 122.878 125.307 122.878 125.155 122.892L124.668 122.954C123.383 123.059 122.072 123 120.773 122.802C119.492 122.572 118.211 122.224 116.958 121.781C116.348 121.553 115.753 121.309 115.202 121.004C114.639 120.7 114.105 120.351 113.601 119.97C113.081 119.574 112.578 119.131 111.935 118.693L111.815 118.616L111.677 118.54C111.586 118.493 111.492 118.43 111.401 118.388C111.205 118.297 111.005 118.202 110.792 118.144C110.686 118.112 110.577 118.068 110.472 118.053L110.135 118.006C110.029 117.992 109.92 117.992 109.8 117.992H109.463C108.958 117.992 108.549 118.388 108.534 118.889C108.534 119.393 108.93 119.803 109.434 119.818C109.463 119.818 109.495 119.818 109.524 119.818L109.6 119.803Z" fill="#222E6A"/>
<path d="M86.1086 113.803C86.156 113.803 86.156 113.803 86.1411 113.788C86.1235 113.774 86.1235 113.759 86.156 113.803C86.1848 113.85 86.2322 113.94 86.261 114.046C86.3084 114.155 86.3372 114.292 86.3846 114.427C86.5519 114.975 86.7655 115.6 87.0703 116.162C87.3612 116.728 87.7421 117.244 88.1557 117.716C88.5664 118.188 89.0087 118.598 89.4845 118.979C90.4137 119.741 91.4517 120.38 92.5658 120.867C93.1326 121.095 93.6948 121.309 94.2756 121.461C94.8563 121.614 95.452 121.719 96.0467 121.796C97.2379 121.948 98.4283 121.948 99.6047 121.857C100.199 121.81 100.776 121.752 101.357 121.661C101.938 121.566 102.519 121.476 103.082 121.37C104.228 121.142 105.357 120.867 106.472 120.58C107.038 120.441 107.586 120.289 108.134 120.136C108.41 120.06 108.701 119.97 108.929 119.923C109.172 119.879 109.401 119.846 109.6 119.832C110.105 119.818 110.516 119.407 110.501 118.902C110.487 118.402 110.072 117.992 109.572 118.006C109.539 118.006 109.524 118.006 109.495 118.006H109.478C109.129 118.035 108.791 118.125 108.472 118.22C108.134 118.325 107.905 118.416 107.633 118.506C107.096 118.692 106.563 118.874 106.029 119.041C104.962 119.374 103.876 119.679 102.777 119.923C100.61 120.412 98.3809 120.685 96.2288 120.427C95.6954 120.351 95.1611 120.26 94.6426 120.122C94.1232 119.984 93.6186 119.803 93.1326 119.589C92.156 119.146 91.2519 118.569 90.4463 117.868C90.0467 117.52 89.6657 117.139 89.3321 116.743C89.0087 116.347 88.7188 115.919 88.5227 115.461C88.3081 115.008 88.1706 114.551 88.047 114.003C88.0182 113.864 87.9708 113.712 87.9271 113.559C87.8797 113.393 87.8184 113.226 87.7133 113.011C87.6047 112.815 87.4374 112.554 87.1791 112.373C86.9328 112.191 86.6606 112.1 86.4134 112.039H86.3846C85.8949 111.93 85.408 112.249 85.2992 112.754C85.1943 113.24 85.5139 113.727 86.0175 113.835C86.0473 113.788 86.0798 113.788 86.1086 113.803Z" fill="#222E6A"/>
<path d="M122.268 22.0023C120.94 22.0934 119.629 22.2309 118.315 22.4419C117.005 22.6556 115.706 22.9465 114.425 23.3274C111.877 24.0857 109.401 25.1998 107.191 26.6921C104.976 28.1835 102.991 30.0243 101.372 32.1402C100.566 33.193 99.8183 34.3034 99.1613 35.4436C98.5044 36.5865 97.9236 37.7741 97.4042 38.9932C96.3811 41.411 95.6042 43.9404 95.0235 46.4957C94.4427 49.0548 94.0618 51.6288 93.7709 54.2167C93.6334 55.5092 93.5135 56.8045 93.3899 58.0822L93.1613 59.9844L93.0377 60.9461C93.009 61.2658 92.9616 61.5855 92.904 61.8902L92.5954 63.7774L92.4431 64.7216L92.247 65.6647L91.8474 67.538L91.8037 67.7666L91.6188 68.4524L91.3754 69.3779L91.1319 70.3071C91.0854 70.4595 91.0557 70.6119 91.0092 70.7652L90.8708 71.2224L90.3087 73.0483C90.2612 73.2007 90.2139 73.3531 90.1702 73.5054L90.0038 73.9478L89.6656 74.8445L89.332 75.7449C89.2697 75.8973 89.2233 76.046 89.161 76.1844L88.9798 76.6268L88.2319 78.3764C88.1082 78.6663 87.9707 78.9572 87.8183 79.2443L87.3899 80.0973L86.9653 80.9495C86.9039 81.0879 86.8129 81.2403 86.7367 81.375L86.5081 81.7886L85.5751 83.4621L84.5511 85.0771L84.2937 85.4869L84.1701 85.6829L84.0326 85.8827L82.9362 87.4363L82.6602 87.8322L82.3703 88.2132L81.179 89.7046C81.0888 89.8245 80.9802 89.9481 80.8742 90.0679L80.5555 90.4349L79.9273 91.1495C79.7127 91.393 79.5166 91.6355 79.3029 91.8651L77.9602 93.2366C77.7316 93.4652 77.5169 93.6937 77.2883 93.9047L75.8834 95.2149C75.7598 95.3199 75.6548 95.4295 75.5312 95.5345L75.1651 95.8393L73.6987 97.0882C73.4553 97.3019 73.1979 97.498 72.9507 97.6977C72.4499 98.1076 71.9453 98.5182 71.4407 98.9754C70.9362 99.4326 70.4502 99.9335 70.0218 100.543C69.822 100.849 69.6259 101.197 69.4875 101.563L69.3974 101.839C69.3649 101.93 69.35 102.021 69.3212 102.126L69.2589 102.416C69.245 102.507 69.245 102.612 69.2264 102.707C69.1502 103.483 69.2887 104.227 69.4736 104.914C69.8834 106.282 70.6026 107.502 71.4881 108.565C72.3737 109.633 73.4265 110.547 74.5695 111.277C75.1502 111.657 75.7458 111.977 76.3703 112.268C76.9975 112.554 77.6368 112.798 78.2789 112.997C79.5751 113.407 80.9179 113.651 82.2792 113.759C82.951 113.803 83.6368 113.836 84.3086 113.818L84.8132 113.803L85.3177 113.774L85.7889 113.745C85.9125 113.745 86.0035 113.745 86.0648 113.759C86.5518 113.864 87.0415 113.546 87.1465 113.059C87.2561 112.573 86.9328 112.082 86.4458 111.977C86.4319 111.977 86.4133 111.977 86.3994 111.977H86.3696C86.1085 111.93 85.8799 111.93 85.6662 111.948L85.1793 111.977L84.7221 112.006L84.2612 112.025C83.6368 112.053 83.0272 112.039 82.4167 111.992C81.179 111.901 79.9747 111.701 78.7983 111.353C78.2175 111.186 77.6368 110.972 77.0886 110.714C76.5403 110.471 75.9893 110.181 75.4847 109.861C74.4644 109.222 73.5166 108.431 72.7398 107.516C71.9602 106.602 71.3497 105.552 71.0124 104.442C70.86 103.894 70.7689 103.331 70.8163 102.826C70.86 102.311 71.0309 101.839 71.3357 101.382C71.6405 100.925 72.0503 100.497 72.4936 100.072C72.9507 99.6612 73.4404 99.2514 73.9311 98.837C74.1736 98.627 74.4319 98.4272 74.6782 98.2135L76.1742 96.9358L76.5403 96.6162C76.6602 96.5112 76.7838 96.3875 76.9074 96.2816L78.3263 94.9249C78.5697 94.714 78.7835 94.4706 79.012 94.2244L79.6988 93.5088L80.3845 92.8082C80.5982 92.5648 80.8129 92.3222 81.0414 92.0788L81.6835 91.3344L82.0032 90.9683C82.112 90.8447 82.2179 90.7249 82.3229 90.5874L83.5457 89.0476L83.8505 88.6703L84.1414 88.2708L84.7035 87.4652L85.2704 86.6595L85.4079 86.4597L85.5464 86.2497L85.8037 85.8353L86.8417 84.1767L87.7895 82.4567L88.032 82.032C88.1082 81.8935 88.1993 81.7412 88.2616 81.5887L89.1173 79.8251C89.2558 79.5343 89.4082 79.2443 89.5281 78.9386L90.29 77.1276L90.4898 76.6704C90.5512 76.518 90.5985 76.3693 90.6571 76.2169L90.9944 75.3016L91.328 74.3873L91.499 73.9301C91.5426 73.7815 91.59 73.6291 91.6513 73.458L92.2321 71.5885L92.3668 71.1164C92.4133 70.9641 92.4431 70.794 92.4895 70.6416L92.733 69.6975L92.9801 68.7534L93.1 68.2823L93.1613 68.0388L93.2087 67.7954L93.6046 65.8793L93.8034 64.9176L93.9558 63.9587L94.2755 62.0277C94.3377 61.7053 94.3665 61.3856 94.414 61.0659L94.5366 60.0931L94.7661 58.1584C94.8999 56.8669 95.0086 55.5854 95.161 54.3077C95.4519 51.7663 95.8328 49.237 96.4136 46.7578C96.7035 45.5229 97.0232 44.2888 97.419 43.0734C97.8186 41.8682 98.2609 40.6816 98.7478 39.5089C99.2524 38.3511 99.8183 37.2258 100.458 36.1293C101.1 35.0477 101.8 33.9987 102.581 33.022C104.137 31.0586 105.982 29.3386 108.076 27.9698C110.167 26.5974 112.486 25.5957 114.897 24.9099C117.31 24.2241 119.829 23.8757 122.344 23.7661C122.849 23.7372 123.245 23.3089 123.216 22.808C123.186 22.3071 122.759 21.9113 122.254 21.941C122.268 22.0023 122.268 22.0023 122.268 22.0023Z" fill="#222E6A"/>
<path d="M139.122 116.771C139.626 116.543 140.145 116.409 140.664 116.39C140.799 116.39 140.922 116.39 141.06 116.39C141.121 116.39 141.198 116.409 141.26 116.409L141.502 116.423C141.837 116.453 142.174 116.482 142.494 116.499C143.823 116.575 145.165 116.543 146.508 116.362C147.851 116.194 149.18 115.861 150.446 115.341C151.714 114.823 152.919 114.092 153.942 113.163C154.461 112.706 154.933 112.205 155.361 111.657C155.789 111.11 156.156 110.532 156.476 109.937L156.705 109.48L156.918 109.022C156.994 108.869 157.057 108.703 157.118 108.551L157.209 108.307L157.299 108.05C157.423 107.715 157.499 107.334 157.561 106.967C157.605 106.586 157.623 106.205 157.59 105.857C157.529 105.127 157.361 104.455 157.194 103.817C157.027 103.178 156.842 102.568 156.661 101.959C156.476 101.349 156.324 100.742 156.171 100.118L155.713 98.2595C155.118 95.7775 154.585 93.2798 154.233 90.768C153.866 88.2564 153.622 85.7149 153.456 83.1558C153.285 80.6005 153.18 78.0423 153.071 75.4832C152.98 72.9279 152.904 70.354 152.828 67.781C152.689 62.6479 152.57 57.4898 152.018 52.3429C151.746 49.7698 151.347 47.1959 150.737 44.6554C150.127 42.1112 149.285 39.6171 148.127 37.2392L147.913 36.8007L147.456 35.9151C147.38 35.7804 147.289 35.628 147.213 35.4905L146.965 35.0621C146.889 34.9274 146.784 34.7898 146.708 34.6514L146.175 33.8169L145.899 33.4034L145.594 33.0076L144.998 32.2159C144.889 32.0783 144.798 31.9436 144.693 31.82L144.37 31.439L143.717 30.6947L143.547 30.5098C143.488 30.4522 143.427 30.39 143.379 30.3286L143.027 29.9802L142.327 29.2795C142.083 29.0509 141.822 28.8363 141.579 28.6226C141.336 28.4116 141.074 28.183 140.832 27.9693L140.036 27.3737L139.641 27.0689L139.441 26.9165C139.379 26.8728 139.303 26.8255 139.227 26.7827L138.389 26.2344L137.975 25.9585C137.84 25.8674 137.688 25.7912 137.55 25.715C135.26 24.376 132.77 23.3706 130.193 22.7462C127.611 22.1217 124.94 21.8783 122.287 21.987C121.782 22.0019 121.383 22.4265 121.415 22.9311C121.43 23.4319 121.859 23.8278 122.363 23.799H122.377C127.354 23.4932 132.421 24.6185 136.74 27.0875C136.879 27.1637 137.016 27.2213 137.151 27.3161L137.55 27.5735L138.341 28.0743C138.403 28.1217 138.48 28.1505 138.541 28.1979L138.726 28.3354L139.107 28.6077L139.855 29.1708C140.098 29.3706 140.327 29.5806 140.57 29.7804C140.799 29.9802 141.045 30.1762 141.274 30.39L141.946 31.0432L142.279 31.3777C142.341 31.439 142.389 31.4864 142.45 31.5477L142.603 31.7299L143.227 32.4305L143.532 32.7789C143.641 32.9016 143.732 33.0215 143.823 33.1451L144.389 33.8894L144.679 34.2555L144.937 34.6514L145.455 35.4282C145.546 35.5667 145.638 35.6865 145.714 35.8241L145.96 36.2338C146.036 36.3723 146.127 36.5098 146.203 36.6483L146.661 37.4688L146.875 37.8962C148.004 40.1328 148.814 42.5247 149.408 44.989C150.004 47.4393 150.4 49.9696 150.676 52.4952C151.227 57.566 151.361 62.6953 151.514 67.8274C151.575 70.3976 151.651 72.9567 151.746 75.5298C151.837 78.1037 151.942 80.6776 152.109 83.2469C152.28 85.8209 152.508 88.4088 152.889 90.9679C153.256 93.5409 153.775 96.0823 154.355 98.594L154.799 100.481C154.951 101.121 155.118 101.744 155.285 102.368C155.452 102.993 155.637 103.617 155.804 104.213C155.956 104.823 156.095 105.4 156.141 105.962C156.171 106.238 156.141 106.51 156.109 106.772C156.065 107.029 156.019 107.287 155.913 107.563L155.837 107.759L155.743 107.974C155.681 108.111 155.637 108.263 155.561 108.383L155.361 108.793L155.147 109.189C154.857 109.722 154.538 110.209 154.157 110.681C153.79 111.152 153.376 111.581 152.919 111.977C152.018 112.754 150.981 113.378 149.865 113.817C148.751 114.26 147.561 114.536 146.341 114.67C145.118 114.823 143.884 114.823 142.646 114.747C142.341 114.717 142.022 114.703 141.717 114.656L141.488 114.627C141.394 114.612 141.304 114.612 141.198 114.594C141.013 114.579 140.817 114.579 140.632 114.579C139.87 114.612 139.107 114.793 138.436 115.084C137.96 115.28 137.746 115.813 137.945 116.285C138.098 116.758 138.632 116.971 139.122 116.771Z" fill="#222E6A"/>
<path d="M153.928 107.287C154.371 103.573 152.447 110.546 144.846 109.069C140.588 108.231 142.908 106.542 140.236 109.36C135.626 114.26 129.369 114.26 125.507 112.325C121.383 110.27 122.65 109.494 119.264 111.443C109.143 117.228 100.215 112.782 96.6426 109.661C93.0707 106.542 93.9711 106.1 90.5376 107.287C87.1181 108.474 82.1123 109.584 77.3037 106.1C74.0365 103.726 72.3741 102.278 73.1361 104.76C74.4026 108.888 80.4611 111.138 86.7659 110.423C87.6375 110.333 88.4468 110.423 89.1614 112.949C90.5813 118.035 97.9092 120.775 107.191 117.214C111.649 115.508 111.144 115.98 114.287 118.448C118.973 122.1 127.536 123.015 136.022 115.403C138.755 112.949 139.579 113.635 144.709 113.635C148.294 113.635 153.27 111.643 153.971 107.791" fill="#FF8856"/>
<path d="M73.64 104.546C73.5461 104.35 73.47 104.137 73.4402 103.969C73.4263 103.922 73.4263 103.893 73.4263 103.861C73.4263 103.846 73.4263 103.817 73.4263 103.831C73.4263 103.831 73.4263 103.861 73.4114 103.893C73.4114 103.893 73.3938 103.922 73.3789 103.937C73.3641 103.955 73.3501 103.984 73.3352 103.998C73.3027 104.046 73.2404 104.06 73.2116 104.074C73.1977 104.074 73.1791 104.089 73.1643 104.089C73.1503 104.089 73.1503 104.089 73.1503 104.089C73.1791 104.089 73.2116 104.107 73.259 104.122C73.3352 104.151 73.4263 104.198 73.5164 104.242C73.6985 104.333 73.8983 104.455 74.0972 104.579C74.874 105.066 75.6407 105.628 76.4026 106.191L76.9834 106.619L77.6078 107.044C77.7128 107.12 77.8076 107.182 77.9126 107.258L78.2322 107.439C78.446 107.563 78.6606 107.683 78.8892 107.806C79.7887 108.245 80.7365 108.597 81.727 108.826C83.6979 109.251 85.7422 109.207 87.6806 108.812C88.66 108.612 89.6041 108.354 90.5221 108.05C90.9793 107.896 91.4226 107.744 91.8649 107.606C92.2895 107.469 92.7328 107.378 92.9613 107.425C93.0701 107.439 93.176 107.487 93.3135 107.578C93.451 107.668 93.6183 107.82 93.7707 107.974C94.094 108.278 94.4425 108.627 94.7799 108.964C95.132 109.298 95.4805 109.632 95.8475 109.951C96.1997 110.271 96.5946 110.605 96.9942 110.91C98.5803 112.115 100.334 113.058 102.181 113.744C104.028 114.427 105.982 114.855 107.967 114.989C109.952 115.128 111.953 114.931 113.873 114.459C114.834 114.216 115.782 113.911 116.697 113.545L117.386 113.254C117.492 113.211 117.615 113.163 117.721 113.102L118.058 112.935C118.272 112.83 118.501 112.725 118.715 112.616L119.353 112.267C119.568 112.144 119.781 112.024 119.981 111.915C120.177 111.795 120.392 111.687 120.592 111.567C120.787 111.458 120.987 111.352 121.186 111.262C121.368 111.171 121.554 111.11 121.659 111.095C121.72 111.08 121.75 111.095 121.782 111.095C121.811 111.095 121.872 111.124 121.948 111.138C122.087 111.2 122.268 111.305 122.468 111.443C122.864 111.687 123.277 111.962 123.706 112.22C124.13 112.464 124.559 112.706 125.002 112.921L125.168 112.997L125.339 113.073L125.688 113.225C125.811 113.269 125.916 113.331 126.04 113.378L126.392 113.498C127.354 113.835 128.344 114.078 129.336 114.169C129.582 114.198 129.84 114.216 130.083 114.231C130.345 114.246 130.587 114.26 130.849 114.246L131.611 114.231C131.855 114.216 132.116 114.183 132.359 114.155C132.482 114.14 132.602 114.122 132.74 114.107L133.474 113.955C133.597 113.926 133.717 113.911 133.84 113.879L134.573 113.683L134.755 113.635L134.94 113.574L135.288 113.454L135.641 113.331C135.702 113.316 135.764 113.287 135.825 113.273L135.993 113.197L136.679 112.873C136.74 112.844 136.802 112.83 136.846 112.797L137.016 112.706L137.655 112.344L137.821 112.249C137.869 112.22 137.931 112.176 137.975 112.144C138.388 111.853 138.817 111.596 139.183 111.262L139.76 110.79C139.946 110.623 140.112 110.438 140.298 110.271L140.555 110.013C140.646 109.922 140.74 109.832 140.816 109.755L141.303 109.221L141.778 108.688C141.854 108.612 141.93 108.521 141.974 108.474C141.974 108.474 141.96 108.474 141.945 108.488C141.93 108.488 141.93 108.488 141.913 108.507C141.884 108.521 141.854 108.521 141.808 108.521C141.76 108.521 141.732 108.521 141.684 108.521C141.654 108.521 141.622 108.507 141.608 108.507C141.546 108.474 141.564 108.474 141.593 108.507L141.732 108.612C141.837 108.688 141.945 108.779 142.065 108.855C142.312 109.008 142.555 109.131 142.798 109.236C143.288 109.45 143.793 109.585 144.28 109.693C145.255 109.908 146.264 110.013 147.288 109.966C148.309 109.922 149.318 109.708 150.28 109.327C151.226 108.945 152.108 108.398 152.875 107.744C153.071 107.578 153.256 107.425 153.423 107.258L153.684 107.015C153.76 106.938 153.851 106.862 153.913 106.815C153.942 106.786 153.97 106.772 153.956 106.786H153.942H153.913C153.894 106.786 153.88 106.786 153.865 106.801C153.851 106.801 153.818 106.801 153.789 106.801C153.76 106.801 153.728 106.801 153.698 106.786C153.666 106.772 153.622 106.753 153.589 106.739C153.561 106.71 153.532 106.71 153.513 106.677C153.499 106.662 153.47 106.619 153.456 106.619C153.437 106.601 153.437 106.586 153.423 106.572L153.408 106.543C153.408 106.525 153.393 106.51 153.393 106.51V106.525C153.393 106.543 153.393 106.586 153.393 106.633C153.393 106.83 153.361 107.058 153.347 107.287C153.317 107.592 153.532 107.85 153.837 107.882C154.127 107.911 154.399 107.698 154.431 107.41C154.461 107.167 154.49 106.921 154.508 106.648C154.508 106.572 154.508 106.496 154.508 106.405C154.508 106.372 154.508 106.358 154.49 106.329L154.475 106.238C154.475 106.205 154.446 106.161 154.446 106.115C154.446 106.1 154.431 106.071 154.414 106.038C154.399 106.009 154.385 105.977 154.37 105.962C154.355 105.948 154.309 105.9 154.279 105.872C154.246 105.843 154.218 105.809 154.156 105.781C154.109 105.752 154.05 105.733 154.004 105.719C153.956 105.704 153.913 105.704 153.865 105.704C153.818 105.704 153.774 105.704 153.742 105.704C153.713 105.704 153.684 105.719 153.652 105.719C153.622 105.733 153.608 105.733 153.575 105.733L153.513 105.752C153.376 105.809 153.317 105.857 153.256 105.9C153.132 105.995 153.041 106.071 152.936 106.161L152.66 106.405C152.475 106.557 152.308 106.71 152.127 106.848C151.423 107.41 150.66 107.882 149.822 108.202C148.998 108.521 148.113 108.688 147.227 108.703C146.341 108.735 145.441 108.612 144.556 108.416C144.112 108.307 143.699 108.187 143.303 108.016C143.103 107.926 142.936 107.835 142.77 107.73C142.693 107.668 142.617 107.621 142.526 107.545L142.374 107.425L142.326 107.395L142.265 107.349L142.235 107.334L142.189 107.302L142.141 107.273C142.127 107.258 142.113 107.258 142.083 107.243C142.022 107.225 141.974 107.211 141.913 107.197C141.854 107.182 141.778 107.182 141.702 107.182C141.641 107.182 141.578 107.197 141.517 107.211C141.488 107.225 141.456 107.225 141.441 107.243L141.317 107.302L141.274 107.334L141.197 107.395C141.151 107.425 141.121 107.454 141.074 107.487C140.951 107.592 140.86 107.698 140.784 107.791L140.298 108.322L139.822 108.84L139.702 108.964L139.579 109.084L139.335 109.327L138.845 109.798L138.312 110.227C137.975 110.532 137.579 110.757 137.212 111.019C137.168 111.047 137.122 111.08 137.074 111.11L136.922 111.186L136.631 111.352L136.345 111.519L136.189 111.596C136.145 111.628 136.083 111.643 136.036 111.672L135.426 111.948L135.274 112.024C135.23 112.039 135.169 112.053 135.121 112.082L134.801 112.191L134.479 112.296L134.327 112.358L134.159 112.401L133.502 112.572C133.397 112.601 133.289 112.616 133.169 112.63L132.831 112.692L132.497 112.753C132.388 112.768 132.268 112.782 132.16 112.782C131.931 112.797 131.716 112.83 131.488 112.844L130.816 112.858C130.587 112.873 130.374 112.844 130.145 112.844C129.917 112.83 129.702 112.83 129.473 112.782C128.573 112.692 127.702 112.477 126.864 112.176L126.544 112.068C126.436 112.039 126.345 111.977 126.24 111.929L125.935 111.795L125.782 111.719L125.625 111.643C125.216 111.428 124.82 111.215 124.421 110.971C124.025 110.743 123.644 110.485 123.23 110.227C123.016 110.089 122.805 109.951 122.515 109.813C122.363 109.755 122.192 109.693 121.996 109.661C121.796 109.632 121.597 109.632 121.415 109.661C121.049 109.722 120.773 109.832 120.53 109.937C120.286 110.042 120.057 110.166 119.844 110.285C119.629 110.409 119.415 110.532 119.201 110.638C118.987 110.757 118.791 110.88 118.577 110.986L117.963 111.323C117.767 111.428 117.553 111.519 117.339 111.628L117.034 111.777C116.929 111.824 116.82 111.872 116.715 111.915L116.072 112.191C115.219 112.525 114.348 112.815 113.448 113.026C111.662 113.454 109.829 113.65 107.996 113.53C106.167 113.421 104.367 113.026 102.638 112.387C100.915 111.748 99.2661 110.88 97.8184 109.785C97.0992 109.236 96.4134 108.597 95.7276 107.959C95.3894 107.639 95.0521 107.302 94.6897 106.953C94.5038 106.786 94.304 106.601 94.0467 106.434C93.9231 106.344 93.7707 106.267 93.6183 106.191C93.451 106.129 93.2847 106.071 93.0998 106.053C92.7328 106.009 92.428 106.053 92.1557 106.1C91.8798 106.161 91.6363 106.224 91.39 106.3C90.918 106.449 90.4608 106.619 90.0176 106.772C89.132 107.073 88.2464 107.334 87.346 107.515C85.5462 107.896 83.6979 107.94 81.9417 107.592C81.0562 107.393 80.2031 107.106 79.3938 106.725C79.194 106.619 78.9979 106.51 78.7981 106.405L78.4933 106.238C78.4023 106.176 78.3085 106.115 78.2025 106.053L77.6366 105.689L77.0596 105.276C76.279 104.728 75.5022 104.166 74.6454 103.65C74.4317 103.526 74.217 103.389 73.9745 103.284C73.851 103.221 73.7311 103.178 73.5787 103.116C73.5025 103.088 73.4263 103.069 73.3352 103.055L73.2739 103.04L73.1977 103.025H73.1215C73.088 103.025 73.0453 103.025 73.0119 103.025C72.9831 103.025 72.9357 103.025 72.9069 103.04C72.8595 103.055 72.8158 103.069 72.7694 103.088C72.6932 103.102 72.5695 103.178 72.4934 103.254C72.3261 103.421 72.2787 103.617 72.2648 103.741C72.235 103.998 72.2787 104.151 72.3112 104.303C72.3884 104.594 72.4934 104.823 72.5835 105.066C72.7071 105.338 73.0267 105.461 73.3027 105.338C73.6224 105.156 73.7599 104.837 73.64 104.546Z" fill="#222E6A"/>
<path d="M140.298 51.9482C143.074 51.9482 145.333 54.2927 145.333 57.1714C145.333 60.0455 143.074 62.3908 140.298 62.3908C137.517 62.3908 135.26 60.0455 135.26 57.1714C135.26 54.2927 137.517 51.9482 140.298 51.9482Z" fill="#222E6A"/>
<path d="M110.563 53.6533C113.34 53.6533 115.6 55.9986 115.6 58.8737C115.6 61.7515 113.34 64.0968 110.563 64.0968C107.786 64.0968 105.525 61.7515 105.525 58.8737C105.525 55.9986 107.786 53.6533 110.563 53.6533Z" fill="#222E6A"/>
<path d="M107.281 57.2763C107.281 58.3728 108.715 59.2871 110.563 59.2871C112.411 59.2871 113.768 58.4016 113.782 57.3051C113.782 56.1185 112.348 54.7785 110.548 54.7646C108.762 54.7646 107.296 56.0897 107.281 57.2763Z" fill="white"/>
<path d="M137.031 55.5546C137.031 56.6511 138.465 57.5655 140.312 57.5655C142.16 57.5655 143.517 56.6799 143.532 55.5844C143.532 54.3969 142.098 53.0578 140.298 53.043C138.512 53.043 137.046 54.3829 137.031 55.5546Z" fill="white"/>
<path d="M123.186 66.275C122.896 65.4647 122.668 64.5392 122.529 63.4725C124.744 65.4072 130.054 65.1163 131.626 63.2578C131.259 64.7975 131.274 67.1568 130.421 68.7532C128.955 66.5937 125.811 65.9368 123.186 66.275Z" fill="#A65A7F"/>
<path d="M130.421 68.7535C130.207 69.1494 129.949 69.5164 129.597 69.7924C127.979 71.1314 124.726 70.6417 123.187 66.2753C125.812 65.9371 128.955 66.594 130.421 68.7535Z" fill="#FFB0D7"/>
<path d="M131.155 63.153C130.94 63.9447 130.831 64.7216 130.698 65.4649C130.574 66.213 130.436 66.9424 130.207 67.6142C130.102 67.9478 129.95 68.2526 129.793 68.5434C129.702 68.6773 129.626 68.8157 129.521 68.9244C129.474 68.9829 129.43 69.0443 129.369 69.0917L129.198 69.2441C128.759 69.6213 128.164 69.8063 127.55 69.7598C126.941 69.7301 126.33 69.4726 125.812 69.0592C125.55 68.8631 125.307 68.6196 125.079 68.3585C124.85 68.1002 124.65 67.8103 124.468 67.5055C123.735 66.2892 123.307 64.8591 123.017 63.3816C122.973 63.1242 122.712 62.9393 122.44 63.0006C122.192 63.048 122.025 63.2729 122.04 63.5201C122.102 64.3109 122.24 65.1025 122.454 65.8794C122.668 66.6562 122.958 67.4293 123.354 68.1476C123.445 68.3288 123.569 68.5109 123.674 68.6773C123.797 68.8483 123.917 69.0294 124.055 69.1819C124.331 69.5163 124.62 69.8211 124.973 70.0934C125.659 70.6416 126.53 71.0403 127.459 71.0988C127.916 71.1313 128.407 71.0839 128.849 70.9316C129.293 70.7792 129.735 70.5506 130.083 70.2309L130.345 70.0209C130.436 69.9447 130.498 69.836 130.574 69.7449C130.726 69.5638 130.831 69.3639 130.955 69.1819C131.155 68.7869 131.321 68.391 131.445 67.9952C131.688 67.1858 131.779 66.3941 131.869 65.6173C131.946 64.8414 132.008 64.0823 132.117 63.3677V63.3491C132.16 63.0769 131.978 62.8334 131.703 62.7869C131.445 62.7572 131.216 62.9096 131.155 63.153Z" fill="#46334D"/>
<path d="M122.211 63.8382C122.53 64.1728 122.912 64.4302 123.306 64.6588C123.706 64.8734 124.116 65.0397 124.544 65.1633C125.397 65.4068 126.269 65.4978 127.139 65.483C128.007 65.4644 128.878 65.3454 129.717 65.0695C130.146 64.9348 130.559 64.7498 130.94 64.5212C131.336 64.2778 131.703 63.9906 131.993 63.5772C132.145 63.3671 132.098 63.0475 131.888 62.8951C131.703 62.7566 131.445 62.7715 131.275 62.9239L131.245 62.9388C130.755 63.3671 130.069 63.6533 129.354 63.8206C128.988 63.9145 128.621 63.973 128.24 64.0204C127.855 64.0678 127.492 64.0965 127.107 64.0965C126.726 64.1105 126.345 64.0965 125.978 64.0492C125.597 64.0204 125.231 63.9581 124.864 63.8819C124.131 63.7295 123.445 63.4722 122.849 63.0763L122.835 63.0614C122.606 62.909 122.301 62.9713 122.149 63.1813C122.025 63.4099 122.04 63.6719 122.211 63.8382Z" fill="#46334D"/>
<path d="M96.3811 45.7657C105.234 43.3014 112.839 38.2919 120.821 33.8168C129.14 29.127 138.417 27.7546 147.637 27.7406C148.631 27.7546 149.652 27.788 150.661 27.8642C148.294 27.2686 145.975 26.8876 143.684 26.7055C143.669 26.7055 143.655 26.7055 143.623 26.7055C140.875 26.4918 138.189 26.5531 135.564 26.8439C123.186 28.1653 112.195 34.2889 103.434 39.0976C102.519 39.5984 101.572 40.0566 100.624 40.4515C99.7569 40.8185 98.8853 41.1521 97.9998 41.4569C96.8996 41.8239 95.804 42.1436 94.7038 42.401C91.4227 43.1927 88.1853 43.5588 85.2415 43.6787C81.3174 43.8496 77.9601 43.5737 75.8071 43.3014C73.6225 43.0254 72.7834 43.7112 72.7397 45.0651C80.798 45.9042 88.3516 48.2161 96.3811 45.7657Z" fill="#F3CA9C"/>
<path d="M164.767 34.7139C165.438 35.5195 166.091 36.3864 166.748 37.2868C166.781 37.1206 166.81 36.9533 166.824 36.7823C166.353 36.1439 165.634 35.4433 164.767 34.7139Z" fill="#B777BA"/>
<path d="M158.218 30.5426C155.667 29.3708 153.148 28.5029 150.676 27.8785C149.669 27.8023 148.661 27.7698 147.656 27.7549C138.418 27.7883 129.14 29.1422 120.835 33.8311C112.839 38.3071 105.234 43.3157 96.399 45.7809C88.3704 48.2164 80.828 45.9045 72.7837 45.0951C72.7837 45.2475 72.7837 45.4176 72.7985 45.5849C72.8924 46.6627 73.1033 47.7155 73.4406 48.7061C76.8313 54.0166 82.8602 56.6667 88.9039 56.637C85.3319 55.4652 81.2703 53.683 80.4934 49.6028C84.6898 50.4707 88.8128 51.8246 93.1002 52.1767C93.1002 52.0857 93.1142 51.9909 93.1142 51.9007C94.5665 51.8571 96.0328 51.7047 97.4955 51.4436C98.185 51.3237 98.8716 51.1853 99.5713 51.0189C99.9096 50.9427 100.243 50.8656 100.58 50.7755C103.924 49.9076 107.357 48.6122 110.914 47.1059C111.11 47.0298 111.31 46.9387 111.525 46.8477C116.639 44.6556 122.04 42.0529 127.931 39.6759C133.459 37.4393 138.326 36.4338 142.494 36.1439C143.332 36.0816 144.16 36.0677 144.951 36.0528C145.975 36.0528 146.951 36.1002 147.884 36.1764C151.623 36.0816 155.376 37.6502 158.965 39.6759C160.214 40.3329 158.813 41.959 157.986 42.2201C156.338 42.7684 154.751 43.4504 153.194 44.1362C153.713 44.9455 154.37 45.6136 155.394 45.8571C159.194 46.2994 162.614 44.2885 165.085 41.2435C165.957 40.1033 166.519 38.7169 166.781 37.2729C166.124 36.3725 165.481 35.5195 164.795 34.699C162.981 33.2076 160.538 31.6065 158.218 30.5426Z" fill="#F25510"/>
<path d="M108.625 31.0767C107.616 30.1289 107.496 28.67 107.724 27.2539L106.152 28.0307C105.725 28.2417 105.539 28.8076 105.739 29.2796L105.862 29.5667L107.157 32.7029C107.357 33.1926 107.862 33.4035 108.286 33.1926L110.762 31.9725C109.92 31.9586 109.111 31.7588 108.625 31.0767Z" fill="#38263B"/>
<path d="M111.51 25.3818L107.71 27.2542C107.481 28.6843 107.601 30.1478 108.61 31.077C109.111 31.7591 109.92 31.9589 110.744 31.9728L114.073 30.3439C114.225 28.2596 113.401 26.1113 111.51 25.3818Z" fill="#5F5061"/>
<path d="M116.178 28.2739L114.821 25.0003L114.759 24.833C114.562 24.361 114.058 24.1324 113.63 24.3461L111.525 25.3813C113.416 26.1107 114.225 28.2591 114.088 30.3433L115.753 29.5228C116.178 29.3082 116.363 28.746 116.178 28.2739Z" fill="#38263B"/>
<path d="M102.243 26.6923C101.815 26.9023 101.633 27.4654 101.833 27.9411L102.853 30.4054L102.747 30.4528C102.671 30.4965 102.595 30.543 102.519 30.5867C103.067 31.7594 103.619 32.932 104.167 34.1038C105.02 30.9249 105.847 27.7414 106.61 24.543L102.243 26.6923Z" fill="#E6D093"/>
<path d="M106.396 30.8905L105.848 29.5664L105.725 29.2792C105.525 28.7895 105.71 28.2413 106.135 28.0303L107.449 27.392C107.862 26.0957 108.273 24.8003 108.701 23.5078L106.577 24.5569C105.815 27.7543 104.991 30.9528 104.138 34.1177C104.41 34.7133 104.686 35.308 104.977 35.8999C105.434 34.2124 105.906 32.5501 106.396 30.8905Z" fill="white"/>
<path d="M108.653 36.281C109.019 35.0182 109.386 33.7545 109.753 32.474L108.286 33.1923C107.862 33.4032 107.343 33.1923 107.157 32.7025L106.41 30.8906C105.923 32.5502 105.448 34.2265 104.99 35.9001C105.281 36.5245 105.586 37.1489 105.877 37.7873C106.762 37.2864 107.709 36.7819 108.653 36.281Z" fill="#E6D093"/>
<path d="M112.654 21.5586L108.715 23.4932C108.286 24.7858 107.876 26.0672 107.463 27.3737L111.724 25.2903C112.043 24.0563 112.348 22.8074 112.654 21.5586Z" fill="#E6D093"/>
<path d="M109.753 32.4742C109.387 33.7407 109.019 35.0184 108.653 36.2812C110.148 35.4904 111.706 34.6839 113.296 33.9071C113.553 32.7353 113.815 31.5478 114.058 30.3574L109.753 32.4742Z" fill="white"/>
<path d="M117.63 22.6841C117.601 22.7027 117.582 22.7027 117.554 22.7176L116.682 20.6296C116.544 20.2811 116.24 20.0823 115.92 20.0674C115.873 20.3722 115.83 20.6769 115.782 20.9818C115.554 22.488 115.296 23.9952 115.02 25.4866L116.163 28.2743C116.363 28.7603 116.178 29.3085 115.753 29.5231L114.058 30.3576C113.815 31.5479 113.553 32.7355 113.296 33.9072C115.844 32.6592 118.501 31.4717 121.263 30.4199C119.982 27.8784 118.715 25.3194 117.63 22.6841Z" fill="#E6D093"/>
<path d="M115.92 20.0674C115.796 20.0674 115.677 20.0823 115.554 20.1436L112.654 21.5737C112.348 22.8225 112.043 24.0565 111.725 25.2906L113.63 24.3613C114.058 24.1476 114.562 24.3613 114.759 24.8473L114.821 25.0146L115.02 25.5015C115.296 24.0091 115.554 22.5029 115.783 20.9966C115.83 20.6769 115.873 20.3722 115.92 20.0674Z" fill="white"/>
<path d="M134.207 19.5473C128.164 19.3661 122.592 20.7386 117.63 22.6695C118.715 25.3187 119.982 27.8639 121.263 30.4043C125.764 28.6983 130.559 27.3732 135.579 26.8436C137.107 26.6726 138.665 26.5964 140.236 26.5825C138.556 23.7223 136.603 21.192 134.207 19.5473Z" fill="#5F5061"/>
<path d="M140.236 26.583C141.365 26.583 142.494 26.6155 143.641 26.7057L143.655 26.3108C143.318 25.8387 141.38 23.1886 137.655 19.6863L137.564 19.8099C136.435 19.6715 135.306 19.5813 134.207 19.5479C136.603 21.1926 138.556 23.7228 140.236 26.583Z" fill="#AB9BAD"/>
<path d="M99.1288 32.4746C98.7181 32.6883 98.3195 32.8695 97.9525 33.0219H97.9385C97.4191 39.008 94.7188 42.3727 94.7188 42.3727V42.4015C95.8181 42.1441 96.9182 41.8244 98.0147 41.4574C98.733 41.2149 99.4522 40.9566 100.152 40.6667C100.167 37.8641 99.771 35.1387 99.1288 32.4746Z" fill="#38263B"/>
<path d="M102.486 30.5859C101.252 31.3191 100.123 31.9584 99.1143 32.4593C99.7573 35.1382 100.152 37.8636 100.152 40.6513C100.319 40.59 100.472 40.5138 100.643 40.4515C101.586 40.0417 102.534 39.5985 103.448 39.0976C104.229 38.6693 105.038 38.2307 105.862 37.7735C104.733 35.3845 103.619 32.9926 102.486 30.5859Z" fill="#5F5061"/>
<path d="M97.5901 24.8945C97.8475 29.904 96.7334 34.9422 93.5285 38.4268C92.1375 39.9944 90.3524 40.88 88.6129 40.971C87.7422 41.9439 86.642 42.8583 85.2705 43.6974C88.1994 43.5738 91.4517 43.2068 94.7328 42.416V42.3862C94.7328 42.3862 97.4377 39.0215 97.9525 33.0401H97.9711C98.0762 32.9927 98.1672 32.9453 98.2759 32.9016C98.2434 30.2051 98.091 27.5586 97.5901 24.8945Z" fill="#8E5E1F"/>
<path d="M117.14 4.93471C120.925 5.17787 123.23 10.1106 126.94 11.4971C128.283 11.9691 129.612 12.4848 130.892 13.1093C124.773 8.43743 122.211 2.37576 116.316 1.20334C112.286 0.397493 104.838 3.16696 95.7565 12.6372C89.7891 18.851 93.1612 27.9072 91.4375 35.3382C93.2523 31.4252 93.5282 25.8963 94.5188 22.0168C96.8567 11.4069 107.724 4.60077 117.14 4.93471Z" fill="#F3CA9C"/>
<path d="M98.2432 32.8882C98.5192 32.7645 98.8091 32.6122 99.1139 32.4746C98.824 31.2583 98.4717 30.0567 98.0908 28.8516C98.2135 30.1906 98.2432 31.5305 98.2432 32.8882Z" fill="#EEBEF0"/>
<path d="M127.231 12.9893C130.007 14.9676 132.374 17.1885 134.573 19.5664C135.55 19.61 136.541 19.6862 137.55 19.8098L137.641 19.6862C135.688 17.8454 134.451 15.6822 131.503 13.5664C131.292 13.414 131.078 13.2616 130.879 13.1092C129.612 12.4848 128.283 11.9542 126.926 11.497C125.583 10.9925 124.421 10.0344 123.321 9C124.421 10.5213 125.659 11.9077 127.231 12.9893Z" fill="#EEBEF0"/>
<path d="M127.23 12.9895C125.659 11.9078 124.406 10.5214 123.321 9.0001C121.368 7.17427 119.553 5.10175 117.14 4.94926C107.709 4.61529 96.8381 11.4209 94.5039 22.0457C93.5133 25.9149 93.2373 31.454 91.4225 35.367C90.9468 37.3918 90.1086 39.2939 88.5986 40.986C90.3372 40.8949 92.1232 40.0131 93.5133 38.4446C96.1997 35.5045 97.4188 31.5014 97.5898 27.3302C97.2051 26.2021 96.7944 25.0907 96.3809 23.9803C96.8092 25.0907 97.2051 26.2021 97.5898 27.3302C97.6186 26.5208 97.6186 25.7152 97.5712 24.9095C97.4514 24.2702 97.3138 23.6133 97.1466 22.9601C97.3138 23.6133 97.4514 24.2526 97.5712 24.9095C97.4662 22.855 97.1289 20.7819 96.6095 18.8333C97.1289 20.7819 97.4662 22.8364 97.5712 24.9095C97.8184 26.2346 97.9847 27.5411 98.0907 28.8662C98.4717 30.0714 98.8089 31.2728 99.1138 32.492C100.199 31.9437 101.389 31.258 102.714 30.4811L102.823 30.4337L101.8 27.9695C101.604 27.4826 101.785 26.9352 102.214 26.7206L115.539 20.1724C115.967 19.9623 116.468 20.1724 116.668 20.663L117.538 22.7463C122.62 20.7531 128.344 19.3519 134.573 19.6102C132.388 17.1886 130.007 14.9678 127.23 12.9895Z" fill="#F25510"/>
<path d="M81.2412 49.8023C82.8422 50.6228 84.5372 51.2937 86.2934 51.7481C88.0468 52.2052 89.8653 52.4812 91.6801 52.5389C93.4986 52.6011 95.3133 52.4664 97.0993 52.1904C97.5426 52.129 97.9849 52.038 98.4281 51.9479L99.7569 51.6895C100.624 51.4898 101.495 51.2612 102.366 51.0187C105.815 50.0272 109.129 48.6733 112.395 47.272C115.659 45.8707 118.882 44.3793 122.102 42.9641C123.721 42.2486 125.339 41.548 126.954 40.8622L128.178 40.3614C128.588 40.209 128.987 40.0417 129.397 39.8893C129.811 39.7369 130.221 39.5845 130.635 39.4321C131.046 39.2798 131.459 39.145 131.869 39.0075C132.283 38.869 132.711 38.7464 133.122 38.6117C133.535 38.4881 133.96 38.3682 134.374 38.2594C135.212 38.0309 136.069 37.8348 136.907 37.6499C138.617 37.3014 140.341 37.0292 142.065 36.8907C143.793 36.7383 145.546 36.7058 147.27 36.8294C148.998 36.9344 150.722 37.1964 152.418 37.5914C154.094 37.9872 155.757 38.5206 157.314 39.25C157.713 39.4321 158.094 39.6319 158.461 39.828L158.737 39.9804L158.965 40.1179C158.98 40.1328 158.995 40.1653 159.009 40.1792C159.024 40.1941 159.041 40.2229 159.041 40.2564C159.041 40.2852 159.056 40.2991 159.071 40.3326C159.085 40.4376 159.085 40.5426 159.041 40.6662C159.024 40.695 159.009 40.7275 158.995 40.7572L158.98 40.8037L158.947 40.8474L158.889 40.9384C158.856 40.9709 158.828 40.9998 158.813 41.0323C158.58 41.2906 158.262 41.5341 157.927 41.7478L157.91 41.7626C157.651 41.9151 157.575 42.2486 157.742 42.506C157.895 42.7681 158.232 42.8443 158.475 42.6919C158.889 42.4484 159.3 42.1724 159.666 41.7766C159.713 41.7329 159.757 41.6716 159.804 41.6242L159.928 41.443L159.985 41.3519L160.033 41.2432C160.062 41.167 160.109 41.1084 160.123 41.0323C160.246 40.7424 160.276 40.3902 160.214 40.0566C160.2 39.9804 160.17 39.8893 160.156 39.8132C160.123 39.7369 160.094 39.6608 160.047 39.5845C160.004 39.5084 159.957 39.4321 159.909 39.3699C159.88 39.3411 159.848 39.2937 159.818 39.2649L159.772 39.2036C159.757 39.1887 159.728 39.1599 159.695 39.145L159.652 39.1125C159.637 39.0976 159.619 39.0976 159.619 39.0976L159.59 39.0688L159.513 39.0214L159.361 38.9313L159.071 38.7464C158.675 38.5206 158.276 38.3068 157.866 38.1071C156.232 37.3014 154.509 36.7058 152.751 36.2673C150.994 35.824 149.194 35.5517 147.393 35.4142C145.594 35.2757 143.775 35.2906 141.989 35.4282C138.388 35.6865 134.845 36.4624 131.427 37.5589C131.002 37.6973 130.574 37.8348 130.145 37.9872C129.717 38.1219 129.306 38.292 128.878 38.4444C128.45 38.5968 128.04 38.764 127.626 38.9313L126.392 39.4321C124.744 40.103 123.11 40.8185 121.491 41.5192C118.254 42.9493 115.034 44.4407 111.801 45.8568C108.562 47.2581 105.296 48.5822 101.953 49.6025C98.6093 50.6079 95.161 51.276 91.7126 51.1998C89.9852 51.171 88.2615 50.9564 86.5982 50.5466C85.76 50.3505 84.933 50.0894 84.1264 49.7837C83.3171 49.4975 82.5226 49.1453 81.7272 48.7783C81.4549 48.6444 81.1325 48.7643 80.9977 49.0403C80.8742 49.3451 80.9801 49.6647 81.2412 49.8023Z" fill="#222E6A"/>
<path d="M137.274 20.0963C137.746 20.6771 138.25 21.2253 138.755 21.7884L140.265 23.4322L141.761 25.0769L143.256 26.7059V26.7207C143.456 26.9493 143.808 26.9642 144.036 26.7496C144.236 26.5832 144.265 26.2961 144.141 26.0823C143.76 25.3817 143.318 24.7712 142.86 24.1477C142.631 23.842 142.389 23.5558 142.142 23.251C141.898 22.9602 141.641 22.6703 141.38 22.3831C141.121 22.1072 140.86 21.8172 140.588 21.5589C140.312 21.2867 140.051 21.0255 139.76 20.7681C139.213 20.2487 138.617 19.7479 138.008 19.2907C137.764 19.1095 137.427 19.1532 137.245 19.3994C137.107 19.6243 137.107 19.9002 137.274 20.0963Z" fill="#31133D"/>
<path d="M85.4989 44.1833C86.3083 43.7112 87.0851 43.1778 87.8033 42.5683C88.5226 41.9587 89.1934 41.2618 89.7566 40.4989C90.3225 39.7369 90.8093 38.8988 91.208 38.0309C91.5899 37.163 91.8798 36.2523 92.0945 35.338C92.5192 33.4935 92.6279 31.6239 92.6567 29.7952C92.6892 27.9544 92.6418 26.1433 92.6715 24.3462C92.7041 22.55 92.8277 20.7817 93.2086 19.0766C93.3899 18.2263 93.6509 17.403 93.9855 16.6113C94.3228 15.8206 94.7474 15.0725 95.2371 14.3905C95.4954 14.0523 95.7566 13.7187 96.0465 13.399L96.2611 13.1556L96.4897 12.913L96.9617 12.4261C97.2815 12.1037 97.6039 11.784 97.9236 11.4793C98.2432 11.1782 98.5656 10.8585 98.9001 10.5537C100.214 9.33367 101.572 8.16136 103.005 7.07974C103.724 6.5316 104.443 6.01616 105.19 5.52979C105.938 5.03982 106.686 4.56797 107.463 4.14323C109.019 3.29028 110.639 2.57516 112.319 2.14686C112.73 2.05607 113.158 1.95081 113.586 1.90368C113.797 1.8746 114.01 1.86012 114.21 1.82742C114.425 1.8129 114.638 1.7984 114.834 1.7984C115.249 1.7984 115.659 1.82742 116.058 1.88911C116.254 1.91819 116.468 1.9799 116.668 2.02711C116.868 2.08878 117.081 2.13238 117.277 2.20858C118.882 2.74213 120.301 3.76215 121.597 4.94904C122.896 6.15052 124.087 7.50802 125.339 8.83291C126.588 10.1728 127.887 11.4793 129.306 12.6844L129.84 13.123L130.388 13.5514L131.488 14.357C132.192 14.8765 132.864 15.4535 133.488 16.078C134.74 17.312 135.84 18.7895 137.227 20.0671C137.441 20.2669 137.793 20.2669 137.993 20.0383C138.189 19.8237 138.189 19.4901 137.975 19.2754C137.35 18.6658 136.77 17.9977 136.189 17.2971C135.612 16.6113 134.998 15.8968 134.359 15.2249C133.717 14.5568 133.017 13.9184 132.269 13.3516L131.183 12.532L130.664 12.1213L130.159 11.693C128.802 10.5351 127.568 9.25745 126.345 7.91818C125.125 6.59328 123.934 5.20679 122.573 3.91454C121.887 3.2757 121.154 2.66593 120.362 2.13238C119.568 1.59872 118.682 1.15958 117.767 0.840103C117.538 0.749405 117.292 0.70221 117.064 0.626007C116.82 0.564301 116.592 0.502602 116.348 0.45903C115.844 0.368233 115.339 0.321045 114.853 0.335617C114.606 0.335617 114.362 0.350121 114.12 0.368233C113.873 0.397308 113.629 0.41182 113.401 0.444527C112.915 0.502602 112.454 0.611435 111.982 0.716713C110.134 1.18856 108.396 1.95081 106.762 2.83292C105.938 3.2757 105.144 3.76215 104.367 4.2812C103.586 4.78206 102.838 5.3302 102.09 5.87826C100.61 6.98895 99.2226 8.20857 97.8761 9.45724C97.5425 9.77689 97.2053 10.0956 96.8856 10.4153C96.5659 10.7349 96.2286 11.0546 95.909 11.3882L95.4369 11.8779L95.1906 12.1213L94.9472 12.3796C94.6276 12.7281 94.3228 13.1091 94.0319 13.504C93.4661 14.2957 92.994 15.1339 92.6279 16.0166C92.2609 16.9022 91.9709 17.8128 91.7711 18.742C91.3604 20.6005 91.2703 22.4589 91.2517 24.2997C91.2378 26.1433 91.2991 27.9544 91.2991 29.7515C91.2842 31.5477 91.1941 33.3262 90.8271 35.0323C90.6421 35.8853 90.3987 36.7243 90.0614 37.5151C89.7278 38.3069 89.2994 39.0688 88.7948 39.7657C87.7745 41.167 86.4458 42.3099 84.933 43.2391C84.6746 43.3925 84.5985 43.7261 84.7509 43.9835C84.9181 44.2446 85.2415 44.3357 85.4989 44.1833Z" fill="#222E6A"/>
<path d="M114.469 25.1534L115.172 26.8734L115.524 27.7412L115.691 28.151L115.782 28.3657L115.796 28.427L115.815 28.4558C115.83 28.4707 115.83 28.5032 115.83 28.532C115.873 28.7141 115.815 28.9279 115.706 29.0514C115.677 29.0802 115.644 29.109 115.615 29.1276C115.6 29.1425 115.583 29.1425 115.568 29.1565L115.463 29.2038L115.034 29.3999L113.357 30.1907L109.996 31.7917L108.319 32.5973L108.105 32.7033L108.058 32.7358L108.044 32.7497C108.029 32.7497 108.014 32.7497 108.014 32.7646C107.968 32.7795 107.92 32.7795 107.862 32.7497C107.815 32.7358 107.753 32.6884 107.724 32.6447C107.709 32.6122 107.677 32.5834 107.662 32.5509L107.648 32.5212L107.633 32.4598L107.586 32.3548L106.868 30.6339L106.5 29.7809L106.319 29.3562L106.228 29.1425L106.211 29.0951L106.196 29.0663C106.182 29.0514 106.182 29.0366 106.182 29.0041C106.134 28.8517 106.182 28.6705 106.258 28.5618C106.272 28.532 106.305 28.5181 106.319 28.5032C106.334 28.4883 106.348 28.4883 106.367 28.4707L106.472 28.427L106.886 28.2133L108.548 27.3603L111.858 25.6718L113.524 24.8337L113.739 24.7287L113.782 24.6953L113.815 24.6813C113.829 24.6664 113.844 24.6664 113.873 24.6664C113.953 24.6525 114.029 24.6525 114.105 24.6813C114.181 24.7101 114.258 24.7575 114.316 24.8337C114.349 24.8625 114.378 24.9099 114.392 24.9536L114.41 24.9861L114.425 25.0474L114.469 25.1534ZM115.172 24.8625L115.126 24.7575L115.111 24.6953L115.082 24.6191C115.034 24.5289 114.973 24.4379 114.911 24.3468C114.777 24.1805 114.591 24.042 114.378 23.9658C114.164 23.8896 113.92 23.8757 113.692 23.9184C113.629 23.9333 113.586 23.9519 113.524 23.9807L113.448 24.0095L113.401 24.042L113.187 24.148L111.51 24.9536L108.153 26.5537L106.472 27.3454L106.043 27.5414L105.938 27.5889C105.891 27.6177 105.83 27.6502 105.786 27.679C105.677 27.7412 105.586 27.8314 105.51 27.9224C105.19 28.2895 105.082 28.7903 105.19 29.2327C105.205 29.2949 105.22 29.3386 105.234 29.3999L105.266 29.4761L105.281 29.5374L105.372 29.7521L105.539 30.1767L105.891 31.0437L106.595 32.7646L106.639 32.8696L106.654 32.9319L106.686 33.0081C106.73 33.1168 106.806 33.2218 106.886 33.3129C107.039 33.4941 107.249 33.6651 107.481 33.7412C107.724 33.8314 107.997 33.8462 108.243 33.7849C108.305 33.7701 108.363 33.7552 108.425 33.7227L108.515 33.6939L108.562 33.6651L108.777 33.5563L110.439 32.721L113.753 31.0298L115.415 30.1767L115.83 29.9621L115.935 29.9194C115.982 29.8859 116.044 29.8571 116.087 29.8283C116.178 29.766 116.272 29.6759 116.348 29.5997C116.639 29.2475 116.729 28.7903 116.621 28.3657C116.606 28.3183 116.592 28.2598 116.577 28.2133L116.544 28.1371L116.53 28.0748L116.439 27.8649L116.255 27.4364L115.891 26.5834L115.172 24.8625Z" fill="#31133D"/>
<path d="M117.753 23.219C119.353 22.6847 120.958 22.1838 122.591 21.7741C124.207 21.3457 125.858 20.9972 127.506 20.7538C128.33 20.6162 129.154 20.5252 129.993 20.4341C130.816 20.344 131.659 20.2966 132.497 20.2678C134.159 20.2055 135.84 20.2353 137.517 20.3579C137.821 20.3728 138.084 20.159 138.097 19.8533C138.112 19.582 137.916 19.3386 137.655 19.2763C135.945 18.9715 134.207 18.834 132.482 18.834C131.611 18.834 130.74 18.8665 129.873 18.9427C129.445 18.9715 129.001 19.0338 128.573 19.0626C128.145 19.11 127.72 19.1713 127.278 19.2298C126.421 19.3674 125.568 19.5346 124.726 19.7195C123.887 19.9156 123.049 20.1293 122.224 20.3876C120.558 20.8922 118.943 21.4832 117.386 22.1987C117.11 22.3223 116.987 22.641 117.11 22.9133C117.201 23.1893 117.492 23.3091 117.753 23.219Z" fill="#31133D"/>
<path d="M98.1671 33.5263C98.6419 33.4176 99.0852 33.2689 99.5098 33.084C99.9382 32.9019 100.352 32.703 100.762 32.4744C101.161 32.2635 101.557 32.02 101.938 31.7589C102.319 31.5015 102.686 31.2255 103.038 30.9245C103.267 30.7247 103.282 30.3762 103.082 30.1477C102.929 29.9804 102.686 29.9191 102.486 29.9953C102.044 30.1477 101.633 30.3289 101.237 30.5286C100.824 30.7247 100.428 30.9245 100.047 31.1531C99.6473 31.3631 99.2664 31.5916 98.8853 31.8202C98.5044 32.0488 98.1373 32.2783 97.7713 32.5357H97.7563C97.5139 32.7207 97.4516 33.0552 97.6189 33.3126C97.7239 33.4798 97.9525 33.5699 98.1671 33.5263Z" fill="#31133D"/>
<path d="M105.586 37.6502C105.662 37.6502 105.738 37.6354 105.815 37.6066C106.119 37.483 106.272 37.1206 106.152 36.8149L102.381 27.6936C102.305 27.4976 102.381 27.2838 102.505 27.2216L115.83 20.6771C115.873 20.6631 115.92 20.6445 115.967 20.6771C116.044 20.7059 116.101 20.7681 116.135 20.8592L119.996 30.2053C120.116 30.5101 120.482 30.6625 120.787 30.5426C121.096 30.4199 121.249 30.0566 121.125 29.7519L117.263 20.4011C117.096 20.0062 116.792 19.6865 116.392 19.5481C116.025 19.4143 115.63 19.4282 115.295 19.6103L101.985 26.1585C101.267 26.507 100.947 27.4065 101.267 28.1833L105.02 37.2869C105.114 37.5155 105.343 37.6502 105.586 37.6502Z" fill="#31133D"/>
<path d="M93.8034 59.3629C93.4513 59.3777 93.0378 59.3777 92.6568 59.3777C92.2609 59.3777 91.8799 59.3629 91.4804 59.3443C90.7035 59.3154 89.9277 59.2393 89.1471 59.1491C87.6046 58.9493 86.0797 58.6148 84.5985 58.114C83.1322 57.6243 81.7133 56.9711 80.4031 56.1654C79.0883 55.356 77.884 54.3831 76.8599 53.2393C75.836 52.114 74.9978 50.8224 74.4022 49.435C74.1123 48.7353 73.8688 48.0198 73.7164 47.2718C73.6226 46.9094 73.564 46.5284 73.5166 46.1614C73.4878 45.9802 73.4702 45.7804 73.4553 45.5992C73.4404 45.4171 73.4265 45.247 73.4404 45.0947C73.4553 44.775 73.5315 44.5167 73.6551 44.3504C73.7164 44.2741 73.7926 44.1979 73.8985 44.1506C74.0073 44.092 74.1271 44.0455 74.2647 44.0158C74.5555 43.9545 74.9067 43.9396 75.2552 43.9545C75.441 43.9694 75.6074 43.9833 75.8072 44.0158L76.4028 44.092C78.0029 44.2741 79.6226 44.3792 81.2264 44.4405C84.4461 44.5316 87.6984 44.3792 90.8857 43.9071C94.0942 43.435 97.2518 42.6443 100.29 41.4279C101.038 41.1231 101.785 40.7859 102.519 40.4374C102.886 40.2562 103.252 40.0704 103.6 39.8743L104.657 39.2935C106.058 38.5353 107.448 37.7733 108.853 37.029C111.662 35.5329 114.501 34.1177 117.386 32.8401C120.269 31.5624 123.23 30.4334 126.254 29.5366C129.277 28.6372 132.36 27.9691 135.474 27.6169C138.588 27.2685 141.746 27.2396 144.861 27.5881C147.974 27.9217 151.042 28.6223 154.018 29.6426C155.499 30.1472 156.966 30.753 158.37 31.41C159.757 32.0781 161.118 32.8875 162.385 33.7841C163.024 34.2265 163.651 34.6985 164.247 35.1994C164.843 35.7039 165.405 36.2196 165.909 36.7679C166.153 37.0429 166.381 37.33 166.551 37.6209C166.642 37.7584 166.705 37.8959 166.733 38.0158C166.747 38.0493 166.747 38.0632 166.747 38.092V38.1218C166.747 38.1394 166.747 38.1682 166.747 38.1831C166.747 38.2593 166.762 38.3503 166.762 38.4442C166.762 39.1272 166.595 39.8603 166.353 40.5424C165.848 41.9288 164.962 43.2065 163.91 44.3215C163.39 44.8837 162.809 45.3846 162.214 45.8705C161.619 46.3612 160.98 46.7998 160.323 47.2281C157.699 48.9017 154.751 50.1031 151.746 51.0324C151.455 51.1234 151.303 51.4282 151.394 51.7181C151.485 52.009 151.79 52.1614 152.066 52.0852C155.147 51.1559 158.186 49.9693 160.962 48.2335C161.652 47.7913 162.337 47.3341 162.98 46.8332C163.619 46.3287 164.247 45.7804 164.824 45.1885C165.971 43.9981 166.962 42.6155 167.572 41.0144C167.876 40.2227 168.076 39.3697 168.091 38.4591C168.091 38.3503 168.091 38.2304 168.076 38.1069C168.076 38.0781 168.076 38.0632 168.076 38.0158C168.076 37.9722 168.061 37.9396 168.061 37.8959C168.047 37.8197 168.029 37.7436 168.015 37.6822C167.939 37.4063 167.819 37.1962 167.71 36.9816C167.467 36.5858 167.206 36.2522 166.915 35.9325C166.353 35.2904 165.742 34.7422 165.115 34.2125C164.49 33.6782 163.833 33.1922 163.176 32.7202C161.848 31.7733 160.461 30.9379 158.98 30.2048C157.499 29.5079 156.019 28.8834 154.49 28.3501C151.438 27.2685 148.25 26.5204 145.027 26.172C141.808 25.8058 138.541 25.8384 135.321 26.1868C132.098 26.539 128.925 27.221 125.825 28.1363C122.726 29.0507 119.72 30.2048 116.773 31.501C113.829 32.7927 110.973 34.2413 108.152 35.7476C106.747 36.4956 105.342 37.2724 103.938 38.0307L102.9 38.6114C102.562 38.7927 102.214 38.9748 101.862 39.1448C101.161 39.4933 100.458 39.7981 99.7235 40.1028C96.8234 41.2755 93.7709 42.0523 90.6747 42.5059C87.5748 42.9779 84.4136 43.1488 81.2552 43.0727C79.6839 43.0253 78.1126 42.9342 76.5404 42.7678L75.9596 42.7056C75.7598 42.6768 75.5312 42.6582 75.3174 42.6443C74.8742 42.6155 74.417 42.6294 73.9311 42.7344C73.6839 42.7967 73.4265 42.8877 73.1793 43.0253C72.9359 43.1628 72.7073 43.3589 72.5261 43.6024C72.3551 43.8495 72.2352 44.1069 72.159 44.3643C72.0828 44.6226 72.0503 44.8688 72.0503 45.1123C72.0364 45.3409 72.0503 45.5843 72.0828 45.7944C72.0977 46.009 72.1265 46.2088 72.159 46.4188C72.2213 46.8332 72.2789 47.243 72.3885 47.6528C72.5697 48.477 72.8457 49.2687 73.1645 50.027C73.8214 51.5657 74.7692 52.967 75.8834 54.1834C77.0124 55.4025 78.3263 56.4377 79.7276 57.2907C81.1325 58.1438 82.6462 58.8146 84.2027 59.3154C85.7601 59.8163 87.3611 60.1545 88.9798 60.3507C89.7892 60.4407 90.5986 60.503 91.4042 60.5318C91.8186 60.5495 92.2135 60.5495 92.628 60.5495C93.0378 60.5495 93.4224 60.5318 93.8619 60.517C94.1704 60.503 94.399 60.2447 94.3805 59.9548C94.3665 59.6639 94.1231 59.4214 93.8183 59.4354L93.8034 59.3629Z" fill="#222E6A"/>
<path d="M95.1473 42.7061C95.2848 42.5398 95.3898 42.4013 95.5134 42.2489C95.6193 42.0965 95.7281 41.9441 95.833 41.7918C95.938 41.6394 96.0328 41.4721 96.1378 41.3197L96.4138 40.8338C96.7808 40.1796 97.0856 39.5086 97.3579 38.8229C97.4805 38.4744 97.6329 38.1399 97.7426 37.7877L97.9089 37.2544C97.9712 37.0732 98 36.9059 98.0612 36.7247C98.1087 36.5398 98.1524 36.3725 98.1998 36.1914L98.3196 35.6431C98.4135 35.276 98.4571 34.9099 98.5194 34.5615C98.5807 34.1944 98.6095 33.8311 98.6569 33.465C98.7043 33.098 98.7331 32.7355 98.748 32.3685C98.7805 31.6391 98.7805 30.8911 98.7331 30.1616C98.6421 28.699 98.4283 27.2401 98.0474 25.8389C97.9712 25.548 97.6664 25.3817 97.3755 25.4579C97.0995 25.5341 96.9332 25.7915 96.976 26.0488C97.1618 27.4362 97.2817 28.8226 97.3142 30.2053C97.3281 31.5917 97.238 32.9781 97.0233 34.3329C96.8236 35.6868 96.49 37.0295 96.0467 38.336C95.8181 38.9753 95.5571 39.6323 95.2672 40.2381L94.809 41.1524C94.7328 41.3048 94.6427 41.4572 94.5664 41.5957C94.4903 41.7332 94.3806 41.8828 94.3044 42.0055L94.2905 42.0352C94.1233 42.2963 94.1995 42.6299 94.4578 42.7823C94.6715 42.9644 94.9614 42.9208 95.1473 42.7061Z" fill="#222E6A"/>
<path d="M91.4228 72.0127C88.414 76.5649 83.7604 79.1816 82.584 81.8457C81.2264 84.9243 83.2084 87.9517 87.5135 88.4088C91.1942 88.8047 97.9385 86.5829 104.196 78.5135" fill="white"/>
<path d="M90.9655 71.7078C89.9564 73.1379 88.7661 74.4341 87.4698 75.6496C86.8277 76.2601 86.1559 76.8548 85.4989 77.4643C84.8271 78.0711 84.1562 78.6807 83.4993 79.3525C83.1796 79.6861 82.86 80.0532 82.5701 80.448C82.4167 80.6442 82.2792 80.8588 82.1556 81.0726L82.0655 81.2398L81.9744 81.4209C81.9131 81.5446 81.8657 81.6495 81.822 81.7732C81.4373 82.7172 81.3026 83.8137 81.546 84.8618C81.6696 85.3814 81.8796 85.8822 82.1705 86.3254C82.4604 86.764 82.8126 87.1599 83.2084 87.4972C84.0039 88.1653 84.933 88.5937 85.8799 88.8659C86.3557 89.0034 86.8417 89.0945 87.3137 89.1419C87.8034 89.1994 88.308 89.2181 88.78 89.1856C89.2697 89.1707 89.7417 89.1093 90.2138 89.0331C90.6896 88.9569 91.1467 88.851 91.6039 88.7284C93.4373 88.2275 95.1322 87.4033 96.7035 86.4156C98.2757 85.425 99.7096 84.2523 101.038 82.9747C101.695 82.3363 102.319 81.6645 102.914 80.9638C103.51 80.278 104.076 79.5486 104.624 78.8191C104.809 78.5757 104.748 78.2384 104.519 78.0562C104.291 77.8899 103.952 77.9187 103.771 78.1473C103.205 78.8331 102.625 79.5049 102.029 80.1582C101.419 80.7965 100.795 81.4209 100.152 82.0166C98.8565 83.2032 97.4664 84.2848 95.9704 85.1816C94.4752 86.0819 92.8854 86.8263 91.2378 87.2509C90.8271 87.3596 90.4136 87.4507 89.9853 87.5269C89.5755 87.6031 89.1471 87.6496 88.7364 87.6644C88.3228 87.6793 87.9094 87.6644 87.5135 87.6171C87.1028 87.5734 86.6893 87.4972 86.3083 87.3745C85.5277 87.1599 84.7798 86.8114 84.2027 86.3254C83.9128 86.0819 83.6517 85.7911 83.4556 85.4863C83.2558 85.1816 83.1173 84.8331 83.0272 84.4809C82.86 83.7803 82.9185 83.0034 83.2084 82.274C83.4695 81.5733 83.989 80.9201 84.5697 80.278C85.1467 79.6387 85.8037 79.0329 86.4458 78.4233C87.1028 77.8128 87.757 77.1893 88.399 76.5351C89.6805 75.2398 90.9033 73.8385 91.8948 72.2709C92.0472 72.0126 91.971 71.679 91.7275 71.5266C91.4516 71.403 91.1319 71.4792 90.9655 71.7078Z" fill="#222E6A"/>
<path d="M102.167 67.3373C102.167 67.6244 102.283 67.9004 102.519 68.1652C102.751 68.43 103.086 68.666 103.518 68.8659C103.949 69.0684 104.447 69.2245 105.013 69.3369C105.579 69.4466 106.167 69.5005 106.776 69.5005C107.387 69.5005 107.974 69.4466 108.541 69.3369C109.107 69.2245 109.604 69.0684 110.036 68.8659C110.468 68.666 110.802 68.43 111.034 68.1652C111.27 67.9004 111.386 67.6244 111.386 67.3373C111.386 67.0502 111.27 66.7751 111.034 66.5093C110.802 66.2445 110.468 66.0122 110.036 65.8096C109.604 65.6061 109.107 65.45 108.541 65.3413C107.974 65.2316 107.387 65.1777 106.776 65.1777C106.167 65.1777 105.579 65.2316 105.013 65.3413C104.447 65.45 103.949 65.6061 103.518 65.8096C103.086 66.0122 102.751 66.2445 102.519 66.5093C102.283 66.7751 102.167 67.0502 102.167 67.3373Z" fill="#FF8856"/>
<path d="M140.816 65.0259C140.816 65.3057 140.915 65.5742 141.111 65.8353C141.31 66.0927 141.59 66.3213 141.957 66.5211C142.319 66.7208 142.74 66.8733 143.219 66.9782C143.695 67.0879 144.192 67.1418 144.708 67.1418C145.223 67.1418 145.72 67.0879 146.196 66.9782C146.675 66.8733 147.096 66.7208 147.459 66.5211C147.826 66.3213 148.105 66.0927 148.305 65.8353C148.501 65.5742 148.599 65.3057 148.599 65.0259C148.599 64.7426 148.501 64.474 148.305 64.2166C148.105 63.9546 147.826 63.726 147.459 63.5299C147.096 63.3311 146.675 63.1777 146.196 63.069C145.72 62.964 145.223 62.9092 144.708 62.9092C144.192 62.9092 143.695 62.964 143.219 63.069C142.74 63.1777 142.319 63.3311 141.957 63.5299C141.59 63.726 141.31 63.9546 141.111 64.2166C140.915 64.474 140.816 64.7426 140.816 65.0259Z" fill="#FF8856"/>
<path d="M30.8213 162.94C30.6727 162.891 30.5074 162.841 30.3533 162.841C29.9348 162.841 29.5659 163.094 29.3622 163.513C28.5362 166.437 26.13 169.823 23.3659 169.823C22.4299 169.823 21.5488 169.454 20.9266 168.782C22.7987 165.968 24.9352 160.126 24.9352 156.531C24.9352 153.299 23.8394 150.59 20.5577 150.59C18.625 150.59 16.9567 151.63 15.5085 153.145L15.916 152.049C16.1803 151.377 15.6571 150.59 14.8698 150.59C14.4127 150.59 13.9943 150.854 13.8402 151.328L13.5208 152.153C12.8985 153.767 9.87018 162.164 6.90782 170.296L1.06568 186.606C0.812464 187.278 1.31896 188.054 2.11186 188.054C2.5799 188.054 2.99843 187.801 3.15256 187.327C3.67567 185.763 5.81204 179.822 8.15225 173.308C8.72482 174.723 9.91968 175.395 11.9074 175.494C14.9358 175.599 17.5788 173.523 19.7153 170.649C20.5082 171.436 21.8021 172.009 23.3163 172.009C26.9174 172.009 30.3037 168.21 31.3939 164.355C31.449 164.184 31.4986 164.085 31.4986 163.931C31.4986 163.513 31.2453 163.094 30.8213 162.94ZM19.3079 162.841C18.8397 162.841 18.3662 163.155 18.2672 163.667C17.8486 165.126 17.6945 167.163 18.3662 168.727C16.5987 171.436 14.3467 173.358 11.957 173.308C10.4923 173.259 9.97473 172.433 9.97473 170.599C9.97473 168.881 10.3437 168.21 11.1311 166.018C13.2014 160.754 16.384 152.776 20.6568 152.776C22.2261 152.776 22.6942 154.24 22.6942 156.426C22.6942 159.036 21.6535 162.417 20.1392 165.6C20.1888 165.181 20.2384 164.708 20.4035 164.251C20.5577 163.513 20.0347 162.841 19.3079 162.841ZM52.34 162.94C52.1856 162.891 52.0207 162.841 51.8663 162.841C51.4477 162.841 51.0893 163.094 50.8747 163.513L50.825 163.667C49.1071 167.532 46.6022 173.154 43.37 173.154C42.2742 173.154 41.8172 172.532 41.8172 170.968C41.8172 168.678 43.5351 164.135 45.4073 158.882L48.0117 151.9C48.2814 151.272 47.8631 150.435 47.0206 150.435C46.5526 150.435 46.1451 150.7 45.9799 151.107C45.7211 151.796 45.4073 152.572 45.0989 153.464C44.1574 151.581 42.544 150.7 40.3526 150.7C34.0975 150.7 28.8391 162.891 28.8391 169.724C28.8391 172.84 30.1881 175.346 33.1175 175.346C35.3529 175.346 37.5444 173.881 39.6312 170.968C39.6312 173.523 40.8757 175.346 43.37 175.346C48.0668 175.346 50.8747 168.931 52.8622 164.553L52.9119 164.405C52.9616 164.251 53.0113 164.085 53.0113 163.931C53.0113 163.513 52.7576 163.155 52.34 162.94ZM33.0514 173.154C31.4986 173.154 31.0306 171.64 31.0306 169.355C31.1296 164.184 35.5566 152.99 40.3526 152.891C42.2246 152.891 43.5847 154.29 43.6894 156.696L42.4395 160.027C40.3526 165.346 37.2745 173.154 33.0514 173.154ZM72.0355 162.94C71.8706 162.891 71.7215 162.841 71.5671 162.841C71.1485 162.841 70.7795 163.094 70.5766 163.513C67.5974 170.241 65.6257 173.154 63.0652 173.154C61.9202 173.154 61.5016 172.268 61.5016 170.968C61.5513 170.076 61.6676 169.201 61.9752 168.105C62.2892 166.794 64.7831 159.356 65.4724 157.621C65.6754 156.999 65.4111 156.327 64.8391 156.123C64.2662 155.903 63.5885 155.699 62.8622 155.485C61.3473 154.962 59.5807 154.389 58.1207 153.668C58.7434 151.63 58.958 151.162 58.958 150.331C58.958 148.244 57.8014 146.901 55.9291 146.901C54.2673 146.901 52.7523 148.145 52.7523 150.281C52.7523 152.203 53.8433 153.563 55.4069 154.659L54.7842 156.223L50.6104 165.28C50.5607 165.445 50.511 165.6 50.511 165.754C50.511 166.172 50.7648 166.541 51.1337 166.745C51.2881 166.794 51.453 166.844 51.657 166.844C52.026 166.844 52.3833 166.64 52.5979 166.222C56.7717 157.103 57.1248 156.377 57.3447 155.755C58.4897 156.327 59.0627 156.531 63.0166 157.841C62.5482 158.987 60.2573 165.919 59.8387 167.582C59.4813 168.881 59.3164 169.927 59.3164 170.968C59.3164 173.523 60.5766 175.346 63.0166 175.346H63.0652C66.6174 175.346 69.2107 172.163 72.6085 164.405C72.6571 164.251 72.7121 164.085 72.7121 163.931C72.7121 163.513 72.4425 163.155 72.0355 162.94ZM56.7717 150.281C56.7717 150.804 56.4525 151.746 56.1829 152.473C55.4069 151.845 54.9386 150.903 54.9386 150.067C54.9386 149.494 55.2578 149.086 55.9291 149.086C56.3478 149.086 56.7717 149.389 56.7717 150.281ZM83.4384 162.94C83.284 162.891 83.1307 162.841 82.9764 162.841C82.5577 162.841 82.1391 163.094 81.9351 163.463C79.4802 168.832 76.9747 173.154 73.2354 173.154C72.1898 173.154 71.5566 172.378 71.5566 170.968C71.5566 169.454 72.2395 167.064 74.3751 161.018C76.093 156.173 76.9747 153.767 77.294 152.776H81.5661C82.1888 152.776 82.6624 152.319 82.6624 151.68C82.6624 151.107 82.1888 150.59 81.5661 150.59H78.07C78.4389 149.61 80.6749 143.244 80.5205 143.553C80.7795 142.875 80.2668 142.105 79.4802 142.105C79.0066 142.105 78.588 142.358 78.4389 142.826C78.384 143.03 75.8287 150.386 75.724 150.59H71.7215C71.0935 150.59 70.6263 151.107 70.6263 151.68C70.6263 152.319 71.0935 152.776 71.7215 152.776H75.0031L72.3442 160.231C70.6749 164.504 69.365 169.036 69.365 170.968C69.365 173.473 70.7246 175.346 73.2354 175.346C78.015 175.346 80.9445 170.919 83.9564 164.405C84.0061 164.251 84.0717 164.085 84.0717 163.931C84.0717 163.513 83.8073 163.155 83.4384 162.94ZM105.382 162.99C105.227 162.94 105.061 162.891 104.908 162.891C104.489 162.891 104.131 163.155 103.916 163.562C101.306 169.724 97.6671 174.503 91.676 176.54L92.452 174.25L96.6258 162.367C98.2941 157.841 99.6927 154.24 100.53 152.104C100.789 151.328 100.062 150.59 99.4401 150.59C99.0161 150.59 98.5975 150.903 98.4431 151.328C94.9576 160.55 95.2663 159.609 94.5886 161.641C92.5018 167.637 89.1705 173.154 86.4123 173.154C83.4331 173.154 82.9764 171.288 82.9764 169.773C82.9764 167.89 83.8517 166.271 86.1427 159.978L89.0161 152.049C89.2752 151.377 88.8512 150.59 87.9758 150.59C87.5572 150.59 87.1333 150.854 86.9842 151.272L84.0717 159.185C82.0344 164.504 80.8398 167.367 80.7246 169.773C80.7246 172.378 81.9848 175.346 86.4123 175.346C87.8712 175.346 89.1705 174.723 90.3651 173.578L89.0711 177.328C87.6566 177.686 86.2579 177.95 84.947 178.154C78.7032 179.299 76.1427 181.705 76.1427 184.987C76.1427 188.054 78.1799 190.091 81.3081 190.036C85.0464 189.987 88.2782 186.286 90.7838 179.15C98.3934 176.909 102.722 172.064 105.953 164.454C106.003 164.3 106.053 164.135 106.053 163.986C106.053 163.562 105.799 163.21 105.382 162.99ZM81.3081 187.85C79.5289 187.9 78.3343 186.754 78.3343 184.937C78.533 182.531 80.5702 181.182 85.3657 180.345C86.3076 180.191 87.2379 179.987 88.2296 179.773C86.5116 185.037 84.1213 187.801 81.3081 187.85ZM150.13 163.931C150.13 163.309 149.557 162.841 148.984 162.841C148.566 162.841 148.208 163.094 147.994 163.513C146.326 167.367 144.663 169.823 141.953 169.823C141.012 169.823 140.015 169.404 139.497 168.727C141.326 165.55 145.703 156.845 147.994 152.153C148.043 151.999 148.098 151.845 148.098 151.63C148.098 151.058 147.625 150.535 147.052 150.535C146.645 150.535 146.226 150.804 146.012 151.162C144.409 154.554 140.334 162.522 138.771 165.495C138.821 165.126 138.876 164.658 139.04 164.251C139.244 163.513 138.671 162.841 137.945 162.841C137.422 162.841 137.053 163.155 136.899 163.667C136.48 165.126 136.381 167.064 136.954 168.628C134.597 171.959 133.672 173.154 132.004 173.154C131.012 173.154 130.44 172.637 130.44 170.968C130.44 168.358 133.248 160.754 136.53 152.049C136.789 151.377 136.276 150.59 135.44 150.59C135.016 150.59 134.597 150.854 134.443 151.272C133.876 152.891 130.957 161.123 130.016 163.463C127.207 170.495 125.016 173.154 122.511 173.154C121.42 173.154 120.947 172.532 120.947 170.968C120.947 168.931 121.938 166.123 127.054 152.049C127.307 151.377 126.888 150.59 126.013 150.59C125.589 150.59 125.17 150.854 125.016 151.272C120.54 163.155 118.761 168.358 118.761 170.968C118.761 173.523 120.016 175.346 122.511 175.346C124.868 175.346 126.734 173.782 128.249 171.64C128.556 173.881 129.598 175.346 132.004 175.346C134.443 175.346 136.326 173.358 138.303 170.599C139.14 171.436 140.384 172.009 141.953 172.009C145.653 172.009 148.566 168.358 150.031 164.355C150.081 164.184 150.13 164.085 150.13 163.931ZM156.127 148.04C157.107 148.04 157.893 147.253 157.893 146.262C157.893 145.282 157.107 144.494 156.127 144.494C155.135 144.494 154.293 145.282 154.293 146.262C154.293 147.253 155.135 148.04 156.127 148.04ZM159.563 162.94C159.408 162.891 159.304 162.841 159.138 162.841C158.72 162.841 158.312 163.094 158.097 163.513C156.175 167.786 153.769 173.154 150.537 173.154C149.447 173.154 148.974 172.482 148.974 170.968C148.974 168.727 149.916 166.326 154.981 152.104C155.284 151.223 154.612 150.7 153.935 150.7C153.517 150.7 153.098 150.959 152.944 151.427C150.653 157.368 146.952 166.899 146.788 170.968C146.683 173.358 148.049 175.346 150.537 175.346C154.915 175.346 157.624 170.027 160.135 164.405C160.184 164.251 160.234 164.085 160.234 163.931C160.234 163.513 159.98 163.094 159.563 162.94ZM180.926 162.891C180.761 162.841 180.607 162.786 180.453 162.786C180.034 162.786 179.665 163.045 179.461 163.463C177.122 168.986 174.142 172.163 171.131 174.096C171.654 171.541 171.703 168.986 170.559 167.114C173.421 164.658 174.616 160.754 174.616 157.417C174.616 153.414 172.634 150.7 168.889 150.7C163.879 150.7 160.812 158.194 157.833 165.28C157.783 165.445 157.734 165.6 157.734 165.754C157.734 166.376 158.307 166.844 158.88 166.844C159.298 166.844 159.606 166.591 159.821 166.172L160.025 165.699C162.481 160.182 165.288 152.891 168.889 152.891C171.334 152.891 172.43 154.708 172.43 157.417C172.43 160.33 171.539 163.617 169.093 165.396C166.285 163.155 162.211 163.359 162.211 166.64C162.211 169.454 165.492 169.724 168.675 168.259C169.666 170.027 169.248 172.637 168.472 175.445C165.916 176.54 163.471 176.909 161.286 177.278C155.598 178.258 153.203 180.345 153.203 183.891C153.203 187.173 155.394 188.891 158.676 188.891C163.625 188.891 167.43 184.723 170.19 177.113C174.247 175.241 178.371 171.64 181.499 164.3C181.548 164.135 181.598 164.036 181.598 163.882C181.598 163.463 181.333 163.045 180.926 162.891ZM167.21 166.64C166.065 167.114 164.452 167.268 164.452 166.64C164.452 165.699 165.657 165.649 167.21 166.64ZM167.375 178.209C164.82 183.726 162.007 186.754 158.626 186.754C156.693 186.754 155.394 185.295 155.394 183.842C155.394 181.54 157.212 180.142 161.638 179.464C163.406 179.15 165.343 178.831 167.375 178.209ZM202.39 162.94C202.235 162.891 202.07 162.841 201.916 162.841C201.497 162.841 201.14 163.094 200.925 163.513L200.876 163.667C199.158 167.532 196.652 173.154 193.42 173.154C192.324 173.154 191.867 172.532 191.867 170.968C191.867 168.678 193.585 164.135 195.451 158.882L198.061 151.9C198.331 151.272 197.907 150.435 197.071 150.435C196.597 150.435 196.195 150.7 196.024 151.107C195.772 151.796 195.451 152.572 195.149 153.464C194.207 151.581 192.594 150.7 190.402 150.7C184.142 150.7 178.889 162.891 178.889 169.724C178.889 172.84 180.238 175.346 183.168 175.346C185.403 175.346 187.594 173.881 189.681 170.968C189.681 173.523 190.925 175.346 193.42 175.346C198.111 175.346 200.925 168.931 202.908 164.553L202.963 164.405C203.011 164.251 203.061 164.085 203.061 163.931C203.061 163.513 202.808 163.155 202.39 162.94ZM183.101 173.154C181.548 173.154 181.081 171.64 181.081 169.355C181.179 164.184 185.607 152.99 190.402 152.891C192.274 152.891 193.635 154.29 193.74 156.696L192.489 160.027C190.402 165.346 187.325 173.154 183.101 173.154ZM222.085 162.94C221.92 162.891 221.766 162.841 221.617 162.841C221.193 162.841 220.824 163.094 220.621 163.513C217.647 170.241 215.676 173.154 213.116 173.154C211.97 173.154 211.552 172.268 211.552 170.968C211.601 170.076 211.717 169.201 212.026 168.105C212.339 166.794 214.834 159.356 215.522 157.621C215.726 156.999 215.455 156.327 214.884 156.123C214.311 155.903 213.639 155.699 212.912 155.485C211.398 154.962 209.63 154.389 208.165 153.668C208.793 151.63 209.008 151.162 209.008 150.331C209.008 148.244 207.852 146.901 205.98 146.901C204.312 146.901 202.797 148.145 202.797 150.281C202.797 152.203 203.893 153.563 205.456 154.659L204.834 156.223L200.661 165.28C200.611 165.445 200.562 165.6 200.562 165.754C200.562 166.172 200.814 166.541 201.183 166.745C201.338 166.794 201.503 166.844 201.707 166.844C202.076 166.844 202.428 166.64 202.649 166.222C206.822 157.103 207.174 156.377 207.394 155.755C208.534 156.327 209.107 156.531 213.066 157.841C212.598 158.987 210.308 165.919 209.883 167.582C209.531 168.881 209.366 169.927 209.366 170.968C209.366 173.523 210.621 175.346 213.066 175.346H213.116C216.667 175.346 219.26 172.163 222.658 164.405C222.708 164.251 222.763 164.085 222.763 163.931C222.763 163.513 222.493 163.155 222.085 162.94ZM206.822 150.281C206.822 150.804 206.503 151.746 206.232 152.473C205.456 151.845 204.988 150.903 204.988 150.067C204.988 149.494 205.307 149.086 205.98 149.086C206.398 149.086 206.822 149.389 206.822 150.281ZM245.014 162.94C244.848 162.891 244.694 162.841 244.59 162.841C244.171 162.841 243.752 163.094 243.548 163.463C241.092 168.832 238.598 173.154 234.849 173.154C233.649 173.154 233.18 172.213 233.18 170.968C233.18 169.608 234.122 166.541 234.898 164.135C235.367 162.687 241.566 144.962 242.084 143.448C242.304 142.875 241.935 142 241.043 142C240.636 142 240.217 142.253 240.052 142.672L237.288 150.639L236.308 153.348C235.471 151.746 233.956 150.7 231.617 150.7C225.306 150.7 220.103 162.891 220.103 169.724C220.103 172.84 221.452 175.346 224.376 175.346C227.024 175.346 229.161 173.358 230.994 170.764C230.994 173.677 232.393 175.346 234.849 175.346C239.645 175.346 242.558 170.919 245.585 164.405C245.635 164.251 245.685 164.085 245.685 163.931C245.685 163.513 245.421 163.155 245.014 162.94ZM224.316 173.154C222.763 173.154 222.289 171.64 222.289 169.355C222.394 164.184 226.82 153.045 231.617 152.891C233.649 152.891 234.849 154.29 234.948 156.696C234.948 156.795 234.948 156.9 234.898 157.048C234.529 157.891 234.171 158.932 233.704 160.027C231.617 165.346 228.538 173.154 224.316 173.154Z" fill="#F25510" stroke="#F25510" stroke-width="0.8088"/>
</svg>
