<svg width="135" height="137" viewBox="0 0 135 137" fill="none" xmlns="http://www.w3.org/2000/svg">
<path d="M86.7764 93.4335L128.118 66.7729C128.73 66.3751 131.265 70.3054 130.648 70.698L89.3112 97.3628C88.6948 97.7604 86.1641 93.8271 86.7764 93.4335Z" fill="#39223F"/>
<path d="M128.65 67.5317L87.2808 94.2127L88.1749 95.6031L129.548 68.9181L128.65 67.5317Z" fill="#5F4F61"/>
<path d="M134.383 66.7176L133.966 66.0707L133.287 65.0138C133.211 64.8938 133.108 64.8063 133.005 64.7229C132.572 64.37 131.952 64.2977 131.455 64.6202L128.149 66.7532L128.65 67.5323L129.548 68.9187L130.685 70.6794L133.991 68.5454C134.606 68.1517 134.781 67.3299 134.383 66.7176ZM88.1749 95.6037L87.2808 94.2133L86.7763 93.4341L83.3037 95.6749C82.8064 95.9933 82.6121 96.5852 82.7585 97.1254C82.7952 97.2566 82.8307 97.3878 82.906 97.5027L83.5895 98.5596L84.0066 99.2075C84.4043 99.8229 85.2221 99.9978 85.8344 99.6001L89.311 97.3634L88.1749 95.6037Z" fill="#DAC9DB"/>
<path d="M129.547 68.9184L133.966 66.0704L133.286 65.0136C133.211 64.8936 133.107 64.8061 133.005 64.7227L128.65 67.532L129.547 68.9184ZM87.2806 94.213L82.7583 97.1292C82.7949 97.2563 82.8305 97.3875 82.9058 97.5065L83.5893 98.5593L88.1747 95.6034L87.2806 94.213Z" fill="white"/>
<path d="M123.616 81.1524L125.774 80.8463L127.164 78.1681C127.347 77.8141 127.744 77.628 128.134 77.7114C128.523 77.7948 128.809 78.1284 128.829 78.5261L128.992 81.542L130.827 82.7097C131.137 82.908 131.292 83.2783 131.217 83.6394C131.137 84.0005 130.844 84.2751 130.478 84.3269L128.332 84.6331L126.878 87.589C126.7 87.9501 126.294 88.1494 125.901 88.062C125.503 87.9786 125.218 87.6327 125.205 87.2269L125.095 83.9333L123.271 82.7727C122.957 82.5744 122.802 82.2011 122.881 81.839C122.957 81.482 123.25 81.2073 123.616 81.1524ZM104.393 63.9635L108.041 63.4438L110.019 60.3364C110.346 59.8197 110.961 59.5654 111.557 59.6925C112.157 59.8237 112.61 60.3089 112.698 60.9162L113.218 64.5596L116.325 66.539C116.841 66.8685 117.096 67.4839 116.969 68.08C116.837 68.6801 116.353 69.1327 115.745 69.2202L112.101 69.741L110.123 72.8484C109.794 73.3641 109.177 73.6184 108.581 73.4912C107.981 73.361 107.528 72.8758 107.441 72.2676L106.92 68.6201L103.814 66.6417C103.297 66.3162 103.043 65.6998 103.17 65.1038C103.301 64.5047 103.789 64.051 104.393 63.9635ZM115.813 87.4018L117.748 87.1282L118.792 85.4835C118.967 85.2088 119.293 85.0736 119.611 85.1417C119.925 85.2088 120.167 85.4672 120.211 85.7886L120.489 87.7202L122.134 88.7689C122.408 88.9438 122.544 89.2693 122.475 89.5836C122.408 89.901 122.15 90.14 121.828 90.1878L119.897 90.4614L118.848 92.1062C118.673 92.3808 118.348 92.5161 118.034 92.4479C117.716 92.3808 117.477 92.1224 117.429 91.8L117.152 89.8694L115.507 88.8207C115.232 88.6499 115.097 88.3233 115.169 88.006C115.236 87.6876 115.495 87.4496 115.813 87.4018Z" fill="#FF8856"/>
<path d="M89.0689 77.7549C90.141 82.0575 91.4917 86.2217 94.5991 89.6068C96.5378 91.8404 100.631 91.2718 102.553 88.971C102.888 91.756 100.714 94.188 96.7209 94.6213C92.696 95.0546 85.3095 92.6226 78.46 83.7896L89.0689 77.7549Z" fill="#DAC9DB"/>
<path d="M94.5991 89.6068C91.508 86.2217 90.1409 82.0574 89.0688 77.7549L91.2577 76.5068C94.5513 81.4899 100.817 84.521 102.101 87.4372C102.336 87.9539 102.47 88.4706 102.538 88.971C100.631 91.2718 96.5378 91.8404 94.5991 89.6068Z" fill="white"/>
<path d="M90.7725 76.8407C91.3249 77.7236 91.9606 78.5576 92.6644 79.3042C93.348 80.0711 94.0824 80.7903 94.8341 81.4901C96.3395 82.8561 97.9608 84.0879 99.4112 85.4071C99.7642 85.7377 100.114 86.0713 100.431 86.4202C100.75 86.7701 101.032 87.1241 101.235 87.474C101.282 87.5574 101.318 87.6561 101.365 87.7395C101.417 87.8392 101.449 87.9389 101.485 88.0375C101.552 88.2399 101.619 88.4392 101.667 88.6539C101.751 89.0709 101.786 89.4879 101.735 89.8897C101.652 90.7034 101.282 91.4704 100.698 92.0705C100.114 92.6706 99.3278 93.1233 98.4775 93.406C97.6231 93.6878 96.6893 93.8383 95.7871 93.8383C94.8696 93.8546 93.9318 93.6878 92.9981 93.4731L92.3105 93.286L91.627 93.0714L91.2934 92.9564L90.9597 92.8212L90.2884 92.5557C90.0738 92.4723 89.8551 92.3563 89.6364 92.2536C89.4218 92.1539 89.2031 92.0542 88.9854 91.9393L88.3527 91.5894L88.0354 91.4226L87.8686 91.3392L87.717 91.2405C86.0448 90.2386 84.4753 89.0547 83.0209 87.7242C81.5673 86.4049 80.2318 84.9382 78.9604 83.4206V83.4054C78.7457 83.1541 78.3765 83.1226 78.1263 83.322C77.8761 83.5244 77.8435 83.8895 78.0266 84.1398C79.2462 85.7733 80.5817 87.3224 82.0515 88.7566L83.1877 89.8063L84.3757 90.7869C84.7774 91.1052 85.2108 91.4073 85.6115 91.7053C85.8098 91.8559 86.0448 91.9871 86.2473 92.1376L86.8992 92.5557C88.6508 93.6563 90.5742 94.5219 92.6289 95.0548C93.6654 95.3051 94.7181 95.4871 95.8034 95.4871C96.908 95.4871 97.976 95.3203 99.0451 94.9714C100.098 94.6215 101.115 94.0529 101.917 93.2026C102.736 92.3726 103.305 91.2405 103.404 90.0403C103.472 89.4401 103.404 88.8563 103.289 88.2877C103.221 88.0059 103.138 87.7395 103.038 87.4537C102.987 87.3224 102.939 87.1871 102.872 87.0559C102.803 86.9217 102.736 86.7701 102.653 86.6552C102.355 86.1385 102.001 85.7214 101.636 85.3237C101.267 84.9382 100.881 84.573 100.483 84.2394C99.6971 83.5559 98.9098 82.9405 98.1276 82.3048C97.3403 81.6884 96.5734 81.0567 95.8186 80.4048C94.3173 79.1221 92.9147 77.7388 91.8101 76.1582C91.627 75.8917 91.2415 75.8235 90.976 76.0066C90.6739 76.2049 90.6058 76.5752 90.7725 76.8407Z" fill="#775E82"/>
<path d="M98.5611 43.5259C99.9312 44.2451 98.3943 46.0251 97.4921 46.3109C95.6876 46.911 93.9473 47.6576 92.2436 48.4083C92.8112 49.2942 93.5303 50.0256 94.6512 50.292C98.8113 50.7762 102.553 48.5751 105.26 45.2419C106.313 43.8433 106.964 42.1274 107.199 40.3433C107.6 40.8752 107.85 41.3441 107.882 41.7093C108.116 44.5106 105.53 51.7578 91.4604 56.1407H91.3607C89.0212 56.6411 89.5532 53.8917 89.0212 51.3763C88.3855 48.3605 87.05 43.7436 85.3452 40.6443L87.1141 39.7584C86.8994 39.7432 86.6645 39.7116 86.4305 39.6953C90.5226 39.6119 94.6349 41.3085 98.5611 43.5259Z" fill="#752B0B"/>
<path d="M28.353 56.7917C28.234 58.2585 27.6186 60.3243 27.7854 61.7229C27.8525 62.323 27.0337 64.2261 27.1334 64.7906C26.2159 64.6909 24.9953 63.0421 24.0738 62.7604C23.3903 62.5417 22.6559 62.323 21.9042 62.0768C17.9953 60.7932 13.5483 58.8423 12.699 54.376C17.2762 55.326 23.6568 56.4072 28.353 56.7917Z" fill="#752B0B"/>
<path d="M4.9624 53.3911C7.48598 60.9079 16.1033 66.1411 27.3317 65.656C27.1648 64.9572 26.998 64.1587 26.8475 63.2921C25.929 63.1924 24.9953 63.0256 24.0737 62.7398C23.3902 62.5251 22.6558 62.3065 21.9041 62.0563C15.2692 62.1081 8.66995 59.2072 4.9624 53.3911Z" fill="#752B0B"/>
<path d="M38.6597 86.457C36.2877 90.1717 33.4824 93.3543 30.1054 96.1037C22.9213 102.27 13.8981 103.438 5.71303 107.436C5.34381 107.622 4.9939 107.82 4.64502 108.02C4.97864 107.753 5.32753 107.471 5.69777 107.169C9.88947 103.736 13.5482 99.9221 16.624 95.5707C17.5934 96.239 18.8608 96.7191 20.414 96.8859C24.3595 97.304 31.8936 94.9553 38.6597 86.457Z" fill="#DAC9DB"/>
<path d="M30.4075 62.0248C29.5216 62.1398 28.6356 62.2079 27.7334 62.2588C28.7546 51.6265 31.3768 26.6116 58.4942 25.1764C69.0197 24.6282 79.0437 29.5115 84.7255 38.8449C86.0804 41.0623 87.1138 43.4262 87.9316 45.9416C79.6276 43.0091 70.0724 43.7913 62.0186 47.2761C52.8286 51.2776 44.8104 57.2768 35.4536 60.7737C33.8007 61.4095 32.1112 61.7909 30.4075 62.0248Z" fill="#DAC9DB"/>
<path d="M27.5819 63.8405C27.6338 63.3604 27.6857 62.8233 27.7334 62.2588C28.6357 62.2233 29.5216 62.1398 30.4075 62.0249C29.4057 67.8257 27.7334 73.7222 24.7095 78.7561C26.0643 74.2389 27.0143 69.2924 27.5819 63.8405Z" fill="#DAC9DB"/>
<path d="M4.64516 108.02C4.99405 107.805 5.34395 107.622 5.71318 107.436C13.8982 103.438 22.9214 102.27 30.1055 96.1036C33.4825 93.3542 36.2878 90.1716 38.6598 86.4569C38.8785 86.1223 39.0809 85.7887 39.2955 85.4398C39.0972 85.7887 38.8785 86.1223 38.6598 86.4569C31.8937 94.9552 24.3596 97.3038 20.3988 96.8705C18.8456 96.7037 17.5742 96.2389 16.6079 95.5554C19.9971 90.7391 22.6874 85.2882 24.6098 78.991C24.6261 78.9076 24.6577 78.8242 24.678 78.7408C27.702 73.7059 29.3701 67.8257 30.3751 62.0086C32.0798 61.7909 33.7642 61.3932 35.4212 60.7575C44.7749 57.2575 52.7962 51.2573 61.9872 47.2599C70.041 43.7761 79.5962 42.9929 87.9002 45.9254C90.7574 54.6739 90.8408 65.2747 91.21 77.8223C91.7105 94.9868 92.2628 99.8223 94.7182 109.819C95.8543 114.42 96.8247 115.886 95.8869 118.318C93.2128 125.319 86.5291 127.317 79.2941 126.535C77.4225 126.336 75.5713 127.083 73.3142 129.169C66.4647 135.502 60.4493 137 52.2602 134.168C46.9476 132.336 46.916 129.336 43.2411 130.5C35.0204 133.119 28.5046 134.151 23.1879 129.837C18.6778 126.17 21.0183 123.436 18.3442 123.669C8.40354 124.52 2.72172 119.037 1.46962 114.671C0.631475 111.571 2.13788 110.085 4.64516 108.02Z" fill="white"/>
<path d="M44.5754 131.235C45.1277 131.184 45.5611 131.267 46.1134 131.601C46.6657 131.919 47.2495 132.4 47.8853 132.836C49.1526 133.735 50.6071 134.45 52.0769 134.935C53.5315 135.4 55.0175 135.8 56.5392 136.035C58.0609 136.25 59.6303 136.333 61.1845 136.186L61.7684 136.119C61.9708 136.103 62.1539 136.083 62.3522 136.035L63.5047 135.817L64.6245 135.502C64.8117 135.452 64.9948 135.383 65.1769 135.316L65.7292 135.117C67.1837 134.553 68.5508 133.834 69.8375 132.984C70.0043 132.884 70.1558 132.769 70.3226 132.67L71.2604 132.002C71.411 131.883 71.5585 131.767 71.709 131.653L72.6112 130.954L73.4809 130.218L74.316 129.503C74.5855 129.268 74.8683 129.07 75.1541 128.868C75.7186 128.47 76.3065 128.136 76.8904 127.902C77.4071 127.703 77.6573 127.119 77.459 126.602C77.2556 126.086 76.6717 125.835 76.155 126.035C76.1397 126.05 76.1031 126.05 76.0879 126.07C75.3209 126.436 74.6333 126.885 74.0179 127.386C73.6996 127.636 73.3975 127.886 73.1117 128.152L72.2928 128.919L71.4944 129.65L70.6562 130.354C70.5251 130.469 70.3898 130.583 70.2392 130.704L69.8059 131.017L69.3726 131.335C69.2221 131.45 69.0868 131.553 68.9363 131.653L68.034 132.253C67.7319 132.436 67.4176 132.603 67.1003 132.785C66.9487 132.868 66.7982 132.968 66.6314 133.036L66.1462 133.27L65.662 133.501L65.5471 133.552L65.4271 133.599L65.1769 133.703L64.6764 133.885C64.5096 133.953 64.3428 134.016 64.176 134.053L63.1548 134.35L62.1172 134.553C61.9504 134.601 61.7684 134.601 61.6016 134.616L61.0686 134.685C59.6618 134.8 58.2277 134.735 56.8057 134.518C55.403 134.267 54.0004 133.885 52.6292 133.401C51.962 133.151 51.31 132.884 50.7068 132.551C50.0904 132.217 49.5066 131.836 48.9543 131.419C48.3857 130.985 47.8344 130.5 47.1305 130.02L46.9993 129.937L46.8488 129.853C46.7491 129.801 46.6463 129.733 46.5467 129.686C46.3321 129.587 46.1134 129.483 45.8794 129.42C45.7635 129.384 45.6445 129.336 45.5295 129.32L45.1603 129.268C45.0443 129.253 44.9253 129.253 44.7941 129.253H44.4249C43.8726 129.253 43.424 129.686 43.4077 130.235C43.4077 130.787 43.841 131.235 44.3934 131.252C44.4249 131.252 44.4605 131.252 44.492 131.252L44.5754 131.235Z" fill="#222E6A"/>
<path d="M18.8609 124.667C18.9128 124.667 18.9128 124.667 18.8965 124.651C18.8772 124.635 18.8772 124.619 18.9128 124.667C18.9443 124.719 18.9962 124.818 19.0277 124.933C19.0796 125.052 19.1111 125.203 19.163 125.351C19.3461 125.951 19.58 126.634 19.9137 127.25C20.232 127.869 20.6491 128.434 21.1017 128.95C21.5513 129.467 22.0355 129.916 22.5562 130.333C23.5734 131.168 24.7096 131.866 25.9291 132.399C26.5496 132.65 27.165 132.884 27.8007 133.05C28.4364 133.217 29.0884 133.332 29.7394 133.417C31.0434 133.583 32.3463 133.583 33.6341 133.484C34.2851 133.432 34.9167 133.369 35.5524 133.269C36.1881 133.165 36.8239 133.067 37.4402 132.951C38.6954 132.7 39.9312 132.399 41.1508 132.085C41.7713 131.934 42.3704 131.767 42.9705 131.6C43.2726 131.517 43.591 131.418 43.8412 131.366C44.1067 131.318 44.3579 131.283 44.5756 131.266C45.1279 131.251 45.5775 130.801 45.5612 130.249C45.5459 129.701 45.0923 129.252 44.5441 129.268C44.5084 129.268 44.4922 129.268 44.4606 129.268H44.4413C44.0599 129.3 43.6896 129.399 43.3408 129.503C42.9705 129.617 42.7203 129.717 42.4223 129.816C41.8344 130.019 41.2505 130.218 40.6667 130.401C39.4979 130.766 38.3099 131.099 37.1066 131.366C34.7346 131.902 32.2945 132.2 29.9387 131.918C29.3549 131.835 28.77 131.735 28.2025 131.585C27.6339 131.433 27.0815 131.235 26.5496 131.001C25.4805 130.516 24.4909 129.884 23.609 129.117C23.1716 128.736 22.7546 128.319 22.3894 127.885C22.0355 127.452 21.7181 126.983 21.5035 126.483C21.2685 125.986 21.118 125.486 20.9827 124.886C20.9511 124.734 20.8993 124.567 20.8515 124.401C20.7996 124.218 20.7325 124.035 20.6175 123.8C20.4985 123.586 20.3154 123.3 20.0327 123.102C19.7631 122.903 19.4651 122.804 19.1945 122.736H19.163C18.627 122.616 18.094 122.966 17.975 123.519C17.86 124.051 18.2099 124.584 18.7612 124.703C18.7938 124.651 18.8294 124.651 18.8609 124.667Z" fill="#222E6A"/>
<path d="M58.4424 24.1792C56.9889 24.2789 55.5537 24.4294 54.1155 24.6603C52.6813 24.8943 51.2593 25.2126 49.8566 25.6297C47.0676 26.4597 44.3579 27.6792 41.9381 29.3128C39.5142 30.9453 37.3406 32.9603 35.5687 35.2763C34.6868 36.4288 33.868 37.6443 33.1488 38.8923C32.4297 40.1434 31.794 41.4434 31.2254 42.7779C30.1055 45.4245 29.2552 48.1932 28.6195 50.9904C27.9837 53.7916 27.5667 56.6091 27.2484 59.4419C27.0978 60.8568 26.9666 62.2747 26.8313 63.6732L26.5811 65.7554L26.4458 66.8081C26.4143 67.158 26.3624 67.5079 26.2994 67.8415L25.9617 69.9074L25.7948 70.9408L25.5802 71.9732L25.1428 74.0238L25.095 74.274L24.8926 75.0247L24.6261 76.0377L24.3596 77.0549C24.3088 77.2217 24.2762 77.3885 24.2254 77.5564L24.0738 78.0568L23.4585 80.0555C23.4066 80.2223 23.3547 80.3891 23.3069 80.556L23.1248 81.0401L22.7546 82.0217L22.3894 83.0073C22.3213 83.1741 22.2704 83.3369 22.2023 83.4884L22.0039 83.9726L21.1851 85.8879C21.0498 86.2052 20.8993 86.5236 20.7325 86.8379L20.2636 87.7716L19.7987 88.7044C19.7316 88.8559 19.6319 89.0227 19.5485 89.1702L19.2983 89.6229L18.2771 91.4548L17.1561 93.2226L16.8744 93.6712L16.7391 93.8858L16.5886 94.1045L15.3884 95.8051L15.0862 96.2384L14.7689 96.6555L13.4649 98.288C13.3662 98.4192 13.2472 98.5545 13.1313 98.6857L12.7824 99.0875L12.0948 99.8697C11.8598 100.136 11.6452 100.402 11.4113 100.653L9.9415 102.154C9.69127 102.404 9.45631 102.655 9.20607 102.886L7.66815 104.32C7.53285 104.435 7.41792 104.555 7.28265 104.67L6.88188 105.003L5.27681 106.37C5.01031 106.604 4.72858 106.819 4.45802 107.038C3.90977 107.486 3.35744 107.936 2.80514 108.436C2.25282 108.937 1.72086 109.485 1.25192 110.152C1.03326 110.487 0.818634 110.868 0.667084 111.269L0.568405 111.571C0.532806 111.671 0.516541 111.769 0.485016 111.885L0.41687 112.203C0.401589 112.302 0.401589 112.417 0.381271 112.521C0.297867 113.37 0.449402 114.185 0.651825 114.937C1.1004 116.434 1.88765 117.77 2.85701 118.933C3.82636 120.102 4.97878 121.103 6.2299 121.901C6.86561 122.318 7.51759 122.668 8.20114 122.987C8.8877 123.3 9.58751 123.566 10.2904 123.785C11.7093 124.234 13.1791 124.5 14.6692 124.619C15.4046 124.667 16.1553 124.702 16.8907 124.683L17.443 124.667L17.9953 124.635L18.511 124.603C18.6463 124.603 18.746 124.603 18.8131 124.619C19.3461 124.734 19.8821 124.385 19.9971 123.852C20.1171 123.32 19.7631 122.783 19.2301 122.668C19.2149 122.668 19.1945 122.668 19.1793 122.668H19.1467C18.8609 122.616 18.6107 122.616 18.3768 122.637L17.8438 122.668L17.3433 122.7L16.8388 122.72C16.1553 122.752 15.488 122.736 14.8197 122.684C13.4649 122.585 12.1467 122.366 10.859 121.985C10.2232 121.803 9.58751 121.568 8.98741 121.286C8.38728 121.019 7.7841 120.702 7.2318 120.352C6.11495 119.652 5.07746 118.787 4.22713 117.785C3.37372 116.784 2.70546 115.636 2.33623 114.42C2.16943 113.82 2.06973 113.204 2.12161 112.651C2.16943 112.088 2.35657 111.571 2.69019 111.071C3.02383 110.57 3.47237 110.101 3.95757 109.636C4.45802 109.187 4.99405 108.738 5.53112 108.285C5.79659 108.055 6.07935 107.836 6.3489 107.602L7.98651 106.204L8.38728 105.854C8.51851 105.739 8.65378 105.603 8.78905 105.487L10.3422 104.002C10.6087 103.771 10.8427 103.505 11.0929 103.235L11.8446 102.452L12.5952 101.685C12.8292 101.419 13.0642 101.153 13.3144 100.887L14.0172 100.072L14.3671 99.6713C14.4861 99.5361 14.6021 99.4048 14.717 99.2543L16.0556 97.5689L16.3892 97.1559L16.7076 96.7185L17.323 95.8367L17.9434 94.9548L18.094 94.7361L18.2455 94.5062L18.5273 94.0526L19.6634 92.237L20.7009 90.3542L20.9664 89.8894C21.0498 89.7378 21.1495 89.571 21.2177 89.4042L22.1544 87.4736C22.306 87.1553 22.4728 86.8379 22.604 86.5033L23.4381 84.5208L23.6568 84.0204C23.7239 83.8536 23.7758 83.6908 23.8399 83.524L24.2091 82.5221L24.5743 81.5212L24.7614 81.0208C24.8092 80.8581 24.8611 80.6913 24.9282 80.5041L25.5639 78.4576L25.7114 77.9409C25.7623 77.774 25.7948 77.5879 25.8457 77.4211L26.1122 76.3877L26.3828 75.3542L26.514 74.8386L26.5811 74.572L26.6329 74.3055L27.0663 72.2082L27.284 71.1554L27.4508 70.1057L27.8007 67.9921C27.8688 67.6391 27.9003 67.2892 27.9522 66.9393L28.0865 65.8744L28.3377 63.7567C28.4842 62.3428 28.6032 60.9402 28.77 59.5416C29.0884 56.7597 29.5054 53.991 30.1411 51.2772C30.4585 49.9254 30.8084 48.5746 31.2417 47.2442C31.6791 45.9249 32.1633 44.626 32.6962 43.3424C33.2486 42.075 33.868 40.8432 34.5678 39.643C35.2706 38.459 36.0376 37.3107 36.892 36.2416C38.5957 34.0924 40.6148 32.2096 42.9074 30.7114C45.196 29.209 47.7348 28.1125 50.3733 27.3619C53.0149 26.6112 55.7724 26.2298 58.5258 26.1098C59.0781 26.0782 59.5115 25.6093 59.4799 25.0611C59.4473 24.5128 58.9795 24.0795 58.4272 24.1121C58.4424 24.1792 58.4424 24.1792 58.4424 24.1792Z" fill="#222E6A"/>
<path d="M76.8907 127.917C77.443 127.667 78.0106 127.52 78.5792 127.5C78.7267 127.5 78.8609 127.5 79.0125 127.5C79.0796 127.5 79.163 127.52 79.2312 127.52L79.4967 127.535C79.8628 127.568 80.2321 127.6 80.582 127.619C82.0365 127.702 83.5063 127.667 84.9761 127.468C86.4459 127.285 87.9004 126.92 89.2868 126.352C90.6742 125.784 91.9934 124.984 93.1133 123.967C93.6819 123.467 94.1986 122.919 94.6665 122.318C95.1354 121.719 95.5372 121.087 95.8871 120.436L96.1373 119.935L96.3712 119.434C96.4547 119.267 96.5228 119.085 96.59 118.918L96.6896 118.652L96.7883 118.37C96.9236 118.004 97.007 117.587 97.0751 117.185C97.1229 116.768 97.1423 116.351 97.1066 115.969C97.0395 115.171 96.8564 114.436 96.6734 113.737C96.4902 113.037 96.2878 112.37 96.0895 111.702C95.8871 111.035 95.7203 110.371 95.5535 109.687L95.052 107.653C94.401 104.936 93.8172 102.202 93.4317 99.4529C93.0299 96.7035 92.7634 93.9216 92.5813 91.1204C92.3942 88.3232 92.2793 85.523 92.1602 82.7217C92.0606 79.9246 91.9771 77.1071 91.8937 74.2906C91.7422 68.6718 91.612 63.0256 91.0078 57.3916C90.7098 54.5751 90.2724 51.7576 89.6051 48.9767C88.9379 46.1917 88.0153 43.4616 86.748 40.8587L86.514 40.3786L86.0136 39.4093C85.9302 39.2618 85.8305 39.095 85.7471 38.9445L85.4765 38.4756C85.3931 38.3281 85.2782 38.1775 85.1947 38.026L84.6109 37.1126L84.3088 36.6599L83.9752 36.2266L83.3232 35.36C83.2042 35.2095 83.1045 35.062 82.9896 34.9267L82.6356 34.5097L81.9205 33.6949L81.7344 33.4925C81.6703 33.4294 81.6032 33.3613 81.5513 33.2942L81.1658 32.9127L80.3989 32.1458C80.1324 31.8956 79.8466 31.6606 79.5801 31.4267C79.3146 31.1958 79.0278 30.9456 78.7623 30.7116L77.8916 30.0596L77.4593 29.726L77.2406 29.5592C77.1725 29.5114 77.0891 29.4595 77.0057 29.4127L76.0882 28.8126L75.6356 28.5105C75.4881 28.4108 75.3213 28.3274 75.1707 28.244C72.6634 26.7783 69.9375 25.6777 67.1169 24.9942C64.2912 24.3107 61.3669 24.0442 58.463 24.1632C57.9106 24.1795 57.4733 24.6443 57.5089 25.1966C57.5251 25.7448 57.994 26.1782 58.5463 26.1466H58.5616C64.0095 25.812 69.556 27.0438 74.2838 29.7463C74.4353 29.8297 74.5859 29.8928 74.7333 29.9966L75.1707 30.2783L76.0363 30.8266C76.1034 30.8784 76.1879 30.91 76.255 30.9618L76.4574 31.1124L76.8745 31.4104L77.6933 32.0268C77.9597 32.2455 78.21 32.4754 78.4765 32.6941C78.7267 32.9127 78.9962 33.1274 79.2465 33.3613L79.9819 34.0764L80.347 34.4425C80.4152 34.5097 80.467 34.5615 80.5342 34.6287L80.701 34.828L81.3845 35.595L81.7181 35.9764C81.8371 36.1107 81.9368 36.2419 82.0365 36.3772L82.6559 37.1919L82.9733 37.5927L83.2561 38.026L83.8237 38.8763C83.9233 39.0279 84.023 39.1591 84.1064 39.3096L84.376 39.7582C84.4594 39.9098 84.559 40.0603 84.6424 40.2118L85.1429 41.11L85.3779 41.5779C86.6137 44.0261 87.4996 46.6443 88.1506 49.3418C88.8026 52.024 89.2359 54.7938 89.538 57.5584C90.1412 63.109 90.2887 68.7237 90.4555 74.3414C90.5226 77.1549 90.606 79.9561 90.7098 82.7726C90.8095 85.5901 90.9244 88.4076 91.1064 91.2201C91.2936 94.0376 91.5438 96.8703 91.9609 99.6716C92.3626 102.488 92.9302 105.27 93.5659 108.019L94.0511 110.085C94.2179 110.785 94.401 111.468 94.5831 112.151C94.7662 112.835 94.9686 113.518 95.1517 114.17C95.3185 114.837 95.47 115.469 95.5209 116.084C95.5535 116.386 95.5209 116.685 95.4853 116.971C95.4375 117.253 95.3866 117.535 95.2707 117.837L95.1873 118.052L95.0845 118.286C95.0164 118.437 94.9686 118.604 94.8852 118.735L94.6665 119.184L94.4325 119.617C94.1152 120.201 93.7653 120.734 93.3483 121.251C92.9465 121.766 92.4939 122.235 91.9934 122.668C91.0078 123.519 89.8716 124.202 88.6511 124.683C87.4315 125.168 86.1285 125.47 84.793 125.617C83.4544 125.784 82.1036 125.784 80.7488 125.701C80.4152 125.668 80.0653 125.653 79.7316 125.601L79.4814 125.569C79.3777 125.553 79.279 125.553 79.163 125.534C78.9606 125.517 78.746 125.517 78.5436 125.517C77.7095 125.553 76.8745 125.751 76.1401 126.07C75.6193 126.284 75.3843 126.868 75.603 127.385C75.7698 127.902 76.3547 128.136 76.8907 127.917Z" fill="#222E6A"/>
<path d="M93.0979 117.535C93.5821 113.47 91.4766 121.103 83.1562 119.486C78.4957 118.568 81.0345 116.72 78.1101 119.804C73.064 125.167 66.2145 125.167 61.9872 123.05C57.4731 120.801 58.8595 119.95 55.153 122.084C44.0752 128.417 34.3013 123.55 30.3914 120.134C26.4815 116.72 27.4671 116.236 23.7087 117.535C19.9656 118.835 14.4861 120.05 9.2224 116.236C5.64606 113.637 3.82638 112.052 4.66044 114.769C6.04683 119.287 12.6787 121.751 19.5801 120.968C20.5342 120.869 21.4201 120.968 22.2023 123.733C23.7565 129.3 31.7778 132.3 41.9381 128.402C46.8174 126.535 46.2651 127.051 49.7051 129.753C54.8346 133.75 64.2077 134.751 73.4974 126.42C76.4888 123.733 77.391 124.484 83.0057 124.484C86.9309 124.484 92.3777 122.303 93.1447 118.087" fill="#FF8856"/>
<path d="M5.21275 114.535C5.11001 114.321 5.02662 114.087 4.99406 113.904C4.97882 113.852 4.97882 113.82 4.97882 113.785C4.97882 113.768 4.97882 113.737 4.97882 113.752C4.97882 113.752 4.97882 113.785 4.96254 113.82C4.96254 113.82 4.9432 113.852 4.92692 113.868C4.91066 113.887 4.89541 113.92 4.87913 113.935C4.84353 113.987 4.77538 114.003 4.74384 114.018C4.72859 114.018 4.70824 114.035 4.69197 114.035C4.67672 114.035 4.67672 114.035 4.67672 114.035C4.70824 114.035 4.74384 114.054 4.79571 114.07C4.87913 114.102 4.97882 114.154 5.07748 114.202C5.27682 114.301 5.49553 114.436 5.71319 114.571C6.56353 115.104 7.40269 115.719 8.23675 116.336L8.87246 116.803L9.55598 117.269C9.67096 117.353 9.7747 117.42 9.88963 117.503L10.2395 117.702C10.4735 117.837 10.7085 117.968 10.9587 118.103C11.9433 118.583 12.9808 118.969 14.065 119.219C16.2224 119.685 18.4602 119.637 20.582 119.204C21.654 118.985 22.6875 118.704 23.6924 118.37C24.1929 118.202 24.678 118.035 25.1622 117.885C25.627 117.734 26.1122 117.634 26.3624 117.686C26.4815 117.702 26.5974 117.753 26.748 117.853C26.8985 117.952 27.0816 118.119 27.2484 118.286C27.6023 118.62 27.9838 119.001 28.353 119.371C28.7385 119.736 29.1199 120.102 29.5217 120.451C29.9072 120.801 30.3395 121.167 30.7769 121.501C32.5132 122.82 34.4325 123.852 36.4546 124.603C38.4768 125.351 40.6148 125.819 42.7885 125.966C44.9611 126.118 47.151 125.903 49.2525 125.386C50.3052 125.12 51.3427 124.786 52.3436 124.385L53.0983 124.067C53.2143 124.019 53.3485 123.967 53.4645 123.9L53.8337 123.717C54.0677 123.602 54.3189 123.487 54.5529 123.368L55.2516 122.987C55.4866 122.851 55.7205 122.72 55.9392 122.601C56.1539 122.47 56.3888 122.351 56.6075 122.22C56.8211 122.101 57.0398 121.985 57.2585 121.886C57.4568 121.786 57.6603 121.719 57.7752 121.703C57.8423 121.687 57.8749 121.703 57.9105 121.703C57.942 121.703 58.0091 121.735 58.0925 121.751C58.2441 121.818 58.4425 121.933 58.6611 122.085C59.0944 122.351 59.5471 122.652 60.016 122.935C60.4808 123.201 60.9497 123.467 61.4349 123.702L61.617 123.785L61.8041 123.869L62.1856 124.035C62.3208 124.083 62.4358 124.15 62.5711 124.202L62.9566 124.333C64.0093 124.703 65.0936 124.969 66.1789 125.068C66.4485 125.1 66.7312 125.12 66.9967 125.136C67.2836 125.152 67.549 125.168 67.8359 125.152L68.6699 125.136C68.9364 125.12 69.2222 125.084 69.4887 125.053C69.623 125.036 69.7542 125.017 69.9058 125.001L70.7083 124.834C70.8436 124.802 70.9748 124.786 71.1091 124.75L71.9116 124.536L72.1109 124.484L72.3134 124.417L72.6948 124.286L73.0803 124.15C73.1474 124.135 73.2156 124.103 73.2827 124.087L73.4658 124.004L74.2165 123.65C74.2836 123.618 74.3517 123.602 74.3996 123.567L74.5857 123.467L75.2855 123.07L75.4675 122.966C75.5194 122.935 75.5876 122.887 75.6354 122.851C76.088 122.533 76.5569 122.251 76.9577 121.886L77.5893 121.369C77.7928 121.186 77.9749 120.984 78.1783 120.801L78.46 120.519C78.5597 120.419 78.6624 120.321 78.7458 120.236L79.2789 119.652L79.7986 119.069C79.882 118.985 79.9654 118.886 80.0132 118.835C80.0132 118.835 79.998 118.835 79.9817 118.85C79.9654 118.85 79.9654 118.85 79.9461 118.87C79.9146 118.886 79.882 118.886 79.8312 118.886C79.7793 118.886 79.7477 118.886 79.6959 118.886C79.6633 118.886 79.6277 118.87 79.6125 118.87C79.5443 118.835 79.5647 118.835 79.5962 118.87L79.7477 118.985C79.8627 119.069 79.9817 119.168 80.1129 119.252C80.3835 119.419 80.649 119.554 80.9154 119.669C81.4515 119.903 82.0038 120.05 82.5368 120.169C83.6048 120.404 84.7094 120.519 85.8303 120.467C86.9472 120.419 88.0518 120.185 89.1046 119.768C90.141 119.35 91.1063 118.751 91.9454 118.035C92.1601 117.853 92.3625 117.686 92.5456 117.503L92.8314 117.237C92.9148 117.153 93.0135 117.07 93.0816 117.018C93.1131 116.987 93.1447 116.971 93.1294 116.987H93.1131H93.0816C93.0613 116.987 93.046 116.987 93.0297 117.003C93.0135 117.003 92.9779 117.003 92.9463 117.003C92.9148 117.003 92.8792 117.003 92.8466 116.987C92.8111 116.971 92.7632 116.951 92.7276 116.935C92.6961 116.903 92.6646 116.903 92.6443 116.868C92.629 116.851 92.5965 116.803 92.5812 116.803C92.5609 116.784 92.5609 116.768 92.5456 116.753L92.5293 116.72C92.5293 116.701 92.513 116.684 92.513 116.684V116.701C92.513 116.72 92.513 116.768 92.513 116.82C92.513 117.034 92.4774 117.285 92.4622 117.535C92.4296 117.868 92.6646 118.151 92.9982 118.187C93.3156 118.218 93.6136 117.984 93.6492 117.67C93.6817 117.404 93.7133 117.134 93.7336 116.836C93.7336 116.753 93.7336 116.669 93.7336 116.57C93.7336 116.534 93.7336 116.518 93.7133 116.486L93.697 116.386C93.697 116.351 93.6655 116.303 93.6655 116.252C93.6655 116.236 93.6492 116.204 93.6299 116.168C93.6136 116.136 93.5983 116.101 93.5821 116.084C93.5658 116.069 93.5149 116.017 93.4824 115.986C93.4468 115.954 93.4152 115.917 93.3481 115.886C93.2962 115.854 93.2322 115.834 93.1813 115.819C93.1294 115.803 93.0816 115.803 93.0297 115.803C92.9779 115.803 92.9301 115.803 92.8945 115.803C92.8629 115.803 92.8314 115.819 92.7958 115.819C92.7632 115.834 92.748 115.834 92.7124 115.834L92.6443 115.854C92.4937 115.917 92.4296 115.969 92.3625 116.017C92.2272 116.121 92.1275 116.204 92.0126 116.303L91.7105 116.57C91.5081 116.736 91.325 116.903 91.1267 117.055C90.3557 117.67 89.5216 118.187 88.6041 118.537C87.7019 118.886 86.7325 119.069 85.7632 119.085C84.7928 119.121 83.8082 118.985 82.8389 118.771C82.3537 118.652 81.901 118.52 81.4678 118.333C81.2491 118.235 81.066 118.135 80.8839 118.02C80.8005 117.952 80.7171 117.901 80.6174 117.818L80.4506 117.686L80.3987 117.654L80.3316 117.603L80.2991 117.587L80.2482 117.551L80.1963 117.52C80.1801 117.503 80.1648 117.503 80.1322 117.487C80.0651 117.468 80.0132 117.451 79.9461 117.436C79.882 117.42 79.7986 117.42 79.7152 117.42C79.6481 117.42 79.5799 117.436 79.5128 117.451C79.4812 117.468 79.4457 117.468 79.4294 117.487L79.2941 117.551L79.2463 117.587L79.1629 117.654C79.112 117.686 79.0795 117.718 79.0276 117.753C78.8934 117.868 78.7937 117.984 78.7102 118.087L78.1783 118.668L77.6575 119.235L77.5263 119.371L77.391 119.502L77.1245 119.768L76.5885 120.284L76.0046 120.753C75.6354 121.087 75.2021 121.334 74.8003 121.62C74.7525 121.651 74.7016 121.687 74.6498 121.719L74.483 121.803L74.1646 121.985L73.8513 122.168L73.6804 122.251C73.6326 122.287 73.5644 122.303 73.5136 122.335L72.8453 122.637L72.6785 122.72C72.6307 122.737 72.5636 122.752 72.5117 122.783L72.1618 122.903L71.8089 123.018L71.642 123.085L71.459 123.133L70.7398 123.32C70.6249 123.352 70.5059 123.368 70.3747 123.383L70.0044 123.452L69.6393 123.519C69.5203 123.535 69.3891 123.55 69.27 123.55C69.0198 123.567 68.7849 123.602 68.5347 123.618L67.7992 123.634C67.549 123.65 67.3151 123.618 67.0649 123.618C66.8146 123.602 66.5797 123.602 66.3294 123.55C65.3438 123.452 64.3908 123.217 63.4733 122.887L63.1234 122.768C63.0044 122.737 62.9047 122.668 62.7898 122.616L62.4561 122.47L62.2883 122.387L62.1174 122.303C61.6688 122.068 61.2355 121.834 60.7992 121.568C60.3659 121.318 59.9489 121.036 59.4952 120.753C59.2612 120.603 59.0304 120.451 58.713 120.3C58.5462 120.236 58.359 120.169 58.1444 120.134C57.9257 120.102 57.7081 120.102 57.5087 120.134C57.1079 120.201 56.8058 120.321 56.5393 120.436C56.2729 120.551 56.0226 120.686 55.7887 120.817C55.5537 120.952 55.3198 121.087 55.0848 121.203C54.8509 121.334 54.6362 121.468 54.4023 121.584L53.73 121.953C53.5154 122.068 53.2814 122.168 53.0475 122.287L52.7128 122.45C52.5979 122.502 52.4789 122.553 52.364 122.601L51.6601 122.903C50.7263 123.268 49.7732 123.586 48.7876 123.817C46.8327 124.286 44.8258 124.5 42.82 124.369C40.8172 124.25 38.847 123.817 36.9551 123.118C35.0682 122.418 33.2638 121.468 31.6791 120.269C30.8918 119.669 30.1412 118.969 29.3905 118.27C29.0202 117.92 28.651 117.551 28.2544 117.17C28.0509 116.987 27.8322 116.784 27.5505 116.601C27.4152 116.502 27.2484 116.419 27.0816 116.336C26.8985 116.267 26.7164 116.204 26.514 116.184C26.1122 116.136 25.7786 116.184 25.4806 116.236C25.1785 116.303 24.912 116.371 24.6424 116.455C24.1257 116.617 23.6253 116.803 23.1401 116.971C22.1708 117.301 21.2014 117.587 20.2158 117.785C18.2456 118.202 16.2224 118.25 14.3 117.868C13.3307 117.651 12.3969 117.336 11.511 116.919C11.2923 116.803 11.0777 116.684 10.859 116.57L10.5253 116.386C10.4257 116.319 10.3229 116.252 10.207 116.184L9.58752 115.786L8.95588 115.334C8.10147 114.734 7.25114 114.118 6.31332 113.554C6.07937 113.418 5.8444 113.268 5.57893 113.153C5.44365 113.085 5.31244 113.037 5.14562 112.97C5.06222 112.938 4.97882 112.918 4.87913 112.903L4.81199 112.886L4.72859 112.87H4.64518C4.60856 112.87 4.56177 112.87 4.52516 112.87C4.49363 112.87 4.44175 112.87 4.41023 112.886C4.35834 112.903 4.31054 112.918 4.25969 112.938C4.17628 112.954 4.04101 113.037 3.95759 113.12C3.7745 113.303 3.72262 113.518 3.70736 113.653C3.67483 113.935 3.72262 114.102 3.75822 114.269C3.84265 114.587 3.95759 114.837 4.05627 115.104C4.19153 115.402 4.54144 115.536 4.84353 115.402C5.19343 115.202 5.34397 114.854 5.21275 114.535Z" fill="#222E6A"/>
<path d="M78.1781 56.9595C81.2173 56.9595 83.689 59.5258 83.689 62.6769C83.689 65.823 81.2173 68.3902 78.1781 68.3902C75.1337 68.3902 72.6631 65.823 72.6631 62.6769C72.6631 59.5258 75.1337 56.9595 78.1781 56.9595Z" fill="#222E6A"/>
<path d="M45.6293 58.8257C48.6685 58.8257 51.1432 61.393 51.1432 64.54C51.1432 67.6902 48.6685 70.2574 45.6293 70.2574C42.589 70.2574 40.1143 67.6902 40.1143 64.54C40.1143 61.393 42.589 58.8257 45.6293 58.8257Z" fill="#222E6A"/>
<path d="M42.0366 62.7918C42.0366 63.9921 43.6061 64.993 45.6292 64.993C47.6513 64.993 49.1374 64.0236 49.1526 62.8234C49.1526 61.5245 47.5831 60.0577 45.6129 60.0425C43.658 60.0425 42.0529 61.493 42.0366 62.7918Z" fill="white"/>
<path d="M74.6021 60.9081C74.6021 62.1083 76.1715 63.1092 78.1936 63.1092C80.2157 63.1092 81.7018 62.1398 81.7181 60.9406C81.7181 59.6407 80.1486 58.175 78.1784 58.1587C76.2234 58.1587 74.6183 59.6254 74.6021 60.9081Z" fill="white"/>
<path d="M59.4474 72.6421C59.1301 71.7551 58.8798 70.742 58.7283 69.5743C61.1522 71.6921 66.9652 71.3737 68.6862 69.3394C68.2844 71.0248 68.3007 73.6073 67.367 75.3548C65.7619 72.991 62.3209 72.2718 59.4474 72.6421Z" fill="#A65A7F"/>
<path d="M67.3668 75.3548C67.1319 75.7882 66.8501 76.1899 66.4646 76.492C64.6927 77.9577 61.1327 77.4217 59.4473 72.6421C62.3207 72.2719 65.7618 72.991 67.3668 75.3548Z" fill="#FFB0D7"/>
<path d="M68.1697 69.2241C67.9347 70.0907 67.8157 70.9411 67.6692 71.7548C67.5339 72.5736 67.3824 73.3721 67.1322 74.1075C67.0173 74.4726 66.8504 74.8063 66.6796 75.1246C66.5799 75.2711 66.4965 75.4227 66.3815 75.5417C66.3296 75.6057 66.2819 75.6729 66.2147 75.7248L66.0276 75.8916C65.5475 76.3045 64.8955 76.507 64.2241 76.4561C63.5569 76.4236 62.8886 76.1418 62.321 75.6892C62.0342 75.4746 61.7687 75.208 61.5185 74.9222C61.2683 74.6394 61.0496 74.3221 60.8502 73.9885C60.0477 72.657 59.5788 71.0916 59.2614 69.4744C59.2136 69.1926 58.9278 68.9902 58.6298 69.0573C58.3592 69.1092 58.1761 69.3554 58.1924 69.6259C58.2606 70.4915 58.4111 71.3581 58.6451 72.2085C58.88 73.0588 59.1974 73.9051 59.6307 74.6913C59.7303 74.8897 59.8657 75.0891 59.9806 75.2711C60.1159 75.4583 60.2471 75.6566 60.3976 75.8234C60.6997 76.1896 61.0171 76.5232 61.4026 76.8213C62.1542 77.4214 63.1073 77.8577 64.1245 77.9218C64.6249 77.9574 65.162 77.9055 65.6461 77.7387C66.1313 77.5719 66.6155 77.3217 66.9969 76.9718L67.2837 76.7419C67.3824 76.6585 67.4506 76.5395 67.5339 76.4398C67.7008 76.2415 67.8157 76.0228 67.951 75.8234C68.1697 75.3911 68.3517 74.9578 68.4871 74.5245C68.7535 73.6386 68.8532 72.7719 68.9519 71.9216C69.0353 71.0723 69.1034 70.2413 69.2224 69.4591V69.4388C69.2702 69.1407 69.0709 68.8742 68.7698 68.8234C68.4871 68.7908 68.2368 68.9576 68.1697 69.2241Z" fill="#46334D"/>
<path d="M58.3793 69.9751C58.7281 70.3413 59.1462 70.623 59.5785 70.8732C60.0159 71.1082 60.4644 71.2902 60.9333 71.4255C61.8671 71.692 62.8212 71.7917 63.7742 71.7754C64.7242 71.7551 65.6773 71.6249 66.5958 71.3228C67.0647 71.1753 67.5174 70.9729 67.9344 70.7227C68.3677 70.4562 68.7695 70.1419 69.0868 69.6893C69.2536 69.4594 69.2018 69.1095 68.9719 68.9427C68.7695 68.7911 68.4867 68.8074 68.3006 68.9742L68.268 68.9905C67.732 69.4594 66.9813 69.7727 66.1981 69.9558C65.7974 70.0585 65.3956 70.1226 64.9785 70.1744C64.5574 70.2263 64.1597 70.2578 63.7386 70.2578C63.3216 70.2731 62.9046 70.2578 62.5028 70.206C62.0858 70.1744 61.685 70.1063 61.2832 70.0229C60.4807 69.8561 59.73 69.5743 59.078 69.141L59.0628 69.1247C58.8115 68.9579 58.4779 69.0261 58.3111 69.2559C58.1758 69.5062 58.1921 69.793 58.3793 69.9751Z" fill="#46334D"/>
<path d="M30.1055 50.1922C39.7959 47.4948 48.1203 42.0113 56.8576 37.1127C65.9642 31.9791 76.1195 30.4767 86.2117 30.4615C87.3 30.4767 88.4169 30.5134 89.5215 30.5968C86.9308 29.9448 84.392 29.5277 81.8847 29.3284C81.8684 29.3284 81.8532 29.3284 81.8176 29.3284C78.8099 29.0944 75.8692 29.1616 72.9968 29.4799C59.4473 30.9263 47.4164 37.6294 37.8257 42.8931C36.8238 43.4414 35.7873 43.9428 34.7498 44.3751C33.8008 44.7769 32.8467 45.1421 31.8773 45.4757C30.673 45.8775 29.4738 46.2274 28.2695 46.5091C24.6779 47.3757 21.1342 47.7765 17.9118 47.9077C13.6164 48.0949 9.94142 47.7928 7.58467 47.4948C5.19334 47.1926 4.27484 47.9433 4.22705 49.4253C13.0478 50.3438 21.3162 52.8745 30.1055 50.1922Z" fill="#F3CA9C"/>
<path d="M104.962 38.0942C105.696 38.9761 106.411 39.9251 107.13 40.9107C107.167 40.7287 107.199 40.5456 107.214 40.3584C106.698 39.6596 105.911 38.8927 104.962 38.0942Z" fill="#B777BA"/>
<path d="M97.794 33.528C95.001 32.2454 92.2434 31.2954 89.5378 30.6118C88.4362 30.5284 87.3326 30.4928 86.232 30.4766C76.1195 30.5132 65.9642 31.9952 56.8729 37.1277C48.1203 42.0274 39.7959 47.5098 30.1248 50.2083C21.3366 52.8743 13.0804 50.3436 4.2749 49.4577C4.2749 49.6245 4.2749 49.8106 4.29117 49.9937C4.39391 51.1736 4.6248 52.326 4.99403 53.4103C8.7056 59.2234 15.3049 62.1243 21.9205 62.0917C18.0105 60.8091 13.5646 58.8582 12.7142 54.3919C17.3077 55.3419 21.8208 56.8239 26.5139 57.2094C26.5139 57.1097 26.5292 57.006 26.5292 56.9073C28.119 56.8595 29.7241 56.6927 31.3251 56.4069C32.0798 56.2757 32.8315 56.1241 33.5974 55.942C33.9677 55.8586 34.3328 55.7742 34.702 55.6755C38.3617 54.7255 42.1201 53.3076 46.0138 51.6588C46.2284 51.5754 46.4471 51.4757 46.6821 51.376C52.2805 48.9766 58.1922 46.1275 64.6409 43.5256C70.692 41.0774 76.0198 39.9768 80.5818 39.6594C81.4993 39.5913 82.4055 39.576 83.2711 39.5597C84.392 39.5597 85.461 39.6116 86.4823 39.695C90.5743 39.5913 94.6826 41.3082 98.6118 43.5256C99.9789 44.2448 98.445 46.0248 97.5397 46.3106C95.7353 46.9107 93.9991 47.6573 92.2943 48.408C92.8629 49.2939 93.582 50.0252 94.7029 50.2917C98.862 50.7759 102.605 48.5748 105.311 45.2415C106.265 43.9935 106.88 42.4759 107.167 40.8953C106.448 39.9096 105.744 38.9759 104.993 38.0778C103.007 36.4452 100.333 34.6927 97.794 33.528Z" fill="#F25510"/>
<path d="M43.5075 34.1133C42.4028 33.0758 42.2716 31.4789 42.5218 29.9287L40.8008 30.779C40.3329 31.0099 40.1295 31.6294 40.3482 32.1461L40.4834 32.4604L41.9014 35.8933C42.1201 36.4293 42.6724 36.6602 43.1372 36.4293L45.8469 35.0938C44.9254 35.0786 44.0394 34.8599 43.5075 34.1133Z" fill="#38263B"/>
<path d="M46.6657 27.8789L42.5056 29.9285C42.2553 31.4939 42.3865 33.0959 43.4912 34.113C44.0394 34.8596 44.9254 35.0783 45.8276 35.0936L49.471 33.3105C49.6379 31.029 48.7356 28.6774 46.6657 27.8789Z" fill="#5F5061"/>
<path d="M51.776 31.0454L50.29 27.4619L50.2218 27.2788C50.0072 26.7621 49.4549 26.5119 48.986 26.7458L46.6821 27.879C48.7521 28.6774 49.638 31.0291 49.4875 33.3106L51.3102 32.4124C51.776 32.1775 51.9785 31.5621 51.776 31.0454Z" fill="#38263B"/>
<path d="M36.5218 29.3131C36.0529 29.543 35.8546 30.1594 36.0732 30.6802L37.1901 33.3777L37.0741 33.4296C36.9907 33.4774 36.9073 33.5282 36.8239 33.576C37.424 34.8597 38.0282 36.1433 38.6283 37.4259C39.562 33.9463 40.4673 30.4615 41.3024 26.9604L36.5218 29.3131Z" fill="#E6D093"/>
<path d="M41.0674 33.9099L40.4673 32.4604L40.333 32.1461C40.1143 31.6101 40.3167 31.01 40.7816 30.7791L42.2198 30.0803C42.6725 28.6614 43.122 27.2435 43.591 25.8286L41.2657 26.977C40.4317 30.477 39.5294 33.978 38.5957 37.4425C38.8937 38.0945 39.1958 38.7455 39.5142 39.3934C40.0146 37.5462 40.5313 35.7265 41.0674 33.9099Z" fill="white"/>
<path d="M43.5389 39.8102C43.9397 38.4279 44.3414 37.0445 44.7422 35.6429L43.1371 36.4291C42.6723 36.66 42.1047 36.4291 41.9013 35.8931L41.0835 33.9097C40.5505 35.7263 40.0307 37.5612 39.5293 39.3931C39.8477 40.0767 40.1813 40.7602 40.4997 41.459C41.469 40.9107 42.5055 40.3584 43.5389 39.8102Z" fill="#E6D093"/>
<path d="M47.9179 23.6943L43.6062 25.8121C43.1373 27.2269 42.6887 28.6296 42.2361 30.0597L46.9007 27.7792C47.2496 26.4284 47.5832 25.0614 47.9179 23.6943Z" fill="#E6D093"/>
<path d="M44.7423 35.6428C44.3416 37.0291 43.9398 38.4277 43.5391 39.81C45.1757 38.9444 46.8804 38.0616 48.6208 37.2112C48.9025 35.9286 49.1894 34.6287 49.4548 33.3257L44.7423 35.6428Z" fill="white"/>
<path d="M53.3646 24.9263C53.3331 24.9467 53.3128 24.9467 53.2812 24.9629L52.3271 22.6774C52.1766 22.296 51.8429 22.0783 51.4931 22.062C51.4412 22.3956 51.3944 22.7293 51.3425 23.0629C51.0923 24.7117 50.8095 26.3615 50.5074 27.994L51.7596 31.0455C51.9782 31.5775 51.7758 32.1776 51.31 32.4126L49.4547 33.326C49.1892 34.6289 48.9024 35.9289 48.6206 37.2115C51.4097 35.8454 54.3187 34.5455 57.3417 33.3941C55.939 30.6122 54.5527 27.811 53.3646 24.9263Z" fill="#E6D093"/>
<path d="M51.4933 22.062C51.358 22.062 51.2268 22.0783 51.0926 22.1454L47.918 23.7108C47.5834 25.0779 47.2498 26.4286 46.9009 27.7794L48.9861 26.7623C49.455 26.5283 50.0073 26.7623 50.2219 27.2943L50.29 27.4773L50.5077 28.0103C50.8098 26.3768 51.0926 24.728 51.3428 23.0792C51.3947 22.7293 51.4414 22.3956 51.4933 22.062Z" fill="white"/>
<path d="M71.5108 21.4932C64.8952 21.2948 58.7964 22.7971 53.3647 24.9108C54.5528 27.8107 55.9392 30.5967 57.3418 33.3776C62.2689 31.5101 67.5174 30.0596 73.0121 29.4798C74.6853 29.2927 76.39 29.2093 78.1101 29.194C76.2711 26.0632 74.133 23.2935 71.5108 21.4932Z" fill="#5F5061"/>
<path d="M78.1101 29.194C79.3459 29.194 80.5817 29.2296 81.8369 29.3283L81.8531 28.896C81.4839 28.3793 79.3622 25.4784 75.2854 21.6447L75.1857 21.78C73.9499 21.6285 72.714 21.5298 71.5107 21.4932C74.133 23.2935 76.271 26.0632 78.1101 29.194Z" fill="#AB9BAD"/>
<path d="M33.1133 35.6431C32.6637 35.877 32.2274 36.0754 31.8256 36.2422H31.8103C31.2417 42.7947 28.2859 46.4778 28.2859 46.4778V46.5093C29.4892 46.2276 30.6935 45.8777 31.8938 45.4759C32.68 45.2104 33.4673 44.9276 34.2332 44.6103C34.2495 41.5426 33.8162 38.5592 33.1133 35.6431Z" fill="#38263B"/>
<path d="M36.7884 33.5762C35.4376 34.3787 34.2018 35.0785 33.0972 35.6267C33.801 38.5592 34.2333 41.5425 34.2333 44.594C34.4164 44.5268 34.5832 44.4434 34.7704 44.3753C35.8028 43.9267 36.8403 43.4415 37.8412 42.8933C38.6956 42.4244 39.5815 41.9443 40.4837 41.4439C39.2479 38.8288 38.0283 36.2106 36.7884 33.5762Z" fill="#5F5061"/>
<path d="M31.4288 27.3462C31.7106 32.8297 30.491 38.3447 26.9828 42.159C25.4601 43.8749 23.5062 44.8443 21.6021 44.944C20.649 46.0089 19.4447 47.0098 17.9434 47.9283C21.1495 47.793 24.7095 47.3913 28.301 46.5256V46.4931C28.301 46.4931 31.262 42.81 31.8255 36.2625H31.8458C31.9608 36.2107 32.0604 36.1588 32.1795 36.111C32.1439 33.1592 31.9771 30.2624 31.4288 27.3462Z" fill="#8E5E1F"/>
<path d="M52.8288 5.4971C56.9727 5.76328 59.4952 11.1628 63.5567 12.6804C65.0265 13.1971 66.481 13.7617 67.8827 14.4452C61.1847 9.33125 58.3794 2.69596 51.9266 1.41261C47.5162 0.530527 39.3627 3.56206 29.4221 13.9285C22.8899 20.7302 26.5812 30.6434 24.6943 38.7775C26.6808 34.4943 26.9829 28.4422 28.0672 24.1956C30.6264 12.5818 42.522 5.13153 52.8288 5.4971Z" fill="#F3CA9C"/>
<path d="M32.1438 36.0958C32.4459 35.9605 32.7633 35.7937 33.0969 35.6431C32.7796 34.3117 32.394 32.9965 31.9771 31.6772C32.1113 33.143 32.1438 34.6097 32.1438 36.0958Z" fill="#EEBEF0"/>
<path d="M63.8739 14.3141C66.9132 16.4796 69.5039 18.9106 71.9114 21.5135C72.9805 21.5613 74.0658 21.6447 75.1704 21.78L75.2691 21.6447C73.132 19.6298 71.7772 17.2618 68.5508 14.9458C68.3199 14.779 68.086 14.6121 67.8672 14.4453C66.4809 13.7618 65.0263 13.181 63.5403 12.6806C62.0705 12.1283 60.7991 11.0796 59.5947 9.94727C60.7991 11.6126 62.1539 13.1301 63.8739 14.3141Z" fill="#EEBEF0"/>
<path d="M63.8741 14.3144C62.1541 13.1304 60.7829 11.6128 59.5949 9.94755C57.4568 7.94894 55.4703 5.68028 52.8288 5.51336C42.5057 5.1478 30.606 12.5974 28.0509 24.2276C26.9666 28.463 26.6645 34.5262 24.678 38.8095C24.1573 41.0258 23.2398 43.1079 21.5869 44.9602C23.49 44.8605 25.445 43.8952 26.9666 42.1783C29.9072 38.96 31.2417 34.5781 31.4289 30.0121C31.0078 28.7773 30.5582 27.5608 30.1056 26.3453C30.5745 27.5608 31.0078 28.7773 31.4289 30.0121C31.4604 29.1262 31.4604 28.2443 31.4085 27.3624C31.2773 26.6626 31.1268 25.9435 30.9437 25.2284C31.1268 25.9435 31.2773 26.6433 31.4085 27.3624C31.2936 25.1135 30.9244 22.8442 30.3558 20.7113C30.9244 22.8442 31.2936 25.0932 31.4085 27.3624C31.6791 28.8129 31.8612 30.243 31.9771 31.6935C32.3942 33.0127 32.7634 34.3279 33.097 35.6624C34.2851 35.0623 35.588 34.3116 37.0385 33.4613L37.1575 33.4094L36.0376 30.7119C35.823 30.1789 36.0214 29.5798 36.4903 29.3449L51.0762 22.177C51.5451 21.9471 52.0934 22.177 52.3121 22.714L53.2651 24.9945C58.828 22.8127 65.0936 21.2788 71.9116 21.5616C69.5203 18.9109 66.9133 16.4799 63.8741 14.3144Z" fill="#F25510"/>
<path d="M13.533 54.6109C15.2856 55.5091 17.1409 56.2435 19.0633 56.7409C20.9827 57.2413 22.9732 57.5434 24.9597 57.6065C26.9503 57.6746 28.9368 57.5271 30.8918 57.225C31.377 57.1579 31.8611 57.0582 32.3463 56.9596L33.8008 56.6768C34.7498 56.4581 35.7039 56.2079 36.657 55.9424C40.4317 54.8571 44.0598 53.3751 47.6351 51.8412C51.2074 50.3074 54.7359 48.6748 58.2603 47.1257C60.0322 46.3425 61.8041 45.5756 63.5719 44.8249L64.9115 44.2767C65.3601 44.1098 65.7974 43.9268 66.246 43.76C66.6986 43.5931 67.1482 43.4263 67.6009 43.2595C68.0504 43.0927 68.5031 42.9452 68.9516 42.7947C69.4053 42.6431 69.8732 42.5089 70.3228 42.3614C70.7754 42.2261 71.2402 42.0949 71.6939 41.9758C72.6114 41.7256 73.5492 41.511 74.4666 41.3086C76.3382 40.9272 78.225 40.6292 80.1129 40.4776C82.0038 40.3108 83.9231 40.2752 85.8099 40.4104C87.7018 40.5254 89.5887 40.8122 91.445 41.2445C93.2799 41.6778 95.0996 42.2617 96.8044 43.0602C97.2417 43.2595 97.6588 43.4782 98.0595 43.6928L98.3616 43.8596L98.6118 44.0102C98.6281 44.0264 98.6444 44.062 98.6597 44.0773C98.6759 44.0936 98.6952 44.1251 98.6952 44.1617C98.6952 44.1933 98.7115 44.2085 98.7278 44.2452C98.743 44.3601 98.743 44.475 98.6952 44.6103C98.6759 44.6418 98.6597 44.6774 98.6444 44.71L98.6281 44.7608L98.5925 44.8086L98.5284 44.9083C98.4928 44.9439 98.4613 44.9755 98.445 45.011C98.1908 45.2938 97.8418 45.5603 97.4756 45.7943L97.4563 45.8105C97.1736 45.9773 97.0902 46.3425 97.2732 46.6243C97.44 46.9111 97.8093 46.9945 98.0758 46.8277C98.5284 46.5612 98.978 46.2591 99.3788 45.8258C99.4306 45.778 99.4784 45.7108 99.5303 45.659L99.6656 45.4606L99.7287 45.3609L99.7805 45.2419C99.8121 45.1585 99.864 45.0944 99.8792 45.011C100.014 44.6937 100.047 44.3082 99.9789 43.943C99.9636 43.8596 99.9311 43.76 99.9158 43.6765C99.8792 43.5931 99.8477 43.5097 99.7958 43.4263C99.749 43.3429 99.6971 43.2595 99.6452 43.1914C99.6137 43.1598 99.5781 43.1079 99.5456 43.0764L99.4947 43.0093C99.4784 42.993 99.4469 42.9615 99.4113 42.9452L99.3635 42.9096C99.3472 42.8933 99.3279 42.8933 99.3279 42.8933L99.2954 42.8618L99.2119 42.8099L99.0451 42.7113L98.7278 42.5089C98.2945 42.2617 97.8571 42.0277 97.4085 41.8091C95.6204 40.9272 93.7336 40.2752 91.8101 39.7951C89.8867 39.3099 87.9165 39.0119 85.9452 38.8613C83.975 38.7098 81.9844 38.726 80.0294 38.8766C76.088 39.1594 72.2096 40.0087 68.4675 41.2089C68.0026 41.3605 67.5337 41.511 67.0648 41.6778C66.5959 41.8253 66.1463 42.0115 65.6774 42.1783C65.2095 42.3451 64.7599 42.5282 64.3073 42.7113L62.9565 43.2595C61.1521 43.9939 59.3639 44.7771 57.5921 45.544C54.0483 47.1095 50.5238 48.742 46.9841 50.2921C43.4394 51.826 39.8641 53.2754 36.2044 54.3923C32.5447 55.4928 28.77 56.2241 24.9953 56.1407C23.1044 56.1092 21.2176 55.8743 19.3969 55.4257C18.4795 55.2111 17.5742 54.9253 16.6913 54.5906C15.8054 54.2773 14.9357 53.8918 14.065 53.49C13.767 53.3436 13.414 53.4748 13.2665 53.7769C13.1313 54.1105 13.2472 54.4604 13.533 54.6109Z" fill="#222E6A"/>
<path d="M74.8685 22.0932C75.3842 22.7289 75.9365 23.3291 76.4888 23.9455L78.1417 25.7448L79.7793 27.5452L81.4159 29.3282V29.3445C81.6346 29.5947 82.0201 29.611 82.2703 29.3761C82.489 29.194 82.5206 28.8797 82.3852 28.6457C81.9682 27.8788 81.4841 27.2105 80.9826 26.528C80.7324 26.1934 80.4669 25.8801 80.1963 25.5465C79.9298 25.2281 79.6481 24.9107 79.3623 24.5964C79.0795 24.2943 78.7937 23.977 78.4957 23.6942C78.1936 23.3962 77.9077 23.1104 77.5894 22.8286C76.9903 22.26 76.3383 21.7118 75.671 21.2114C75.4045 21.013 75.0353 21.0608 74.8359 21.3304C74.6854 21.5765 74.6854 21.8786 74.8685 22.0932Z" fill="#31133D"/>
<path d="M18.1937 48.4602C19.0797 47.9434 19.93 47.3596 20.7163 46.6923C21.5036 46.0251 22.2379 45.2622 22.8543 44.4271C23.4738 43.5931 24.0068 42.6756 24.4431 41.7256C24.8612 40.7756 25.1785 39.7788 25.4135 38.7779C25.8783 36.7588 25.9974 34.7123 26.0289 32.7105C26.0645 30.6956 26.0126 28.7131 26.0451 26.746C26.0808 24.7798 26.216 22.8442 26.633 20.9777C26.8314 20.047 27.1172 19.1458 27.4834 18.2792C27.8526 17.4136 28.3175 16.5948 28.8535 15.8482C29.1363 15.4779 29.4221 15.1128 29.7395 14.7629L29.9744 14.4964L30.2246 14.2309L30.7413 13.6979C31.0913 13.3449 31.4442 12.995 31.7941 12.6614C32.144 12.3319 32.497 11.982 32.8631 11.6483C34.3014 10.3128 35.7875 9.02958 37.3569 7.84561C38.1432 7.24559 38.9305 6.68138 39.7483 6.149C40.5671 5.61265 41.3858 5.09615 42.2362 4.63121C43.9399 3.69757 45.7128 2.91476 47.5518 2.44595C48.0014 2.34657 48.4704 2.23133 48.9382 2.17976C49.1691 2.14791 49.4031 2.13206 49.6217 2.09625C49.8567 2.08039 50.0907 2.06451 50.3053 2.06451C50.7589 2.06451 51.2075 2.09625 51.6449 2.16379C51.8595 2.19563 52.0934 2.26316 52.3121 2.31484C52.5308 2.38236 52.7648 2.43009 52.9794 2.5135C54.736 3.09754 56.2892 4.21408 57.7081 5.51327C59.1301 6.82845 60.4331 8.31441 61.8042 9.76467C63.1713 11.2313 64.5932 12.6614 66.1464 13.9807L66.7313 14.4608L67.3304 14.9297L68.5347 15.8116C69.3057 16.3801 70.0411 17.0118 70.7236 17.6953C72.0947 19.0461 73.2991 20.6634 74.8167 22.062C75.0506 22.2806 75.4361 22.2806 75.6548 22.0304C75.8694 21.7955 75.8694 21.4303 75.6355 21.1953C74.9519 20.5281 74.3162 19.7968 73.6805 19.0298C73.0488 18.2792 72.3765 17.497 71.6777 16.7616C70.9749 16.0302 70.2079 15.3315 69.3891 14.711L68.2011 13.8139L67.6325 13.3643L67.0802 12.8954C65.5941 11.628 64.2433 10.2294 62.9048 8.76339C61.5692 7.31313 60.2663 5.79543 58.7762 4.38088C58.0255 3.6816 57.2229 3.01412 56.3563 2.43009C55.4867 1.84593 54.5173 1.36522 53.5154 1.01553C53.2652 0.916254 52.9956 0.864588 52.7454 0.781176C52.4789 0.713633 52.2287 0.646097 51.9622 0.598398C51.4099 0.499018 50.8576 0.447336 50.3256 0.463312C50.0551 0.463312 49.7886 0.479181 49.5231 0.499018C49.2525 0.530848 48.9861 0.546724 48.7358 0.582529C48.2038 0.646097 47.6993 0.7652 47.1826 0.880457C45.1605 1.39695 43.2574 2.23133 41.4693 3.19691C40.5671 3.6816 39.6974 4.21408 38.847 4.78225C37.9926 5.3305 37.1738 5.93051 36.355 6.53043C34.7347 7.74624 33.2161 9.08126 31.7422 10.4481C31.3771 10.798 31.0079 11.1469 30.6579 11.4968C30.3081 11.8467 29.9388 12.1966 29.5889 12.5617L29.0722 13.0978L28.8027 13.3643L28.5361 13.6471C28.1863 14.0285 27.8526 14.4455 27.5343 14.8778C26.9148 15.7444 26.3981 16.6619 25.9974 17.6282C25.5956 18.5975 25.2782 19.5943 25.0595 20.6115C24.6099 22.6458 24.5113 24.6801 24.4909 26.6951C24.4757 28.7131 24.5428 30.6956 24.5428 32.6627C24.5265 34.6289 24.4279 36.5757 24.0261 38.4432C23.8237 39.377 23.5572 40.2955 23.188 41.1611C22.8228 42.0277 22.3539 42.8617 21.8016 43.6246C20.6848 45.1585 19.2302 46.4096 17.5743 47.4267C17.2915 47.5946 17.2081 47.9597 17.375 48.2415C17.558 48.5273 17.912 48.627 18.1937 48.4602Z" fill="#222E6A"/>
<path d="M49.9044 27.6289L50.6744 29.5117L51.0599 30.4617L51.243 30.9103L51.3426 31.1452L51.3579 31.2123L51.3782 31.2439C51.3945 31.2602 51.3945 31.2958 51.3945 31.3273C51.4413 31.5266 51.3782 31.7606 51.2592 31.8959C51.2267 31.9274 51.1911 31.9589 51.1596 31.9793C51.1433 31.9956 51.1239 31.9956 51.1077 32.0108L50.9927 32.0627L50.5238 32.2773L48.6879 33.1429L45.0088 34.8955L43.1729 35.7773L42.9389 35.8933L42.887 35.9289L42.8718 35.9441C42.8555 35.9441 42.8392 35.9441 42.8392 35.9604C42.7884 35.9767 42.7365 35.9767 42.6724 35.9441C42.6216 35.9289 42.5534 35.877 42.5219 35.8292C42.5056 35.7936 42.47 35.7621 42.4537 35.7265L42.4385 35.6939L42.4222 35.6268L42.3703 35.5119L41.5841 33.6281L41.1823 32.6943L40.9839 32.2295L40.8843 31.9956L40.8649 31.9437L40.8487 31.9122C40.8334 31.8959 40.8334 31.8796 40.8334 31.844C40.7815 31.6772 40.8334 31.4788 40.9168 31.3598C40.932 31.3273 40.9687 31.312 40.9839 31.2958C41.0002 31.2795 41.0154 31.2795 41.0358 31.2602L41.1508 31.2123L41.6044 30.9784L43.4241 30.0447L47.0472 28.1965L48.8709 27.279L49.1059 27.1641L49.1527 27.1275L49.1893 27.1122C49.2046 27.0959 49.2208 27.0959 49.2524 27.0959C49.3398 27.0807 49.4233 27.0807 49.5067 27.1122C49.5901 27.1437 49.6735 27.1956 49.7376 27.279C49.7732 27.3106 49.8047 27.3624 49.821 27.4102L49.8403 27.4458L49.8566 27.513L49.9044 27.6289ZM50.6744 27.3106L50.6235 27.1956L50.6072 27.1275L50.5757 27.0441C50.5238 26.9454 50.4567 26.8457 50.3885 26.746C50.2421 26.564 50.0386 26.4124 49.8047 26.329C49.5707 26.2456 49.3042 26.2303 49.054 26.2771C48.9859 26.2934 48.9381 26.3137 48.8709 26.3453L48.7875 26.3768L48.7357 26.4124L48.5017 26.5283L46.6657 27.4102L42.9908 29.1618L41.1508 30.0284L40.6819 30.243L40.5669 30.2949C40.515 30.3264 40.4479 30.362 40.4001 30.3935C40.2811 30.4617 40.1814 30.5604 40.098 30.66C39.7481 31.0618 39.6291 31.6101 39.7481 32.0942C39.7643 32.1624 39.7806 32.2102 39.7959 32.2773L39.8315 32.3607L39.8478 32.4278L39.9475 32.6628L40.1295 33.1276L40.515 34.0767L41.286 35.9604L41.3338 36.0754L41.3501 36.1435L41.3857 36.2269C41.4335 36.3459 41.5169 36.4609 41.6044 36.5605C41.7712 36.7589 42.0011 36.9461 42.2554 37.0294C42.5219 37.1281 42.8199 37.1444 43.0894 37.0773C43.1576 37.061 43.2206 37.0447 43.2888 37.0091L43.3875 36.9776L43.4394 36.9461L43.6743 36.827L45.494 35.9126L49.1212 34.0614L50.9409 33.1276L51.3945 32.8927L51.5094 32.8459C51.5613 32.8093 51.6285 32.7777 51.6762 32.7462C51.7759 32.6781 51.8787 32.5794 51.9621 32.496C52.2804 32.1105 52.3791 31.6101 52.2601 31.1452C52.2438 31.0933 52.2286 31.0293 52.2123 30.9784L52.1767 30.895L52.1604 30.8268L52.0617 30.597L51.8594 30.1281L51.4616 29.1943L50.6744 27.3106Z" fill="#31133D"/>
<path d="M53.5 25.5109C55.2516 24.926 57.0082 24.3778 58.7964 23.9292C60.5642 23.4603 62.3717 23.0789 64.1761 22.8124C65.0783 22.6618 65.9795 22.5621 66.898 22.4625C67.7992 22.3638 68.7218 22.3119 69.6392 22.2804C71.4589 22.2122 73.299 22.2448 75.1339 22.3791C75.4675 22.3953 75.7543 22.1614 75.7696 21.8268C75.7859 21.5297 75.5713 21.2633 75.2855 21.1951C73.4139 20.8615 71.5108 20.7109 69.623 20.7109C68.6699 20.7109 67.7158 20.7465 66.7668 20.8299C66.2979 20.8615 65.8127 20.9296 65.3438 20.9611C64.8749 21.013 64.41 21.0802 63.9259 21.1442C62.9881 21.2948 62.0543 21.4779 61.1328 21.6803C60.2143 21.8949 59.2968 22.1288 58.3946 22.4116C56.5708 22.9639 54.803 23.6108 53.0983 24.394C52.7962 24.5293 52.6619 24.8782 52.7962 25.1762C52.8959 25.4783 53.2142 25.6095 53.5 25.5109Z" fill="#31133D"/>
<path d="M32.0604 36.7942C32.5801 36.6752 33.0653 36.5124 33.5301 36.31C33.9991 36.1107 34.4517 35.893 34.9013 35.6428C35.3376 35.4119 35.7709 35.1454 36.188 34.8596C36.605 34.5778 37.0068 34.2757 37.3923 33.9461C37.6425 33.7274 37.6588 33.346 37.4401 33.0958C37.2733 32.9127 37.0068 32.8456 36.7881 32.929C36.3039 33.0958 35.8544 33.2941 35.421 33.5128C34.9684 33.7274 34.5351 33.9461 34.1181 34.1964C33.6807 34.4262 33.2636 34.6765 32.8466 34.9267C32.4296 35.1769 32.0278 35.4281 31.6271 35.7099H31.6108C31.3453 35.9123 31.2772 36.2785 31.4603 36.5602C31.5752 36.7433 31.8254 36.842 32.0604 36.7942Z" fill="#31133D"/>
<path d="M40.1815 41.3087C40.2649 41.3087 40.3483 41.2924 40.4317 41.2609C40.7653 41.1256 40.9321 40.7289 40.8009 40.3942L36.6733 30.4099C36.5899 30.1952 36.6733 29.9613 36.8086 29.8932L51.3946 22.7293C51.4414 22.7141 51.4933 22.6937 51.5451 22.7293C51.6285 22.7609 51.6916 22.829 51.7282 22.9287L55.9555 33.1592C56.0867 33.4929 56.4875 33.6597 56.8211 33.5285C57.1588 33.3942 57.3266 32.9965 57.1914 32.6629L52.963 22.4273C52.781 21.995 52.4474 21.6451 52.01 21.4935C51.6082 21.347 51.1759 21.3623 50.8097 21.5617L36.24 28.7295C35.4538 29.111 35.1039 30.0956 35.4538 30.9459L39.562 40.911C39.6648 41.1612 39.915 41.3087 40.1815 41.3087Z" fill="#31133D"/>
<path d="M27.284 65.0762C26.8985 65.0925 26.4459 65.0925 26.0289 65.0925C25.5955 65.0925 25.1785 65.0762 24.7411 65.0559C23.8908 65.0243 23.0415 64.9409 22.1871 64.8423C20.4986 64.6236 18.8294 64.2574 17.2081 63.7092C15.603 63.1731 14.0498 62.4581 12.6157 61.5762C11.1764 60.6902 9.85816 59.6253 8.73722 58.3732C7.61633 57.1414 6.69887 55.7276 6.04689 54.2089C5.72952 53.443 5.46302 52.6598 5.29621 51.841C5.19349 51.4443 5.12941 51.0273 5.07753 50.6255C5.04599 50.4272 5.02667 50.2085 5.01039 50.0101C4.99411 49.8108 4.97885 49.6246 4.99411 49.4578C5.01039 49.1079 5.09379 48.8251 5.22909 48.6431C5.29621 48.5596 5.37962 48.4762 5.49557 48.4244C5.61457 48.3603 5.7458 48.3094 5.89633 48.2769C6.2147 48.2098 6.59918 48.1935 6.98062 48.2098C7.18404 48.226 7.36611 48.2413 7.5848 48.2769L8.2368 48.3603C9.98834 48.5596 11.7613 48.6746 13.5168 48.7417C17.0413 48.8414 20.6013 48.6746 24.0902 48.1579C27.6024 47.6412 31.0587 46.7756 34.3848 45.4441C35.2036 45.1105 36.0214 44.7413 36.8239 44.3598C37.2257 44.1615 37.6265 43.9581 38.0079 43.7434L39.1644 43.1077C40.6982 42.2777 42.2199 41.4437 43.7578 40.6289C46.8327 38.9913 49.9401 37.4422 53.0984 36.0436C56.2536 34.645 59.4953 33.4091 62.8051 32.4276C66.1149 31.443 69.4888 30.7117 72.8973 30.3262C76.3068 29.9447 79.763 29.9132 83.1725 30.2946C86.581 30.6598 89.9387 31.4267 93.1966 32.5436C94.8179 33.0959 96.423 33.7591 97.9609 34.4782C99.4786 35.2095 100.969 36.0955 102.355 37.077C103.055 37.5612 103.741 38.0779 104.393 38.6262C105.045 39.1785 105.661 39.743 106.213 40.3431C106.48 40.6442 106.73 40.9585 106.916 41.2769C107.016 41.4274 107.084 41.5779 107.115 41.7091C107.131 41.7458 107.131 41.761 107.131 41.7925V41.8251C107.131 41.8444 107.131 41.8759 107.131 41.8922C107.131 41.9756 107.147 42.0753 107.147 42.1781C107.147 42.9257 106.964 43.7282 106.698 44.4748C106.146 45.9924 105.177 47.391 104.024 48.6116C103.456 49.2269 102.82 49.7752 102.168 50.3071C101.517 50.8442 100.817 51.3243 100.098 51.7932C97.2255 53.6251 93.9992 54.9403 90.7097 55.9574C90.3913 56.0571 90.2245 56.3907 90.3242 56.7081C90.4239 57.0264 90.7575 57.1933 91.0596 57.1099C94.4324 56.0927 97.7585 54.7938 100.798 52.8937C101.552 52.4096 102.303 51.9091 103.007 51.3609C103.706 50.8086 104.393 50.2085 105.025 49.5605C106.28 48.2576 107.366 46.744 108.033 44.9915C108.366 44.1249 108.585 43.1911 108.601 42.1943C108.601 42.0753 108.601 41.9441 108.585 41.8088C108.585 41.7773 108.585 41.761 108.585 41.7091C108.585 41.6613 108.569 41.6257 108.569 41.5779C108.554 41.4945 108.533 41.4111 108.518 41.344C108.435 41.0419 108.303 40.812 108.184 40.577C107.918 40.1438 107.632 39.7786 107.314 39.4287C106.698 38.7258 106.03 38.1257 105.343 37.5459C104.66 36.9611 103.941 36.4291 103.222 35.9124C101.767 34.8759 100.25 33.9615 98.6282 33.1589C97.0068 32.3961 95.3865 31.7125 93.7133 31.1287C90.372 29.9447 86.8831 29.1259 83.3546 28.7445C79.8312 28.3437 76.2549 28.3793 72.7305 28.7608C69.202 29.1463 65.7294 29.8929 62.3362 30.8947C58.9429 31.8956 55.6534 33.1589 52.4271 34.5779C49.2047 35.9917 46.078 37.5774 42.9909 39.2262C41.453 40.0451 39.915 40.8954 38.3781 41.7254L37.2409 42.3611C36.8717 42.5595 36.4903 42.7588 36.1048 42.945C35.3378 43.3264 34.5679 43.66 33.7643 43.9936C30.5898 45.2773 27.2484 46.1277 23.8593 46.624C20.466 47.1407 17.0057 47.3279 13.5484 47.2445C11.8284 47.1926 10.1084 47.0929 8.38735 46.9109L7.75164 46.8427C7.53291 46.8112 7.28271 46.7908 7.04876 46.7756C6.56358 46.744 6.06314 46.7593 5.53117 46.8742C5.26062 46.9424 4.97885 47.0421 4.70829 47.1926C4.44181 47.3431 4.19158 47.5577 3.99322 47.8243C3.80609 48.0948 3.67486 48.3766 3.59146 48.6583C3.50805 48.9411 3.47244 49.2106 3.47244 49.4771C3.45719 49.7274 3.47244 49.9939 3.50805 50.2237C3.52433 50.4587 3.55586 50.6774 3.59146 50.9073C3.65962 51.3609 3.72268 51.8095 3.84269 52.258C4.04106 53.1603 4.34315 54.0268 4.69203 54.8569C5.41116 56.5412 6.44865 58.0751 7.66821 59.4066C8.90406 60.7411 10.3423 61.8742 11.8762 62.8079C13.4141 63.7417 15.071 64.4761 16.7748 65.0243C18.4795 65.5726 20.2321 65.9428 22.004 66.1574C22.8899 66.2561 23.7759 66.3243 24.6577 66.3558C25.1114 66.3751 25.5437 66.3751 25.9973 66.3751C26.4459 66.3751 26.867 66.3558 27.3481 66.3395C27.6858 66.3243 27.936 66.0415 27.9157 65.7241C27.9004 65.4058 27.6339 65.1403 27.3003 65.1555L27.284 65.0762Z" fill="#222E6A"/>
<path d="M28.7548 46.843C28.9053 46.6609 29.0202 46.5093 29.1556 46.3425C29.2715 46.1757 29.3905 46.0089 29.5054 45.8421C29.6204 45.6753 29.7241 45.4922 29.8391 45.3254L30.1412 44.7934C30.543 44.0773 30.8766 43.3429 31.1746 42.5923C31.3089 42.2109 31.4757 41.8447 31.5957 41.4592L31.7778 40.8753C31.8459 40.677 31.8775 40.4939 31.9446 40.2955C31.9965 40.0931 32.0443 39.9101 32.0961 39.7117L32.2273 39.1116C32.3301 38.7098 32.3779 38.309 32.4461 37.9276C32.5132 37.5258 32.5447 37.1281 32.5966 36.7274C32.6485 36.3256 32.68 35.9289 32.6962 35.5271C32.7319 34.7287 32.7319 33.9099 32.68 33.1114C32.5803 31.5104 32.3464 29.9135 31.9293 28.3796C31.8459 28.0612 31.5123 27.8792 31.1939 27.9626C30.8918 28.046 30.7098 28.3277 30.7565 28.6095C30.96 30.1281 31.0912 31.6457 31.1268 33.1592C31.142 34.6768 31.0434 36.1944 30.8084 37.6774C30.5897 39.1594 30.2246 40.6292 29.7394 42.0593C29.4892 42.7591 29.2034 43.4782 28.886 44.1414L28.3846 45.1423C28.3011 45.3091 28.2025 45.4759 28.1191 45.6275C28.0357 45.778 27.9156 45.9418 27.8322 46.076L27.817 46.1086C27.6339 46.3944 27.7173 46.7595 28.0001 46.9264C28.234 47.1257 28.5514 47.0779 28.7548 46.843Z" fill="#222E6A"/>
<path d="M24.6781 78.9229C21.3845 83.9059 16.2906 86.7702 15.0029 89.6864C13.5168 93.0562 15.6864 96.3701 20.3989 96.8705C24.4279 97.3038 31.8104 94.8718 38.6599 86.0388" fill="white"/>
<path d="M24.1775 78.5894C23.073 80.1548 21.77 81.5737 20.351 82.9042C19.6482 83.5724 18.9128 84.2234 18.1936 84.8907C17.4582 85.5549 16.7239 86.2221 16.0048 86.9575C15.6548 87.3227 15.3049 87.7245 14.9876 88.1567C14.8198 88.3714 14.6692 88.6063 14.5339 88.8403L14.4353 89.0233L14.3356 89.2217C14.2685 89.357 14.2166 89.4719 14.1688 89.6072C13.7477 90.6406 13.6002 91.8409 13.8667 92.9882C14.002 93.5568 14.2318 94.1051 14.5502 94.5902C14.8675 95.0703 15.2531 95.5036 15.6864 95.8729C16.5571 96.6042 17.5742 97.0731 18.6107 97.3711C19.1315 97.5216 19.6634 97.6213 20.1801 97.6732C20.7162 97.7363 21.2685 97.7566 21.7852 97.721C22.3212 97.7048 22.838 97.6376 23.3547 97.5542C23.8755 97.4708 24.3759 97.3548 24.8764 97.2206C26.8832 96.6723 28.7385 95.7701 30.4585 94.6889C32.1795 93.6046 33.749 92.321 35.2035 90.9224C35.9226 90.2236 36.6052 89.4882 37.2571 88.7213C37.9091 87.9706 38.5286 87.1721 39.1287 86.3736C39.3311 86.1071 39.264 85.738 39.0138 85.5386C38.7636 85.3565 38.3933 85.388 38.195 85.6382C37.5755 86.3889 36.9398 87.1243 36.2878 87.8394C35.6205 88.5381 34.937 89.2217 34.2331 89.8737C32.8152 91.1726 31.2936 92.3566 29.656 93.3381C28.0194 94.3237 26.279 95.1385 24.4756 95.6033C24.026 95.7223 23.5734 95.822 23.1045 95.9054C22.6559 95.9888 22.187 96.0397 21.7374 96.056C21.2848 96.0722 20.8322 96.056 20.3988 96.0041C19.9492 95.9562 19.4966 95.8729 19.0796 95.7386C18.2252 95.5036 17.4064 95.1222 16.7747 94.5902C16.4574 94.3237 16.1716 94.0054 15.9569 93.6718C15.7382 93.3381 15.5867 92.9567 15.488 92.5712C15.3049 91.8043 15.369 90.9539 15.6864 90.1554C15.9722 89.3885 16.5408 88.6734 17.1765 87.9706C17.8082 87.2708 18.5273 86.6076 19.2301 85.9403C19.9492 85.2721 20.6653 84.5896 21.3682 83.8735C22.7708 82.4556 24.1094 80.9217 25.1947 79.2058C25.3615 78.923 25.2781 78.5578 25.0116 78.391C24.7096 78.2558 24.3596 78.3392 24.1775 78.5894Z" fill="#222E6A"/>
<path d="M36.4385 73.8053C36.4385 74.1196 36.5656 74.4217 36.824 74.7116C37.0783 75.0015 37.4445 75.2598 37.9174 75.4785C38.3894 75.7003 38.9346 75.8711 39.554 75.9942C40.1735 76.1142 40.8173 76.1732 41.4846 76.1732C42.1529 76.1732 42.7957 76.1142 43.4162 75.9942C44.0356 75.8711 44.5798 75.7003 45.0528 75.4785C45.5257 75.2598 45.8909 75.0015 46.1452 74.7116C46.4036 74.4217 46.5307 74.1196 46.5307 73.8053C46.5307 73.491 46.4036 73.1899 46.1452 72.899C45.8909 72.6091 45.5257 72.3548 45.0528 72.1331C44.5798 71.9103 44.0356 71.7394 43.4162 71.6205C42.7957 71.5004 42.1529 71.4414 41.4846 71.4414C40.8173 71.4414 40.1735 71.5004 39.554 71.6205C38.9346 71.7394 38.3894 71.9103 37.9174 72.1331C37.4445 72.3548 37.0783 72.6091 36.824 72.899C36.5656 73.1899 36.4385 73.491 36.4385 73.8053Z" fill="#FF8856"/>
<path d="M78.7458 71.2746C78.7458 71.5808 78.8537 71.8747 79.0683 72.1605C79.2859 72.4423 79.5921 72.6925 79.9939 72.9112C80.3906 73.1299 80.8513 73.2967 81.3762 73.4116C81.897 73.5317 82.4412 73.5906 83.0057 73.5906C83.5692 73.5906 84.1134 73.5317 84.6342 73.4116C85.159 73.2967 85.6198 73.1299 86.0175 72.9112C86.4182 72.6925 86.7244 72.4423 86.9431 72.1605C87.1577 71.8747 87.2645 71.5808 87.2645 71.2746C87.2645 70.9644 87.1577 70.6704 86.9431 70.3887C86.7244 70.1018 86.4182 69.8516 86.0175 69.637C85.6198 69.4193 85.159 69.2515 84.6342 69.1325C84.1134 69.0175 83.5692 68.9575 83.0057 68.9575C82.4412 68.9575 81.897 69.0175 81.3762 69.1325C80.8513 69.2515 80.3906 69.4193 79.9939 69.637C79.5921 69.8516 79.2859 70.1018 79.0683 70.3887C78.8537 70.6704 78.7458 70.9644 78.7458 71.2746Z" fill="#FF8856"/>
</svg>
