<svg width="16" height="19" viewBox="0 0 16 19" fill="none" xmlns="http://www.w3.org/2000/svg">
<path d="M13.9525 8.38379H13.1154V5.87231C13.1154 2.94924 10.7365 0.570312 7.81339 0.570312C4.89031 0.570312 2.51138 2.94924 2.51138 5.87231V8.38379H1.67422C0.749863 8.38379 -9.15527e-05 9.13374 -9.15527e-05 10.0581V16.7554C-9.15527e-05 17.6797 0.749863 18.4297 1.67422 18.4297H13.9525C14.8769 18.4297 15.6269 17.6797 15.6269 16.7554V10.0581C15.6269 9.13374 14.8769 8.38379 13.9525 8.38379ZM10.3249 8.38379H5.30191V5.87231C5.30191 4.48752 6.42859 3.36084 7.81339 3.36084C9.19818 3.36084 10.3249 4.48752 10.3249 5.87231V8.38379Z" fill="#A5ADB8"/>
</svg>
