<svg width="16" height="16" viewBox="0 0 16 16" fill="none" xmlns="http://www.w3.org/2000/svg">
<g clip-path="url(#clip0_10_6196)">
<path d="M14 4.48669C13.9867 4.48669 13.9667 4.48669 13.9467 4.48669C10.42 4.13336 6.9 4.00002 3.41334 4.35336L2.05334 4.48669C1.77334 4.51336 1.52667 4.31336 1.50001 4.03336C1.47334 3.75336 1.67334 3.51336 1.94668 3.48669L3.30668 3.35336C6.85335 2.99336 10.4467 3.13336 14.0467 3.48669C14.32 3.51336 14.52 3.76002 14.4933 4.03336C14.4733 4.29336 14.2533 4.48669 14 4.48669Z" fill="#FE8432"/>
<path d="M5.6667 3.81337C5.64003 3.81337 5.61337 3.81337 5.58003 3.8067C5.31336 3.76003 5.1267 3.50003 5.17336 3.23337L5.32003 2.36004C5.4267 1.72004 5.57336 0.833374 7.1267 0.833374H8.87337C10.4334 0.833374 10.58 1.75337 10.68 2.3667L10.8267 3.23337C10.8734 3.5067 10.6867 3.7667 10.42 3.8067C10.1467 3.85337 9.88671 3.6667 9.84671 3.40003L9.70004 2.53336C9.60671 1.95336 9.58671 1.84003 8.88004 1.84003H7.13337C6.4267 1.84003 6.41337 1.93336 6.31337 2.5267L6.16004 3.39337C6.12004 3.64004 5.9067 3.81337 5.6667 3.81337Z" fill="#FE8432"/>
<path d="M10.14 15.1667H5.85997C3.5333 15.1667 3.43997 13.88 3.36664 12.84L2.93331 6.12671C2.91331 5.85338 3.12664 5.61338 3.39998 5.59338C3.67998 5.58005 3.91331 5.78671 3.93331 6.06005L4.36664 12.7734C4.43997 13.7867 4.46664 14.1667 5.85997 14.1667H10.14C11.54 14.1667 11.5666 13.7867 11.6333 12.7734L12.0666 6.06005C12.0866 5.78672 12.3266 5.58005 12.6 5.59338C12.8733 5.61338 13.0866 5.84671 13.0666 6.12671L12.6333 12.84C12.56 13.88 12.4666 15.1667 10.14 15.1667Z" fill="#FE8432"/>
<path d="M9.10666 11.5H6.88666C6.61333 11.5 6.38666 11.2733 6.38666 11C6.38666 10.7267 6.61333 10.5 6.88666 10.5H9.10666C9.37999 10.5 9.60666 10.7267 9.60666 11C9.60666 11.2733 9.37999 11.5 9.10666 11.5Z" fill="#FE8432"/>
<path d="M9.66664 8.83337H6.33331C6.05998 8.83337 5.83331 8.6067 5.83331 8.33337C5.83331 8.06004 6.05998 7.83337 6.33331 7.83337H9.66664C9.93997 7.83337 10.1666 8.06004 10.1666 8.33337C10.1666 8.6067 9.93997 8.83337 9.66664 8.83337Z" fill="#FE8432"/>
</g>
<defs>
<clipPath id="clip0_10_6196">
<rect width="16" height="16" fill="white"/>
</clipPath>
</defs>
</svg>
