<svg width="22" height="20" viewBox="0 0 22 20" fill="none" xmlns="http://www.w3.org/2000/svg">
<path d="M21.14 9.43002L19.88 16.97C19.59 18.64 17.99 20 16.3 20H5.69999C3.98999 20 2.41999 18.67 2.12999 16.98L0.869993 9.44002C0.669993 8.26002 1.23999 6.76002 2.17999 6.01002L8.72999 0.760018C9.99999 -0.259982 12 -0.249982 13.28 0.770018L19.83 6.01002C20.75 6.76002 21.32 8.26002 21.14 9.43002ZM11.75 13C11.75 12.59 11.41 12.25 11 12.25C10.59 12.25 10.25 12.59 10.25 13V16C10.25 16.41 10.59 16.75 11 16.75C11.41 16.75 11.75 16.41 11.75 16V13Z" fill="white"/>
</svg>
