<svg width="24" height="24" viewBox="0 0 24 24" fill="none" xmlns="http://www.w3.org/2000/svg">
<g clip-path="url(#clip0_10_6119)">
<path d="M17 20.75H7C2.59 20.75 1.25 19.41 1.25 15V14.5C1.25 14.09 1.59 13.75 2 13.75C2.96 13.75 3.75 12.96 3.75 12C3.75 11.04 2.96 10.25 2 10.25C1.59 10.25 1.25 9.91 1.25 9.5V9C1.25 4.59 2.59 3.25 7 3.25H17C21.41 3.25 22.75 4.59 22.75 9V10C22.75 10.41 22.41 10.75 22 10.75C21.04 10.75 20.25 11.54 20.25 12.5C20.25 13.46 21.04 14.25 22 14.25C22.41 14.25 22.75 14.59 22.75 15C22.75 19.41 21.41 20.75 17 20.75ZM2.75 15.16C2.77 18.6 3.48 19.25 7 19.25H17C20.34 19.25 21.15 18.66 21.24 15.66C19.81 15.32 18.75 14.03 18.75 12.5C18.75 10.97 19.82 9.68 21.25 9.34V9C21.25 5.43 20.57 4.75 17 4.75H7C3.48 4.75 2.77 5.4 2.75 8.84C4.18 9.18 5.25 10.47 5.25 12C5.25 13.53 4.18 14.82 2.75 15.16Z" fill="#A5ADB8"/>
<path d="M15 15.88C14.44 15.88 13.99 15.43 13.99 14.88C13.99 14.33 14.44 13.88 14.99 13.88C15.54 13.88 15.99 14.33 15.99 14.88C15.99 15.43 15.56 15.88 15 15.88Z" fill="#A5ADB8"/>
<path d="M9.00001 10.88C8.44001 10.88 7.99001 10.43 7.99001 9.88C7.99001 9.33 8.44001 8.88 8.99001 8.88C9.54001 8.88 9.99001 9.33 9.99001 9.88C9.99001 10.43 9.56001 10.88 9.00001 10.88Z" fill="#A5ADB8"/>
<path d="M8.63001 16.43C8.44001 16.43 8.25001 16.36 8.10001 16.21C7.81001 15.92 7.81001 15.44 8.10001 15.15L14.83 8.42001C15.12 8.13001 15.6 8.13001 15.89 8.42001C16.18 8.71001 16.18 9.19001 15.89 9.48001L9.16001 16.21C9.02001 16.36 8.82001 16.43 8.63001 16.43Z" fill="#A5ADB8"/>
</g>
<defs>
<clipPath id="clip0_10_6119">
<rect width="24" height="24" fill="white"/>
</clipPath>
</defs>
</svg>
