<svg width="22" height="20" viewBox="0 0 22 20" fill="none" xmlns="http://www.w3.org/2000/svg">
<path d="M11 19.65C10.69 19.65 10.39 19.61 10.14 19.52C6.32 18.21 0.25 13.56 0.25 6.68998C0.25 3.18998 3.08 0.349976 6.56 0.349976C8.25 0.349976 9.83 1.00998 11 2.18998C12.17 1.00998 13.75 0.349976 15.44 0.349976C18.92 0.349976 21.75 3.19998 21.75 6.68998C21.75 13.57 15.68 18.21 11.86 19.52C11.61 19.61 11.31 19.65 11 19.65ZM6.56 1.84998C3.91 1.84998 1.75 4.01998 1.75 6.68998C1.75 13.52 8.32 17.32 10.63 18.11C10.81 18.17 11.2 18.17 11.38 18.11C13.68 17.32 20.26 13.53 20.26 6.68998C20.26 4.01998 18.1 1.84998 15.45 1.84998C13.93 1.84998 12.52 2.55998 11.61 3.78998C11.33 4.16998 10.69 4.16998 10.41 3.78998C9.48 2.54998 8.08 1.84998 6.56 1.84998Z" fill="#A5ADB8"/>
</svg>
