<svg width="282" height="208" viewBox="0 0 282 208" fill="none" xmlns="http://www.w3.org/2000/svg">
<rect x="38.3252" y="160.179" width="243.297" height="1" fill="#EBEBEB"/>
<rect x="83.5186" y="163.492" width="35.9052" height="1" fill="#EBEBEB"/>
<rect x="226.974" y="164.31" width="4.23011" height="1" fill="#EBEBEB"/>
<rect x="73.6934" y="168.011" width="9.33891" height="1" fill="#EBEBEB"/>
<rect x="160.622" y="166.364" width="23.6809" height="1" fill="#EBEBEB"/>
<rect x="188.636" y="166.364" width="11.8628" height="1" fill="#EBEBEB"/>
<rect x="239.967" y="164.31" width="16.1292" height="1" fill="#EBEBEB"/>
<path d="M166.293 138.477H260.253C261.785 138.477 263.031 137.231 263.031 135.7V3.6227C263.031 2.09138 261.785 0.845703 260.253 0.845703H166.293C164.762 0.845703 163.516 2.09138 163.516 3.6227V135.7C163.516 137.231 164.762 138.477 166.293 138.477ZM260.253 0.96735C261.718 0.96735 262.909 2.15854 262.909 3.6227V135.7C262.909 137.165 261.718 138.356 260.253 138.356H166.293C164.828 138.356 163.637 137.165 163.637 135.7V3.6227C163.637 2.15854 164.828 0.96735 166.293 0.96735H260.253Z" fill="#EBEBEB"/>
<path d="M61.0446 138.477H155.005C156.536 138.477 157.782 137.231 157.782 135.7V3.6227C157.782 2.09138 156.536 0.845703 155.005 0.845703H61.0446C59.5128 0.845703 58.2666 2.09138 58.2666 3.6227V135.7C58.2666 137.231 59.5128 138.477 61.0446 138.477ZM155.005 0.96735C156.469 0.96735 157.66 2.15854 157.66 3.6227V135.7C157.66 137.165 156.469 138.356 155.005 138.356H61.0446C59.5799 138.356 58.3883 137.165 58.3883 135.7V3.6227C58.3883 2.15854 59.5799 0.96735 61.0446 0.96735H155.005Z" fill="#EBEBEB"/>
<rect x="121.655" y="158.78" width="75.3045" height="1.39823" fill="#F0F0F0"/>
<path d="M92.791 102.203C92.791 102.203 86.5568 110.945 77.418 103.48C68.9338 96.5498 77.273 79.771 77.273 79.771C77.273 79.771 67.4107 82.8716 65.8152 69.862C64.2196 56.8529 78.219 60.1603 78.219 60.1603C73.2348 50.2416 78.9508 49.9491 83.2207 50.8163C81.9249 48.3736 81.5137 45.3985 84.5968 42.8804C91.6456 37.123 96.4536 43.8648 96.4536 43.8648C96.4536 43.8648 100.12 31.2527 108.801 38.6134V109.012C97.5455 118.556 92.791 102.203 92.791 102.203Z" fill="#F5F5F5"/>
<rect x="105.557" y="33.3325" width="143.789" height="126.846" fill="#FAFAFA"/>
<path d="M115.902 13.6279H239L249.345 33.3326H105.557L115.902 13.6279Z" fill="#F0F0F0"/>
<path d="M127.152 147.156V134.134H135.601V121.111H197.1V134.134H188.652V147.156H180.203V160.179H118.704V147.156H127.152Z" fill="#F5F5F5"/>
<path d="M197.1 121.111V134.134H188.652V147.156H180.203V160.179H249.345V121.111H197.1Z" fill="#EBEBEB"/>
<rect x="135.601" y="132.735" width="61.4992" height="1.39823" fill="#F0F0F0"/>
<rect x="127.152" y="145.758" width="61.4992" height="1.39823" fill="#F0F0F0"/>
<rect x="201.335" y="44.8242" width="40.4414" height="76.2873" fill="#F0F0F0"/>
<rect x="241.776" y="44.8242" width="1" height="76.2873" fill="#E6E6E6"/>
<circle cx="207.376" cy="82.9678" r="2.24369" fill="#FAFAFA"/>
<rect x="128.51" y="44.8242" width="58.7845" height="58.6617" fill="#F5F5F5"/>
<rect x="237.999" y="154.616" width="53.1556" height="53.8828" transform="rotate(90 237.999 154.616)" fill="white"/>
<path d="M184.844 47.5771V100.733H183.256C183.256 100.733 175.99 83.3374 173.964 47.5771H184.844Z" fill="#FAFAFA"/>
<path d="M130.961 47.5771V100.733H132.549C132.549 100.733 139.815 83.3374 141.841 47.5771H130.961Z" fill="#FAFAFA"/>
<rect x="129.523" y="72.3071" width="56.7571" height="3.69588" fill="#F5F5F5"/>
<rect x="216.507" y="106.229" width="56.757" height="3.69583" transform="rotate(90 216.507 106.229)" fill="#F5F5F5"/>
<ellipse cx="159.973" cy="176.645" rx="94.3453" ry="5.5099" fill="#F5F5F5"/>
<path d="M189.619 147.746H209.31V172.168C209.31 174.64 207.305 176.645 204.833 176.645H194.096C191.623 176.645 189.619 174.64 189.619 172.168V147.746Z" fill="#5965B1"/>
<path opacity="0.2" d="M189.619 147.746H209.31V159.343L189.619 155.074V147.746Z" fill="black"/>
<path d="M181.15 112.691C181.15 97.371 168.731 84.9517 153.411 84.9517C138.091 84.9517 125.672 97.371 125.672 112.691V147.746H181.15V112.691Z" fill="#407BFF"/>
<path d="M181.15 112.691C181.15 97.371 168.731 84.9517 153.411 84.9517C138.091 84.9517 125.672 97.371 125.672 112.691V147.746H181.15V112.691Z" fill="#262E61"/>
<path d="M246.446 112.687V144.29C246.446 146.201 244.897 147.749 242.987 147.749H181.148V112.687C181.148 106.265 178.973 100.365 175.304 95.6645C170.235 89.1398 162.311 84.9502 153.412 84.9502H218.71C227.608 84.9502 235.533 89.1398 240.602 95.6645C244.271 100.365 246.446 106.265 246.446 112.687Z" fill="#5965B1"/>
<rect opacity="0.2" x="181.148" y="127.674" width="65.2977" height="9.73067" fill="black"/>
<rect opacity="0.2" x="181.148" y="114.914" width="65.2977" height="9.73067" fill="black"/>
<rect x="177.058" y="83.2471" width="7.94769" height="1" fill="#407BFF"/>
<rect x="189.168" y="83.2471" width="4.27123" height="1" fill="#407BFF"/>
<path d="M214.511 121.805V82.3787C214.511 81.7101 215.111 81.2012 215.771 81.3102L229.527 83.584V89.2927H219.013V121.713C220.786 122.53 222.019 124.318 222.019 126.398C222.019 129.249 219.708 131.56 216.857 131.56C214.007 131.56 211.695 129.249 211.695 126.398C211.695 124.393 212.841 122.659 214.511 121.805Z" fill="#263238"/>
<path d="M177.204 151.694H106.042C104.953 151.694 104.069 150.811 104.069 149.722C104.069 148.632 104.953 147.749 106.042 147.749H181.15C181.15 149.928 179.383 151.694 177.204 151.694Z" fill="#47518E"/>
<path d="M177.204 151.694H148.124C147.035 151.694 146.151 150.811 146.151 149.722C146.151 148.632 147.035 147.749 148.124 147.749H181.15C181.15 149.928 179.384 151.694 177.204 151.694Z" fill="#262E61"/>
<path d="M91.5076 83.2477L81.1329 113.853C80.2887 116.343 81.6355 119.072 84.1254 119.916L153.775 143.526C156.265 144.37 158.993 143.023 159.838 140.533L170.212 109.928C170.414 109.332 170.492 108.718 170.453 108.125C170.344 106.237 169.114 104.507 167.219 103.865L97.57 80.2551C95.6796 79.6143 93.6466 80.2376 92.4136 81.6662C92.0209 82.1178 91.711 82.6482 91.5076 83.2477Z" fill="#407BFF"/>
<path d="M91.5076 83.2477L81.1329 113.853C80.2887 116.343 81.6355 119.072 84.1254 119.916L153.775 143.526C156.265 144.37 158.993 143.023 159.838 140.533L170.212 109.928C170.414 109.332 170.492 108.718 170.453 108.125C170.344 106.237 169.114 104.507 167.219 103.865L97.57 80.2551C95.6796 79.6143 93.6466 80.2376 92.4136 81.6662C92.0209 82.1178 91.711 82.6482 91.5076 83.2477Z" fill="#F3CA9C"/>
<path d="M92.4141 81.6662L121.225 107.422C124.15 110.036 128.013 111.346 131.925 111.049L170.454 108.125C170.345 106.237 169.114 104.507 167.22 103.865L97.5705 80.2551C95.6801 79.6143 93.6471 80.2376 92.4141 81.6662Z" fill="#FF8856"/>
<path d="M75.2471 117.353C75.2804 117.469 75.3128 117.588 75.3813 117.697L76.0034 118.655L80.1769 115.964L75.2471 117.353Z" fill="white"/>
<path d="M80.9909 99.7197C81.9667 103.636 83.1961 107.426 86.0244 110.507C87.7889 112.54 91.5143 112.022 93.264 109.928C93.5686 112.463 91.5902 114.677 87.9555 115.071C84.2922 115.465 77.5692 113.252 71.335 105.212L80.9909 99.7197Z" fill="#DAC9DB"/>
<path d="M86.0237 110.507C83.2103 107.426 81.966 103.636 80.9902 99.7199L82.9825 98.584C85.9802 103.119 91.683 105.878 92.8514 108.532C93.0652 109.003 93.1873 109.473 93.2495 109.929C91.5136 112.023 87.7883 112.54 86.0237 110.507Z" fill="white"/>
<path d="M82.5409 98.8874C83.0437 99.691 83.6223 100.45 84.2629 101.13C84.885 101.828 85.5535 102.482 86.2376 103.119C87.6078 104.362 89.0834 105.484 90.4036 106.684C90.7249 106.985 91.0434 107.289 91.3322 107.606C91.622 107.925 91.8784 108.247 92.0636 108.565C92.1061 108.641 92.1394 108.731 92.182 108.807C92.2293 108.898 92.258 108.989 92.2913 109.078C92.3524 109.263 92.4135 109.444 92.457 109.639C92.5329 110.019 92.5653 110.399 92.519 110.764C92.4431 111.505 92.1061 112.203 91.5747 112.749C91.0434 113.295 90.3277 113.707 89.5538 113.965C88.7761 114.221 87.9262 114.358 87.1051 114.358C86.27 114.373 85.4164 114.221 84.5665 114.026L83.9408 113.855L83.3186 113.66L83.015 113.555L82.7113 113.432L82.1003 113.191C81.9049 113.115 81.7059 113.009 81.5069 112.916C81.3115 112.825 81.1125 112.734 80.9143 112.63L80.3385 112.311L80.0497 112.159L79.8978 112.083L79.7599 111.994C78.2379 111.082 76.8094 110.004 75.4856 108.793C74.1626 107.592 72.9471 106.258 71.7898 104.876V104.862C71.5945 104.634 71.2584 104.605 71.0307 104.786C70.803 104.971 70.7733 105.303 70.94 105.531C72.05 107.018 73.2655 108.428 74.6033 109.733L75.6374 110.688L76.7187 111.581C77.0844 111.871 77.4788 112.145 77.8435 112.417C78.024 112.554 78.2379 112.673 78.4222 112.81L79.0156 113.191C80.6097 114.192 82.3604 114.98 84.2305 115.465C85.1739 115.693 86.1321 115.859 87.1199 115.859C88.1253 115.859 89.0973 115.707 90.0703 115.389C91.0285 115.071 91.9543 114.553 92.6847 113.779C93.43 113.024 93.9475 111.994 94.0373 110.901C94.0993 110.355 94.0373 109.824 93.9327 109.306C93.8716 109.05 93.7957 108.807 93.705 108.547C93.6577 108.428 93.6142 108.304 93.5531 108.185C93.4911 108.063 93.43 107.925 93.3541 107.82C93.0828 107.35 92.7607 106.97 92.4283 106.608C92.0922 106.258 91.7414 105.925 91.3794 105.622C90.6638 104.999 89.9472 104.439 89.2353 103.861C88.5187 103.3 87.8207 102.725 87.1337 102.131C85.7673 100.964 84.4907 99.7048 83.4852 98.2662C83.3186 98.0236 82.9677 97.9616 82.7261 98.1282C82.4511 98.3088 82.3891 98.6458 82.5409 98.8874Z" fill="#775E82"/>
<path d="M89.6303 68.5653C90.8773 69.2199 89.4785 70.84 88.6573 71.1001C87.0149 71.6464 85.4309 72.3259 83.8802 73.0091C84.3969 73.8155 85.0514 74.4811 86.0715 74.7236C89.858 75.1643 93.2639 73.1609 95.7275 70.1271C96.6856 68.8542 97.2781 67.2924 97.492 65.6686C97.8568 66.1528 98.0845 66.5795 98.1141 66.9119C98.3271 69.4615 95.9728 76.0577 83.1674 80.0469H83.0766C80.9474 80.5024 81.4316 78 80.9474 75.7106C80.3687 72.9656 79.1532 68.7635 77.6016 65.9426L79.2115 65.1362C79.0162 65.1224 78.8023 65.0937 78.5894 65.0789C82.3138 65.003 86.0568 66.5471 89.6303 68.5653Z" fill="#752B0B"/>
<path d="M25.7283 80.6391C25.6199 81.9742 25.0598 83.8544 25.2117 85.1274C25.2728 85.6736 24.5275 87.4057 24.6182 87.9195C23.7832 87.8288 22.6722 86.3281 21.8335 86.0717C21.2114 85.8726 20.543 85.6736 19.8588 85.4495C16.301 84.2812 12.2535 82.5055 11.4805 78.4404C15.6465 79.3051 21.4539 80.2892 25.7283 80.6391Z" fill="#752B0B"/>
<path d="M4.43945 77.5444C6.73633 84.386 14.5796 89.1491 24.7993 88.7075C24.6475 88.0715 24.4956 87.3448 24.3586 86.556C23.5226 86.4653 22.6727 86.3134 21.834 86.0533C21.2119 85.8579 20.5434 85.6589 19.8593 85.4312C13.8204 85.4784 7.81396 82.8381 4.43945 77.5444Z" fill="#752B0B"/>
<path d="M35.1095 107.64C32.9506 111.021 30.3973 113.917 27.3237 116.42C20.7849 122.032 12.5723 123.096 5.12246 126.734C4.78642 126.903 4.46794 127.084 4.15039 127.265C4.45404 127.023 4.77159 126.766 5.10857 126.491C8.92374 123.367 12.2538 119.895 15.0533 115.935C15.9356 116.543 17.0891 116.98 18.5028 117.132C22.0939 117.512 28.9512 115.375 35.1095 107.64Z" fill="#DAC9DB"/>
<path d="M27.5989 85.4024C26.7926 85.507 25.9862 85.569 25.165 85.6153C26.0945 75.9381 28.4812 53.1704 53.1626 51.8641C62.7426 51.3651 71.8661 55.8097 77.0376 64.3047C78.2707 66.323 79.2113 68.4745 79.9556 70.7639C72.3976 68.0949 63.7007 68.8068 56.3704 71.9785C48.0059 75.6206 40.708 81.0809 32.1917 84.2637C30.6873 84.8423 29.1496 85.1895 27.5989 85.4024Z" fill="#DAC9DB"/>
<path d="M25.0265 87.0549C25.0737 86.6179 25.1209 86.1291 25.1644 85.6153C25.9856 85.5829 26.792 85.507 27.5983 85.4023C26.6864 90.6821 25.1644 96.0488 22.4121 100.631C23.6452 96.5191 24.5099 92.017 25.0265 87.0549Z" fill="#DAC9DB"/>
<path d="M4.15025 127.265C4.4678 127.07 4.78627 126.903 5.12232 126.734C12.5721 123.096 20.7847 122.032 27.3235 116.42C30.3971 113.917 32.9504 111.021 35.1094 107.64C35.3084 107.335 35.4926 107.032 35.688 106.714C35.5074 107.032 35.3084 107.335 35.1094 107.64C28.951 115.375 22.0938 117.512 18.4888 117.118C17.0751 116.966 15.9179 116.543 15.0384 115.921C18.1231 111.537 20.5718 106.576 22.3215 100.845C22.3363 100.769 22.365 100.693 22.3835 100.617C25.1359 96.0342 26.6542 90.6822 27.5688 85.3877C29.1205 85.1896 30.6535 84.8276 32.1616 84.249C40.6752 81.0633 47.9759 75.6021 56.3412 71.9638C63.6716 68.793 72.3684 68.0801 79.9265 70.7492C82.527 78.7118 82.6029 88.3603 82.939 99.7808C83.3945 115.403 83.8972 119.805 86.132 128.903C87.1661 133.091 88.0493 134.425 87.1957 136.639C84.7618 143.011 78.6785 144.829 72.0934 144.117C70.39 143.937 68.7051 144.616 66.6508 146.515C60.4165 152.279 54.9415 153.643 47.488 151.065C42.6526 149.397 42.6239 146.667 39.2791 147.726C31.7969 150.11 25.8663 151.05 21.0273 147.123C16.9224 143.785 19.0526 141.297 16.6187 141.51C7.571 142.283 2.3996 137.294 1.25997 133.319C0.497107 130.498 1.8682 129.146 4.15025 127.265Z" fill="white"/>
<path d="M40.4935 148.396C40.9962 148.349 41.3906 148.425 41.8933 148.728C42.396 149.018 42.9274 149.456 43.506 149.853C44.6595 150.671 45.9834 151.321 47.3211 151.763C48.645 152.186 49.9976 152.551 51.3825 152.765C52.7675 152.96 54.196 153.036 55.6106 152.902L56.142 152.841C56.3262 152.826 56.4928 152.808 56.6734 152.765L57.7223 152.566L58.7416 152.28C58.9119 152.233 59.0786 152.171 59.2443 152.11L59.747 151.929C61.0709 151.416 62.3151 150.761 63.4862 149.987C63.6381 149.897 63.776 149.792 63.9278 149.701L64.7814 149.094C64.9184 148.986 65.0526 148.88 65.1897 148.776L66.0108 148.14L66.8024 147.47L67.5624 146.819C67.8078 146.605 68.0651 146.425 68.3253 146.241C68.8391 145.879 69.3742 145.575 69.9056 145.362C70.3759 145.181 70.6036 144.649 70.4231 144.179C70.2379 143.709 69.7065 143.481 69.2363 143.662C69.2224 143.676 69.189 143.676 69.1752 143.695C68.4771 144.027 67.8513 144.436 67.2912 144.892C67.0014 145.12 66.7265 145.347 66.4663 145.59L65.721 146.288L64.9943 146.953L64.2315 147.593C64.112 147.698 63.9889 147.802 63.8519 147.912L63.4575 148.197L63.0631 148.487C62.9261 148.591 62.803 148.685 62.666 148.776L61.8448 149.322C61.5698 149.488 61.2838 149.64 60.9949 149.806C60.857 149.882 60.72 149.973 60.5681 150.035L60.1266 150.247L59.6859 150.458L59.5813 150.504L59.472 150.547L59.2443 150.642L58.7888 150.808C58.637 150.87 58.4851 150.927 58.3333 150.96L57.4038 151.231L56.4595 151.416C56.3077 151.459 56.142 151.459 55.9902 151.473L55.5051 151.535C54.2247 151.64 52.9193 151.582 51.6251 151.383C50.3484 151.155 49.0718 150.808 47.8238 150.367C47.2165 150.139 46.6231 149.897 46.0741 149.593C45.5131 149.289 44.9817 148.942 44.479 148.563C43.9615 148.168 43.4597 147.727 42.8191 147.29L42.6996 147.214L42.5626 147.138C42.4719 147.091 42.3784 147.029 42.2876 146.986C42.0923 146.895 41.8933 146.801 41.6803 146.743C41.5748 146.711 41.4665 146.668 41.3619 146.653L41.0258 146.605C40.9203 146.592 40.812 146.592 40.6925 146.592H40.3565C39.8537 146.592 39.4455 146.986 39.4307 147.485C39.4307 147.988 39.825 148.396 40.3278 148.411C40.3565 148.411 40.3889 148.411 40.4176 148.411L40.4935 148.396Z" fill="#222E6A"/>
<path d="M17.0889 142.418C17.1362 142.418 17.1362 142.418 17.1213 142.403C17.1038 142.389 17.1038 142.374 17.1362 142.418C17.1649 142.465 17.2121 142.555 17.2408 142.66C17.288 142.769 17.3167 142.906 17.3639 143.04C17.5305 143.586 17.7434 144.208 18.0471 144.768C18.3369 145.332 18.7165 145.846 19.1284 146.316C19.5376 146.786 19.9783 147.195 20.4523 147.574C21.3781 148.334 22.4122 148.97 23.5222 149.456C24.0869 149.683 24.647 149.896 25.2256 150.048C25.8043 150.2 26.3977 150.304 26.9902 150.381C28.177 150.533 29.3629 150.533 30.535 150.442C31.1275 150.395 31.7024 150.338 32.2811 150.247C32.8597 150.153 33.4383 150.063 33.9993 149.957C35.1417 149.73 36.2665 149.456 37.3765 149.169C37.9413 149.032 38.4866 148.88 39.0327 148.728C39.3077 148.652 39.5975 148.562 39.8252 148.515C40.0669 148.471 40.2955 148.439 40.4936 148.424C40.9963 148.41 41.4055 148.001 41.3908 147.498C41.3769 146.999 40.964 146.591 40.465 146.605C40.4325 146.605 40.4177 146.605 40.389 146.605H40.3715C40.0243 146.635 39.6873 146.724 39.3698 146.819C39.0327 146.924 38.805 147.014 38.5338 147.104C37.9987 147.289 37.4673 147.47 36.9359 147.636C35.8721 147.969 34.7908 148.272 33.6957 148.515C31.5367 149.003 29.3158 149.274 27.1717 149.018C26.6402 148.942 26.1079 148.851 25.5913 148.714C25.0738 148.576 24.5711 148.396 24.0869 148.183C23.1139 147.741 22.2132 147.166 21.4105 146.468C21.0124 146.121 20.6328 145.741 20.3005 145.347C19.9783 144.953 19.6895 144.526 19.4941 144.07C19.2803 143.618 19.1433 143.163 19.0201 142.617C18.9914 142.479 18.9442 142.327 18.9007 142.175C18.8535 142.009 18.7924 141.843 18.6877 141.629C18.5794 141.434 18.4128 141.173 18.1555 140.993C17.9101 140.812 17.6388 140.722 17.3926 140.661H17.3639C16.876 140.551 16.3909 140.87 16.2826 141.373C16.178 141.857 16.4964 142.342 16.9982 142.45C17.0278 142.403 17.0602 142.403 17.0889 142.418Z" fill="#222E6A"/>
<path d="M53.1148 50.9567C51.7919 51.0474 50.4856 51.1844 49.1766 51.3946C47.8712 51.6075 46.5769 51.8973 45.3003 52.2769C42.7618 53.0323 40.2955 54.1423 38.0931 55.6291C35.8869 57.115 33.9086 58.949 32.2958 61.057C31.4932 62.1059 30.7479 63.2122 30.0934 64.3481C29.4389 65.4869 28.8603 66.67 28.3427 67.8847C27.3235 70.2935 26.5495 72.8135 25.9709 75.3594C25.3923 77.909 25.0127 80.4734 24.7229 83.0518C24.5859 84.3395 24.4665 85.6301 24.3434 86.903L24.1156 88.7981L23.9925 89.7563C23.9638 90.0747 23.9166 90.3932 23.8592 90.6968L23.5518 92.5771L23.4 93.5177L23.2046 94.4574L22.8066 96.3238L22.7631 96.5515L22.5788 97.2348L22.3363 98.1568L22.0937 99.0826C22.0474 99.2344 22.0178 99.3863 21.9715 99.539L21.8335 99.9945L21.2735 101.814C21.2262 101.965 21.179 102.117 21.1355 102.269L20.9698 102.71L20.6328 103.603L20.3005 104.5C20.2384 104.652 20.1921 104.8 20.1301 104.938L19.9496 105.379L19.2044 107.122C19.0812 107.411 18.9442 107.701 18.7924 107.987L18.3656 108.837L17.9425 109.686C17.8814 109.824 17.7907 109.975 17.7148 110.11L17.487 110.522L16.5575 112.189L15.5373 113.798L15.2809 114.206L15.1577 114.402L15.0207 114.601L13.9283 116.148L13.6533 116.543L13.3645 116.922L12.1776 118.408C12.0879 118.528 11.9795 118.651 11.874 118.77L11.5565 119.136L10.9306 119.848C10.7168 120.09 10.5214 120.332 10.3085 120.561L8.97075 121.927C8.743 122.155 8.52915 122.383 8.30138 122.593L6.90162 123.898C6.77848 124.003 6.67388 124.112 6.55076 124.217L6.18598 124.52L4.72509 125.765C4.48253 125.978 4.22611 126.173 3.97985 126.372C3.48086 126.78 2.97814 127.189 2.47545 127.645C1.97274 128.1 1.48856 128.599 1.06176 129.207C0.862738 129.511 0.667395 129.858 0.529455 130.223L0.439642 130.498C0.407248 130.589 0.392431 130.679 0.363745 130.784L0.301718 131.073C0.287802 131.164 0.287802 131.268 0.269308 131.363C0.193396 132.136 0.331335 132.877 0.51557 133.562C0.923849 134.924 1.64039 136.14 2.52267 137.199C3.40494 138.263 4.45383 139.174 5.59255 139.9C6.17116 140.28 6.76458 140.598 7.38672 140.888C8.0116 141.173 8.64855 141.416 9.28827 141.615C10.5798 142.023 11.9175 142.266 13.2738 142.374C13.9431 142.418 14.6263 142.45 15.2957 142.432L15.7984 142.418L16.3011 142.389L16.7705 142.359C16.8936 142.359 16.9843 142.359 17.0454 142.374C17.5305 142.479 18.0184 142.161 18.123 141.676C18.2323 141.192 17.9101 140.703 17.425 140.598C17.4111 140.598 17.3926 140.598 17.3787 140.598H17.3491C17.0889 140.551 16.8612 140.551 16.6483 140.57L16.1632 140.598L15.7076 140.627L15.2485 140.646C14.6263 140.674 14.019 140.66 13.4108 140.613C12.1776 140.522 10.9778 140.323 9.80579 139.976C9.22718 139.811 8.64855 139.597 8.10238 139.34C7.55614 139.098 7.00715 138.809 6.50448 138.49C5.48795 137.853 4.54365 137.066 3.7697 136.154C2.99296 135.243 2.38473 134.198 2.04867 133.091C1.89684 132.545 1.80611 131.984 1.85332 131.481C1.89684 130.968 2.06717 130.498 2.37082 130.043C2.67451 129.587 3.08274 129.16 3.52434 128.737C3.97985 128.328 4.46773 127.92 4.95655 127.507C5.19817 127.298 5.45554 127.099 5.70087 126.886L7.19137 125.613L7.55614 125.294C7.67559 125.19 7.7987 125.067 7.92182 124.961L9.3355 123.609C9.57805 123.399 9.79098 123.157 10.0187 122.911L10.7029 122.198L11.3861 121.5C11.599 121.258 11.8129 121.016 12.0406 120.774L12.6803 120.032L12.9988 119.667C13.1071 119.544 13.2127 119.425 13.3173 119.288L14.5356 117.754L14.8393 117.378L15.129 116.98L15.6891 116.177L16.2539 115.375L16.3909 115.175L16.5288 114.966L16.7853 114.553L17.8194 112.901L18.7636 111.187L19.0053 110.764C19.0812 110.626 19.1719 110.474 19.234 110.323L20.0866 108.565C20.2246 108.276 20.3764 107.987 20.4958 107.682L21.2549 105.878L21.454 105.422C21.5151 105.271 21.5623 105.122 21.6206 104.971L21.9567 104.059L22.2891 103.148L22.4594 102.692C22.5029 102.544 22.5501 102.392 22.6112 102.222L23.1898 100.359L23.3241 99.8889C23.3704 99.7371 23.4 99.5677 23.4463 99.4159L23.6888 98.4753L23.9351 97.5347L24.0545 97.0653L24.1156 96.8228L24.1628 96.5802L24.5572 94.6712L24.7553 93.713L24.9072 92.7577L25.2256 90.8339C25.2877 90.5126 25.3164 90.1942 25.3636 89.8757L25.4858 88.9064L25.7144 86.9789C25.8478 85.6921 25.9561 84.4154 26.1079 83.1425C26.3977 80.6105 26.7772 78.0905 27.3559 75.6205C27.6447 74.3901 27.9632 73.1607 28.3575 71.9498C28.7556 70.749 29.1963 69.5668 29.6814 68.3985C30.1841 67.2449 30.7479 66.1238 31.3849 65.0314C32.0246 63.9538 32.7226 62.9086 33.5003 61.9356C35.051 59.9794 36.8886 58.2657 38.9753 56.9021C41.0584 55.5347 43.3691 54.5367 45.7706 53.8535C48.1748 53.1703 50.6846 52.8231 53.1908 52.7138C53.6934 52.6851 54.0878 52.2584 54.0591 51.7594C54.0295 51.2604 53.6036 50.866 53.1009 50.8956C53.1148 50.9567 53.1148 50.9567 53.1148 50.9567Z" fill="#222E6A"/>
<path d="M69.9063 145.376C70.409 145.148 70.9256 145.014 71.4431 144.996C71.5773 144.996 71.6995 144.996 71.8375 144.996C71.8986 144.996 71.9745 145.014 72.0365 145.014L72.2782 145.028C72.6114 145.058 72.9475 145.087 73.266 145.104C74.5898 145.18 75.9276 145.148 77.2654 144.967C78.6031 144.801 79.927 144.468 81.1888 143.951C82.4516 143.434 83.6523 142.706 84.6716 141.781C85.1891 141.325 85.6594 140.826 86.0853 140.28C86.5121 139.735 86.8777 139.159 87.1962 138.566L87.424 138.111L87.6369 137.654C87.7128 137.503 87.7748 137.337 87.836 137.185L87.9267 136.943L88.0165 136.686C88.1396 136.353 88.2155 135.973 88.2775 135.608C88.3211 135.228 88.3386 134.848 88.3062 134.501C88.2451 133.775 88.0785 133.105 87.9119 132.469C87.7452 131.832 87.561 131.225 87.3804 130.618C87.1962 130.01 87.0444 129.406 86.8926 128.784L86.4361 126.932C85.8437 124.459 85.3123 121.971 84.9614 119.468C84.5957 116.966 84.3531 114.434 84.1874 111.884C84.0171 109.338 83.9125 106.79 83.8042 104.24C83.7134 101.694 83.6375 99.1299 83.5616 96.5664C83.4236 91.4524 83.3051 86.3133 82.7552 81.1854C82.484 78.622 82.0859 76.0575 81.4786 73.5265C80.8713 70.9917 80.0316 68.5068 78.8781 66.1378L78.6651 65.7008L78.2097 64.8185C78.1337 64.6843 78.043 64.5325 77.9671 64.3954L77.7208 63.9687C77.6449 63.8344 77.5403 63.6974 77.4644 63.5595L76.933 62.7281L76.658 62.3161L76.3544 61.9218L75.7609 61.133C75.6526 60.996 75.5619 60.8617 75.4573 60.7386L75.1351 60.359L74.4843 59.6175L74.3149 59.4333C74.2565 59.3758 74.1954 59.3138 74.1482 59.2527L73.7974 58.9055L73.0993 58.2075C72.8568 57.9798 72.5966 57.7659 72.3541 57.553C72.1124 57.3428 71.8514 57.1151 71.6097 56.9022L70.8173 56.3087L70.4238 56.0051L70.2248 55.8533C70.1627 55.8097 70.0868 55.7625 70.0109 55.72L69.1759 55.1737L68.7639 54.8988C68.6296 54.808 68.4778 54.7321 68.3408 54.6562C66.0587 53.3222 63.5777 52.3205 61.0105 51.6983C58.4386 51.0762 55.777 50.8336 53.1339 50.942C52.6312 50.9568 52.2331 51.3799 52.2655 51.8826C52.2803 52.3816 52.7071 52.776 53.2098 52.7473H53.2237C58.1822 52.4427 63.2305 53.5638 67.5335 56.0236C67.6715 56.0995 67.8085 56.1569 67.9427 56.2513L68.3408 56.5078L69.1286 57.0068C69.1897 57.054 69.2666 57.0827 69.3277 57.1299L69.5119 57.2669L69.8915 57.5382L70.6367 58.0992C70.8793 58.2982 71.1071 58.5075 71.3496 58.7065C71.5773 58.9055 71.8227 59.1009 72.0504 59.3138L72.7198 59.9647L73.0521 60.2979C73.1142 60.359 73.1613 60.4062 73.2224 60.4673L73.3743 60.6488L73.9964 61.3468L74.3001 61.694C74.4084 61.8162 74.4991 61.9356 74.5898 62.0588L75.1536 62.8003L75.4425 63.1651L75.6998 63.5595L76.2164 64.3334C76.3072 64.4714 76.3979 64.5908 76.4738 64.7278L76.7191 65.1361C76.7951 65.274 76.8858 65.4111 76.9617 65.5489L77.4172 66.3664L77.631 66.7923C78.7559 69.0206 79.5622 71.4036 80.1547 73.8588C80.7481 76.3001 81.1425 78.821 81.4175 81.3373C81.9665 86.3893 82.1007 91.4996 82.2525 96.6127C82.3136 99.1734 82.3896 101.723 82.484 104.287C82.5747 106.851 82.6793 109.415 82.845 111.975C83.0154 114.54 83.2431 117.118 83.6227 119.667C83.9884 122.231 84.505 124.763 85.0836 127.265L85.5252 129.146C85.677 129.783 85.8437 130.404 86.0094 131.026C86.176 131.648 86.3602 132.27 86.5269 132.864C86.6787 133.471 86.8167 134.046 86.8629 134.606C86.8926 134.881 86.8629 135.152 86.8305 135.413C86.787 135.67 86.7407 135.926 86.6352 136.201L86.5593 136.396L86.4658 136.61C86.4037 136.747 86.3602 136.899 86.2843 137.018L86.0853 137.427L85.8723 137.821C85.5835 138.353 85.265 138.838 84.8855 139.308C84.5198 139.777 84.1078 140.204 83.6523 140.598C82.7552 141.372 81.7211 141.995 80.6102 142.432C79.5002 142.873 78.3143 143.148 77.0987 143.282C75.8804 143.434 74.6509 143.434 73.4178 143.358C73.1142 143.329 72.7957 143.315 72.492 143.268L72.2643 143.239C72.1698 143.224 72.08 143.224 71.9745 143.206C71.7903 143.192 71.5949 143.192 71.4107 143.192C70.6516 143.224 69.8915 143.405 69.2231 143.694C68.7491 143.89 68.5352 144.421 68.7343 144.891C68.8861 145.362 69.4184 145.575 69.9063 145.376Z" fill="#222E6A"/>
<path d="M84.6578 135.926C85.0984 132.227 83.1821 139.174 75.6092 137.702C71.3672 136.867 73.678 135.185 71.0164 137.992C66.4236 142.873 60.1893 142.873 56.3418 140.946C52.2332 138.899 53.495 138.125 50.1214 140.067C40.0388 145.831 31.1429 141.401 27.5842 138.292C24.0255 135.185 24.9226 134.744 21.5018 135.926C18.0949 137.109 13.1077 138.216 8.31683 134.744C5.06175 132.379 3.40553 130.936 4.16467 133.409C5.42651 137.521 11.4626 139.764 17.7441 139.051C18.6124 138.961 19.4188 139.051 20.1307 141.568C21.5453 146.635 28.8461 149.365 38.0937 145.817C42.5347 144.118 42.032 144.588 45.163 147.047C49.8317 150.685 58.3628 151.596 66.818 144.013C69.5407 141.568 70.3618 142.251 75.4722 142.251C79.0447 142.251 84.0023 140.266 84.7003 136.429" fill="#FF8856"/>
<path d="M4.66713 133.196C4.57361 133.001 4.49772 132.788 4.46808 132.621C4.45421 132.574 4.45421 132.545 4.45421 132.513C4.45421 132.498 4.45421 132.469 4.45421 132.483C4.45421 132.483 4.45421 132.513 4.43939 132.545C4.43939 132.545 4.42179 132.574 4.40698 132.589C4.39216 132.606 4.37829 132.636 4.36348 132.65C4.33108 132.697 4.26905 132.712 4.24034 132.726C4.22645 132.726 4.20794 132.741 4.19312 132.741C4.17925 132.741 4.17925 132.741 4.17925 132.741C4.20794 132.741 4.24034 132.758 4.28755 132.773C4.36348 132.802 4.45421 132.849 4.54401 132.892C4.72544 132.983 4.9245 133.105 5.12261 133.229C5.89657 133.714 6.66035 134.274 7.41948 134.835L7.99811 135.261L8.62022 135.685C8.72487 135.761 8.81927 135.822 8.92389 135.898L9.24235 136.078C9.45526 136.201 9.66916 136.321 9.8969 136.444C10.793 136.881 11.7373 137.232 12.7242 137.459C14.6878 137.883 16.7246 137.84 18.6557 137.445C19.6315 137.246 20.5721 136.99 21.4868 136.686C21.9422 136.534 22.3838 136.382 22.8245 136.245C23.2476 136.108 23.6892 136.017 23.9169 136.064C24.0253 136.078 24.1308 136.125 24.2678 136.216C24.4048 136.306 24.5715 136.458 24.7233 136.61C25.0455 136.914 25.3926 137.261 25.7287 137.597C26.0796 137.93 26.4267 138.263 26.7924 138.58C27.1433 138.899 27.5367 139.232 27.9348 139.536C29.5152 140.737 31.2621 141.676 33.1026 142.36C34.943 143.04 36.889 143.467 38.8674 143.6C40.8449 143.738 42.8381 143.543 44.7508 143.072C45.709 142.83 46.6532 142.526 47.5642 142.161L48.2512 141.872C48.3567 141.828 48.4789 141.781 48.5844 141.72L48.9205 141.553C49.1334 141.449 49.3621 141.344 49.575 141.236L50.211 140.888C50.4249 140.765 50.6378 140.646 50.8368 140.538C51.0322 140.418 51.2461 140.31 51.4451 140.19C51.6395 140.082 51.8386 139.977 52.0376 139.887C52.2181 139.796 52.4033 139.735 52.5079 139.72C52.569 139.705 52.5986 139.72 52.631 139.72C52.6597 139.72 52.7208 139.749 52.7967 139.764C52.9347 139.825 53.1152 139.929 53.3142 140.067C53.7086 140.31 54.1206 140.584 54.5474 140.841C54.9705 141.084 55.3972 141.325 55.8389 141.539L56.0046 141.615L56.1749 141.691L56.5221 141.843C56.6452 141.886 56.7498 141.948 56.8729 141.995L57.2238 142.114C58.182 142.45 59.1689 142.693 60.1567 142.783C60.402 142.812 60.6594 142.83 60.901 142.845C61.1621 142.859 61.4037 142.873 61.6648 142.859L62.424 142.845C62.6665 142.83 62.9266 142.797 63.1692 142.769C63.2914 142.754 63.4108 142.736 63.5488 142.722L64.2792 142.57C64.4023 142.541 64.5217 142.526 64.644 142.494L65.3744 142.298L65.5559 142.251L65.7401 142.19L66.0872 142.071L66.4382 141.948C66.4992 141.934 66.5613 141.904 66.6224 141.89L66.789 141.814L67.4722 141.492C67.5334 141.463 67.5954 141.449 67.6389 141.416L67.8083 141.325L68.4452 140.964L68.6109 140.87C68.6582 140.841 68.7202 140.798 68.7637 140.765C69.1756 140.476 69.6024 140.219 69.9672 139.887L70.5421 139.416C70.7273 139.25 70.893 139.066 71.0782 138.899L71.3346 138.643C71.4253 138.552 71.5188 138.462 71.5947 138.385L72.0798 137.854L72.5529 137.322C72.6288 137.246 72.7047 137.156 72.7483 137.109C72.7483 137.109 72.7344 137.109 72.7196 137.123C72.7047 137.123 72.7047 137.123 72.6872 137.142C72.6585 137.156 72.6288 137.156 72.5826 137.156C72.5353 137.156 72.5066 137.156 72.4594 137.156C72.4298 137.156 72.3974 137.142 72.3835 137.142C72.3215 137.109 72.34 137.109 72.3687 137.142L72.5066 137.246C72.6113 137.322 72.7196 137.413 72.839 137.489C73.0852 137.641 73.3269 137.764 73.5694 137.869C74.0573 138.082 74.56 138.216 75.0451 138.324C76.0172 138.538 77.0226 138.643 78.0428 138.595C79.0593 138.552 80.0647 138.339 81.0229 137.959C81.9663 137.579 82.8449 137.034 83.6086 136.382C83.804 136.216 83.9882 136.064 84.1548 135.898L84.415 135.655C84.4909 135.579 84.5807 135.503 84.6427 135.456C84.6714 135.427 84.7001 135.413 84.6862 135.427H84.6714H84.6427C84.6242 135.427 84.6103 135.427 84.5955 135.442C84.5807 135.442 84.5483 135.442 84.5196 135.442C84.4909 135.442 84.4585 135.442 84.4288 135.427C84.3965 135.413 84.3529 135.395 84.3205 135.38C84.2918 135.351 84.2631 135.351 84.2446 135.319C84.2308 135.304 84.2011 135.261 84.1872 135.261C84.1687 135.243 84.1687 135.228 84.1548 135.214L84.14 135.185C84.14 135.167 84.1252 135.152 84.1252 135.152V135.167C84.1252 135.185 84.1252 135.228 84.1252 135.275C84.1252 135.471 84.0928 135.699 84.0789 135.926C84.0493 136.23 84.2631 136.487 84.5668 136.52C84.8557 136.548 85.1269 136.336 85.1593 136.049C85.1889 135.807 85.2177 135.562 85.2362 135.29C85.2362 135.214 85.2362 135.138 85.2362 135.048C85.2362 135.015 85.2362 135.001 85.2177 134.972L85.2028 134.881C85.2028 134.849 85.1741 134.805 85.1741 134.759C85.1741 134.744 85.1593 134.715 85.1417 134.682C85.1269 134.653 85.113 134.621 85.0982 134.606C85.0834 134.592 85.0371 134.545 85.0075 134.516C84.9751 134.488 84.9464 134.454 84.8853 134.426C84.8381 134.397 84.7797 134.378 84.7334 134.365C84.6862 134.35 84.6427 134.35 84.5955 134.35C84.5483 134.35 84.5048 134.35 84.4724 134.35C84.4437 134.35 84.415 134.365 84.3826 134.365C84.3529 134.378 84.3391 134.378 84.3067 134.378L84.2446 134.397C84.1076 134.454 84.0493 134.501 83.9882 134.545C83.8651 134.639 83.7743 134.715 83.6697 134.805L83.3948 135.048C83.2105 135.2 83.0439 135.351 82.8634 135.489C82.1616 136.049 81.4025 136.52 80.5674 136.838C79.7462 137.156 78.864 137.322 77.9817 137.337C77.0985 137.37 76.2024 137.246 75.3201 137.051C74.8785 136.943 74.4665 136.823 74.0721 136.653C73.8731 136.563 73.7065 136.472 73.5407 136.368C73.4648 136.306 73.3889 136.26 73.2982 136.184L73.1464 136.064L73.0992 136.035L73.038 135.988L73.0084 135.973L72.9621 135.941L72.9149 135.912C72.9001 135.898 72.8862 135.898 72.8566 135.883C72.7955 135.865 72.7483 135.85 72.6872 135.836C72.6288 135.822 72.5529 135.822 72.477 135.822C72.4159 135.822 72.3539 135.836 72.2928 135.85C72.2641 135.865 72.2317 135.865 72.2169 135.883L72.0937 135.941L72.0502 135.973L71.9743 136.035C71.9281 136.064 71.8984 136.093 71.8512 136.125C71.729 136.23 71.6382 136.336 71.5623 136.429L71.0782 136.958L70.6041 137.474L70.4847 137.597L70.3616 137.717L70.119 137.959L69.6311 138.429L69.0998 138.855C68.7637 139.159 68.3693 139.384 68.0036 139.644C67.9601 139.673 67.9138 139.705 67.8666 139.735L67.7148 139.811L67.425 139.977L67.1399 140.143L66.9844 140.219C66.9408 140.252 66.8788 140.266 66.8325 140.295L66.2242 140.57L66.0724 140.646C66.0289 140.661 65.9678 140.675 65.9206 140.703L65.6022 140.813L65.2809 140.917L65.1291 140.978L64.9624 141.022L64.3079 141.192C64.2033 141.221 64.095 141.236 63.9756 141.25L63.6385 141.312L63.3062 141.373C63.1979 141.387 63.0785 141.401 62.9702 141.401C62.7424 141.416 62.5285 141.449 62.3008 141.463L61.6315 141.477C61.4037 141.492 61.1908 141.463 60.9631 141.463C60.7353 141.449 60.5215 141.449 60.2937 141.401C59.3966 141.312 58.5292 141.098 57.6941 140.798L57.3757 140.689C57.2673 140.661 57.1766 140.599 57.072 140.552L56.7683 140.418L56.6156 140.342L56.46 140.266C56.0518 140.053 55.6574 139.84 55.2603 139.597C54.8659 139.369 54.4863 139.113 54.0734 138.855C53.8604 138.718 53.6503 138.58 53.3614 138.443C53.2096 138.385 53.0393 138.324 52.8439 138.292C52.6449 138.263 52.4468 138.263 52.2653 138.292C51.9006 138.353 51.6256 138.462 51.3831 138.567C51.1405 138.671 50.9127 138.794 50.6998 138.914C50.486 139.037 50.273 139.159 50.0592 139.265C49.8463 139.384 49.6509 139.506 49.438 139.612L48.826 139.948C48.6307 140.053 48.4178 140.143 48.2048 140.252L47.9003 140.4C47.7957 140.447 47.6873 140.494 47.5827 140.538L46.9421 140.813C46.0922 141.145 45.2247 141.434 44.3277 141.644C42.5483 142.071 40.7217 142.266 38.8961 142.147C37.0732 142.038 35.28 141.644 33.558 141.008C31.8407 140.371 30.1984 139.506 28.756 138.415C28.0394 137.869 27.3562 137.232 26.673 136.596C26.336 136.277 26 135.941 25.6389 135.594C25.4537 135.427 25.2547 135.243 24.9983 135.076C24.8751 134.987 24.7233 134.911 24.5715 134.835C24.4048 134.773 24.2391 134.715 24.0549 134.697C23.6892 134.653 23.3855 134.697 23.1143 134.744C22.8393 134.805 22.5968 134.867 22.3514 134.943C21.8811 135.091 21.4257 135.261 20.984 135.413C20.1018 135.713 19.2195 135.973 18.3224 136.154C16.5292 136.534 14.6878 136.577 12.9381 136.23C12.0558 136.032 11.206 135.746 10.3996 135.366C10.2005 135.261 10.0052 135.152 9.80617 135.048L9.50249 134.881C9.41176 134.82 9.31827 134.759 9.21274 134.697L8.64891 134.335L8.07402 133.923C7.29637 133.377 6.52241 132.817 5.66884 132.303C5.4559 132.18 5.24203 132.043 5.00041 131.938C4.87728 131.876 4.75786 131.832 4.60603 131.771C4.53012 131.743 4.45421 131.724 4.36348 131.71L4.30237 131.695L4.22645 131.681H4.15054C4.11721 131.681 4.07463 131.681 4.0413 131.681C4.01261 131.681 3.96538 131.681 3.9367 131.695C3.88946 131.71 3.84596 131.724 3.79967 131.743C3.72376 131.757 3.60065 131.832 3.52472 131.908C3.35808 132.075 3.31085 132.27 3.29697 132.393C3.26736 132.65 3.31085 132.802 3.34325 132.954C3.4201 133.243 3.52472 133.471 3.61453 133.714C3.73765 133.985 4.05612 134.107 4.33108 133.985C4.64954 133.803 4.78656 133.486 4.66713 133.196Z" fill="#222E6A"/>
<path d="M71.0782 80.792C73.8444 80.792 76.0941 83.1278 76.0941 85.9958C76.0941 88.8593 73.8444 91.1959 71.0782 91.1959C68.3073 91.1959 66.0586 88.8593 66.0586 85.9958C66.0586 83.1278 68.3073 80.792 71.0782 80.792Z" fill="#222E6A"/>
<path d="M41.4532 82.4907C44.2194 82.4907 46.4718 84.8274 46.4718 87.6918C46.4718 90.5589 44.2194 92.8956 41.4532 92.8956C38.686 92.8956 36.4336 90.5589 36.4336 87.6918C36.4336 84.8274 38.686 82.4907 41.4532 82.4907Z" fill="#222E6A"/>
<path d="M38.1836 86.1005C38.1836 87.1929 39.6121 88.1039 41.4535 88.1039C43.2939 88.1039 44.6465 87.2216 44.6604 86.1292C44.6604 84.947 43.2319 83.612 41.4387 83.5981C39.6593 83.5981 38.1984 84.9183 38.1836 86.1005Z" fill="white"/>
<path d="M67.8232 84.3862C67.8232 85.4786 69.2517 86.3895 71.0922 86.3895C72.9326 86.3895 74.2852 85.5073 74.3 84.4158C74.3 83.2327 72.8716 81.8986 71.0783 81.8838C69.2989 81.8838 67.8381 83.2188 67.8232 84.3862Z" fill="white"/>
<path d="M54.0295 95.0656C53.7407 94.2583 53.513 93.3362 53.375 92.2734C55.5812 94.2009 60.872 93.9111 62.4384 92.0596C62.0727 93.5936 62.0876 95.9442 61.2377 97.5347C59.7768 95.3831 56.6449 94.7286 54.0295 95.0656Z" fill="#A65A7F"/>
<path d="M61.2384 97.535C61.0246 97.9294 60.7681 98.2951 60.4173 98.5701C58.8046 99.9041 55.5643 99.4162 54.0303 95.066C56.6456 94.729 59.7776 95.3835 61.2384 97.535Z" fill="#FFB0D7"/>
<path d="M61.9686 91.9553C61.7548 92.7441 61.6465 93.5181 61.5132 94.2587C61.39 95.004 61.2521 95.7307 61.0243 96.4C60.9197 96.7324 60.7679 97.036 60.6124 97.3258C60.5217 97.4591 60.4457 97.5971 60.3411 97.7054C60.2939 97.7637 60.2504 97.8248 60.1893 97.872L60.019 98.0239C59.582 98.3997 58.9886 98.584 58.3775 98.5377C57.7702 98.5081 57.162 98.2516 56.6454 97.8396C56.3843 97.6443 56.1427 97.4017 55.9149 97.1416C55.6872 96.8842 55.4881 96.5954 55.3067 96.2917C54.5763 95.0799 54.1495 93.6551 53.8606 92.1831C53.8171 91.9267 53.557 91.7424 53.2857 91.8035C53.0395 91.8507 52.8728 92.0748 52.8876 92.3211C52.9497 93.1089 53.0867 93.8976 53.2996 94.6716C53.5135 95.4456 53.8023 96.2158 54.1967 96.9314C54.2874 97.1119 54.4106 97.2934 54.5152 97.4591C54.6383 97.6295 54.7577 97.81 54.8947 97.9618C55.1697 98.2951 55.4585 98.5988 55.8094 98.87C56.4936 99.4162 57.361 99.8134 58.2868 99.8717C58.7423 99.9041 59.2311 99.8569 59.6718 99.7051C60.1134 99.5533 60.554 99.3255 60.9012 99.0071L61.1623 98.7978C61.2521 98.7219 61.3141 98.6136 61.39 98.5229C61.5418 98.3423 61.6465 98.1433 61.7696 97.9618C61.9686 97.5684 62.1344 97.174 62.2575 96.7796C62.5 95.9732 62.5908 95.1845 62.6806 94.4105C62.7565 93.6375 62.8185 92.8811 62.9268 92.1692V92.1507C62.9703 91.8794 62.7889 91.6369 62.5149 91.5906C62.2575 91.5609 62.0298 91.7128 61.9686 91.9553Z" fill="#46334D"/>
<path d="M53.058 92.6386C53.3755 92.9719 53.756 93.2283 54.1495 93.4561C54.5476 93.6699 54.9559 93.8356 55.3826 93.9588C56.2325 94.2013 57.1009 94.2921 57.9683 94.2772C58.833 94.2587 59.7005 94.1402 60.5365 93.8653C60.9632 93.731 61.3752 93.5468 61.7548 93.319C62.1492 93.0765 62.5149 92.7904 62.8037 92.3785C62.9555 92.1692 62.9084 91.8508 62.6991 91.6989C62.5149 91.561 62.2575 91.5758 62.0881 91.7276L62.0585 91.7424C61.5706 92.1692 60.8873 92.4544 60.1745 92.621C59.8097 92.7145 59.4441 92.7728 59.0645 92.8201C58.6812 92.8673 58.3192 92.8959 57.936 92.8959C57.5564 92.9098 57.1768 92.8959 56.8111 92.8487C56.4316 92.8201 56.0668 92.758 55.7011 92.6821C54.9707 92.5303 54.2874 92.2738 53.694 91.8794L53.6801 91.8646C53.4515 91.7128 53.1478 91.7748 52.996 91.9841C52.8728 92.2118 52.8876 92.4729 53.058 92.6386Z" fill="#46334D"/>
<path d="M27.3243 74.6327C36.1442 72.1775 43.7208 67.1866 51.6733 62.728C59.9618 58.0556 69.2048 56.6882 78.3904 56.6743C79.381 56.6882 80.3975 56.7215 81.4029 56.7975C79.045 56.204 76.7342 55.8245 74.4522 55.643C74.4373 55.643 74.4235 55.643 74.3911 55.643C71.6535 55.4301 68.9771 55.4912 66.3627 55.7809C54.0303 57.0974 43.0802 63.1983 34.351 67.9892C33.4391 68.4882 32.4957 68.9446 31.5514 69.3381C30.6876 69.7038 29.8192 70.0361 28.937 70.3398C27.8409 70.7055 26.7493 71.024 25.6532 71.2804C22.3843 72.0691 19.1589 72.4339 16.226 72.5534C12.3164 72.7237 8.97156 72.4487 6.82652 72.1775C4.65 71.9025 3.814 72.5858 3.77051 73.9346C11.7989 74.7706 19.3246 77.0739 27.3243 74.6327Z" fill="#F3CA9C"/>
<path d="M95.4561 63.6216C96.1245 64.4242 96.7753 65.288 97.4298 66.1851C97.4632 66.0193 97.4919 65.8527 97.5058 65.6824C97.0364 65.0463 96.3198 64.3483 95.4561 63.6216Z" fill="#B777BA"/>
<path d="M88.9317 59.4658C86.3896 58.2984 83.8798 57.4337 81.4172 56.8116C80.4146 56.7357 79.4101 56.7033 78.4084 56.6885C69.2043 56.7218 59.9613 58.0707 51.6866 62.7422C43.7203 67.2017 36.1437 72.1916 27.3413 74.6477C19.3425 77.0742 11.828 74.7709 3.81348 73.9645C3.81348 74.1163 3.81348 74.2858 3.82829 74.4524C3.92179 75.5263 4.13194 76.5752 4.468 77.5621C7.84615 82.853 13.8527 85.4933 19.8739 85.4636C16.3152 84.2962 12.2686 82.5206 11.4947 78.4555C15.6755 79.3201 19.7832 80.669 24.0548 81.0199C24.0548 80.9292 24.0687 80.8347 24.0687 80.7449C25.5157 80.7014 26.9765 80.5496 28.4337 80.2894C29.1207 80.17 29.8048 80.0321 30.5019 79.8664C30.8389 79.7905 31.1713 79.7136 31.5073 79.6238C34.8383 78.7592 38.2591 77.4686 41.803 75.9679C41.9983 75.892 42.1974 75.8013 42.4112 75.7105C47.5067 73.5266 52.8874 70.9335 58.7569 68.5653C64.2643 66.337 69.1135 65.3353 73.2657 65.0464C74.1008 64.9844 74.9256 64.9705 75.7134 64.9557C76.7337 64.9557 77.7066 65.0029 78.6362 65.0788C82.3606 64.9844 86.0998 66.5471 89.6761 68.5653C90.9204 69.2199 89.5243 70.84 88.7003 71.1001C87.058 71.6464 85.4777 72.3259 83.9261 73.0091C84.4436 73.8154 85.0981 74.4811 86.1183 74.7236C89.9039 75.1643 93.3108 73.1609 95.7733 70.1271C96.6417 68.9912 97.2018 67.6099 97.4629 66.1713C96.8083 65.2742 96.1677 64.4243 95.4845 63.6069C93.6764 62.121 91.2426 60.5258 88.9317 59.4658Z" fill="#F25510"/>
<path d="M39.5219 59.9981C38.5165 59.0538 38.3971 57.6003 38.6248 56.1895L37.0584 56.9634C36.6326 57.1736 36.4474 57.7374 36.6464 58.2077L36.7695 58.4937L38.0601 61.6182C38.2592 62.1061 38.7619 62.3163 39.1849 62.1061L41.6512 60.8906C40.8125 60.8767 40.0061 60.6776 39.5219 59.9981Z" fill="#38263B"/>
<path d="M42.3961 54.3242L38.6097 56.1897C38.3819 57.6144 38.5013 59.0726 39.5067 59.9983C40.0057 60.6779 40.8121 60.8769 41.6333 60.8908L44.9494 59.2679C45.1013 57.1914 44.2801 55.0509 42.3961 54.3242Z" fill="#5F5061"/>
<path d="M47.0475 57.2059L45.6949 53.9444L45.6329 53.7777C45.4375 53.3074 44.9348 53.0797 44.508 53.2926L42.4111 54.3239C44.2951 55.0507 45.1015 57.1911 44.9644 59.2676L46.6235 58.4502C47.0475 58.2363 47.2317 57.6762 47.0475 57.2059Z" fill="#38263B"/>
<path d="M33.1639 55.6291C32.7371 55.8384 32.5566 56.3994 32.7557 56.8734L33.7722 59.3286L33.6667 59.3758C33.5907 59.4193 33.5148 59.4656 33.4389 59.5091C33.9851 60.6774 34.535 61.8458 35.0812 63.0132C35.9311 59.8461 36.7551 56.6743 37.5151 53.4878L33.1639 55.6291Z" fill="#E6D093"/>
<path d="M37.3014 59.8129L36.7552 58.4936L36.633 58.2075C36.434 57.7197 36.6182 57.1734 37.0413 56.9633L38.3503 56.3273C38.7623 55.0358 39.1715 53.7453 39.5983 52.4575L37.4819 53.5027C36.7228 56.6883 35.9016 59.8749 35.0518 63.0281C35.323 63.6215 35.598 64.214 35.8877 64.8037C36.3432 63.1225 36.8135 61.4663 37.3014 59.8129Z" fill="white"/>
<path d="M39.5508 65.1834C39.9156 63.9253 40.2812 62.6662 40.646 61.3905L39.1851 62.1061C38.7621 62.3163 38.2455 62.1061 38.0603 61.6182L37.316 59.813C36.8308 61.4664 36.3578 63.1365 35.9014 64.8039C36.1911 65.426 36.4948 66.0481 36.7846 66.6842C37.6668 66.1851 38.6102 65.6825 39.5508 65.1834Z" fill="#E6D093"/>
<path d="M43.5357 50.5151L39.6113 52.4426C39.1845 53.7304 38.7762 55.007 38.3643 56.3087L42.6099 54.2331C42.9274 53.0036 43.2311 51.7594 43.5357 50.5151Z" fill="#E6D093"/>
<path d="M40.646 61.3907C40.2812 62.6525 39.9155 63.9255 39.5508 65.1836C41.0404 64.3958 42.592 63.5922 44.176 62.8182C44.4325 61.6508 44.6935 60.4677 44.9351 59.2817L40.646 61.3907Z" fill="white"/>
<path d="M48.4936 51.6363C48.4649 51.6548 48.4464 51.6548 48.4177 51.6696L47.5493 49.5894C47.4123 49.2422 47.1087 49.0441 46.7902 49.0293C46.743 49.333 46.7004 49.6366 46.6532 49.9403C46.4254 51.4409 46.1681 52.9426 45.8931 54.4285L47.0328 57.2058C47.2318 57.69 47.0476 58.2362 46.6235 58.4501L44.9349 59.2814C44.6933 60.4673 44.4322 61.6505 44.1758 62.8179C46.7143 61.5746 49.362 60.3914 52.1134 59.3434C50.8368 56.8114 49.575 54.2618 48.4936 51.6363Z" fill="#E6D093"/>
<path d="M46.7903 49.0293C46.6671 49.0293 46.5477 49.0441 46.4255 49.1052L43.5361 50.53C43.2315 51.7742 42.9279 53.0037 42.6104 54.2331L44.5082 53.3073C44.935 53.0944 45.4377 53.3073 45.633 53.7915L45.6951 53.9582L45.8932 54.4433C46.1681 52.9565 46.4255 51.4558 46.6532 49.9551C46.7005 49.6366 46.743 49.333 46.7903 49.0293Z" fill="white"/>
<path d="M65.0101 48.5121C58.9888 48.3316 53.4378 49.6989 48.4941 51.6227C49.5755 54.2621 50.8373 56.7978 52.114 59.3289C56.5984 57.6292 61.3755 56.309 66.3766 55.7813C67.8995 55.611 69.4511 55.5351 71.0166 55.5212C69.3428 52.6716 67.3968 50.1507 65.0101 48.5121Z" fill="#5F5061"/>
<path d="M71.0163 55.5208C72.1411 55.5208 73.2659 55.5532 74.4083 55.643L74.4231 55.2496C74.0871 54.7793 72.1559 52.1389 68.4454 48.6497L68.3546 48.7728C67.2298 48.6349 66.105 48.545 65.0098 48.5117C67.3965 50.1504 69.3424 52.6712 71.0163 55.5208Z" fill="#AB9BAD"/>
<path d="M30.0617 61.3906C29.6525 61.6035 29.2554 61.7841 28.8897 61.9359H28.8758C28.3583 67.8998 25.668 71.2521 25.668 71.2521V71.2808C26.7632 71.0243 27.8593 70.7058 28.9517 70.3402C29.6674 70.0985 30.3839 69.8412 31.081 69.5523C31.0958 66.7602 30.7015 64.0448 30.0617 61.3906Z" fill="#38263B"/>
<path d="M33.4065 59.5093C32.1771 60.2397 31.0522 60.8767 30.0469 61.3757C30.6875 64.0447 31.0809 66.76 31.0809 69.5374C31.2476 69.4762 31.3994 69.4003 31.5698 69.3383C32.5094 68.9301 33.4537 68.4885 34.3647 67.9894C35.1424 67.5627 35.9487 67.1257 36.7699 66.6702C35.6451 64.29 34.535 61.9071 33.4065 59.5093Z" fill="#5F5061"/>
<path d="M28.5279 53.8389C28.7844 58.8298 27.6744 63.8494 24.4814 67.321C23.0954 68.8828 21.317 69.7651 19.584 69.8559C18.7165 70.8251 17.6204 71.7361 16.2539 72.5721C19.172 72.4489 22.4122 72.0833 25.6812 71.2954V71.2658C25.6812 71.2658 28.3761 67.9135 28.889 61.9543H28.9075C29.0121 61.907 29.1028 61.8598 29.2112 61.8163C29.1788 59.1297 29.0269 56.4931 28.5279 53.8389Z" fill="#8E5E1F"/>
<path d="M48.0056 33.9527C51.7772 34.1949 54.0732 39.1094 57.7698 40.4907C59.1076 40.961 60.4315 41.4748 61.7072 42.0969C55.6109 37.4424 53.0576 31.4031 47.1844 30.2351C43.1702 29.4322 35.7491 32.1914 26.7015 41.6266C20.7561 47.8174 24.1158 56.84 22.3984 64.2435C24.2065 60.345 24.4814 54.8366 25.4683 50.9715C27.7976 40.4009 38.6246 33.6199 48.0056 33.9527Z" fill="#F3CA9C"/>
<path d="M29.1791 61.8024C29.4541 61.6792 29.743 61.5274 30.0466 61.3904C29.7578 60.1785 29.4069 58.9815 29.0273 57.7808C29.1495 59.1148 29.1791 60.4498 29.1791 61.8024Z" fill="#EEBEF0"/>
<path d="M58.0588 41.9775C60.8251 43.9485 63.1831 46.1611 65.3744 48.5302C66.3474 48.5737 67.3352 48.6496 68.3406 48.7728L68.4304 48.6496C66.4853 46.8156 65.2522 44.6604 62.3156 42.5524C62.1054 42.4006 61.8925 42.2487 61.6934 42.0969C60.4316 41.4748 59.1077 40.9462 57.7552 40.4907C56.4174 39.988 55.2602 39.0335 54.1641 38.0029C55.2602 39.5186 56.4933 40.8999 58.0588 41.9775Z" fill="#EEBEF0"/>
<path d="M58.0588 41.9777C56.4933 40.9001 55.2453 39.5188 54.164 38.0032C52.218 36.1841 50.41 34.1192 48.0057 33.9673C38.61 33.6346 27.7792 40.415 25.4537 51.0004C24.4668 54.8553 24.1918 60.3739 22.3838 64.2724C21.9098 66.2897 21.0747 68.1847 19.5703 69.8706C21.3025 69.7799 23.0818 68.9013 24.4668 67.3386C27.1432 64.4094 28.3578 60.4212 28.5282 56.2653C28.1449 55.1414 27.7357 54.0342 27.3237 52.9279C27.7505 54.0342 28.1449 55.1414 28.5282 56.2653C28.5569 55.459 28.5569 54.6563 28.5097 53.8537C28.3902 53.2167 28.2532 52.5622 28.0866 51.9114C28.2532 52.5622 28.3902 53.1991 28.5097 53.8537C28.4051 51.8068 28.069 49.7413 27.5515 47.8C28.069 49.7413 28.4051 51.7882 28.5097 53.8537C28.7559 55.1738 28.9216 56.4755 29.0272 57.7957C29.4068 58.9964 29.7428 60.1934 30.0465 61.408C31.1278 60.8618 32.3137 60.1786 33.6339 59.4046L33.7422 59.3574L32.7229 56.9023C32.5276 56.4172 32.7081 55.8719 33.1349 55.658L46.4106 49.134C46.8374 48.9248 47.3364 49.134 47.5354 49.6228L48.4029 51.6985C53.466 49.7126 59.1688 48.3166 65.3743 48.5739C63.1978 46.1613 60.8251 43.9487 58.0588 41.9777Z" fill="#F25510"/>
<path d="M12.2401 78.6544C13.8353 79.4719 15.5239 80.1403 17.2736 80.593C19.0206 81.0485 20.8323 81.3234 22.6403 81.3808C24.4521 81.4429 26.2602 81.3086 28.0395 81.0337C28.4811 80.9726 28.9218 80.8818 29.3634 80.792L30.6873 80.5347C31.551 80.3357 32.4194 80.1079 33.2869 79.8663C36.7225 78.8785 40.0247 77.5296 43.2788 76.1335C46.5302 74.7374 49.7417 73.2515 52.9495 71.8416C54.5623 71.1287 56.175 70.4307 57.784 69.7474L59.0033 69.2485C59.4115 69.0966 59.8096 68.93 60.2179 68.7782C60.6298 68.6263 61.039 68.4745 61.451 68.3227C61.8602 68.1708 62.2722 68.0366 62.6805 67.8996C63.0934 67.7616 63.5192 67.6394 63.9284 67.5052C64.3404 67.3821 64.7635 67.2627 65.1764 67.1543C66.0114 66.9266 66.865 66.7313 67.7 66.547C69.4035 66.1998 71.1208 65.9286 72.8391 65.7907C74.5601 65.6388 76.3071 65.6064 78.0244 65.7295C79.7463 65.8342 81.4637 66.0952 83.1532 66.4887C84.8233 66.8831 86.4796 67.4145 88.0312 68.1412C88.4292 68.3227 88.8088 68.5217 89.1736 68.717L89.4486 68.8689L89.6762 69.0059C89.6911 69.0207 89.7059 69.0531 89.7198 69.067C89.7346 69.0818 89.7522 69.1105 89.7522 69.1438C89.7522 69.1725 89.767 69.1864 89.7818 69.2198C89.7957 69.3244 89.7957 69.429 89.7522 69.5521C89.7346 69.5808 89.7198 69.6132 89.7059 69.6428L89.6911 69.6891L89.6587 69.7326L89.6004 69.8234C89.568 69.8558 89.5393 69.8845 89.5245 69.9169C89.293 70.1742 88.9755 70.4168 88.6421 70.6297L88.6246 70.6445C88.3672 70.7964 88.2913 71.1287 88.4579 71.3852C88.6098 71.6462 88.9458 71.7221 89.1884 71.5703C89.6004 71.3277 90.0095 71.0528 90.3743 70.6584C90.4215 70.6149 90.465 70.5538 90.5122 70.5066L90.6354 70.3261L90.6928 70.2353L90.74 70.127C90.7687 70.0511 90.8159 69.9928 90.8298 69.9169C90.9529 69.628 90.9825 69.2771 90.9205 68.9448C90.9067 68.8689 90.877 68.7782 90.8631 68.7022C90.8298 68.6263 90.8011 68.5504 90.7539 68.4745C90.7113 68.3986 90.6641 68.3227 90.6169 68.2606C90.5881 68.232 90.5557 68.1847 90.5261 68.156L90.4799 68.0949C90.465 68.0801 90.4363 68.0514 90.4039 68.0366L90.3604 68.0042C90.3456 67.9894 90.328 67.9894 90.328 67.9894L90.2984 67.9607L90.2225 67.9135L90.0707 67.8237L89.7818 67.6394C89.3874 67.4145 88.9894 67.2015 88.5811 67.0025C86.9535 66.1998 85.2362 65.6064 83.4856 65.1695C81.7349 64.7279 79.9417 64.4566 78.1475 64.3196C76.3543 64.1817 74.5425 64.1964 72.7631 64.3335C69.1758 64.5908 65.6457 65.3639 62.2398 66.4563C61.8167 66.5942 61.3899 66.7313 60.9631 66.8831C60.5364 67.0173 60.1271 67.1867 59.7004 67.3386C59.2745 67.4904 58.8653 67.657 58.4533 67.8237L57.2239 68.3227C55.5816 68.9911 53.954 69.7039 52.3413 70.402C49.1159 71.8268 45.908 73.3126 42.6863 74.7235C39.46 76.1196 36.2059 77.4389 32.8749 78.4554C29.5439 79.4571 26.1083 80.1227 22.6727 80.0468C20.9517 80.0181 19.2344 79.8042 17.5772 79.396C16.7422 79.2006 15.9183 78.9405 15.1147 78.6359C14.3083 78.3508 13.5168 77.9999 12.7243 77.6342C12.453 77.5009 12.1318 77.6203 11.9976 77.8953C11.8744 78.1989 11.98 78.5174 12.2401 78.6544Z" fill="#222E6A"/>
<path d="M68.0655 49.0583C68.5349 49.6369 69.0376 50.1831 69.5402 50.7441L71.0446 52.3818L72.5351 54.0205L74.0247 55.6434V55.6582C74.2238 55.8859 74.5747 55.9007 74.8024 55.6869C75.0014 55.5212 75.0302 55.2351 74.907 55.0222C74.5275 54.3241 74.0868 53.7159 73.6304 53.0947C73.4026 52.7901 73.161 52.5049 72.9147 52.2013C72.6722 51.9115 72.4157 51.6227 72.1556 51.3366C71.8982 51.0617 71.6381 50.7728 71.3668 50.5155C71.0919 50.2442 70.8317 49.984 70.542 49.7276C69.9967 49.2101 69.4032 48.7111 68.7959 48.2556C68.5534 48.0751 68.2173 48.1186 68.0359 48.3639C67.8988 48.588 67.8988 48.8629 68.0655 49.0583Z" fill="#31133D"/>
<path d="M16.4812 73.056C17.2875 72.5858 18.0615 72.0544 18.7771 71.447C19.4937 70.8397 20.1621 70.1454 20.7231 69.3853C21.2869 68.6262 21.772 67.7911 22.1692 66.9264C22.5497 66.0618 22.8385 65.1545 23.0524 64.2435C23.4755 62.4059 23.5838 60.5432 23.6125 58.7212C23.6449 56.8872 23.5977 55.0829 23.6273 53.2924C23.6597 51.5029 23.7828 49.7411 24.1624 48.0423C24.3429 47.1952 24.6031 46.375 24.9363 45.5862C25.2724 44.7984 25.6955 44.0531 26.1834 43.3736C26.4407 43.0366 26.7009 42.7043 26.9897 42.3858L27.2036 42.1432L27.4313 41.9016L27.9016 41.4165C28.2201 41.0953 28.5414 40.7768 28.8598 40.4731C29.1783 40.1732 29.4995 39.8547 29.8328 39.551C31.1419 38.3355 32.4944 37.1675 33.9229 36.0899C34.6385 35.5438 35.3551 35.0303 36.0994 34.5457C36.8447 34.0575 37.5899 33.5874 38.3639 33.1643C39.9146 32.3145 41.5282 31.602 43.202 31.1753C43.6112 31.0849 44.038 30.98 44.4639 30.933C44.674 30.904 44.887 30.8896 45.086 30.857C45.2999 30.8426 45.5128 30.8281 45.7081 30.8281C46.121 30.8281 46.5293 30.857 46.9274 30.9185C47.1227 30.9475 47.3356 31.0089 47.5347 31.056C47.7337 31.1174 47.9467 31.1609 48.142 31.2368C49.7408 31.7684 51.1545 32.7846 52.446 33.9671C53.7402 35.1641 54.9262 36.5166 56.1741 37.8366C57.4184 39.1715 58.7126 40.4731 60.1263 41.6739L60.6586 42.1108L61.2039 42.5376L62.3 43.3403C63.0017 43.8578 63.6711 44.4327 64.2923 45.0548C65.5402 46.2843 66.6364 47.7563 68.0176 49.0292C68.2306 49.2282 68.5815 49.2282 68.7805 49.0005C68.9758 48.7867 68.9758 48.4543 68.7629 48.2404C68.1408 47.6331 67.5621 46.9675 66.9835 46.2695C66.4086 45.5862 65.7967 44.8743 65.1607 44.205C64.521 43.5393 63.8229 42.9033 63.0776 42.3386L61.9963 41.522L61.4788 41.1128L60.9761 40.686C59.6236 39.5325 58.3941 38.2596 57.1758 36.9253C55.9602 35.6053 54.7743 34.2239 53.4181 32.9364C52.7348 32.3 52.0044 31.6924 51.2156 31.1609C50.4241 30.6292 49.5418 30.1917 48.6299 29.8734C48.4022 29.783 48.1568 29.736 47.9291 29.6601C47.6865 29.5986 47.4588 29.5371 47.2162 29.4937C46.7135 29.4033 46.2108 29.3562 45.7266 29.3708C45.4804 29.3708 45.2378 29.3852 44.9962 29.4033C44.7499 29.4322 44.5074 29.4467 44.2796 29.4793C43.7955 29.5371 43.3363 29.6455 42.866 29.7504C41.0255 30.2205 39.2934 30.98 37.6659 31.8588C36.8447 32.3 36.0531 32.7846 35.2792 33.3017C34.5015 33.8007 33.7563 34.3468 33.011 34.8929C31.5363 35.9995 30.154 37.2146 28.8126 38.4586C28.4802 38.7771 28.1442 39.0946 27.8257 39.4131C27.5073 39.7316 27.1712 40.05 26.8527 40.3824L26.3824 40.8703L26.1371 41.1128L25.8945 41.3702C25.5761 41.7174 25.2724 42.0969 24.9826 42.4904C24.4188 43.2792 23.9485 44.1142 23.5838 44.9937C23.2181 45.876 22.9292 46.7833 22.7302 47.709C22.321 49.5606 22.2312 51.4122 22.2127 53.2462C22.1988 55.0829 22.2599 56.8872 22.2599 58.6777C22.2451 60.4673 22.1553 62.2392 21.7896 63.9389C21.6054 64.7888 21.3628 65.6248 21.0268 66.4126C20.6944 67.2014 20.2676 67.9605 19.7649 68.6549C18.7484 70.051 17.4245 71.1897 15.9174 72.1154C15.66 72.2682 15.5841 72.6005 15.7359 72.857C15.9026 73.1171 16.2247 73.2079 16.4812 73.056Z" fill="#222E6A"/>
<path d="M45.3442 54.0964L46.045 55.8101L46.3959 56.6747L46.5625 57.083L46.6533 57.2969L46.6672 57.358L46.6857 57.3867C46.7005 57.4015 46.7005 57.4339 46.7005 57.4626C46.7431 57.644 46.6857 57.857 46.5773 57.9801C46.5477 58.0088 46.5153 58.0375 46.4866 58.056C46.4718 58.0708 46.4542 58.0708 46.4394 58.0847L46.3348 58.1319L45.908 58.3273L44.237 59.1151L40.8884 60.7102L39.2174 61.5129L39.0045 61.6184L38.9572 61.6508L38.9433 61.6647C38.9285 61.6647 38.9137 61.6647 38.9137 61.6795C38.8674 61.6943 38.8202 61.6943 38.7619 61.6647C38.7156 61.6508 38.6536 61.6036 38.6249 61.5601C38.6101 61.5277 38.5777 61.499 38.5628 61.4666L38.549 61.437L38.5342 61.3759L38.4869 61.2713L37.7713 59.5567L37.4056 58.7068L37.2251 58.2837L37.1344 58.0708L37.1168 58.0236L37.102 57.9949C37.0881 57.9801 37.0881 57.9653 37.0881 57.9329C37.0409 57.7811 37.0881 57.6005 37.164 57.4922C37.1779 57.4626 37.2112 57.4487 37.2251 57.4339C37.2399 57.4191 37.2538 57.4191 37.2723 57.4015L37.3769 57.358L37.7898 57.145L39.446 56.2952L42.7437 54.613L44.4036 53.778L44.6175 53.6733L44.6601 53.64L44.6934 53.6261C44.7073 53.6113 44.7221 53.6113 44.7508 53.6113C44.8304 53.5974 44.9063 53.5974 44.9822 53.6261C45.0582 53.6548 45.1341 53.7021 45.1924 53.778C45.2248 53.8067 45.2535 53.8539 45.2683 53.8974L45.2859 53.9298L45.3007 53.9909L45.3442 54.0964ZM46.045 53.8067L45.9987 53.7021L45.9839 53.64L45.9552 53.5641C45.908 53.4743 45.8469 53.3836 45.7849 53.2929C45.6516 53.1271 45.4664 52.9892 45.2535 52.9133C45.0406 52.8374 44.798 52.8235 44.5702 52.8661C44.5083 52.8809 44.4647 52.8994 44.4036 52.9281L44.3277 52.9568L44.2805 52.9892L44.0676 53.0947L42.3965 53.8974L39.0517 55.4916L37.3769 56.2804L36.9502 56.4757L36.8455 56.5229C36.7983 56.5516 36.7372 56.584 36.6937 56.6127C36.5854 56.6747 36.4947 56.7646 36.4188 56.8553C36.1003 57.221 35.992 57.72 36.1003 58.1606C36.1151 58.2227 36.1299 58.2662 36.1438 58.3273L36.1762 58.4032L36.191 58.4643L36.2817 58.6782L36.4474 59.1012L36.7983 59.965L37.5001 61.6795L37.5436 61.7841L37.5584 61.8462L37.5908 61.9221C37.6343 62.0304 37.7102 62.135 37.7898 62.2257C37.9417 62.4063 38.1509 62.5766 38.3823 62.6525C38.6249 62.7423 38.8961 62.7572 39.1415 62.696C39.2035 62.6812 39.2609 62.6664 39.3229 62.634L39.4127 62.6053L39.4599 62.5766L39.6738 62.4683L41.33 61.636L44.6314 59.9511L46.2876 59.1012L46.7005 58.8874L46.8051 58.8448C46.8523 58.8115 46.9134 58.7828 46.9569 58.754C47.0477 58.692 47.1412 58.6022 47.2171 58.5263C47.5069 58.1755 47.5967 57.72 47.4883 57.2969C47.4735 57.2497 47.4596 57.1913 47.4448 57.145L47.4124 57.0691L47.3976 57.0071L47.3078 56.7979L47.1236 56.3711L46.7616 55.5212L46.045 53.8067Z" fill="#31133D"/>
<path d="M48.6167 52.1685C50.2109 51.6362 51.8098 51.1372 53.4373 50.729C55.0463 50.3022 56.6914 49.955 58.3337 49.7125C59.1549 49.5755 59.9752 49.4847 60.8111 49.394C61.6314 49.3042 62.471 49.257 63.3061 49.2283C64.9624 49.1663 66.6371 49.1959 68.3072 49.3181C68.6108 49.3329 68.8719 49.1199 68.8858 48.8154C68.9006 48.545 68.7053 48.3025 68.4451 48.2405C66.7417 47.9368 65.0095 47.7998 63.2913 47.7998C62.4239 47.7998 61.5554 47.8322 60.6917 47.9081C60.2649 47.9368 59.8233 47.9988 59.3965 48.0275C58.9697 48.0748 58.5467 48.1359 58.106 48.1942C57.2524 48.3312 56.4025 48.4978 55.5638 48.6821C54.7278 48.8774 53.8927 49.0903 53.0716 49.3477C51.4116 49.8504 49.8026 50.4392 48.251 51.1521C47.9761 51.2752 47.8539 51.5927 47.9761 51.864C48.0668 52.1389 48.3566 52.2584 48.6167 52.1685Z" fill="#31133D"/>
<path d="M29.1027 62.4384C29.5758 62.3301 30.0174 62.182 30.4404 61.9977C30.8672 61.8163 31.2792 61.6182 31.6884 61.3904C32.0856 61.1803 32.4799 60.9377 32.8595 60.6776C33.2391 60.4211 33.6048 60.1462 33.9556 59.8462C34.1834 59.6472 34.1982 59.3 33.9992 59.0723C33.8473 58.9056 33.6048 58.8445 33.4057 58.9204C32.9651 59.0723 32.5559 59.2528 32.1615 59.4518C31.7495 59.6472 31.3551 59.8462 30.9755 60.074C30.5774 60.2832 30.1979 60.5109 29.8183 60.7387C29.4387 60.9664 29.0731 61.1951 28.7083 61.4515H28.6935C28.4519 61.6358 28.3899 61.969 28.5565 62.2255C28.6611 62.3921 28.8888 62.4819 29.1027 62.4384Z" fill="#31133D"/>
<path d="M36.4949 66.5473C36.5708 66.5473 36.6467 66.5325 36.7226 66.5037C37.0263 66.3806 37.1781 66.0196 37.0587 65.715L33.3018 56.6275C33.2259 56.4321 33.3018 56.2192 33.425 56.1572L46.7007 49.6369C46.7433 49.623 46.7905 49.6045 46.8377 49.6369C46.9136 49.6656 46.971 49.7276 47.0043 49.8184L50.8519 59.1299C50.9713 59.4335 51.3361 59.5854 51.6397 59.4659C51.9471 59.3437 52.0999 58.9818 51.9767 58.6781L48.1282 49.362C47.9625 48.9685 47.6589 48.65 47.2608 48.5121C46.8951 48.3788 46.5017 48.3927 46.1684 48.5741L32.9075 55.0981C32.1918 55.4453 31.8734 56.3414 32.1918 57.1154L35.9311 66.1853C36.0246 66.413 36.2523 66.5473 36.4949 66.5473Z" fill="#31133D"/>
<path d="M24.7551 88.18C24.4042 88.1948 23.9923 88.1948 23.6127 88.1948C23.2183 88.1948 22.8387 88.18 22.4406 88.1614C21.6667 88.1327 20.8937 88.0568 20.116 87.967C18.5792 87.768 17.06 87.4347 15.5843 86.9357C14.1234 86.4478 12.7097 85.797 11.4044 84.9943C10.0944 84.188 8.8946 83.2187 7.87435 82.079C6.85414 80.9579 6.0191 79.6711 5.42569 78.2889C5.13683 77.5918 4.89427 76.8789 4.74245 76.1337C4.64895 75.7726 4.59063 75.393 4.54341 75.0273C4.5147 74.8468 4.49711 74.6478 4.4823 74.4672C4.46749 74.2858 4.45359 74.1164 4.46749 73.9646C4.4823 73.6461 4.55822 73.3887 4.68135 73.223C4.74245 73.1471 4.81836 73.0711 4.92389 73.024C5.03221 72.9656 5.15164 72.9194 5.28865 72.8897C5.57843 72.8286 5.92836 72.8138 6.27554 72.8286C6.4607 72.8434 6.62641 72.8573 6.82546 72.8897L7.41888 72.9656C9.01309 73.1471 10.6267 73.2517 12.2246 73.3128C15.4325 73.4035 18.6727 73.2517 21.8482 72.7814C25.0449 72.3111 28.1907 71.5232 31.218 70.3114C31.9632 70.0078 32.7076 69.6717 33.438 69.3245C33.8037 69.144 34.1685 68.9588 34.5156 68.7635L35.5682 68.1849C36.9643 67.4295 38.3493 66.6703 39.7491 65.9287C42.5477 64.4382 45.376 63.0283 48.2505 61.7553C51.1223 60.4824 54.0728 59.3575 57.0853 58.4642C60.0978 57.568 63.1686 56.9024 66.2709 56.5515C69.3741 56.2043 72.5199 56.1756 75.6231 56.5228C78.7255 56.8552 81.7815 57.5532 84.7468 58.5697C86.2224 59.0724 87.6833 59.676 89.0831 60.3305C90.4644 60.9962 91.8206 61.8025 93.0825 62.6959C93.7194 63.1366 94.3443 63.6069 94.9377 64.1059C95.5312 64.6086 96.0913 65.1224 96.594 65.6686C96.8365 65.9426 97.0642 66.2287 97.2337 66.5185C97.3244 66.6555 97.3864 66.7925 97.4151 66.9119C97.4291 66.9453 97.4291 66.9591 97.4291 66.9878V67.0175C97.4291 67.035 97.4291 67.0638 97.4291 67.0786C97.4291 67.1545 97.4438 67.2452 97.4438 67.3387C97.4438 68.0192 97.2772 68.7496 97.0356 69.4292C96.5329 70.8104 95.6506 72.0834 94.6017 73.1943C94.0842 73.7544 93.5056 74.2534 92.9121 74.7376C92.3196 75.2264 91.6827 75.6634 91.0282 76.0902C88.4138 77.7575 85.4772 78.9545 82.4832 79.8803C82.1934 79.971 82.0416 80.2747 82.1323 80.5635C82.2231 80.8533 82.5267 81.0051 82.8017 80.9292C85.8715 80.0034 88.8989 78.8212 91.6651 77.0918C92.352 76.6512 93.0353 76.1957 93.6759 75.6967C94.3119 75.194 94.9377 74.6478 95.5126 74.0581C96.6551 72.8721 97.6429 71.4945 98.2502 69.8994C98.5539 69.1107 98.7529 68.2608 98.7677 67.3535C98.7677 67.2452 98.7677 67.1258 98.7529 67.0026C98.7529 66.974 98.7529 66.9591 98.7529 66.9119C98.7529 66.8684 98.7381 66.836 98.7381 66.7925C98.7242 66.7166 98.7057 66.6407 98.6918 66.5796C98.6159 66.3046 98.4965 66.0954 98.3881 65.8815C98.1456 65.4872 97.8854 65.1548 97.5957 64.8363C97.0356 64.1966 96.4273 63.6504 95.8024 63.1227C95.1803 62.5904 94.5258 62.1062 93.8712 61.6359C92.5474 60.6925 91.1661 59.8602 89.6904 59.1298C88.2147 58.4355 86.74 57.8133 85.217 57.2819C82.1758 56.2043 79.0004 55.4591 75.7889 55.1119C72.5819 54.7472 69.3269 54.7796 66.1191 55.1267C62.9075 55.4776 59.7469 56.1571 56.6585 57.069C53.5701 57.98 50.5761 59.1298 47.6395 60.4213C44.7066 61.7081 41.8608 63.1514 39.051 64.6521C37.6512 65.3974 36.2514 66.1713 34.8526 66.9268L33.8176 67.5054C33.4815 67.6859 33.1344 67.8674 32.7835 68.0368C32.0854 68.3839 31.3846 68.6876 30.6533 68.9912C27.7639 70.1596 24.7227 70.9335 21.638 71.3853C18.5496 71.8556 15.4001 72.026 12.2533 71.9501C10.6878 71.9028 9.12234 71.8121 7.55592 71.6464L6.97732 71.5844C6.77822 71.5557 6.55049 71.5372 6.33757 71.5232C5.89596 71.4946 5.44049 71.5085 4.95629 71.6131C4.71005 71.6751 4.45359 71.7658 4.20735 71.9028C3.96479 72.0398 3.73706 72.2352 3.55651 72.4778C3.38619 72.724 3.26673 72.9804 3.19082 73.2369C3.11492 73.4943 3.0825 73.7396 3.0825 73.9821C3.06864 74.2099 3.0825 74.4524 3.11492 74.6617C3.12973 74.8755 3.15844 75.0746 3.19082 75.2838C3.25286 75.6967 3.31028 76.105 3.41951 76.5132C3.60004 77.3344 3.875 78.1232 4.19253 78.8786C4.84706 80.4117 5.79136 81.8078 6.90136 83.0196C8.02621 84.2343 9.33525 85.2656 10.7313 86.1154C12.1311 86.9653 13.6392 87.6337 15.1899 88.1327C16.7415 88.6317 18.3366 88.9687 19.9494 89.164C20.7557 89.2539 21.5621 89.3159 22.3647 89.3446C22.7776 89.3622 23.1711 89.3622 23.584 89.3622C23.9923 89.3622 24.3755 89.3446 24.8134 89.3298C25.1208 89.3159 25.3485 89.0585 25.33 88.7697C25.3161 88.4799 25.0736 88.2383 24.7699 88.2521L24.7551 88.18Z" fill="#222E6A"/>
<path d="M26.0944 71.5841C26.2314 71.4184 26.336 71.2804 26.4592 71.1286C26.5647 70.9768 26.673 70.8249 26.7777 70.6731C26.8823 70.5213 26.9767 70.3546 27.0813 70.2029L27.3563 69.7186C27.7219 69.0669 28.0256 68.3985 28.2969 67.7153C28.4191 67.3681 28.5709 67.0348 28.6801 66.6839L28.8459 66.1525C28.9079 65.972 28.9366 65.8054 28.9977 65.6248C29.0449 65.4406 29.0884 65.274 29.1356 65.0934L29.255 64.5472C29.3485 64.1815 29.392 63.8168 29.4541 63.4696C29.5152 63.1039 29.5439 62.7419 29.5911 62.3772C29.6383 62.0115 29.667 61.6504 29.6818 61.2848C29.7142 60.558 29.7142 59.8128 29.667 59.086C29.5763 57.6288 29.3634 56.1754 28.9838 54.7793C28.9079 54.4895 28.6042 54.3238 28.3144 54.3997C28.0395 54.4756 27.8738 54.7321 27.9164 54.9885C28.1015 56.3707 28.221 57.752 28.2533 59.1295C28.2672 60.5108 28.1774 61.8921 27.9636 63.2419C27.7645 64.5908 27.4322 65.9285 26.9906 67.2301C26.7628 67.8671 26.5027 68.5216 26.2139 69.1252L25.7575 70.0362C25.6815 70.188 25.5917 70.3398 25.5158 70.4778C25.4399 70.6148 25.3306 70.7638 25.2547 70.886L25.2409 70.9157C25.0742 71.1758 25.1501 71.5082 25.4075 71.66C25.6204 71.8414 25.9093 71.798 26.0944 71.5841Z" fill="#222E6A"/>
<path d="M22.3836 100.783C19.3859 105.318 14.7496 107.925 13.5776 110.579C12.225 113.646 14.1997 116.663 18.4888 117.118C22.1558 117.513 28.8752 115.299 35.1094 107.259" fill="white"/>
<path d="M21.9283 100.479C20.9229 101.904 19.737 103.195 18.4455 104.406C17.8058 105.014 17.1365 105.607 16.4819 106.214C15.8126 106.819 15.1442 107.426 14.4896 108.095C14.1712 108.428 13.8527 108.793 13.5639 109.187C13.4111 109.382 13.2741 109.596 13.1509 109.809L13.0611 109.976L12.9704 110.156C12.9093 110.279 12.8621 110.384 12.8186 110.507C12.4353 111.448 12.3011 112.54 12.5436 113.584C12.6668 114.102 12.876 114.601 13.1658 115.042C13.4546 115.479 13.8055 115.874 14.1998 116.21C14.9923 116.875 15.9181 117.302 16.8615 117.573C17.3355 117.71 17.8197 117.801 18.2899 117.848C18.7779 117.906 19.2806 117.924 19.7508 117.892C20.2387 117.877 20.709 117.816 21.1793 117.74C21.6533 117.664 22.1088 117.559 22.5643 117.436C24.3909 116.937 26.0795 116.116 27.645 115.132C29.2114 114.145 30.6399 112.977 31.9638 111.704C32.6183 111.068 33.2395 110.399 33.8329 109.701C34.4264 109.017 34.9902 108.291 35.5364 107.564C35.7206 107.321 35.6595 106.985 35.4318 106.804C35.204 106.638 34.867 106.667 34.6865 106.895C34.1227 107.578 33.5441 108.247 32.9507 108.898C32.3433 109.534 31.7212 110.156 31.0806 110.75C29.79 111.932 28.4051 113.009 26.9146 113.903C25.425 114.8 23.841 115.541 22.1995 115.964C21.7903 116.073 21.3784 116.164 20.9516 116.239C20.5433 116.315 20.1165 116.362 19.7073 116.376C19.2954 116.391 18.8834 116.376 18.489 116.329C18.0798 116.286 17.6678 116.21 17.2883 116.088C16.5106 115.874 15.7654 115.527 15.1904 115.042C14.9016 114.8 14.6415 114.51 14.4461 114.206C14.2471 113.903 14.1091 113.556 14.0193 113.205C13.8527 112.507 13.911 111.733 14.1998 111.006C14.46 110.308 14.9775 109.657 15.5561 109.017C16.1311 108.38 16.7856 107.777 17.4253 107.169C18.0798 106.561 18.7316 105.94 19.3713 105.288C20.6479 103.998 21.8663 102.602 22.8541 101.04C23.0059 100.783 22.93 100.45 22.6874 100.298C22.4125 100.175 22.094 100.251 21.9283 100.479Z" fill="#222E6A"/>
<path d="M33.0879 96.1252C33.0879 96.4112 33.2036 96.6862 33.4388 96.95C33.6702 97.2139 34.0035 97.449 34.434 97.6481C34.8635 97.8499 35.3598 98.0054 35.9236 98.1174C36.4874 98.2267 37.0734 98.2804 37.6807 98.2804C38.289 98.2804 38.874 98.2267 39.4388 98.1174C40.0026 98.0054 40.4979 97.8499 40.9284 97.6481C41.3588 97.449 41.6912 97.2139 41.9226 96.95C42.1578 96.6862 42.2735 96.4112 42.2735 96.1252C42.2735 95.8391 42.1578 95.5651 41.9226 95.3003C41.6912 95.0364 41.3588 94.805 40.9284 94.6032C40.4979 94.4004 40.0026 94.2449 39.4388 94.1366C38.874 94.0273 38.289 93.9736 37.6807 93.9736C37.0734 93.9736 36.4874 94.0273 35.9236 94.1366C35.3598 94.2449 34.8635 94.4004 34.434 94.6032C34.0035 94.805 33.6702 95.0364 33.4388 95.3003C33.2036 95.5651 33.0879 95.8391 33.0879 96.1252Z" fill="#FF8856"/>
<path d="M71.5947 93.8213C71.5947 94.1 71.6929 94.3675 71.8882 94.6277C72.0863 94.8841 72.365 95.1119 72.7307 95.3109C73.0917 95.5099 73.5111 95.6618 73.9888 95.7664C74.4628 95.8757 74.9581 95.9293 75.4719 95.9293C75.9848 95.9293 76.4801 95.8757 76.9541 95.7664C77.4318 95.6618 77.8512 95.5099 78.2132 95.3109C78.5779 95.1119 78.8566 94.8841 79.0556 94.6277C79.251 94.3675 79.3482 94.1 79.3482 93.8213C79.3482 93.539 79.251 93.2714 79.0556 93.015C78.8566 92.7539 78.5779 92.5262 78.2132 92.3308C77.8512 92.1327 77.4318 91.9799 76.9541 91.8716C76.4801 91.767 75.9848 91.7124 75.4719 91.7124C74.9581 91.7124 74.4628 91.767 73.9888 91.8716C73.5111 91.9799 73.0917 92.1327 72.7307 92.3308C72.365 92.5262 72.0863 92.7539 71.8882 93.015C71.6929 93.2714 71.5947 93.539 71.5947 93.8213Z" fill="#FF8856"/>
</svg>
