<svg width="197" height="154" viewBox="0 0 197 154" fill="none" xmlns="http://www.w3.org/2000/svg">
<path d="M86.7764 110.21L128.118 83.5492C128.73 83.1515 131.265 87.0818 130.648 87.4744L89.3112 114.139C88.6948 114.537 86.1641 110.603 86.7764 110.21Z" fill="#39223F"/>
<path d="M128.651 84.3081L87.2812 110.989L88.1753 112.38L129.548 85.6945L128.651 84.3081Z" fill="#5F4F61"/>
<path d="M134.382 83.494L133.965 82.847L133.286 81.7902C133.21 81.6702 133.107 81.5827 133.004 81.4993C132.571 81.1463 131.951 81.0741 131.454 81.3966L128.148 83.5295L128.65 84.3087L129.547 85.695L130.684 87.4558L133.99 85.3218C134.605 84.9281 134.78 84.1062 134.382 83.494ZM88.1739 112.38L87.2798 110.99L86.7753 110.21L83.3028 112.451C82.8054 112.77 82.6111 113.362 82.7576 113.902C82.7942 114.033 82.8298 114.164 82.9051 114.279L83.5886 115.336L84.0056 115.984C84.4033 116.599 85.2211 116.774 85.8334 116.376L89.3101 114.14L88.1739 112.38Z" fill="#DAC9DB"/>
<path d="M129.547 85.6948L133.965 82.8468L133.286 81.7899C133.211 81.6699 133.107 81.5824 133.004 81.499L128.65 84.3084L129.547 85.6948ZM87.2801 110.989L82.7578 113.906C82.7944 114.033 82.83 114.164 82.9053 114.283L83.5888 115.336L88.1742 112.38L87.2801 110.989Z" fill="white"/>
<path d="M123.616 97.9288L125.774 97.6226L127.165 94.9445C127.347 94.5905 127.745 94.4043 128.134 94.4878C128.524 94.5711 128.809 94.9048 128.829 95.3025L128.993 98.3184L130.827 99.4861C131.138 99.6844 131.292 100.055 131.217 100.416C131.138 100.777 130.844 101.051 130.479 101.103L128.332 101.409L126.878 104.365C126.7 104.726 126.294 104.926 125.901 104.838C125.504 104.755 125.218 104.409 125.206 104.003L125.095 100.71L123.271 99.5491C122.957 99.3508 122.802 98.9775 122.881 98.6154C122.957 98.2583 123.251 97.9837 123.616 97.9288ZM104.394 80.7399L108.041 80.2201L110.02 77.1127C110.346 76.596 110.961 76.3417 111.557 76.4689C112.158 76.6001 112.61 77.0853 112.698 77.6925L113.219 81.336L116.325 83.3154C116.842 83.6449 117.096 84.2603 116.969 84.8563C116.838 85.4565 116.353 85.9091 115.745 85.9966L112.102 86.5173L110.123 89.6248C109.794 90.1404 109.177 90.3947 108.581 90.2676C107.981 90.1374 107.529 89.6522 107.441 89.044L106.92 85.3964L103.814 83.4181C103.297 83.0926 103.043 82.4762 103.17 81.8801C103.301 81.2811 103.789 80.8274 104.394 80.7399ZM115.813 104.178L117.748 103.905L118.793 102.26C118.967 101.985 119.293 101.85 119.611 101.918C119.926 101.985 120.168 102.244 120.211 102.565L120.489 104.497L122.134 105.545C122.409 105.72 122.544 106.046 122.476 106.36C122.409 106.677 122.15 106.916 121.829 106.964L119.897 107.238L118.848 108.883C118.674 109.157 118.348 109.292 118.034 109.224C117.716 109.157 117.477 108.899 117.43 108.576L117.152 106.646L115.507 105.597C115.233 105.426 115.097 105.1 115.169 104.782C115.237 104.464 115.495 104.226 115.813 104.178Z" fill="#FF8856"/>
<path d="M89.0689 94.5312C90.141 98.8338 91.4917 102.998 94.5991 106.383C96.5378 108.617 100.631 108.048 102.553 105.747C102.888 108.532 100.714 110.964 96.7209 111.398C92.696 111.831 85.3095 109.399 78.46 100.566L89.0689 94.5312Z" fill="#DAC9DB"/>
<path d="M94.5986 106.383C91.5075 102.998 90.1404 98.8338 89.0684 94.5312L91.2572 93.2832C94.5508 98.2662 100.816 101.297 102.1 104.214C102.335 104.73 102.469 105.247 102.538 105.747C100.63 108.048 96.5373 108.617 94.5986 106.383Z" fill="white"/>
<path d="M90.7725 93.617C91.3249 94.4999 91.9606 95.334 92.6644 96.0806C93.348 96.8475 94.0824 97.5667 94.8341 98.2664C96.3395 99.6325 97.9608 100.864 99.4112 102.184C99.7642 102.514 100.114 102.848 100.431 103.197C100.75 103.546 101.032 103.9 101.235 104.25C101.282 104.334 101.318 104.432 101.365 104.516C101.417 104.616 101.449 104.715 101.485 104.814C101.552 105.016 101.619 105.216 101.667 105.43C101.751 105.847 101.786 106.264 101.735 106.666C101.652 107.48 101.282 108.247 100.698 108.847C100.114 109.447 99.3278 109.9 98.4775 110.182C97.6231 110.464 96.6893 110.615 95.7871 110.615C94.8696 110.631 93.9318 110.464 92.9981 110.25L92.3105 110.062L91.627 109.848L91.2934 109.733L90.9597 109.598L90.2884 109.332C90.0738 109.249 89.8551 109.133 89.6364 109.03C89.4218 108.93 89.2031 108.831 88.9854 108.716L88.3527 108.366L88.0354 108.199L87.8686 108.116L87.717 108.017C86.0448 107.015 84.4753 105.831 83.0209 104.501C81.5673 103.181 80.2318 101.715 78.9604 100.197V100.182C78.7457 99.9305 78.3765 99.899 78.1263 100.098C77.8761 100.301 77.8435 100.666 78.0266 100.916C79.2462 102.55 80.5817 104.099 82.0515 105.533L83.1877 106.583L84.3757 107.563C84.7774 107.882 85.2108 108.184 85.6115 108.482C85.8098 108.632 86.0448 108.763 86.2473 108.914L86.8992 109.332C88.6508 110.433 90.5742 111.298 92.6289 111.831C93.6654 112.081 94.7181 112.263 95.8034 112.263C96.908 112.263 97.976 112.097 99.0451 111.748C100.098 111.398 101.115 110.829 101.917 109.979C102.736 109.149 103.305 108.017 103.404 106.817C103.472 106.216 103.404 105.633 103.289 105.064C103.221 104.782 103.138 104.516 103.038 104.23C102.987 104.099 102.939 103.964 102.872 103.832C102.803 103.698 102.736 103.546 102.653 103.432C102.355 102.915 102.001 102.498 101.636 102.1C101.267 101.715 100.881 101.349 100.483 101.016C99.6971 100.332 98.9098 99.7169 98.1276 99.0812C97.3403 98.4648 96.5734 97.8331 95.8186 97.1812C94.3173 95.8985 92.9147 94.5152 91.8101 92.9345C91.627 92.668 91.2415 92.5999 90.976 92.783C90.6739 92.9813 90.6058 93.3516 90.7725 93.617Z" fill="#775E82"/>
<path d="M98.5606 60.3023C99.9307 61.0215 98.3938 62.8015 97.4916 63.0873C95.6871 63.6874 93.9468 64.434 92.2431 65.1847C92.8107 66.0706 93.5298 66.8019 94.6507 67.0684C98.8108 67.5526 102.553 65.3514 105.26 62.0182C106.312 60.6197 106.963 58.9037 107.198 57.1196C107.599 57.6516 107.849 58.1205 107.882 58.4857C108.116 61.2869 105.529 68.5341 91.4599 72.917H91.3602C89.0207 73.4175 89.5527 70.6681 89.0207 68.1527C88.385 65.1368 87.0495 60.52 85.3447 57.4207L87.1136 56.5348C86.899 56.5195 86.664 56.488 86.4301 56.4717C90.5221 56.3883 94.6344 58.0849 98.5606 60.3023Z" fill="#752B0B"/>
<path d="M28.3532 73.5681C28.2342 75.0348 27.6188 77.1007 27.7857 78.4993C27.8528 79.0994 27.034 81.0025 27.1336 81.567C26.2162 81.4673 24.9956 79.8185 24.0741 79.5368C23.3905 79.318 22.6561 79.0994 21.9045 78.8532C17.9955 77.5696 13.5485 75.6187 12.6992 71.1523C17.2764 72.1024 23.657 73.1836 28.3532 73.5681Z" fill="#752B0B"/>
<path d="M4.96191 70.1675C7.48549 77.6842 16.1028 82.9175 27.3312 82.4323C27.1644 81.7335 26.9975 80.9351 26.847 80.0685C25.9285 79.9688 24.9948 79.802 24.0732 79.5162C23.3897 79.3015 22.6553 79.0828 21.9036 78.8326C15.2687 78.8845 8.66946 75.9836 4.96191 70.1675Z" fill="#752B0B"/>
<path d="M38.6592 103.233C36.2872 106.948 33.4819 110.131 30.1049 112.88C22.9208 119.046 13.8976 120.215 5.71254 124.212C5.34332 124.398 4.99342 124.597 4.64453 124.796C4.97815 124.53 5.32704 124.248 5.69728 123.946C9.88898 120.513 13.5477 116.698 16.6236 112.347C17.5929 113.015 18.8603 113.495 20.4135 113.662C24.359 114.08 31.8931 111.732 38.6592 103.233Z" fill="#DAC9DB"/>
<path d="M30.4075 78.8012C29.5216 78.9161 28.6356 78.9843 27.7334 79.0351C28.7546 68.4028 31.3768 43.388 58.4942 41.9528C69.0197 41.4045 79.0437 46.2879 84.7255 55.6213C86.0804 57.8387 87.1138 60.2025 87.9316 62.718C79.6276 59.7855 70.0724 60.5677 62.0186 64.0525C52.8286 68.054 44.8104 74.0531 35.4536 77.5501C33.8007 78.1858 32.1112 78.5672 30.4075 78.8012Z" fill="#DAC9DB"/>
<path d="M27.5814 80.6169C27.6333 80.1368 27.6852 79.5997 27.733 79.0352C28.6352 78.9996 29.5211 78.9162 30.4071 78.8013C29.4052 84.6021 27.733 90.4985 24.709 95.5324C26.0638 91.0152 27.0138 86.0688 27.5814 80.6169Z" fill="#DAC9DB"/>
<path d="M4.64492 124.796C4.99381 124.581 5.34371 124.398 5.71293 124.212C13.898 120.215 22.9211 119.046 30.1053 112.88C33.4822 110.131 36.2875 106.948 38.6596 103.233C38.8782 102.899 39.0807 102.565 39.2953 102.216C39.0969 102.565 38.8782 102.899 38.6596 103.233C31.8935 111.732 24.3594 114.08 20.3986 113.647C18.8454 113.48 17.574 113.015 16.6077 112.332C19.9968 107.515 22.6872 102.065 24.6096 95.7674C24.6259 95.684 24.6574 95.6006 24.6778 95.5172C27.7018 90.4823 29.3699 84.6021 30.3748 78.785C32.0796 78.5673 33.764 78.1696 35.4209 77.5339C44.7747 74.0339 52.7959 68.0337 61.9869 64.0362C70.0408 60.5525 79.5959 59.7693 87.9 62.7018C90.7571 71.4503 90.8406 82.0511 91.2098 94.5987C91.7102 111.763 92.2626 116.599 94.718 126.595C95.8541 131.197 96.8245 132.663 95.8867 135.095C93.2126 142.096 86.5288 144.093 79.2938 143.311C77.4223 143.113 75.5711 143.859 73.314 145.946C66.4645 152.278 60.449 153.777 52.2599 150.944C46.9473 149.112 46.9158 146.112 43.2408 147.276C35.0202 149.895 28.5043 150.928 23.1876 146.613C18.6776 142.946 21.018 140.212 18.344 140.446C8.4033 141.296 2.72148 135.814 1.46938 131.447C0.631231 128.348 2.13764 126.862 4.64492 124.796Z" fill="white"/>
<path d="M44.5749 148.012C45.1273 147.96 45.5606 148.043 46.1129 148.377C46.6652 148.695 47.249 149.176 47.8848 149.613C49.1521 150.511 50.6067 151.226 52.0764 151.711C53.531 152.176 55.017 152.577 56.5387 152.812C58.0604 153.026 59.6298 153.11 61.1841 152.962L61.7679 152.895C61.9703 152.879 62.1534 152.86 62.3517 152.812L63.5042 152.593L64.6241 152.279C64.8112 152.228 64.9943 152.16 65.1764 152.093L65.7287 151.893C67.1832 151.33 68.5503 150.611 69.837 149.76C70.0038 149.661 70.1553 149.546 70.3221 149.446L71.2599 148.779C71.4105 148.66 71.558 148.544 71.7085 148.429L72.6107 147.73L73.4804 146.995L74.3155 146.28C74.5851 146.045 74.8678 145.846 75.1536 145.644C75.7182 145.246 76.3061 144.913 76.8899 144.679C77.4066 144.479 77.6568 143.895 77.4585 143.379C77.2551 142.862 76.6712 142.612 76.1545 142.811C76.1393 142.826 76.1026 142.826 76.0874 142.847C75.3204 143.212 74.6328 143.661 74.0175 144.162C73.6991 144.412 73.397 144.662 73.1112 144.929L72.2924 145.696L71.4939 146.426L70.6558 147.13C70.5246 147.245 70.3893 147.36 70.2387 147.48L69.8054 147.793L69.3721 148.112C69.2216 148.226 69.0863 148.329 68.9358 148.429L68.0336 149.029C67.7314 149.212 67.4171 149.379 67.0998 149.561C66.9482 149.644 66.7977 149.744 66.6309 149.812L66.1457 150.046L65.6615 150.277L65.5466 150.328L65.4266 150.376L65.1764 150.479L64.6759 150.662C64.5091 150.73 64.3423 150.793 64.1755 150.829L63.1543 151.126L62.1168 151.33C61.95 151.378 61.7679 151.378 61.6011 151.393L61.0681 151.461C59.6613 151.576 58.2272 151.512 56.8052 151.294C55.4025 151.043 53.9999 150.662 52.6288 150.177C51.9615 149.927 51.3095 149.661 50.7063 149.327C50.0899 148.993 49.5061 148.612 48.9538 148.195C48.3852 147.762 47.8339 147.276 47.13 146.796L46.9988 146.713L46.8483 146.63C46.7486 146.578 46.6459 146.51 46.5462 146.463C46.3316 146.363 46.1129 146.259 45.8789 146.196C45.763 146.161 45.644 146.113 45.529 146.097L45.1598 146.045C45.0438 146.029 44.9248 146.029 44.7936 146.029H44.4244C43.8721 146.029 43.4235 146.463 43.4072 147.011C43.4072 147.563 43.8405 148.012 44.3929 148.028C44.4244 148.028 44.46 148.028 44.4915 148.028L44.5749 148.012Z" fill="#222E6A"/>
<path d="M18.8609 141.443C18.9128 141.443 18.9128 141.443 18.8965 141.427C18.8772 141.412 18.8772 141.396 18.9128 141.443C18.9443 141.495 18.9962 141.594 19.0277 141.71C19.0796 141.829 19.1111 141.979 19.163 142.127C19.3461 142.727 19.58 143.411 19.9137 144.026C20.232 144.645 20.6491 145.21 21.1017 145.727C21.5513 146.243 22.0355 146.692 22.5562 147.109C23.5734 147.944 24.7096 148.643 25.9291 149.176C26.5496 149.426 27.165 149.66 27.8007 149.827C28.4364 149.994 29.0884 150.109 29.7394 150.193C31.0434 150.36 32.3463 150.36 33.6341 150.26C34.2851 150.208 34.9167 150.145 35.5524 150.045C36.1881 149.942 36.8239 149.843 37.4402 149.727C38.6954 149.477 39.9312 149.176 41.1508 148.861C41.7713 148.71 42.3704 148.543 42.9705 148.376C43.2726 148.293 43.591 148.194 43.8412 148.142C44.1067 148.095 44.3579 148.059 44.5756 148.043C45.1279 148.027 45.5775 147.578 45.5612 147.026C45.5459 146.477 45.0923 146.029 44.5441 146.044C44.5084 146.044 44.4922 146.044 44.4606 146.044H44.4413C44.0599 146.077 43.6896 146.175 43.3408 146.279C42.9705 146.394 42.7203 146.494 42.4223 146.592C41.8344 146.796 41.2505 146.994 40.6667 147.177C39.4979 147.542 38.3099 147.876 37.1066 148.142C34.7346 148.678 32.2945 148.976 29.9387 148.695C29.3549 148.611 28.77 148.512 28.2025 148.361C27.6339 148.209 27.0815 148.011 26.5496 147.777C25.4805 147.292 24.4909 146.66 23.609 145.893C23.1716 145.512 22.7546 145.095 22.3894 144.662C22.0355 144.228 21.7181 143.759 21.5035 143.259C21.2685 142.763 21.118 142.262 20.9827 141.662C20.9511 141.511 20.8993 141.344 20.8515 141.177C20.7996 140.995 20.7325 140.812 20.6175 140.577C20.4985 140.362 20.3154 140.076 20.0327 139.878C19.7631 139.68 19.4651 139.58 19.1945 139.513H19.163C18.627 139.393 18.094 139.743 17.975 140.295C17.86 140.827 18.2099 141.36 18.7612 141.479C18.7938 141.427 18.8294 141.427 18.8609 141.443Z" fill="#222E6A"/>
<path d="M58.4419 40.9556C56.9884 41.0552 55.5532 41.2058 54.115 41.4367C52.6808 41.6706 51.2588 41.989 49.8561 42.406C47.0671 43.236 44.3574 44.4556 41.9376 46.0891C39.5137 47.7217 37.3401 49.7367 35.5682 52.0527C34.6863 53.2052 33.8675 54.4207 33.1484 55.6687C32.4292 56.9198 31.7935 58.2197 31.2249 59.5542C30.1051 62.2008 29.2547 64.9696 28.619 67.7667C27.9833 70.568 27.5662 73.3855 27.2479 76.2183C27.0973 77.6331 26.9661 79.051 26.8308 80.4496L26.5806 82.5317L26.4453 83.5845C26.4138 83.9344 26.3619 84.2843 26.2989 84.6179L25.9612 86.6838L25.7944 87.7172L25.5797 88.7496L25.1423 90.8002L25.0946 91.0504L24.8921 91.8011L24.6257 92.8141L24.3591 93.8313C24.3083 93.9981 24.2757 94.1649 24.2249 94.3327L24.0733 94.8332L23.458 96.8319C23.4061 96.9987 23.3542 97.1655 23.3064 97.3323L23.1243 97.8165L22.7541 98.7981L22.3889 99.7837C22.3208 99.9505 22.2699 100.113 22.2018 100.265L22.0034 100.749L21.1846 102.664C21.0493 102.982 20.8988 103.3 20.732 103.614L20.2631 104.548L19.7982 105.481C19.7311 105.632 19.6314 105.799 19.548 105.947L19.2978 106.399L18.2766 108.231L17.1557 109.999L16.8739 110.448L16.7386 110.662L16.5881 110.881L15.3879 112.581L15.0858 113.015L14.7684 113.432L13.4644 115.064C13.3658 115.196 13.2467 115.331 13.1308 115.462L12.7819 115.864L12.0943 116.646C11.8594 116.913 11.6447 117.178 11.4108 117.429L9.94101 118.931C9.69078 119.181 9.45583 119.431 9.20558 119.662L7.66766 121.096C7.53236 121.211 7.41743 121.331 7.28217 121.446L6.88139 121.78L5.27632 123.147C5.00983 123.381 4.72809 123.595 4.45753 123.814C3.90928 124.263 3.35696 124.712 2.80465 125.213C2.25233 125.713 1.72037 126.261 1.25143 126.928C1.03277 127.263 0.818146 127.645 0.666596 128.045L0.567917 128.347C0.532318 128.447 0.516052 128.546 0.484528 128.662L0.416382 128.979C0.4011 129.079 0.4011 129.194 0.380783 129.297C0.297379 130.147 0.448914 130.961 0.651337 131.713C1.09991 133.21 1.88716 134.546 2.85652 135.71C3.82587 136.878 4.97829 137.879 6.22941 138.678C6.86512 139.095 7.51711 139.445 8.20065 139.763C8.88721 140.076 9.58702 140.343 10.2899 140.561C11.7088 141.01 13.1786 141.276 14.6687 141.395C15.4041 141.443 16.1548 141.479 16.8902 141.46L17.4425 141.443L17.9948 141.412L18.5105 141.379C18.6458 141.379 18.7455 141.379 18.8126 141.395C19.3456 141.51 19.8816 141.161 19.9966 140.628C20.1166 140.097 19.7626 139.559 19.2296 139.445C19.2144 139.445 19.194 139.445 19.1788 139.445H19.1462C18.8604 139.393 18.6102 139.393 18.3763 139.413L17.8433 139.445L17.3428 139.476L16.8383 139.496C16.1548 139.528 15.4875 139.513 14.8193 139.461C13.4644 139.361 12.1462 139.142 10.8585 138.761C10.2227 138.579 9.58702 138.344 8.98692 138.062C8.3868 137.796 7.78362 137.478 7.23131 137.128C6.11446 136.429 5.07697 135.563 4.22664 134.561C3.37323 133.56 2.70497 132.412 2.33574 131.196C2.16894 130.596 2.06924 129.98 2.12112 129.428C2.16894 128.864 2.35608 128.347 2.6897 127.847C3.02335 127.346 3.47189 126.878 3.95708 126.413C4.45753 125.963 4.99356 125.515 5.53063 125.061C5.7961 124.831 6.07887 124.612 6.34841 124.378L7.98602 122.98L8.3868 122.63C8.51802 122.515 8.65329 122.38 8.78856 122.264L10.3418 120.779C10.6082 120.548 10.8422 120.281 11.0924 120.012L11.8441 119.229L12.5947 118.462C12.8287 118.195 13.0637 117.93 13.3139 117.663L14.0167 116.848L14.3667 116.448C14.4856 116.312 14.6016 116.181 14.7165 116.031L16.0551 114.345L16.3887 113.932L16.7071 113.495L17.3225 112.613L17.9429 111.731L18.0935 111.512L18.245 111.283L18.5268 110.829L19.6629 109.013L20.7004 107.131L20.9659 106.666C21.0493 106.514 21.149 106.347 21.2172 106.181L22.1539 104.25C22.3055 103.932 22.4723 103.614 22.6035 103.28L23.4376 101.297L23.6563 100.797C23.7234 100.63 23.7753 100.467 23.8394 100.3L24.2086 99.2985L24.5738 98.2976L24.7609 97.7972C24.8087 97.6344 24.8606 97.4676 24.9277 97.2805L25.5635 95.234L25.711 94.7172C25.7618 94.5504 25.7944 94.3643 25.8452 94.1975L26.1117 93.164L26.3823 92.1306L26.5135 91.6149L26.5806 91.3484L26.6325 91.0819L27.0658 88.9846L27.2835 87.9318L27.4503 86.8821L27.8002 84.7685C27.8683 84.4155 27.8999 84.0656 27.9517 83.7157L28.086 82.6507L28.3372 80.533C28.4837 79.1192 28.6027 77.7165 28.7695 76.3179C29.0879 73.536 29.5049 70.7673 30.1407 68.0536C30.458 66.7018 30.8079 65.351 31.2412 64.0205C31.6786 62.7013 32.1628 61.4024 32.6957 60.1188C33.2481 58.8514 33.8675 57.6196 34.5673 56.4194C35.2701 55.2354 36.0371 54.087 36.8915 53.018C38.5952 50.8687 40.6143 48.986 42.9069 47.4877C45.1955 45.9854 47.7344 44.8889 50.3728 44.1382C53.0144 43.3876 55.7719 43.0061 58.5253 42.8861C59.0777 42.8546 59.511 42.3857 59.4794 41.8374C59.4469 41.2892 58.979 40.8559 58.4267 40.8884C58.4419 40.9556 58.4419 40.9556 58.4419 40.9556Z" fill="#222E6A"/>
<path d="M76.8907 144.693C77.443 144.443 78.0106 144.297 78.5792 144.276C78.7267 144.276 78.8609 144.276 79.0125 144.276C79.0796 144.276 79.163 144.297 79.2312 144.297L79.4967 144.312C79.8628 144.344 80.2321 144.376 80.582 144.395C82.0365 144.479 83.5063 144.443 84.9761 144.245C86.4459 144.062 87.9004 143.696 89.2868 143.128C90.6742 142.56 91.9934 141.761 93.1133 140.744C93.6819 140.243 94.1986 139.695 94.6665 139.095C95.1354 138.496 95.5372 137.863 95.8871 137.212L96.1373 136.712L96.3712 136.21C96.4547 136.043 96.5228 135.861 96.59 135.695L96.6896 135.428L96.7883 135.146C96.9236 134.78 97.007 134.363 97.0751 133.961C97.1229 133.544 97.1423 133.127 97.1066 132.746C97.0395 131.947 96.8564 131.212 96.6734 130.513C96.4902 129.813 96.2878 129.146 96.0895 128.479C95.8871 127.812 95.7203 127.147 95.5535 126.464L95.052 124.43C94.401 121.713 93.8172 118.979 93.4317 116.229C93.0299 113.48 92.7634 110.698 92.5813 107.897C92.3942 105.1 92.2793 102.299 92.1602 99.4981C92.0606 96.7009 91.9771 93.8834 91.8937 91.0669C91.7422 85.4482 91.612 79.8019 91.0078 74.1679C90.7098 71.3514 90.2724 68.5339 89.6051 65.753C88.9379 62.968 88.0153 60.238 86.748 57.6351L86.514 57.155L86.0136 56.1857C85.9302 56.0382 85.8305 55.8714 85.7471 55.7208L85.4765 55.2519C85.3931 55.1045 85.2782 54.9539 85.1947 54.8023L84.6109 53.8889L84.3088 53.4363L83.9752 53.003L83.3232 52.1364C83.2042 51.9858 83.1045 51.8384 82.9896 51.7031L82.6356 51.286L81.9205 50.4713L81.7344 50.2689C81.6703 50.2058 81.6032 50.1377 81.5513 50.0705L81.1658 49.6891L80.3989 48.9222C80.1324 48.6719 79.8466 48.437 79.5801 48.2031C79.3146 47.9721 79.0278 47.7219 78.7623 47.488L77.8916 46.836L77.4593 46.5024L77.2406 46.3356C77.1725 46.2877 77.0891 46.2359 77.0057 46.1891L76.0882 45.589L75.6356 45.2869C75.4881 45.1872 75.3213 45.1038 75.1707 45.0204C72.6634 43.5546 69.9375 42.4541 67.1169 41.7706C64.2912 41.087 61.3669 40.8205 58.463 40.9395C57.9106 40.9558 57.4733 41.4207 57.5089 41.973C57.5251 42.5212 57.994 42.9545 58.5463 42.923H58.5616C64.0095 42.5884 69.556 43.8201 74.2838 46.5227C74.4353 46.6061 74.5859 46.6692 74.7333 46.7729L75.1707 47.0547L76.0363 47.6029C76.1034 47.6548 76.1879 47.6863 76.255 47.7382L76.4574 47.8887L76.8745 48.1868L77.6933 48.8032C77.9597 49.0218 78.21 49.2517 78.4765 49.4704C78.7267 49.6891 78.9962 49.9037 79.2465 50.1377L79.9819 50.8527L80.347 51.2189C80.4152 51.286 80.467 51.3379 80.5342 51.405L80.701 51.6044L81.3845 52.3713L81.7181 52.7528C81.8371 52.887 81.9368 53.0183 82.0365 53.1535L82.6559 53.9683L82.9733 54.369L83.2561 54.8023L83.8237 55.6527C83.9233 55.8043 84.023 55.9355 84.1064 56.086L84.376 56.5345C84.4594 56.6861 84.559 56.8367 84.6424 56.9882L85.1429 57.8863L85.3779 58.3542C86.6137 60.8025 87.4996 63.4207 88.1506 66.1182C88.8026 68.8004 89.2359 71.5701 89.538 74.3347C90.1412 79.8853 90.2887 85.5 90.4555 91.1178C90.5226 93.9312 90.606 96.7324 90.7098 99.549C90.8095 102.366 90.9244 105.184 91.1064 107.996C91.2936 110.814 91.5438 113.647 91.9609 116.448C92.3626 119.264 92.9302 122.046 93.5659 124.796L94.0511 126.862C94.2179 127.561 94.401 128.244 94.5831 128.927C94.7662 129.611 94.9686 130.294 95.1517 130.946C95.3185 131.614 95.47 132.245 95.5209 132.861C95.5535 133.163 95.5209 133.461 95.4853 133.748C95.4375 134.029 95.3866 134.311 95.2707 134.613L95.1873 134.828L95.0845 135.063C95.0164 135.213 94.9686 135.38 94.8852 135.511L94.6665 135.96L94.4325 136.393C94.1152 136.977 93.7653 137.51 93.3483 138.027C92.9465 138.543 92.4939 139.011 91.9934 139.445C91.0078 140.295 89.8716 140.979 88.6511 141.46C87.4315 141.944 86.1285 142.246 84.793 142.394C83.4544 142.56 82.1036 142.56 80.7488 142.477C80.4152 142.444 80.0653 142.429 79.7316 142.377L79.4814 142.346C79.3777 142.329 79.279 142.329 79.163 142.31C78.9606 142.294 78.746 142.294 78.5436 142.294C77.7095 142.329 76.8745 142.528 76.1401 142.846C75.6193 143.061 75.3843 143.645 75.603 144.161C75.7698 144.678 76.3547 144.912 76.8907 144.693Z" fill="#222E6A"/>
<path d="M93.0977 134.311C93.5818 130.247 91.4763 137.879 83.156 136.262C78.4954 135.345 81.0342 133.496 78.1099 136.58C73.0638 141.944 66.2143 141.944 61.987 139.826C57.4729 137.577 58.8592 136.727 55.1527 138.861C44.0749 145.194 34.3011 140.327 30.3911 136.91C26.4812 133.496 27.4668 133.012 23.7084 134.311C19.9653 135.611 14.4859 136.827 9.22216 133.012C5.64582 130.413 3.82614 128.829 4.66019 131.545C6.04659 136.064 12.6784 138.527 19.5798 137.744C20.5339 137.645 21.4199 137.744 22.202 140.51C23.7562 146.077 31.7775 149.076 41.9379 145.178C46.8172 143.311 46.2649 143.828 49.7049 146.529C54.8344 150.527 64.2075 151.527 73.4971 143.196C76.4885 140.51 77.3908 141.26 83.0055 141.26C86.9306 141.26 92.3775 139.08 93.1444 134.863" fill="#FF8856"/>
<path d="M5.21251 131.312C5.10977 131.097 5.02638 130.863 4.99382 130.68C4.97857 130.628 4.97857 130.597 4.97857 130.561C4.97857 130.545 4.97857 130.513 4.97857 130.528C4.97857 130.528 4.97857 130.561 4.96229 130.597C4.96229 130.597 4.94296 130.628 4.92668 130.644C4.91041 130.664 4.89517 130.696 4.87889 130.711C4.84329 130.763 4.77514 130.78 4.7436 130.795C4.72835 130.795 4.708 130.811 4.69172 130.811C4.67647 130.811 4.67647 130.811 4.67647 130.811C4.708 130.811 4.7436 130.83 4.79547 130.847C4.87889 130.878 4.97857 130.93 5.07724 130.978C5.27658 131.078 5.49528 131.212 5.71295 131.347C6.56328 131.88 7.40245 132.496 8.23651 133.112L8.87222 133.58L9.55574 134.046C9.67071 134.129 9.77446 134.196 9.88939 134.28L10.2393 134.478C10.4732 134.613 10.7082 134.744 10.9584 134.88C11.943 135.36 12.9805 135.745 14.0648 135.996C16.2222 136.461 18.4599 136.414 20.5817 135.98C21.6538 135.762 22.6872 135.48 23.6922 135.146C24.1926 134.978 24.6778 134.812 25.1619 134.661C25.6268 134.511 26.112 134.411 26.3622 134.463C26.4812 134.478 26.5972 134.53 26.7477 134.63C26.8982 134.728 27.0813 134.895 27.2482 135.063C27.6021 135.396 27.9835 135.778 28.3528 136.147C28.7383 136.512 29.1197 136.878 29.5215 137.227C29.907 137.577 30.3393 137.943 30.7766 138.277C32.5129 139.596 34.4323 140.629 36.4544 141.379C38.4765 142.127 40.6145 142.596 42.7882 142.742C44.9609 142.894 47.1508 142.679 49.2522 142.163C50.305 141.896 51.3424 141.562 52.3434 141.162L53.0981 140.843C53.214 140.796 53.3483 140.744 53.4643 140.676L53.8335 140.493C54.0674 140.378 54.3187 140.264 54.5526 140.145L55.2514 139.763C55.4864 139.628 55.7203 139.497 55.939 139.378C56.1536 139.246 56.3886 139.127 56.6073 138.996C56.8208 138.877 57.0396 138.761 57.2582 138.663C57.4566 138.563 57.66 138.496 57.775 138.479C57.8421 138.463 57.8746 138.479 57.9102 138.479C57.9418 138.479 58.0089 138.511 58.0923 138.527C58.2439 138.594 58.4422 138.709 58.6609 138.861C59.0942 139.127 59.5468 139.428 60.0157 139.711C60.4806 139.978 60.9495 140.243 61.4347 140.478L61.6167 140.562L61.8039 140.645L62.1853 140.812C62.3206 140.86 62.4355 140.927 62.5708 140.979L62.9563 141.11C64.0091 141.479 65.0934 141.746 66.1787 141.844C66.4482 141.877 66.731 141.896 66.9965 141.912C67.2833 141.929 67.5488 141.944 67.8356 141.929L68.6697 141.912C68.9362 141.896 69.222 141.86 69.4885 141.829C69.6228 141.813 69.754 141.793 69.9055 141.777L70.708 141.61C70.8434 141.579 70.9745 141.562 71.1088 141.527L71.9113 141.312L72.1107 141.26L72.3131 141.193L72.6946 141.062L73.0801 140.927C73.1472 140.911 73.2153 140.879 73.2825 140.864L73.4656 140.78L74.2162 140.426C74.2834 140.395 74.3515 140.378 74.3993 140.343L74.5855 140.243L75.2852 139.846L75.4673 139.743C75.5192 139.711 75.5874 139.663 75.6351 139.628C76.0878 139.309 76.5567 139.028 76.9575 138.663L77.5891 138.146C77.7926 137.963 77.9746 137.76 78.1781 137.577L78.4598 137.295C78.5595 137.196 78.6622 137.097 78.7456 137.013L79.2786 136.429L79.7984 135.845C79.8818 135.762 79.9652 135.662 80.013 135.611C80.013 135.611 79.9977 135.611 79.9815 135.626C79.9652 135.626 79.9652 135.626 79.9458 135.647C79.9143 135.662 79.8818 135.662 79.8309 135.662C79.779 135.662 79.7475 135.662 79.6956 135.662C79.6631 135.662 79.6275 135.647 79.6122 135.647C79.5441 135.611 79.5644 135.611 79.596 135.647L79.7475 135.762C79.8624 135.845 79.9815 135.945 80.1127 136.028C80.3832 136.195 80.6487 136.33 80.9152 136.445C81.4513 136.679 82.0035 136.827 82.5365 136.946C83.6045 137.181 84.7092 137.295 85.8301 137.244C86.9469 137.196 88.0516 136.962 89.1043 136.545C90.1408 136.127 91.1061 135.528 91.9452 134.812C92.1598 134.63 92.3623 134.463 92.5453 134.28L92.8311 134.013C92.9146 133.93 93.0132 133.846 93.0814 133.794C93.1129 133.763 93.1444 133.748 93.1292 133.763H93.1129H93.0814C93.061 133.763 93.0458 133.763 93.0295 133.779C93.0132 133.779 92.9776 133.779 92.9461 133.779C92.9146 133.779 92.879 133.779 92.8464 133.763C92.8108 133.748 92.763 133.727 92.7274 133.711C92.6958 133.68 92.6643 133.68 92.644 133.644C92.6288 133.628 92.5962 133.58 92.5809 133.58C92.5606 133.56 92.5606 133.544 92.5453 133.529L92.529 133.496C92.529 133.477 92.5128 133.461 92.5128 133.461V133.477C92.5128 133.496 92.5128 133.544 92.5128 133.596C92.5128 133.811 92.4772 134.061 92.4619 134.311C92.4294 134.645 92.6643 134.928 92.998 134.963C93.3153 134.995 93.6134 134.761 93.6489 134.446C93.6815 134.18 93.713 133.91 93.7334 133.612C93.7334 133.529 93.7334 133.446 93.7334 133.346C93.7334 133.31 93.7334 133.294 93.713 133.262L93.6967 133.163C93.6967 133.127 93.6652 133.079 93.6652 133.029C93.6652 133.012 93.6489 132.981 93.6296 132.944C93.6134 132.913 93.5981 132.877 93.5818 132.861C93.5655 132.845 93.5147 132.794 93.4821 132.762C93.4465 132.73 93.415 132.694 93.3479 132.662C93.296 132.631 93.2319 132.61 93.181 132.595C93.1292 132.579 93.0814 132.579 93.0295 132.579C92.9776 132.579 92.9298 132.579 92.8942 132.579C92.8627 132.579 92.8311 132.595 92.7956 132.595C92.763 132.61 92.7477 132.61 92.7121 132.61L92.644 132.631C92.4934 132.694 92.4294 132.746 92.3623 132.794C92.227 132.897 92.1273 132.981 92.0123 133.079L91.7103 133.346C91.5078 133.513 91.3248 133.68 91.1264 133.831C90.3554 134.446 89.5213 134.963 88.6039 135.313C87.7016 135.662 86.7323 135.845 85.763 135.861C84.7926 135.897 83.808 135.762 82.8386 135.547C82.3535 135.428 81.9008 135.297 81.4675 135.11C81.2488 135.011 81.0657 134.911 80.8837 134.796C80.8003 134.728 80.7169 134.677 80.6172 134.594L80.4504 134.463L80.3985 134.43L80.3313 134.379L80.2988 134.363L80.2479 134.327L80.1961 134.296C80.1798 134.28 80.1645 134.28 80.132 134.263C80.0649 134.244 80.013 134.228 79.9458 134.212C79.8818 134.196 79.7984 134.196 79.715 134.196C79.6478 134.196 79.5797 134.212 79.5125 134.228C79.481 134.244 79.4454 134.244 79.4291 134.263L79.2939 134.327L79.246 134.363L79.1627 134.43C79.1118 134.463 79.0792 134.494 79.0274 134.53C78.8931 134.645 78.7934 134.761 78.71 134.863L78.1781 135.444L77.6572 136.012L77.526 136.147L77.3908 136.278L77.1243 136.545L76.5882 137.061L76.0044 137.529C75.6351 137.863 75.2018 138.11 74.8001 138.396C74.7522 138.428 74.7014 138.463 74.6495 138.496L74.4827 138.579L74.1644 138.761L73.8511 138.944L73.6802 139.028C73.6324 139.063 73.5642 139.08 73.5134 139.111L72.8451 139.413L72.6783 139.497C72.6305 139.513 72.5633 139.528 72.5115 139.56L72.1616 139.68L71.8086 139.795L71.6418 139.862L71.4587 139.91L70.7396 140.097C70.6246 140.128 70.5057 140.145 70.3745 140.16L70.0042 140.228L69.639 140.295C69.52 140.311 69.3888 140.327 69.2698 140.327C69.0196 140.343 68.7846 140.378 68.5344 140.395L67.799 140.41C67.5488 140.426 67.3148 140.395 67.0646 140.395C66.8144 140.378 66.5794 140.378 66.3292 140.327C65.3436 140.228 64.3905 139.993 63.473 139.663L63.1231 139.544C63.0041 139.513 62.9044 139.445 62.7895 139.393L62.4559 139.246L62.2881 139.163L62.1172 139.08C61.6686 138.845 61.2353 138.611 60.799 138.344C60.3656 138.094 59.9486 137.812 59.4949 137.529C59.261 137.379 59.0301 137.227 58.7127 137.077C58.5459 137.013 58.3588 136.946 58.1442 136.91C57.9255 136.878 57.7078 136.878 57.5085 136.91C57.1077 136.977 56.8056 137.097 56.5391 137.212C56.2726 137.327 56.0224 137.462 55.7884 137.593C55.5535 137.729 55.3195 137.863 55.0846 137.979C54.8506 138.11 54.636 138.244 54.4021 138.36L53.7297 138.73C53.5151 138.845 53.2812 138.944 53.0472 139.063L52.7126 139.226C52.5976 139.278 52.4786 139.33 52.3637 139.378L51.6598 139.68C50.7261 140.045 49.773 140.362 48.7874 140.593C46.8324 141.062 44.8256 141.277 42.8197 141.145C40.817 141.026 38.8467 140.593 36.9548 139.894C35.068 139.195 33.2636 138.244 31.6788 137.045C30.8916 136.445 30.1409 135.745 29.3902 135.047C29.02 134.697 28.6508 134.327 28.2541 133.946C28.0507 133.763 27.832 133.56 27.5502 133.377C27.4149 133.279 27.2482 133.195 27.0813 133.112C26.8982 133.044 26.7162 132.981 26.5137 132.96C26.112 132.913 25.7783 132.96 25.4803 133.012C25.1782 133.079 24.9117 133.148 24.6422 133.231C24.1255 133.394 23.625 133.58 23.1398 133.748C22.1705 134.077 21.2012 134.363 20.2155 134.561C18.2453 134.978 16.2222 135.026 14.2998 134.645C13.3304 134.427 12.3967 134.113 11.5107 133.696C11.292 133.58 11.0774 133.461 10.8587 133.346L10.5251 133.163C10.4254 133.096 10.3227 133.029 10.2068 132.96L9.58728 132.563L8.95564 132.11C8.10122 131.51 7.2509 130.895 6.31308 130.33C6.07913 130.195 5.84416 130.044 5.57869 129.929C5.4434 129.861 5.31219 129.813 5.14538 129.746C5.06198 129.715 4.97857 129.694 4.87889 129.679L4.81175 129.663L4.72835 129.646H4.64493C4.60832 129.646 4.56153 129.646 4.52492 129.646C4.49339 129.646 4.44151 129.646 4.40999 129.663C4.35809 129.679 4.3103 129.694 4.25944 129.715C4.17604 129.73 4.04076 129.813 3.95735 129.897C3.77426 130.08 3.72238 130.294 3.70712 130.43C3.67458 130.711 3.72238 130.878 3.75798 131.045C3.8424 131.363 3.95735 131.614 4.05603 131.88C4.19129 132.178 4.5412 132.312 4.84329 132.178C5.19319 131.979 5.34372 131.63 5.21251 131.312Z" fill="#222E6A"/>
<path d="M78.1781 73.7358C81.2173 73.7358 83.689 76.3021 83.689 79.4533C83.689 82.5993 81.2173 85.1666 78.1781 85.1666C75.1337 85.1666 72.6631 82.5993 72.6631 79.4533C72.6631 76.3021 75.1337 73.7358 78.1781 73.7358Z" fill="#222E6A"/>
<path d="M45.6293 75.6021C48.6685 75.6021 51.1432 78.1693 51.1432 81.3164C51.1432 84.4665 48.6685 87.0338 45.6293 87.0338C42.589 87.0338 40.1143 84.4665 40.1143 81.3164C40.1143 78.1693 42.589 75.6021 45.6293 75.6021Z" fill="#222E6A"/>
<path d="M42.0361 79.5682C42.0361 80.7684 43.6056 81.7693 45.6287 81.7693C47.6508 81.7693 49.1369 80.8 49.1521 79.5997C49.1521 78.3008 47.5827 76.8341 45.6125 76.8188C43.6575 76.8188 42.0524 78.2693 42.0361 79.5682Z" fill="white"/>
<path d="M74.6016 77.6844C74.6016 78.8847 76.171 79.8855 78.1931 79.8855C80.2152 79.8855 81.7013 78.9162 81.7176 77.717C81.7176 76.4171 80.1481 74.9513 78.1779 74.9351C76.2229 74.9351 74.6179 76.4018 74.6016 77.6844Z" fill="white"/>
<path d="M59.4467 89.4184C59.1293 88.5315 58.8791 87.5184 58.7275 86.3507C61.1514 88.4684 66.9645 88.15 68.6855 86.1157C68.2837 87.8012 68.3 90.3837 67.3663 92.1312C65.7612 89.7673 62.3201 89.0482 59.4467 89.4184Z" fill="#A65A7F"/>
<path d="M67.3668 92.1312C67.1319 92.5645 66.8501 92.9663 66.4646 93.2684C64.6927 94.7341 61.1327 94.1981 59.4473 89.4185C62.3207 89.0482 65.7618 89.7674 67.3668 92.1312Z" fill="#FFB0D7"/>
<path d="M68.1697 86.0005C67.9347 86.8671 67.8157 87.7175 67.6692 88.5312C67.5339 89.35 67.3824 90.1485 67.1322 90.8839C67.0173 91.249 66.8504 91.5826 66.6796 91.901C66.5799 92.0475 66.4965 92.199 66.3815 92.318C66.3296 92.3821 66.2819 92.4493 66.2147 92.5011L66.0276 92.6679C65.5475 93.0809 64.8955 93.2833 64.2241 93.2325C63.5569 93.1999 62.8886 92.9182 62.321 92.4655C62.0342 92.2509 61.7687 91.9844 61.5185 91.6986C61.2683 91.4158 61.0496 91.0985 60.8502 90.7648C60.0477 89.4334 59.5788 87.868 59.2614 86.2507C59.2136 85.969 58.9278 85.7666 58.6298 85.8337C58.3592 85.8856 58.1761 86.1317 58.1924 86.4023C58.2606 87.2679 58.4111 88.1345 58.6451 88.9848C58.88 89.8352 59.1974 90.6814 59.6307 91.4677C59.7303 91.666 59.8657 91.8654 59.9806 92.0475C60.1159 92.2347 60.2471 92.433 60.3976 92.5998C60.6997 92.966 61.0171 93.2996 61.4026 93.5976C62.1542 94.1977 63.1073 94.6341 64.1245 94.6982C64.6249 94.7338 65.162 94.6819 65.6461 94.5151C66.1313 94.3483 66.6155 94.0981 66.9969 93.7482L67.2837 93.5183C67.3824 93.4348 67.4506 93.3159 67.5339 93.2162C67.7008 93.0178 67.8157 92.7991 67.951 92.5998C68.1697 92.1675 68.3517 91.7342 68.4871 91.3009C68.7535 90.415 68.8532 89.5483 68.9519 88.698C69.0353 87.8487 69.1034 87.0177 69.2224 86.2355V86.2151C69.2702 85.9171 69.0709 85.6506 68.7698 85.5998C68.4871 85.5672 68.2368 85.734 68.1697 86.0005Z" fill="#46334D"/>
<path d="M58.3788 86.7514C58.7276 87.1176 59.1457 87.3994 59.578 87.6496C60.0154 87.8846 60.4639 88.0666 60.9328 88.2019C61.8666 88.4684 62.8207 88.5681 63.7737 88.5518C64.7237 88.5315 65.6768 88.4013 66.5953 88.0992C67.0642 87.9517 67.5169 87.7493 67.9339 87.499C68.3672 87.2326 68.769 86.9183 69.0863 86.4656C69.2531 86.2358 69.2013 85.8858 68.9714 85.719C68.769 85.5675 68.4862 85.5838 68.3001 85.7506L68.2675 85.7669C67.7315 86.2358 66.9808 86.5491 66.1976 86.7321C65.7969 86.8348 65.3951 86.8989 64.9781 86.9508C64.5569 87.0027 64.1592 87.0342 63.7382 87.0342C63.3211 87.0495 62.9041 87.0342 62.5023 86.9823C62.0853 86.9508 61.6845 86.8827 61.2827 86.7993C60.4802 86.6324 59.7295 86.3507 59.0776 85.9174L59.0623 85.9011C58.8111 85.7343 58.4774 85.8024 58.3106 86.0323C58.1753 86.2825 58.1916 86.5694 58.3788 86.7514Z" fill="#46334D"/>
<path d="M30.105 66.9686C39.7954 64.2711 48.1198 58.7876 56.8571 53.889C65.9637 48.7554 76.119 47.2531 86.2112 47.2379C87.2995 47.2531 88.4164 47.2897 89.521 47.3731C86.9303 46.7211 84.3915 46.3041 81.8842 46.1047C81.8679 46.1047 81.8527 46.1047 81.8171 46.1047C78.8094 45.8708 75.8688 45.9379 72.9963 46.2563C59.4468 47.7027 47.4159 54.4057 37.8252 59.6695C36.8233 60.2177 35.7868 60.7192 34.7493 61.1515C33.8003 61.5533 32.8462 61.9184 31.8769 62.252C30.6726 62.6538 29.4733 63.0037 28.269 63.2855C24.6774 64.1521 21.1337 64.5529 17.9113 64.6841C13.6159 64.8712 9.94093 64.5691 7.58418 64.2711C5.19286 63.969 4.27435 64.7197 4.22656 66.2017C13.0473 67.1202 21.3158 69.6508 30.105 66.9686Z" fill="#F3CA9C"/>
<path d="M104.962 54.8706C105.696 55.7525 106.411 56.7015 107.13 57.6871C107.167 57.505 107.199 57.3219 107.214 57.1348C106.698 56.436 105.911 55.6691 104.962 54.8706Z" fill="#B777BA"/>
<path d="M97.7935 50.3044C95.0005 49.0218 92.2429 48.0717 89.5373 47.3882C88.4357 47.3048 87.3321 47.2692 86.2316 47.2529C76.119 47.2895 65.9638 48.7715 56.8725 53.9041C48.1198 58.8037 39.7955 64.2862 30.1243 66.9847C21.3361 69.6506 13.0799 67.12 4.27441 66.234C4.27441 66.4008 4.27441 66.587 4.29068 66.7701C4.39342 67.95 4.62431 69.1024 4.99355 70.1867C8.70511 75.9997 15.3044 78.9007 21.92 78.8681C18.0101 77.5855 13.5641 75.6346 12.7137 71.1682C17.3072 72.1183 21.8203 73.6003 26.5135 73.9858C26.5135 73.8861 26.5287 73.7823 26.5287 73.6837C28.1185 73.6359 29.7236 73.4691 31.3246 73.1832C32.0793 73.052 32.831 72.9005 33.5969 72.7184C33.9672 72.635 34.3323 72.5506 34.7015 72.4519C38.3613 71.5019 42.1196 70.084 46.0133 68.4352C46.2279 68.3517 46.4466 68.2521 46.6816 68.1524C52.28 65.7529 58.1917 62.9039 64.6405 60.302C70.6915 57.8537 76.0193 56.7531 80.5813 56.4358C81.4988 56.3676 82.405 56.3524 83.2706 56.3361C84.3916 56.3361 85.4606 56.388 86.4818 56.4714C90.5738 56.3676 94.6821 58.0846 98.6113 60.302C99.9784 61.0211 98.4445 62.8011 97.5393 63.0869C95.7348 63.6871 93.9986 64.4337 92.2938 65.1844C92.8624 66.0703 93.5815 66.8016 94.7024 67.0681C98.8616 67.5523 102.605 65.3511 105.31 62.0179C106.264 60.7699 106.88 59.2523 107.167 57.6716C106.447 56.686 105.744 55.7523 104.993 54.8541C103.006 53.2216 100.332 51.469 97.7935 50.3044Z" fill="#F25510"/>
<path d="M43.507 50.8896C42.4023 49.8521 42.2711 48.2552 42.5213 46.7051L40.8003 47.5554C40.3324 47.7863 40.129 48.4058 40.3477 48.9225L40.483 49.2368L41.9009 52.6697C42.1196 53.2057 42.6719 53.4366 43.1367 53.2057L45.8464 51.8702C44.9249 51.8549 44.0389 51.6362 43.507 50.8896Z" fill="#38263B"/>
<path d="M46.6652 44.6553L42.5051 46.7048C42.2549 48.2702 42.386 49.8723 43.4907 50.8894C44.0389 51.636 44.9249 51.8547 45.8271 51.8699L49.4705 50.0869C49.6374 47.8054 48.7351 45.4537 46.6652 44.6553Z" fill="#5F5061"/>
<path d="M51.7756 47.8217L50.2895 44.2383L50.2213 44.0552C50.0067 43.5385 49.4544 43.2883 48.9855 43.5222L46.6816 44.6553C48.7516 45.4538 49.6375 47.8055 49.487 50.0869L51.3097 49.1888C51.7756 48.9538 51.978 48.3384 51.7756 47.8217Z" fill="#38263B"/>
<path d="M36.5218 46.0895C36.0529 46.3194 35.8546 46.9358 36.0732 47.4565L37.1901 50.154L37.0741 50.2059C36.9907 50.2537 36.9073 50.3046 36.8239 50.3524C37.424 51.636 38.0282 52.9197 38.6283 54.2023C39.562 50.7226 40.4673 47.2379 41.3024 43.7368L36.5218 46.0895Z" fill="#E6D093"/>
<path d="M41.0674 50.6863L40.4673 49.2368L40.333 48.9225C40.1143 48.3865 40.3167 47.7864 40.7816 47.5555L42.2198 46.8567C42.6725 45.4377 43.122 44.0198 43.591 42.605L41.2657 43.7533C40.4317 47.2534 39.5294 50.7544 38.5957 54.2188C38.8937 54.8708 39.1958 55.5218 39.5142 56.1697C40.0146 54.3226 40.5313 52.5029 41.0674 50.6863Z" fill="white"/>
<path d="M43.5389 56.5865C43.9397 55.2042 44.3414 53.8209 44.7422 52.4193L43.1371 53.2055C42.6723 53.4364 42.1047 53.2055 41.9013 52.6695L41.0835 50.686C40.5505 52.5027 40.0307 54.3376 39.5293 56.1695C39.8477 56.853 40.1813 57.5366 40.4997 58.2354C41.469 57.6871 42.5055 57.1348 43.5389 56.5865Z" fill="#E6D093"/>
<path d="M47.9182 40.4707L43.6064 42.5884C43.1375 44.0033 42.6889 45.4059 42.2363 46.836L46.901 44.5556C47.2499 43.2048 47.5835 41.8378 47.9182 40.4707Z" fill="#E6D093"/>
<path d="M44.7423 52.4191C44.3416 53.8055 43.9398 55.2041 43.5391 56.5864C45.1757 55.7208 46.8804 54.8379 48.6208 53.9876C48.9025 52.7049 49.1894 51.405 49.4548 50.1021L44.7423 52.4191Z" fill="white"/>
<path d="M53.3641 41.7027C53.3326 41.723 53.3123 41.723 53.2807 41.7393L52.3266 39.4538C52.1761 39.0723 51.8425 38.8546 51.4926 38.8384C51.4407 39.172 51.3939 39.5056 51.342 39.8392C51.0918 41.4881 50.809 43.1379 50.5069 44.7704L51.7591 47.8219C51.9777 48.3539 51.7753 48.954 51.3095 49.1889L49.4542 50.1023C49.1887 51.4053 48.9019 52.7052 48.6201 53.9879C51.4092 52.6218 54.3182 51.3219 57.3412 50.1705C55.9386 47.3886 54.5522 44.5873 53.3641 41.7027Z" fill="#E6D093"/>
<path d="M51.4928 38.8384C51.3575 38.8384 51.2263 38.8546 51.0921 38.9218L47.9175 40.4872C47.5829 41.8542 47.2493 43.205 46.9004 44.5558L48.9856 43.5387C49.4545 43.3047 50.0068 43.5387 50.2214 44.0706L50.2896 44.2537L50.5072 44.7867C50.8093 43.1531 51.0921 41.5043 51.3423 39.8555C51.3942 39.5056 51.4409 39.172 51.4928 38.8384Z" fill="white"/>
<path d="M71.5103 38.2695C64.8947 38.0712 58.7959 39.5735 53.3643 41.6872C54.5523 44.5871 55.9387 47.373 57.3413 50.1539C62.2684 48.2864 67.517 46.836 73.0116 46.2562C74.6848 46.0691 76.3896 45.9857 78.1096 45.9704C76.2706 42.8396 74.1325 40.0699 71.5103 38.2695Z" fill="#5F5061"/>
<path d="M78.1101 45.9704C79.3459 45.9704 80.5817 46.006 81.8369 46.1047L81.8531 45.6724C81.4839 45.1557 79.3622 42.2548 75.2854 38.4211L75.1857 38.5564C73.9499 38.4048 72.714 38.3062 71.5107 38.2695C74.133 40.0699 76.271 42.8396 78.1101 45.9704Z" fill="#AB9BAD"/>
<path d="M33.1126 52.4194C32.663 52.6534 32.2266 52.8517 31.8249 53.0185H31.8096C31.241 59.571 28.2852 63.2542 28.2852 63.2542V63.2857C29.4884 63.0039 30.6928 62.654 31.893 62.2523C32.6793 61.9868 33.4665 61.704 34.2325 61.3867C34.2487 58.3189 33.8154 55.3356 33.1126 52.4194Z" fill="#38263B"/>
<path d="M36.7879 50.3525C35.4371 51.1551 34.2013 51.8549 33.0967 52.4031C33.8006 55.3356 34.2328 58.3189 34.2328 61.3703C34.4159 61.3032 34.5827 61.2198 34.7699 61.1517C35.8023 60.7031 36.8398 60.2179 37.8407 59.6697C38.6951 59.2008 39.581 58.7207 40.4832 58.2202C39.2474 55.6051 38.0278 52.987 36.7879 50.3525Z" fill="#5F5061"/>
<path d="M31.4288 44.1226C31.7106 49.606 30.491 55.121 26.9828 58.9354C25.4601 60.6513 23.5062 61.6207 21.6021 61.7203C20.649 62.7853 19.4447 63.7862 17.9434 64.7047C21.1495 64.5694 24.7095 64.1676 28.301 63.302V63.2695C28.301 63.2695 31.262 59.5863 31.8255 53.0389H31.8458C31.9608 52.987 32.0604 52.9352 32.1795 52.8874C32.1439 49.9356 31.9771 47.0387 31.4288 44.1226Z" fill="#8E5E1F"/>
<path d="M52.8288 22.2735C56.9727 22.5396 59.4952 27.9392 63.5567 29.4568C65.0265 29.9735 66.481 30.538 67.8827 31.2216C61.1847 26.1076 58.3794 19.4723 51.9266 18.189C47.5162 17.3069 39.3627 20.3384 29.4221 30.7048C22.8899 37.5066 26.5812 47.4197 24.6943 55.5539C26.6808 51.2707 26.9829 45.2186 28.0672 40.972C30.6264 29.3581 42.522 21.9079 52.8288 22.2735Z" fill="#F3CA9C"/>
<path d="M32.1433 52.8721C32.4454 52.7368 32.7628 52.57 33.0964 52.4195C32.7791 51.088 32.3936 49.7729 31.9766 48.4536C32.1108 49.9193 32.1433 51.3861 32.1433 52.8721Z" fill="#EEBEF0"/>
<path d="M63.8739 31.0905C66.9132 33.256 69.5039 35.687 71.9114 38.2899C72.9805 38.3377 74.0658 38.4211 75.1704 38.5564L75.2691 38.4211C73.132 36.4061 71.7772 34.0382 68.5508 31.7221C68.3199 31.5553 68.086 31.3885 67.8672 31.2217C66.4809 30.5382 65.0263 29.9574 63.5403 29.4569C62.0705 28.9046 60.7991 27.8559 59.5947 26.7236C60.7991 28.3889 62.1539 29.9065 63.8739 31.0905Z" fill="#EEBEF0"/>
<path d="M63.8741 31.0908C62.1541 29.9068 60.7829 28.3892 59.5949 26.7239C57.4568 24.7253 55.4703 22.4566 52.8288 22.2897C42.5057 21.9242 30.606 29.3738 28.0509 41.0039C26.9666 45.2393 26.6645 51.3026 24.678 55.5859C24.1573 57.8022 23.2398 59.8843 21.5869 61.7366C23.49 61.6369 25.445 60.6716 26.9666 58.9547C29.9072 55.7364 31.2417 51.3545 31.4289 46.7885C31.0078 45.5537 30.5582 44.3371 30.1056 43.1217C30.5745 44.3371 31.0078 45.5537 31.4289 46.7885C31.4604 45.9025 31.4604 45.0207 31.4085 44.1388C31.2773 43.439 31.1268 42.7199 30.9437 42.0048C31.1268 42.7199 31.2773 43.4197 31.4085 44.1388C31.2936 41.8899 30.9244 39.6206 30.3558 37.4876C30.9244 39.6206 31.2936 41.8695 31.4085 44.1388C31.6791 45.5893 31.8612 47.0194 31.9771 48.4699C32.3942 49.7891 32.7634 51.1043 33.097 52.4388C34.2851 51.8387 35.588 51.088 37.0385 50.2376L37.1575 50.1858L36.0376 47.4883C35.823 46.9553 36.0214 46.3562 36.4903 46.1212L51.0762 38.9533C51.5451 38.7235 52.0934 38.9533 52.3121 39.4904L53.2651 41.7709C58.828 39.5891 65.0936 38.0552 71.9116 38.338C69.5203 35.6873 66.9133 33.2563 63.8741 31.0908Z" fill="#F25510"/>
<path d="M13.5328 71.3873C15.2854 72.2854 17.1406 73.0198 19.063 73.5172C20.9824 74.0177 22.973 74.3197 24.9595 74.3828C26.9501 74.451 28.9366 74.3035 30.8916 74.0014C31.3767 73.9343 31.8609 73.8346 32.3461 73.7359L33.8006 73.4532C34.7496 73.2345 35.7037 72.9842 36.6568 72.7188C40.4314 71.6335 44.0596 70.1515 47.6349 68.6176C51.2071 67.0837 54.7356 65.4512 58.2601 63.9021C60.032 63.1189 61.8038 62.3519 63.5717 61.6012L64.9113 61.053C65.3598 60.8862 65.7972 60.7031 66.2457 60.5363C66.6984 60.3695 67.148 60.2027 67.6006 60.0359C68.0502 59.869 68.5028 59.7216 68.9514 59.571C69.405 59.4195 69.8729 59.2852 70.3225 59.1377C70.7752 59.0024 71.24 58.8712 71.6936 58.7522C72.6111 58.502 73.5489 58.2874 74.4664 58.085C76.338 57.7035 78.2248 57.4055 80.1126 57.254C82.0035 57.0871 83.9229 57.0515 85.8097 57.1868C87.7016 57.3018 89.5884 57.5886 91.4447 58.0209C93.2797 58.4542 95.0994 59.0381 96.8041 59.8365C97.2415 60.0359 97.6585 60.2546 98.0593 60.4692L98.3614 60.636L98.6116 60.7865C98.6279 60.8028 98.6441 60.8384 98.6594 60.8537C98.6757 60.87 98.695 60.9015 98.695 60.9381C98.695 60.9696 98.7113 60.9849 98.7276 61.0215C98.7428 61.1364 98.7428 61.2514 98.695 61.3867C98.6757 61.4182 98.6594 61.4538 98.6441 61.4863L98.6279 61.5372L98.5923 61.585L98.5282 61.6847C98.4926 61.7203 98.461 61.7518 98.4448 61.7874C98.1905 62.0702 97.8416 62.3367 97.4754 62.5706L97.4561 62.5869C97.1734 62.7537 97.0899 63.1189 97.273 63.4006C97.4398 63.6875 97.8091 63.7709 98.0755 63.6041C98.5282 63.3375 98.9777 63.0354 99.3785 62.6022C99.4304 62.5543 99.4782 62.4872 99.5301 62.4353L99.6654 62.237L99.7284 62.1373L99.7803 62.0183C99.8118 61.9349 99.8637 61.8708 99.879 61.7874C100.014 61.4701 100.047 61.0846 99.9787 60.7194C99.9634 60.636 99.9308 60.5363 99.9156 60.4529C99.879 60.3695 99.8474 60.2861 99.7955 60.2027C99.7488 60.1193 99.6969 60.0359 99.645 59.9677C99.6135 59.9362 99.5779 59.8843 99.5453 59.8528L99.4945 59.7857C99.4782 59.7694 99.4467 59.7378 99.4111 59.7216L99.3633 59.686C99.347 59.6697 99.3277 59.6697 99.3277 59.6697L99.2951 59.6382L99.2117 59.5863L99.0449 59.4876L98.7276 59.2852C98.2942 59.0381 97.8569 58.8041 97.4083 58.5854C95.6201 57.7035 93.7333 57.0515 91.8099 56.5714C89.8864 56.0863 87.9162 55.7883 85.9449 55.6377C83.9748 55.4861 81.9842 55.5024 80.0292 55.653C76.0877 55.9357 72.2093 56.785 68.4672 57.9853C68.0024 58.1369 67.5335 58.2874 67.0646 58.4542C66.5957 58.6017 66.1461 58.7878 65.6772 58.9546C65.2093 59.1214 64.7597 59.3046 64.3071 59.4876L62.9563 60.0359C61.1519 60.7703 59.3637 61.5535 57.5918 62.3204C54.0481 63.8858 50.5236 65.5183 46.9839 67.0685C43.4391 68.6024 39.8638 70.0518 36.2041 71.1686C32.5444 72.2692 28.7698 73.0005 24.9951 72.9171C23.1042 72.8856 21.2174 72.6506 19.3967 72.2021C18.4792 71.9874 17.5739 71.7016 16.691 71.367C15.8051 71.0537 14.9355 70.6682 14.0648 70.2664C13.7667 70.1199 13.4138 70.2511 13.2663 70.5532C13.131 70.8869 13.247 71.2368 13.5328 71.3873Z" fill="#222E6A"/>
<path d="M74.8682 38.8696C75.384 39.5053 75.9363 40.1054 76.4886 40.7218L78.1414 42.5212L79.7791 44.3215L81.4157 46.1046V46.1209C81.6344 46.3711 82.0199 46.3874 82.2701 46.1524C82.4887 45.9704 82.5203 45.656 82.385 45.4221C81.968 44.6552 81.4838 43.9869 80.9824 43.3044C80.7321 42.9697 80.4667 42.6564 80.1961 42.3228C79.9296 42.0044 79.6479 41.6871 79.362 41.3728C79.0793 41.0707 78.7935 40.7534 78.4954 40.4706C78.1933 40.1726 77.9075 39.8867 77.5891 39.605C76.9901 39.0364 76.338 38.4882 75.6708 37.9877C75.4043 37.7894 75.0351 37.8372 74.8357 38.1067C74.6852 38.3529 74.6852 38.655 74.8682 38.8696Z" fill="#31133D"/>
<path d="M18.1942 65.2365C19.0802 64.7198 19.9305 64.136 20.7168 63.4687C21.504 62.8015 22.2384 62.0386 22.8548 61.2035C23.4743 60.3694 24.0072 59.452 24.4436 58.5019C24.8617 57.5519 25.179 56.5551 25.414 55.5542C25.8788 53.5352 25.9978 51.4887 26.0294 49.4869C26.065 47.4719 26.0131 45.4895 26.0456 43.5223C26.0813 41.5562 26.2165 39.6205 26.6335 37.754C26.8319 36.8234 27.1177 35.9222 27.4839 35.0555C27.8531 34.1899 28.318 33.3711 28.854 32.6245C29.1368 32.2543 29.4226 31.8891 29.7399 31.5392L29.9749 31.2727L30.2251 31.0073L30.7418 30.4743C31.0917 30.1213 31.4447 29.7714 31.7946 29.4378C32.1445 29.1082 32.4974 28.7583 32.8636 28.4247C34.3019 27.0892 35.7879 25.8059 37.3574 24.622C38.1437 24.022 38.931 23.4577 39.7488 22.9254C40.5675 22.389 41.3863 21.8725 42.2367 21.4076C43.9404 20.4739 45.7133 19.6911 47.5523 19.2223C48.0019 19.1229 48.4708 19.0077 48.9387 18.9561C49.1696 18.9243 49.4036 18.9084 49.6222 18.8726C49.8572 18.8568 50.0912 18.8409 50.3058 18.8409C50.7594 18.8409 51.208 18.8726 51.6454 18.9402C51.86 18.972 52.0939 19.0395 52.3126 19.0912C52.5313 19.1587 52.7653 19.2065 52.9799 19.2899C54.7365 19.8739 56.2897 20.9904 57.7086 22.2896C59.1306 23.6048 60.4336 25.0908 61.8047 26.541C63.1718 28.0077 64.5937 29.4378 66.1469 30.757L66.7318 31.2371L67.3309 31.706L68.5352 32.5879C69.3062 33.1565 70.0416 33.7882 70.7241 34.4717C72.0952 35.8225 73.2996 37.4397 74.8172 38.8383C75.0511 39.057 75.4366 39.057 75.6553 38.8068C75.8699 38.5718 75.8699 38.2067 75.636 37.9717C74.9524 37.3045 74.3167 36.5731 73.681 35.8062C73.0493 35.0555 72.377 34.2733 71.6782 33.5379C70.9754 32.8066 70.2084 32.1078 69.3896 31.4874L68.2016 30.5902L67.633 30.1406L67.0807 29.6717C65.5946 28.4044 64.2438 27.0058 62.9053 25.5398C61.5697 24.0895 60.2668 22.5718 58.7767 21.1573C58.026 20.458 57.2234 19.7905 56.3568 19.2065C55.4872 18.6223 54.5178 18.1416 53.5159 17.7919C53.2657 17.6926 52.9961 17.641 52.7459 17.5575C52.4794 17.49 52.2292 17.4225 51.9627 17.3748C51.4104 17.2754 50.8581 17.2237 50.3261 17.2397C50.0556 17.2397 49.789 17.2555 49.5236 17.2754C49.253 17.3072 48.9866 17.3231 48.7363 17.3589C48.2043 17.4225 47.6998 17.5416 47.1831 17.6568C45.161 18.1733 43.2579 19.0077 41.4698 19.9733C40.5675 20.458 39.6979 20.9904 38.8475 21.5586C37.9931 22.1069 37.1743 22.7069 36.3555 23.3068C34.7352 24.5226 33.2166 25.8576 31.7427 27.2245C31.3776 27.5744 31.0083 27.9233 30.6584 28.2732C30.3085 28.6231 29.9393 28.973 29.5894 29.3381L29.0727 29.8742L28.8031 30.1406L28.5366 30.4234C28.1868 30.8048 27.8531 31.2219 27.5347 31.6542C26.9153 32.5208 26.3986 33.4383 25.9978 34.4046C25.5961 35.3739 25.2787 36.3707 25.06 37.3879C24.6104 39.4222 24.5118 41.4565 24.4914 43.4715C24.4762 45.4895 24.5433 47.4719 24.5433 49.4391C24.527 51.4053 24.4284 53.3521 24.0266 55.2196C23.8242 56.1533 23.5577 57.0718 23.1885 57.9374C22.8233 58.804 22.3544 59.6381 21.8021 60.401C20.6853 61.9348 19.2307 63.1859 17.5748 64.2031C17.292 64.3709 17.2086 64.7361 17.3754 65.0178C17.5585 65.3036 17.9125 65.4033 18.1942 65.2365Z" fill="#222E6A"/>
<path d="M49.9041 44.4053L50.6741 46.288L51.0596 47.238L51.2427 47.6866L51.3424 47.9216L51.3576 47.9887L51.378 48.0202C51.3943 48.0365 51.3943 48.0721 51.3943 48.1037C51.441 48.303 51.378 48.537 51.259 48.6722C51.2264 48.7038 51.1908 48.7353 51.1593 48.7557C51.143 48.7719 51.1237 48.7719 51.1074 48.7872L50.9925 48.8391L50.5236 49.0537L48.6876 49.9193L45.0086 51.6718L43.1726 52.5537L42.9387 52.6697L42.8868 52.7053L42.8715 52.7205C42.8552 52.7205 42.839 52.7205 42.839 52.7368C42.7881 52.7531 42.7362 52.7531 42.6722 52.7205C42.6213 52.7053 42.5532 52.6534 42.5216 52.6056C42.5053 52.57 42.4698 52.5384 42.4535 52.5028L42.4382 52.4703L42.4219 52.4032L42.3701 52.2882L41.5838 50.4045L41.182 49.4707L40.9837 49.0059L40.884 48.7719L40.8647 48.7201L40.8484 48.6885C40.8331 48.6722 40.8331 48.656 40.8331 48.6204C40.7813 48.4536 40.8331 48.2552 40.9166 48.1362C40.9318 48.1037 40.9684 48.0884 40.9837 48.0721C41 48.0558 41.0152 48.0558 41.0356 48.0365L41.1505 47.9887L41.6042 47.7548L43.4238 46.821L47.0469 44.9729L48.8707 44.0554L49.1057 43.9404L49.1524 43.9038L49.1891 43.8886C49.2043 43.8723 49.2206 43.8723 49.2521 43.8723C49.3396 43.857 49.423 43.857 49.5064 43.8886C49.5898 43.9201 49.6732 43.972 49.7373 44.0554C49.7729 44.0869 49.8044 44.1388 49.8207 44.1866L49.84 44.2222L49.8563 44.2893L49.9041 44.4053ZM50.6741 44.0869L50.6232 43.972L50.607 43.9038L50.5754 43.8204C50.5236 43.7218 50.4565 43.6221 50.3883 43.5224C50.2418 43.3403 50.0384 43.1888 49.8044 43.1054C49.5705 43.0219 49.304 43.0067 49.0538 43.0535C48.9857 43.0698 48.9378 43.0901 48.8707 43.1216L48.7873 43.1532L48.7354 43.1888L48.5015 43.3047L46.6655 44.1866L42.9905 45.9381L41.1505 46.8047L40.6816 47.0194L40.5667 47.0712C40.5148 47.1028 40.4476 47.1384 40.3998 47.1699C40.2808 47.238 40.1812 47.3367 40.0978 47.4364C39.7479 47.8382 39.6289 48.3864 39.7479 48.8706C39.7641 48.9387 39.7804 48.9865 39.7957 49.0537L39.8313 49.1371L39.8475 49.2042L39.9472 49.4392L40.1293 49.904L40.5148 50.853L41.2858 52.7368L41.3336 52.8517L41.3499 52.9199L41.3855 53.0033C41.4333 53.1223 41.5167 53.2372 41.6042 53.3369C41.771 53.5353 42.0009 53.7224 42.2551 53.8058C42.5216 53.9045 42.8196 53.9208 43.0892 53.8536C43.1574 53.8373 43.2204 53.8211 43.2885 53.7855L43.3872 53.7539L43.4391 53.7224L43.6741 53.6034L45.4937 52.689L49.1209 50.8378L50.9406 49.904L51.3943 49.669L51.5092 49.6223C51.5611 49.5857 51.6282 49.5541 51.676 49.5226C51.7757 49.4544 51.8784 49.3558 51.9618 49.2724C52.2802 48.8869 52.3789 48.3864 52.2599 47.9216C52.2436 47.8697 52.2283 47.8056 52.2121 47.7548L52.1765 47.6714L52.1602 47.6032L52.0615 47.3733L51.8591 46.9044L51.4614 45.9707L50.6741 44.0869Z" fill="#31133D"/>
<path d="M53.5 42.2872C55.2516 41.7024 57.0082 41.1541 58.7964 40.7056C60.5642 40.2367 62.3717 39.8552 64.1761 39.5887C65.0783 39.4382 65.9795 39.3385 66.898 39.2388C67.7992 39.1402 68.7218 39.0883 69.6392 39.0568C71.4589 38.9886 73.299 39.0212 75.1339 39.1554C75.4675 39.1717 75.7543 38.9378 75.7696 38.6031C75.7859 38.3061 75.5713 38.0396 75.2855 37.9715C73.4139 37.6378 71.5108 37.4873 69.623 37.4873C68.6699 37.4873 67.7158 37.5229 66.7668 37.6063C66.2979 37.6378 65.8127 37.706 65.3438 37.7375C64.8749 37.7894 64.41 37.8565 63.9259 37.9206C62.9881 38.0711 62.0543 38.2542 61.1328 38.4566C60.2143 38.6713 59.2968 38.9052 58.3946 39.188C56.5708 39.7403 54.803 40.3872 53.0983 41.1704C52.7962 41.3057 52.6619 41.6546 52.7962 41.9526C52.8959 42.2547 53.2142 42.3859 53.5 42.2872Z" fill="#31133D"/>
<path d="M32.0604 53.5705C32.5801 53.4515 33.0653 53.2888 33.5301 53.0864C33.9991 52.887 34.4517 52.6693 34.9013 52.4191C35.3376 52.1882 35.7709 51.9217 36.188 51.6359C36.605 51.3542 37.0068 51.0521 37.3923 50.7225C37.6425 50.5038 37.6588 50.1224 37.4401 49.8722C37.2733 49.6891 37.0068 49.6219 36.7881 49.7054C36.3039 49.8722 35.8544 50.0705 35.421 50.2892C34.9684 50.5038 34.5351 50.7225 34.1181 50.9727C33.6807 51.2026 33.2636 51.4528 32.8466 51.703C32.4296 51.9532 32.0278 52.2045 31.6271 52.4863H31.6108C31.3453 52.6887 31.2772 53.0549 31.4603 53.3366C31.5752 53.5197 31.8254 53.6183 32.0604 53.5705Z" fill="#31133D"/>
<path d="M40.1817 58.085C40.2651 58.085 40.3485 58.0688 40.432 58.0372C40.7656 57.9019 40.9324 57.5053 40.8012 57.1706L36.6736 47.1862C36.5902 46.9716 36.6736 46.7377 36.8088 46.6695L51.3948 39.5057C51.4416 39.4905 51.4935 39.4701 51.5454 39.5057C51.6288 39.5372 51.6918 39.6054 51.7285 39.7051L55.9558 49.9356C56.087 50.2692 56.4877 50.436 56.8214 50.3048C57.1591 50.1705 57.3269 49.7729 57.1916 49.4392L52.9633 39.2036C52.7812 38.7713 52.4476 38.4214 52.0102 38.2699C51.6084 38.1234 51.1762 38.1386 50.81 38.338L36.2403 45.5059C35.454 45.8873 35.1041 46.8719 35.454 47.7223L39.5623 57.6873C39.665 57.9376 39.9152 58.085 40.1817 58.085Z" fill="#31133D"/>
<path d="M27.2833 81.8526C26.8978 81.8689 26.4452 81.8689 26.0281 81.8689C25.5948 81.8689 25.1778 81.8526 24.7404 81.8322C23.8901 81.8007 23.0408 81.7173 22.1863 81.6186C20.4979 81.3999 18.8287 81.0338 17.2074 80.4855C15.6023 79.9495 14.0491 79.2344 12.6149 78.3525C11.1757 77.4666 9.85743 76.4017 8.73649 75.1495C7.6156 73.9178 6.69814 72.5039 6.04615 70.9853C5.72879 70.2194 5.46229 69.4362 5.29548 68.6174C5.19276 68.2207 5.12867 67.8036 5.0768 67.4019C5.04526 67.2035 5.02594 66.9848 5.00965 66.7865C4.99338 66.5871 4.97811 66.401 4.99338 66.2342C5.00965 65.8843 5.09306 65.6015 5.22836 65.4194C5.29548 65.336 5.37889 65.2526 5.49484 65.2007C5.61384 65.1367 5.74507 65.0858 5.89559 65.0533C6.21397 64.9861 6.59844 64.9698 6.97988 64.9861C7.18331 65.0024 7.36538 65.0177 7.58407 65.0533L8.23606 65.1367C9.98761 65.336 11.7605 65.451 13.5161 65.5181C17.0406 65.6178 20.6006 65.451 24.0894 64.9342C27.6017 64.4175 31.0579 63.5519 34.384 62.2205C35.2028 61.8869 36.0207 61.5176 36.8232 61.1362C37.2249 60.9379 37.6257 60.7344 38.0071 60.5198L39.1636 59.8841C40.6975 59.0541 42.2192 58.22 43.7571 57.4053C46.832 55.7677 49.9394 54.2185 53.0976 52.82C56.2528 51.4214 59.4945 50.1855 62.8043 49.204C66.1142 48.2194 69.4881 47.488 72.8965 47.1025C76.306 46.7211 79.7623 46.6896 83.1718 47.071C86.5803 47.4362 89.9379 48.2031 93.1959 49.3199C94.8172 49.8722 96.4223 50.5354 97.9602 51.2545C99.4778 51.9859 100.968 52.8718 102.354 53.8534C103.054 54.3376 103.741 54.8542 104.393 55.4025C105.045 55.9548 105.66 56.5193 106.212 57.1195C106.479 57.4205 106.729 57.7348 106.915 58.0532C107.015 58.2037 107.083 58.3543 107.115 58.4855C107.13 58.5221 107.13 58.5374 107.13 58.5689V58.6015C107.13 58.6208 107.13 58.6523 107.13 58.6686C107.13 58.752 107.146 58.8517 107.146 58.9544C107.146 59.702 106.963 60.5046 106.698 61.2512C106.145 62.7688 105.176 64.1673 104.023 65.3879C103.455 66.0033 102.819 66.5515 102.167 67.0835C101.516 67.6206 100.816 68.1006 100.097 68.5696C97.2248 70.4015 93.9984 71.7166 90.7089 72.7338C90.3905 72.8335 90.2237 73.1671 90.3234 73.4845C90.4231 73.8028 90.7567 73.9697 91.0588 73.8862C94.4317 72.8691 97.7578 71.5702 100.797 69.6701C101.552 69.186 102.302 68.6855 103.006 68.1373C103.705 67.585 104.393 66.9848 105.024 66.3369C106.28 65.0339 107.365 63.5204 108.032 61.7679C108.366 60.9012 108.584 59.9675 108.601 58.9707C108.601 58.8517 108.601 58.7204 108.584 58.5852C108.584 58.5537 108.584 58.5374 108.584 58.4855C108.584 58.4377 108.568 58.4021 108.568 58.3543C108.553 58.2709 108.533 58.1875 108.517 58.1204C108.434 57.8182 108.303 57.5884 108.184 57.3534C107.917 56.9201 107.631 56.555 107.313 56.205C106.698 55.5022 106.029 54.9021 105.343 54.3223C104.659 53.7374 103.94 53.2055 103.221 52.6888C101.766 51.6523 100.249 50.7378 98.6274 49.9353C97.0061 49.1724 95.3858 48.4889 93.7126 47.9051C90.3712 46.7211 86.8824 45.9023 83.3539 45.5209C79.8305 45.1201 76.2542 45.1557 72.7297 45.5371C69.2012 45.9226 65.7287 46.6692 62.3354 47.6711C58.9422 48.672 55.6527 49.9353 52.4263 51.3542C49.204 52.7681 46.0772 54.3538 42.9902 56.0026C41.4522 56.8215 39.9143 57.6718 38.3774 58.5018L37.2402 59.1375C36.871 59.3358 36.4896 59.5352 36.104 59.7214C35.3371 60.1028 34.5671 60.4364 33.7636 60.77C30.589 62.0537 27.2477 62.904 23.8585 63.4004C20.4653 63.9171 17.005 64.1043 13.5476 64.0208C11.8276 63.969 10.1076 63.8693 8.38662 63.6872L7.75091 63.6191C7.53218 63.5875 7.28198 63.5672 7.04803 63.5519C6.56285 63.5204 6.06241 63.5357 5.53044 63.6506C5.25988 63.7188 4.97811 63.8184 4.70756 63.969C4.44107 64.1195 4.19085 64.3341 3.99249 64.6006C3.80535 64.8712 3.67413 65.1529 3.59072 65.4347C3.50732 65.7175 3.47171 65.987 3.47171 66.2535C3.45646 66.5037 3.47171 66.7702 3.50732 67.0001C3.5236 67.2351 3.55513 67.4537 3.59072 67.6836C3.65889 68.1373 3.72195 68.5858 3.84196 69.0344C4.04032 69.9366 4.34242 70.8032 4.69129 71.6332C5.41043 73.3176 6.44792 74.8515 7.66748 76.183C8.90333 77.5175 10.3416 78.6506 11.8755 79.5843C13.4134 80.5181 15.0703 81.2525 16.7741 81.8007C18.4788 82.3489 20.2313 82.7192 22.0032 82.9338C22.8892 83.0325 23.7751 83.1006 24.657 83.1322C25.1107 83.1515 25.5429 83.1515 25.9966 83.1515C26.4452 83.1515 26.8663 83.1322 27.3473 83.1159C27.6851 83.1006 27.9353 82.8179 27.9149 82.5005C27.8997 82.1821 27.6332 81.9166 27.2996 81.9319L27.2833 81.8526Z" fill="#222E6A"/>
<path d="M28.7548 63.6193C28.9053 63.4373 29.0202 63.2857 29.1556 63.1189C29.2715 62.9521 29.3905 62.7853 29.5054 62.6184C29.6204 62.4516 29.7241 62.2686 29.8391 62.1018L30.1412 61.5698C30.543 60.8537 30.8766 60.1193 31.1746 59.3687C31.3089 58.9872 31.4757 58.621 31.5957 58.2355L31.7778 57.6517C31.8459 57.4533 31.8775 57.2703 31.9446 57.0719C31.9965 56.8695 32.0443 56.6864 32.0961 56.4881L32.2273 55.888C32.3301 55.4862 32.3779 55.0854 32.4461 54.704C32.5132 54.3022 32.5447 53.9045 32.5966 53.5037C32.6485 53.102 32.68 52.7053 32.6962 52.3035C32.7319 51.505 32.7319 50.6862 32.68 49.8878C32.5803 48.2868 32.3464 46.6898 31.9293 45.156C31.8459 44.8376 31.5123 44.6555 31.1939 44.7389C30.8918 44.8223 30.7098 45.1041 30.7565 45.3858C30.96 46.9044 31.0912 48.422 31.1268 49.9356C31.142 51.4532 31.0434 52.9708 30.8084 54.4538C30.5897 55.9358 30.2246 57.4055 29.7394 58.8357C29.4892 59.5355 29.2034 60.2546 28.886 60.9178L28.3846 61.9186C28.3011 62.0855 28.2025 62.2523 28.1191 62.4038C28.0357 62.5544 27.9156 62.7181 27.8322 62.8524L27.817 62.8849C27.6339 63.1708 27.7173 63.5359 28.0001 63.7027C28.234 63.9021 28.5514 63.8543 28.7548 63.6193Z" fill="#222E6A"/>
<path d="M24.6781 95.6992C21.3845 100.682 16.2906 103.547 15.0029 106.463C13.5168 109.833 15.6864 113.146 20.3989 113.647C24.4279 114.08 31.8104 111.648 38.6599 102.815" fill="white"/>
<path d="M24.1771 95.3658C23.0725 96.9312 21.7695 98.3501 20.3505 99.6805C19.6477 100.349 18.9123 101 18.1932 101.667C17.4578 102.331 16.7234 102.998 16.0043 103.734C15.6543 104.099 15.3044 104.501 14.9871 104.933C14.8193 105.148 14.6687 105.383 14.5334 105.617L14.4348 105.8L14.3351 105.998C14.268 106.133 14.2161 106.248 14.1683 106.384C13.7472 107.417 13.5997 108.617 13.8662 109.765C14.0015 110.333 14.2313 110.881 14.5497 111.367C14.8671 111.847 15.2526 112.28 15.6859 112.649C16.5566 113.381 17.5737 113.849 18.6102 114.148C19.131 114.298 19.663 114.398 20.1796 114.45C20.7157 114.513 21.268 114.533 21.7847 114.497C22.3208 114.481 22.8375 114.414 23.3542 114.331C23.875 114.247 24.3754 114.131 24.8759 113.997C26.8827 113.449 28.738 112.547 30.458 111.465C32.179 110.381 33.7485 109.097 35.203 107.699C35.9222 107 36.6047 106.265 37.2567 105.498C37.9087 104.747 38.5281 103.949 39.1282 103.15C39.3306 102.884 39.2635 102.514 39.0133 102.315C38.7631 102.133 38.3928 102.164 38.1945 102.415C37.575 103.165 36.9393 103.901 36.2873 104.616C35.62 105.315 34.9365 105.998 34.2327 106.65C32.8147 107.949 31.2931 109.133 29.6555 110.115C28.0189 111.1 26.2785 111.915 24.4751 112.38C24.0255 112.499 23.5729 112.598 23.104 112.682C22.6554 112.765 22.1865 112.816 21.7369 112.832C21.2843 112.849 20.8317 112.832 20.3984 112.78C19.9488 112.733 19.4961 112.649 19.0791 112.515C18.2247 112.28 17.4059 111.899 16.7742 111.367C16.4569 111.1 16.1711 110.782 15.9565 110.448C15.7378 110.115 15.5862 109.733 15.4875 109.348C15.3044 108.581 15.3685 107.73 15.6859 106.932C15.9717 106.165 16.5403 105.45 17.176 104.747C17.8077 104.047 18.5268 103.384 19.2296 102.717C19.9488 102.048 20.6648 101.366 21.3677 100.65C22.7704 99.2319 24.1089 97.6981 25.1942 95.9822C25.361 95.6994 25.2776 95.3342 25.0112 95.1674C24.7091 95.0321 24.3592 95.1155 24.1771 95.3658Z" fill="#222E6A"/>
<path d="M36.4385 90.5817C36.4385 90.896 36.5656 91.198 36.824 91.4879C37.0783 91.7778 37.4445 92.0362 37.9174 92.2549C38.3894 92.4766 38.9346 92.6475 39.554 92.7706C40.1735 92.8906 40.8173 92.9496 41.4846 92.9496C42.1529 92.9496 42.7957 92.8906 43.4162 92.7706C44.0356 92.6475 44.5798 92.4766 45.0528 92.2549C45.5257 92.0362 45.8909 91.7778 46.1452 91.4879C46.4036 91.198 46.5307 90.896 46.5307 90.5817C46.5307 90.2674 46.4036 89.9663 46.1452 89.6754C45.8909 89.3855 45.5257 89.1312 45.0528 88.9095C44.5798 88.6867 44.0356 88.5158 43.4162 88.3968C42.7957 88.2768 42.1529 88.2178 41.4846 88.2178C40.8173 88.2178 40.1735 88.2768 39.554 88.3968C38.9346 88.5158 38.3894 88.6867 37.9174 88.9095C37.4445 89.1312 37.0783 89.3855 36.824 89.6754C36.5656 89.9663 36.4385 90.2674 36.4385 90.5817Z" fill="#FF8856"/>
<path d="M78.7451 88.0509C78.7451 88.3571 78.853 88.6511 79.0676 88.9369C79.2852 89.2187 79.5914 89.4689 79.9931 89.6876C80.3899 89.9062 80.8506 90.0731 81.3755 90.188C81.8963 90.308 82.4404 90.367 83.005 90.367C83.5685 90.367 84.1126 90.308 84.6335 90.188C85.1583 90.0731 85.619 89.9062 86.0168 89.6876C86.4175 89.4689 86.7237 89.2187 86.9424 88.9369C87.157 88.6511 87.2638 88.3571 87.2638 88.0509C87.2638 87.7407 87.157 87.4468 86.9424 87.165C86.7237 86.8782 86.4175 86.628 86.0168 86.4133C85.619 86.1957 85.1583 86.0278 84.6335 85.9088C84.1126 85.7939 83.5685 85.7339 83.005 85.7339C82.4404 85.7339 81.8963 85.7939 81.3755 85.9088C80.8506 86.0278 80.3899 86.1957 79.9931 86.4133C79.5914 86.628 79.2852 86.8782 79.0676 87.165C78.853 87.4468 78.7451 87.7407 78.7451 88.0509Z" fill="#FF8856"/>
<circle cx="161" cy="36" r="36" fill="#F25510"/>
<path d="M156.335 42.971L150.743 37.176C150.442 36.8637 150.033 36.6883 149.607 36.6883C149.181 36.6883 148.772 36.8637 148.471 37.176C148.169 37.4882 148 37.9117 148 38.3533C148 38.572 148.042 38.7885 148.122 38.9905C148.203 39.1926 148.321 39.3761 148.471 39.5307L155.207 46.5115C155.835 47.1628 156.851 47.1628 157.479 46.5115L174.529 28.8424C174.831 28.5302 175 28.1067 175 27.6651C175 27.2235 174.831 26.7999 174.529 26.4877C174.228 26.1754 173.819 26 173.393 26C172.967 26 172.558 26.1754 172.257 26.4877L156.335 42.971Z" fill="white"/>
</svg>
