<svg width="20" height="17" viewBox="0 0 20 17" fill="none" xmlns="http://www.w3.org/2000/svg">
<path d="M17.8262 4.76387C17.8387 4.93888 17.8387 5.11393 17.8387 5.28895C17.8387 10.6271 13.7757 16.7779 6.34971 16.7779C4.06191 16.7779 1.93666 16.1153 0.148926 14.9652C0.473979 15.0027 0.786487 15.0152 1.12405 15.0152C3.01175 15.0152 4.7495 14.3776 6.13718 13.29C4.36195 13.2525 2.87426 12.0898 2.36169 10.4896C2.61174 10.5271 2.86175 10.5521 3.12431 10.5521C3.48685 10.5521 3.84942 10.5021 4.18694 10.4146C2.33671 10.0395 0.948994 8.41434 0.948994 6.45159V6.4016C1.48654 6.70164 2.11167 6.88916 2.77421 6.91413C1.68657 6.18903 0.974007 4.95139 0.974007 3.5512C0.974007 2.80112 1.174 2.11353 1.52406 1.51345C3.51182 3.96376 6.49972 5.56394 9.8501 5.73899C9.78761 5.43895 9.75009 5.12644 9.75009 4.81389C9.75009 2.58859 11.5503 0.775879 13.7881 0.775879C14.9507 0.775879 16.0009 1.26344 16.7385 2.05104C17.6511 1.87603 18.5262 1.53847 19.3013 1.07592C19.0012 2.01356 18.3637 2.80116 17.5261 3.30119C18.3387 3.21372 19.1263 2.98864 19.8514 2.67613C19.3014 3.4762 18.6138 4.18876 17.8262 4.76387Z" fill="#1495C5"/>
</svg>
