<svg width="25" height="25" viewBox="0 0 25 25" fill="none" xmlns="http://www.w3.org/2000/svg">
<path d="M7.1001 21.8063C6.0001 21.8063 5.1001 20.9063 5.1001 19.8063V13.6562C5.1001 12.5562 6.0001 11.6562 7.1001 11.6562H18.1401C19.2401 11.6562 20.1401 12.5562 20.1401 13.6562V19.8063C20.1401 20.9063 19.2401 21.8063 18.1401 21.8063H7.1001Z" stroke="#FE8432" stroke-width="1.5" stroke-linecap="round" stroke-linejoin="round"/>
<path d="M17.0901 11.6565V8.84647C17.0901 6.37647 15.0901 4.37646 12.6201 4.37646C10.1501 4.37646 8.15015 6.37647 8.15015 8.84647V11.6565" stroke="#FE8432" stroke-width="1.5" stroke-linecap="round" stroke-linejoin="round"/>
<path d="M12.6199 16.7266C11.9461 16.7266 11.3999 16.1804 11.3999 15.5066C11.3999 14.8328 11.9461 14.2866 12.6199 14.2866C13.2937 14.2866 13.8399 14.8328 13.8399 15.5066C13.8399 16.1804 13.2937 16.7266 12.6199 16.7266Z" fill="#FE8432"/>
<path d="M12.6201 16.2964V18.2764" stroke="#FE8432" stroke-width="1.5" stroke-linecap="round" stroke-linejoin="round"/>
</svg>
